G04 #@! TF.GenerationSoftware,KiCad,Pcbnew,9.0.4*
G04 #@! TF.CreationDate,2026-02-17T10:58:58-08:00*
G04 #@! TF.ProjectId,e-ink_PCB,652d696e-6b5f-4504-9342-2e6b69636164,rev?*
G04 #@! TF.SameCoordinates,Original*
G04 #@! TF.FileFunction,Soldermask,Bot*
G04 #@! TF.FilePolarity,Negative*
%FSLAX46Y46*%
G04 Gerber Fmt 4.6, Leading zero omitted, Abs format (unit mm)*
G04 Created by KiCad (PCBNEW 9.0.4) date 2026-02-17 10:58:58*
%MOMM*%
%LPD*%
G01*
G04 APERTURE LIST*
G04 Aperture macros list*
%AMRoundRect*
0 Rectangle with rounded corners*
0 $1 Rounding radius*
0 $2 $3 $4 $5 $6 $7 $8 $9 X,Y pos of 4 corners*
0 Add a 4 corners polygon primitive as box body*
4,1,4,$2,$3,$4,$5,$6,$7,$8,$9,$2,$3,0*
0 Add four circle primitives for the rounded corners*
1,1,$1+$1,$2,$3*
1,1,$1+$1,$4,$5*
1,1,$1+$1,$6,$7*
1,1,$1+$1,$8,$9*
0 Add four rect primitives between the rounded corners*
20,1,$1+$1,$2,$3,$4,$5,0*
20,1,$1+$1,$4,$5,$6,$7,0*
20,1,$1+$1,$6,$7,$8,$9,0*
20,1,$1+$1,$8,$9,$2,$3,0*%
G04 Aperture macros list end*
%ADD10C,2.000000*%
%ADD11R,2.000000X2.000000*%
%ADD12C,2.101600*%
%ADD13RoundRect,0.300400X1.000400X0.300400X-1.000400X0.300400X-1.000400X-0.300400X1.000400X-0.300400X0*%
%ADD14C,1.700000*%
%ADD15R,1.700000X1.700000*%
%ADD16RoundRect,0.250000X0.550000X0.550000X-0.550000X0.550000X-0.550000X-0.550000X0.550000X-0.550000X0*%
%ADD17C,1.600000*%
%ADD18R,2.000000X1.905000*%
%ADD19O,2.000000X1.905000*%
G04 APERTURE END LIST*
D10*
G04 #@! TO.C,J5*
X146320000Y-117160000D03*
D11*
X146320000Y-119660000D03*
G04 #@! TD*
D12*
G04 #@! TO.C,J1*
X95090000Y-96330000D03*
X95090000Y-98870000D03*
X110090000Y-101410000D03*
X95190000Y-101410000D03*
X95190000Y-103950000D03*
X110090000Y-96330000D03*
X95190000Y-106490000D03*
X95190000Y-109010000D03*
X110090000Y-109030000D03*
X110090000Y-106490000D03*
X110090000Y-103950000D03*
X110090000Y-111570000D03*
X95190000Y-111570000D03*
D13*
X98990000Y-106510000D03*
X98990000Y-98810000D03*
D12*
X110090000Y-98870000D03*
G04 #@! TD*
D14*
G04 #@! TO.C,J3*
X118055000Y-99870000D03*
X118055000Y-102410000D03*
X118055000Y-104950000D03*
D15*
X118055000Y-97330000D03*
G04 #@! TD*
D16*
G04 #@! TO.C,J4*
X141732651Y-98750000D03*
D17*
X136732651Y-98750000D03*
G04 #@! TD*
D18*
G04 #@! TO.C,Q1*
X117770000Y-115210000D03*
D19*
X117770000Y-117750000D03*
X117770000Y-120290000D03*
G04 #@! TD*
D14*
G04 #@! TO.C,J2*
X76500000Y-119780000D03*
X76500000Y-117240000D03*
X76500000Y-114700000D03*
D15*
X76500000Y-102000000D03*
D14*
X76500000Y-112160000D03*
X76500000Y-107080000D03*
X76500000Y-109620000D03*
X76500000Y-104540000D03*
G04 #@! TD*
D17*
G04 #@! TO.C,R3*
X117720000Y-109920000D03*
X127880000Y-109920000D03*
G04 #@! TD*
D10*
G04 #@! TO.C,C1*
X83870000Y-95790000D03*
X83870000Y-100790000D03*
G04 #@! TD*
D17*
G04 #@! TO.C,R1*
X97930000Y-117510000D03*
X108090000Y-117510000D03*
G04 #@! TD*
G04 #@! TO.C,R2*
X108210000Y-121810000D03*
X98050000Y-121810000D03*
G04 #@! TD*
M02*
