G04 #@! TF.GenerationSoftware,KiCad,Pcbnew,9.0.4*
G04 #@! TF.CreationDate,2026-03-10T08:15:31-07:00*
G04 #@! TF.ProjectId,e-ink_PCB,652d696e-6b5f-4504-9342-2e6b69636164,rev?*
G04 #@! TF.SameCoordinates,Original*
G04 #@! TF.FileFunction,Legend,Top*
G04 #@! TF.FilePolarity,Positive*
%FSLAX46Y46*%
G04 Gerber Fmt 4.6, Leading zero omitted, Abs format (unit mm)*
G04 Created by KiCad (PCBNEW 9.0.4) date 2026-03-10 08:15:31*
%MOMM*%
%LPD*%
G01*
G04 APERTURE LIST*
%ADD10C,0.150000*%
%ADD11C,0.381000*%
%ADD12C,0.330200*%
%ADD13C,0.152400*%
%ADD14C,0.100000*%
%ADD15C,0.120000*%
%ADD16C,0.127000*%
%ADD17C,0.504000*%
G04 APERTURE END LIST*
D10*
X85407619Y-121394819D02*
X85407619Y-120394819D01*
X85407619Y-120394819D02*
X85645714Y-120394819D01*
X85645714Y-120394819D02*
X85788571Y-120442438D01*
X85788571Y-120442438D02*
X85883809Y-120537676D01*
X85883809Y-120537676D02*
X85931428Y-120632914D01*
X85931428Y-120632914D02*
X85979047Y-120823390D01*
X85979047Y-120823390D02*
X85979047Y-120966247D01*
X85979047Y-120966247D02*
X85931428Y-121156723D01*
X85931428Y-121156723D02*
X85883809Y-121251961D01*
X85883809Y-121251961D02*
X85788571Y-121347200D01*
X85788571Y-121347200D02*
X85645714Y-121394819D01*
X85645714Y-121394819D02*
X85407619Y-121394819D01*
X86407619Y-121394819D02*
X86407619Y-120728152D01*
X86407619Y-120394819D02*
X86360000Y-120442438D01*
X86360000Y-120442438D02*
X86407619Y-120490057D01*
X86407619Y-120490057D02*
X86455238Y-120442438D01*
X86455238Y-120442438D02*
X86407619Y-120394819D01*
X86407619Y-120394819D02*
X86407619Y-120490057D01*
X86836190Y-121347200D02*
X86931428Y-121394819D01*
X86931428Y-121394819D02*
X87121904Y-121394819D01*
X87121904Y-121394819D02*
X87217142Y-121347200D01*
X87217142Y-121347200D02*
X87264761Y-121251961D01*
X87264761Y-121251961D02*
X87264761Y-121204342D01*
X87264761Y-121204342D02*
X87217142Y-121109104D01*
X87217142Y-121109104D02*
X87121904Y-121061485D01*
X87121904Y-121061485D02*
X86979047Y-121061485D01*
X86979047Y-121061485D02*
X86883809Y-121013866D01*
X86883809Y-121013866D02*
X86836190Y-120918628D01*
X86836190Y-120918628D02*
X86836190Y-120871009D01*
X86836190Y-120871009D02*
X86883809Y-120775771D01*
X86883809Y-120775771D02*
X86979047Y-120728152D01*
X86979047Y-120728152D02*
X87121904Y-120728152D01*
X87121904Y-120728152D02*
X87217142Y-120775771D01*
X87693333Y-120728152D02*
X87693333Y-121728152D01*
X87693333Y-120775771D02*
X87788571Y-120728152D01*
X87788571Y-120728152D02*
X87979047Y-120728152D01*
X87979047Y-120728152D02*
X88074285Y-120775771D01*
X88074285Y-120775771D02*
X88121904Y-120823390D01*
X88121904Y-120823390D02*
X88169523Y-120918628D01*
X88169523Y-120918628D02*
X88169523Y-121204342D01*
X88169523Y-121204342D02*
X88121904Y-121299580D01*
X88121904Y-121299580D02*
X88074285Y-121347200D01*
X88074285Y-121347200D02*
X87979047Y-121394819D01*
X87979047Y-121394819D02*
X87788571Y-121394819D01*
X87788571Y-121394819D02*
X87693333Y-121347200D01*
X88740952Y-121394819D02*
X88645714Y-121347200D01*
X88645714Y-121347200D02*
X88598095Y-121251961D01*
X88598095Y-121251961D02*
X88598095Y-120394819D01*
X89550476Y-121394819D02*
X89550476Y-120871009D01*
X89550476Y-120871009D02*
X89502857Y-120775771D01*
X89502857Y-120775771D02*
X89407619Y-120728152D01*
X89407619Y-120728152D02*
X89217143Y-120728152D01*
X89217143Y-120728152D02*
X89121905Y-120775771D01*
X89550476Y-121347200D02*
X89455238Y-121394819D01*
X89455238Y-121394819D02*
X89217143Y-121394819D01*
X89217143Y-121394819D02*
X89121905Y-121347200D01*
X89121905Y-121347200D02*
X89074286Y-121251961D01*
X89074286Y-121251961D02*
X89074286Y-121156723D01*
X89074286Y-121156723D02*
X89121905Y-121061485D01*
X89121905Y-121061485D02*
X89217143Y-121013866D01*
X89217143Y-121013866D02*
X89455238Y-121013866D01*
X89455238Y-121013866D02*
X89550476Y-120966247D01*
X89931429Y-120728152D02*
X90169524Y-121394819D01*
X90407619Y-120728152D02*
X90169524Y-121394819D01*
X90169524Y-121394819D02*
X90074286Y-121632914D01*
X90074286Y-121632914D02*
X90026667Y-121680533D01*
X90026667Y-121680533D02*
X89931429Y-121728152D01*
D11*
X119163514Y-95193679D02*
X119163514Y-93669679D01*
X119163514Y-93669679D02*
X119526371Y-93669679D01*
X119526371Y-93669679D02*
X119744085Y-93742250D01*
X119744085Y-93742250D02*
X119889228Y-93887393D01*
X119889228Y-93887393D02*
X119961799Y-94032536D01*
X119961799Y-94032536D02*
X120034371Y-94322822D01*
X120034371Y-94322822D02*
X120034371Y-94540536D01*
X120034371Y-94540536D02*
X119961799Y-94830822D01*
X119961799Y-94830822D02*
X119889228Y-94975965D01*
X119889228Y-94975965D02*
X119744085Y-95121108D01*
X119744085Y-95121108D02*
X119526371Y-95193679D01*
X119526371Y-95193679D02*
X119163514Y-95193679D01*
X120687514Y-94395393D02*
X121195514Y-94395393D01*
X121413228Y-95193679D02*
X120687514Y-95193679D01*
X120687514Y-95193679D02*
X120687514Y-93669679D01*
X120687514Y-93669679D02*
X121413228Y-93669679D01*
X122066371Y-95193679D02*
X122066371Y-93669679D01*
X122066371Y-93669679D02*
X122937228Y-95193679D01*
X122937228Y-95193679D02*
X122937228Y-93669679D01*
X123445227Y-93669679D02*
X124316085Y-93669679D01*
X123880656Y-95193679D02*
X123880656Y-93669679D01*
X125114370Y-93669679D02*
X125404656Y-93669679D01*
X125404656Y-93669679D02*
X125549799Y-93742250D01*
X125549799Y-93742250D02*
X125694942Y-93887393D01*
X125694942Y-93887393D02*
X125767513Y-94177679D01*
X125767513Y-94177679D02*
X125767513Y-94685679D01*
X125767513Y-94685679D02*
X125694942Y-94975965D01*
X125694942Y-94975965D02*
X125549799Y-95121108D01*
X125549799Y-95121108D02*
X125404656Y-95193679D01*
X125404656Y-95193679D02*
X125114370Y-95193679D01*
X125114370Y-95193679D02*
X124969228Y-95121108D01*
X124969228Y-95121108D02*
X124824085Y-94975965D01*
X124824085Y-94975965D02*
X124751513Y-94685679D01*
X124751513Y-94685679D02*
X124751513Y-94177679D01*
X124751513Y-94177679D02*
X124824085Y-93887393D01*
X124824085Y-93887393D02*
X124969228Y-93742250D01*
X124969228Y-93742250D02*
X125114370Y-93669679D01*
X126420656Y-95193679D02*
X126420656Y-93669679D01*
X126420656Y-93669679D02*
X127291513Y-95193679D01*
X127291513Y-95193679D02*
X127291513Y-93669679D01*
X128017227Y-95048536D02*
X128089798Y-95121108D01*
X128089798Y-95121108D02*
X128017227Y-95193679D01*
X128017227Y-95193679D02*
X127944655Y-95121108D01*
X127944655Y-95121108D02*
X128017227Y-95048536D01*
X128017227Y-95048536D02*
X128017227Y-95193679D01*
X128597798Y-93669679D02*
X128960655Y-95193679D01*
X128960655Y-95193679D02*
X129250941Y-94105108D01*
X129250941Y-94105108D02*
X129541226Y-95193679D01*
X129541226Y-95193679D02*
X129904084Y-93669679D01*
X130774940Y-93669679D02*
X131065226Y-93669679D01*
X131065226Y-93669679D02*
X131210369Y-93742250D01*
X131210369Y-93742250D02*
X131355512Y-93887393D01*
X131355512Y-93887393D02*
X131428083Y-94177679D01*
X131428083Y-94177679D02*
X131428083Y-94685679D01*
X131428083Y-94685679D02*
X131355512Y-94975965D01*
X131355512Y-94975965D02*
X131210369Y-95121108D01*
X131210369Y-95121108D02*
X131065226Y-95193679D01*
X131065226Y-95193679D02*
X130774940Y-95193679D01*
X130774940Y-95193679D02*
X130629798Y-95121108D01*
X130629798Y-95121108D02*
X130484655Y-94975965D01*
X130484655Y-94975965D02*
X130412083Y-94685679D01*
X130412083Y-94685679D02*
X130412083Y-94177679D01*
X130412083Y-94177679D02*
X130484655Y-93887393D01*
X130484655Y-93887393D02*
X130629798Y-93742250D01*
X130629798Y-93742250D02*
X130774940Y-93669679D01*
X132952083Y-95193679D02*
X132444083Y-94467965D01*
X132081226Y-95193679D02*
X132081226Y-93669679D01*
X132081226Y-93669679D02*
X132661797Y-93669679D01*
X132661797Y-93669679D02*
X132806940Y-93742250D01*
X132806940Y-93742250D02*
X132879511Y-93814822D01*
X132879511Y-93814822D02*
X132952083Y-93959965D01*
X132952083Y-93959965D02*
X132952083Y-94177679D01*
X132952083Y-94177679D02*
X132879511Y-94322822D01*
X132879511Y-94322822D02*
X132806940Y-94395393D01*
X132806940Y-94395393D02*
X132661797Y-94467965D01*
X132661797Y-94467965D02*
X132081226Y-94467965D01*
X133605226Y-95193679D02*
X133605226Y-93669679D01*
X134476083Y-95193679D02*
X133822940Y-94322822D01*
X134476083Y-93669679D02*
X133605226Y-94540536D01*
X135056654Y-95121108D02*
X135274369Y-95193679D01*
X135274369Y-95193679D02*
X135637226Y-95193679D01*
X135637226Y-95193679D02*
X135782369Y-95121108D01*
X135782369Y-95121108D02*
X135854940Y-95048536D01*
X135854940Y-95048536D02*
X135927511Y-94903393D01*
X135927511Y-94903393D02*
X135927511Y-94758250D01*
X135927511Y-94758250D02*
X135854940Y-94613108D01*
X135854940Y-94613108D02*
X135782369Y-94540536D01*
X135782369Y-94540536D02*
X135637226Y-94467965D01*
X135637226Y-94467965D02*
X135346940Y-94395393D01*
X135346940Y-94395393D02*
X135201797Y-94322822D01*
X135201797Y-94322822D02*
X135129226Y-94250250D01*
X135129226Y-94250250D02*
X135056654Y-94105108D01*
X135056654Y-94105108D02*
X135056654Y-93959965D01*
X135056654Y-93959965D02*
X135129226Y-93814822D01*
X135129226Y-93814822D02*
X135201797Y-93742250D01*
X135201797Y-93742250D02*
X135346940Y-93669679D01*
X135346940Y-93669679D02*
X135709797Y-93669679D01*
X135709797Y-93669679D02*
X135927511Y-93742250D01*
X137669226Y-93597108D02*
X136362940Y-95556536D01*
X138177226Y-94395393D02*
X138685226Y-94395393D01*
X138902940Y-95193679D02*
X138177226Y-95193679D01*
X138177226Y-95193679D02*
X138177226Y-93669679D01*
X138177226Y-93669679D02*
X138902940Y-93669679D01*
X139556083Y-94613108D02*
X140717226Y-94613108D01*
X141442940Y-95193679D02*
X141442940Y-93669679D01*
X142168654Y-95193679D02*
X142168654Y-93669679D01*
X142168654Y-93669679D02*
X143039511Y-95193679D01*
X143039511Y-95193679D02*
X143039511Y-93669679D01*
X143765225Y-95193679D02*
X143765225Y-93669679D01*
X144636082Y-95193679D02*
X143982939Y-94322822D01*
X144636082Y-93669679D02*
X143765225Y-94540536D01*
D12*
X141020331Y-119941826D02*
X142278236Y-119941826D01*
X141649283Y-120570779D02*
X141649283Y-119312874D01*
X141638173Y-108710331D02*
X141638173Y-109968236D01*
D10*
X136022200Y-104492856D02*
X136069819Y-104349999D01*
X136069819Y-104349999D02*
X136069819Y-104111904D01*
X136069819Y-104111904D02*
X136022200Y-104016666D01*
X136022200Y-104016666D02*
X135974580Y-103969047D01*
X135974580Y-103969047D02*
X135879342Y-103921428D01*
X135879342Y-103921428D02*
X135784104Y-103921428D01*
X135784104Y-103921428D02*
X135688866Y-103969047D01*
X135688866Y-103969047D02*
X135641247Y-104016666D01*
X135641247Y-104016666D02*
X135593628Y-104111904D01*
X135593628Y-104111904D02*
X135546009Y-104302380D01*
X135546009Y-104302380D02*
X135498390Y-104397618D01*
X135498390Y-104397618D02*
X135450771Y-104445237D01*
X135450771Y-104445237D02*
X135355533Y-104492856D01*
X135355533Y-104492856D02*
X135260295Y-104492856D01*
X135260295Y-104492856D02*
X135165057Y-104445237D01*
X135165057Y-104445237D02*
X135117438Y-104397618D01*
X135117438Y-104397618D02*
X135069819Y-104302380D01*
X135069819Y-104302380D02*
X135069819Y-104064285D01*
X135069819Y-104064285D02*
X135117438Y-103921428D01*
X136069819Y-103492856D02*
X135069819Y-103492856D01*
X135546009Y-103492856D02*
X135546009Y-102921428D01*
X136069819Y-102921428D02*
X135069819Y-102921428D01*
X135069819Y-102588094D02*
X135069819Y-102016666D01*
X136069819Y-102302380D02*
X135069819Y-102302380D01*
X135069819Y-101778570D02*
X135069819Y-101159523D01*
X135069819Y-101159523D02*
X135450771Y-101492856D01*
X135450771Y-101492856D02*
X135450771Y-101349999D01*
X135450771Y-101349999D02*
X135498390Y-101254761D01*
X135498390Y-101254761D02*
X135546009Y-101207142D01*
X135546009Y-101207142D02*
X135641247Y-101159523D01*
X135641247Y-101159523D02*
X135879342Y-101159523D01*
X135879342Y-101159523D02*
X135974580Y-101207142D01*
X135974580Y-101207142D02*
X136022200Y-101254761D01*
X136022200Y-101254761D02*
X136069819Y-101349999D01*
X136069819Y-101349999D02*
X136069819Y-101635713D01*
X136069819Y-101635713D02*
X136022200Y-101730951D01*
X136022200Y-101730951D02*
X135974580Y-101778570D01*
X136069819Y-100207142D02*
X136069819Y-100778570D01*
X136069819Y-100492856D02*
X135069819Y-100492856D01*
X135069819Y-100492856D02*
X135212676Y-100588094D01*
X135212676Y-100588094D02*
X135307914Y-100683332D01*
X135307914Y-100683332D02*
X135355533Y-100778570D01*
X123154819Y-120415237D02*
X122154819Y-120415237D01*
X122154819Y-120415237D02*
X122869104Y-120081904D01*
X122869104Y-120081904D02*
X122154819Y-119748571D01*
X122154819Y-119748571D02*
X123154819Y-119748571D01*
X122154819Y-119081904D02*
X122154819Y-118891428D01*
X122154819Y-118891428D02*
X122202438Y-118796190D01*
X122202438Y-118796190D02*
X122297676Y-118700952D01*
X122297676Y-118700952D02*
X122488152Y-118653333D01*
X122488152Y-118653333D02*
X122821485Y-118653333D01*
X122821485Y-118653333D02*
X123011961Y-118700952D01*
X123011961Y-118700952D02*
X123107200Y-118796190D01*
X123107200Y-118796190D02*
X123154819Y-118891428D01*
X123154819Y-118891428D02*
X123154819Y-119081904D01*
X123154819Y-119081904D02*
X123107200Y-119177142D01*
X123107200Y-119177142D02*
X123011961Y-119272380D01*
X123011961Y-119272380D02*
X122821485Y-119319999D01*
X122821485Y-119319999D02*
X122488152Y-119319999D01*
X122488152Y-119319999D02*
X122297676Y-119272380D01*
X122297676Y-119272380D02*
X122202438Y-119177142D01*
X122202438Y-119177142D02*
X122154819Y-119081904D01*
X123107200Y-118272380D02*
X123154819Y-118129523D01*
X123154819Y-118129523D02*
X123154819Y-117891428D01*
X123154819Y-117891428D02*
X123107200Y-117796190D01*
X123107200Y-117796190D02*
X123059580Y-117748571D01*
X123059580Y-117748571D02*
X122964342Y-117700952D01*
X122964342Y-117700952D02*
X122869104Y-117700952D01*
X122869104Y-117700952D02*
X122773866Y-117748571D01*
X122773866Y-117748571D02*
X122726247Y-117796190D01*
X122726247Y-117796190D02*
X122678628Y-117891428D01*
X122678628Y-117891428D02*
X122631009Y-118081904D01*
X122631009Y-118081904D02*
X122583390Y-118177142D01*
X122583390Y-118177142D02*
X122535771Y-118224761D01*
X122535771Y-118224761D02*
X122440533Y-118272380D01*
X122440533Y-118272380D02*
X122345295Y-118272380D01*
X122345295Y-118272380D02*
X122250057Y-118224761D01*
X122250057Y-118224761D02*
X122202438Y-118177142D01*
X122202438Y-118177142D02*
X122154819Y-118081904D01*
X122154819Y-118081904D02*
X122154819Y-117843809D01*
X122154819Y-117843809D02*
X122202438Y-117700952D01*
X122631009Y-116939047D02*
X122631009Y-117272380D01*
X123154819Y-117272380D02*
X122154819Y-117272380D01*
X122154819Y-117272380D02*
X122154819Y-116796190D01*
X122631009Y-116415237D02*
X122631009Y-116081904D01*
X123154819Y-115939047D02*
X123154819Y-116415237D01*
X123154819Y-116415237D02*
X122154819Y-116415237D01*
X122154819Y-116415237D02*
X122154819Y-115939047D01*
X122154819Y-115653332D02*
X122154819Y-115081904D01*
X123154819Y-115367618D02*
X122154819Y-115367618D01*
X115044819Y-102795714D02*
X115044819Y-103367142D01*
X115044819Y-103081428D02*
X114044819Y-103081428D01*
X114044819Y-103081428D02*
X114187676Y-103176666D01*
X114187676Y-103176666D02*
X114282914Y-103271904D01*
X114282914Y-103271904D02*
X114330533Y-103367142D01*
X115044819Y-102367142D02*
X114044819Y-102367142D01*
X114044819Y-102367142D02*
X114759104Y-102033809D01*
X114759104Y-102033809D02*
X114044819Y-101700476D01*
X114044819Y-101700476D02*
X115044819Y-101700476D01*
X115044819Y-117125714D02*
X115044819Y-117697142D01*
X115044819Y-117411428D02*
X114044819Y-117411428D01*
X114044819Y-117411428D02*
X114187676Y-117506666D01*
X114187676Y-117506666D02*
X114282914Y-117601904D01*
X114282914Y-117601904D02*
X114330533Y-117697142D01*
X115044819Y-116697142D02*
X114044819Y-116697142D01*
X114044819Y-116697142D02*
X114759104Y-116363809D01*
X114759104Y-116363809D02*
X114044819Y-116030476D01*
X114044819Y-116030476D02*
X115044819Y-116030476D01*
X129524819Y-119512856D02*
X129524819Y-119417618D01*
X129524819Y-119417618D02*
X129572438Y-119322380D01*
X129572438Y-119322380D02*
X129620057Y-119274761D01*
X129620057Y-119274761D02*
X129715295Y-119227142D01*
X129715295Y-119227142D02*
X129905771Y-119179523D01*
X129905771Y-119179523D02*
X130143866Y-119179523D01*
X130143866Y-119179523D02*
X130334342Y-119227142D01*
X130334342Y-119227142D02*
X130429580Y-119274761D01*
X130429580Y-119274761D02*
X130477200Y-119322380D01*
X130477200Y-119322380D02*
X130524819Y-119417618D01*
X130524819Y-119417618D02*
X130524819Y-119512856D01*
X130524819Y-119512856D02*
X130477200Y-119608094D01*
X130477200Y-119608094D02*
X130429580Y-119655713D01*
X130429580Y-119655713D02*
X130334342Y-119703332D01*
X130334342Y-119703332D02*
X130143866Y-119750951D01*
X130143866Y-119750951D02*
X129905771Y-119750951D01*
X129905771Y-119750951D02*
X129715295Y-119703332D01*
X129715295Y-119703332D02*
X129620057Y-119655713D01*
X129620057Y-119655713D02*
X129572438Y-119608094D01*
X129572438Y-119608094D02*
X129524819Y-119512856D01*
X130429580Y-118750951D02*
X130477200Y-118703332D01*
X130477200Y-118703332D02*
X130524819Y-118750951D01*
X130524819Y-118750951D02*
X130477200Y-118798570D01*
X130477200Y-118798570D02*
X130429580Y-118750951D01*
X130429580Y-118750951D02*
X130524819Y-118750951D01*
X130524819Y-117750952D02*
X130524819Y-118322380D01*
X130524819Y-118036666D02*
X129524819Y-118036666D01*
X129524819Y-118036666D02*
X129667676Y-118131904D01*
X129667676Y-118131904D02*
X129762914Y-118227142D01*
X129762914Y-118227142D02*
X129810533Y-118322380D01*
X129858152Y-116893809D02*
X130524819Y-116893809D01*
X129858152Y-117322380D02*
X130381961Y-117322380D01*
X130381961Y-117322380D02*
X130477200Y-117274761D01*
X130477200Y-117274761D02*
X130524819Y-117179523D01*
X130524819Y-117179523D02*
X130524819Y-117036666D01*
X130524819Y-117036666D02*
X130477200Y-116941428D01*
X130477200Y-116941428D02*
X130429580Y-116893809D01*
X130001009Y-116084285D02*
X130001009Y-116417618D01*
X130524819Y-116417618D02*
X129524819Y-116417618D01*
X129524819Y-116417618D02*
X129524819Y-115941428D01*
X123304819Y-105297737D02*
X122304819Y-105297737D01*
X122304819Y-105297737D02*
X123019104Y-104964404D01*
X123019104Y-104964404D02*
X122304819Y-104631071D01*
X122304819Y-104631071D02*
X123304819Y-104631071D01*
X122304819Y-103964404D02*
X122304819Y-103773928D01*
X122304819Y-103773928D02*
X122352438Y-103678690D01*
X122352438Y-103678690D02*
X122447676Y-103583452D01*
X122447676Y-103583452D02*
X122638152Y-103535833D01*
X122638152Y-103535833D02*
X122971485Y-103535833D01*
X122971485Y-103535833D02*
X123161961Y-103583452D01*
X123161961Y-103583452D02*
X123257200Y-103678690D01*
X123257200Y-103678690D02*
X123304819Y-103773928D01*
X123304819Y-103773928D02*
X123304819Y-103964404D01*
X123304819Y-103964404D02*
X123257200Y-104059642D01*
X123257200Y-104059642D02*
X123161961Y-104154880D01*
X123161961Y-104154880D02*
X122971485Y-104202499D01*
X122971485Y-104202499D02*
X122638152Y-104202499D01*
X122638152Y-104202499D02*
X122447676Y-104154880D01*
X122447676Y-104154880D02*
X122352438Y-104059642D01*
X122352438Y-104059642D02*
X122304819Y-103964404D01*
X123257200Y-103154880D02*
X123304819Y-103012023D01*
X123304819Y-103012023D02*
X123304819Y-102773928D01*
X123304819Y-102773928D02*
X123257200Y-102678690D01*
X123257200Y-102678690D02*
X123209580Y-102631071D01*
X123209580Y-102631071D02*
X123114342Y-102583452D01*
X123114342Y-102583452D02*
X123019104Y-102583452D01*
X123019104Y-102583452D02*
X122923866Y-102631071D01*
X122923866Y-102631071D02*
X122876247Y-102678690D01*
X122876247Y-102678690D02*
X122828628Y-102773928D01*
X122828628Y-102773928D02*
X122781009Y-102964404D01*
X122781009Y-102964404D02*
X122733390Y-103059642D01*
X122733390Y-103059642D02*
X122685771Y-103107261D01*
X122685771Y-103107261D02*
X122590533Y-103154880D01*
X122590533Y-103154880D02*
X122495295Y-103154880D01*
X122495295Y-103154880D02*
X122400057Y-103107261D01*
X122400057Y-103107261D02*
X122352438Y-103059642D01*
X122352438Y-103059642D02*
X122304819Y-102964404D01*
X122304819Y-102964404D02*
X122304819Y-102726309D01*
X122304819Y-102726309D02*
X122352438Y-102583452D01*
X122781009Y-101821547D02*
X122781009Y-102154880D01*
X123304819Y-102154880D02*
X122304819Y-102154880D01*
X122304819Y-102154880D02*
X122304819Y-101678690D01*
X122781009Y-101297737D02*
X122781009Y-100964404D01*
X123304819Y-100821547D02*
X123304819Y-101297737D01*
X123304819Y-101297737D02*
X122304819Y-101297737D01*
X122304819Y-101297737D02*
X122304819Y-100821547D01*
X122304819Y-100535832D02*
X122304819Y-99964404D01*
X123304819Y-100250118D02*
X122304819Y-100250118D01*
D13*
X99935667Y-113311011D02*
X100062667Y-113353344D01*
X100062667Y-113353344D02*
X100274334Y-113353344D01*
X100274334Y-113353344D02*
X100359000Y-113311011D01*
X100359000Y-113311011D02*
X100401334Y-113268677D01*
X100401334Y-113268677D02*
X100443667Y-113184011D01*
X100443667Y-113184011D02*
X100443667Y-113099344D01*
X100443667Y-113099344D02*
X100401334Y-113014677D01*
X100401334Y-113014677D02*
X100359000Y-112972344D01*
X100359000Y-112972344D02*
X100274334Y-112930011D01*
X100274334Y-112930011D02*
X100105000Y-112887677D01*
X100105000Y-112887677D02*
X100020334Y-112845344D01*
X100020334Y-112845344D02*
X99978000Y-112803011D01*
X99978000Y-112803011D02*
X99935667Y-112718344D01*
X99935667Y-112718344D02*
X99935667Y-112633677D01*
X99935667Y-112633677D02*
X99978000Y-112549011D01*
X99978000Y-112549011D02*
X100020334Y-112506677D01*
X100020334Y-112506677D02*
X100105000Y-112464344D01*
X100105000Y-112464344D02*
X100316667Y-112464344D01*
X100316667Y-112464344D02*
X100443667Y-112506677D01*
X100824667Y-112887677D02*
X101121001Y-112887677D01*
X101248001Y-113353344D02*
X100824667Y-113353344D01*
X100824667Y-113353344D02*
X100824667Y-112464344D01*
X100824667Y-112464344D02*
X101248001Y-112464344D01*
X101629000Y-112887677D02*
X101925334Y-112887677D01*
X102052334Y-113353344D02*
X101629000Y-113353344D01*
X101629000Y-113353344D02*
X101629000Y-112464344D01*
X101629000Y-112464344D02*
X102052334Y-112464344D01*
X102433333Y-113353344D02*
X102433333Y-112464344D01*
X102433333Y-112464344D02*
X102645000Y-112464344D01*
X102645000Y-112464344D02*
X102772000Y-112506677D01*
X102772000Y-112506677D02*
X102856667Y-112591344D01*
X102856667Y-112591344D02*
X102899000Y-112676011D01*
X102899000Y-112676011D02*
X102941333Y-112845344D01*
X102941333Y-112845344D02*
X102941333Y-112972344D01*
X102941333Y-112972344D02*
X102899000Y-113141677D01*
X102899000Y-113141677D02*
X102856667Y-113226344D01*
X102856667Y-113226344D02*
X102772000Y-113311011D01*
X102772000Y-113311011D02*
X102645000Y-113353344D01*
X102645000Y-113353344D02*
X102433333Y-113353344D01*
X104507666Y-113268677D02*
X104465333Y-113311011D01*
X104465333Y-113311011D02*
X104338333Y-113353344D01*
X104338333Y-113353344D02*
X104253666Y-113353344D01*
X104253666Y-113353344D02*
X104126666Y-113311011D01*
X104126666Y-113311011D02*
X104042000Y-113226344D01*
X104042000Y-113226344D02*
X103999666Y-113141677D01*
X103999666Y-113141677D02*
X103957333Y-112972344D01*
X103957333Y-112972344D02*
X103957333Y-112845344D01*
X103957333Y-112845344D02*
X103999666Y-112676011D01*
X103999666Y-112676011D02*
X104042000Y-112591344D01*
X104042000Y-112591344D02*
X104126666Y-112506677D01*
X104126666Y-112506677D02*
X104253666Y-112464344D01*
X104253666Y-112464344D02*
X104338333Y-112464344D01*
X104338333Y-112464344D02*
X104465333Y-112506677D01*
X104465333Y-112506677D02*
X104507666Y-112549011D01*
X104804000Y-112464344D02*
X105354333Y-112464344D01*
X105354333Y-112464344D02*
X105058000Y-112803011D01*
X105058000Y-112803011D02*
X105185000Y-112803011D01*
X105185000Y-112803011D02*
X105269666Y-112845344D01*
X105269666Y-112845344D02*
X105312000Y-112887677D01*
X105312000Y-112887677D02*
X105354333Y-112972344D01*
X105354333Y-112972344D02*
X105354333Y-113184011D01*
X105354333Y-113184011D02*
X105312000Y-113268677D01*
X105312000Y-113268677D02*
X105269666Y-113311011D01*
X105269666Y-113311011D02*
X105185000Y-113353344D01*
X105185000Y-113353344D02*
X104931000Y-113353344D01*
X104931000Y-113353344D02*
X104846333Y-113311011D01*
X104846333Y-113311011D02*
X104804000Y-113268677D01*
D14*
X98593884Y-107801466D02*
X99355789Y-107801466D01*
X98974836Y-108182419D02*
X98974836Y-107420514D01*
X98593884Y-100101466D02*
X99355789Y-100101466D01*
D10*
X87514819Y-97412856D02*
X87514819Y-97317618D01*
X87514819Y-97317618D02*
X87562438Y-97222380D01*
X87562438Y-97222380D02*
X87610057Y-97174761D01*
X87610057Y-97174761D02*
X87705295Y-97127142D01*
X87705295Y-97127142D02*
X87895771Y-97079523D01*
X87895771Y-97079523D02*
X88133866Y-97079523D01*
X88133866Y-97079523D02*
X88324342Y-97127142D01*
X88324342Y-97127142D02*
X88419580Y-97174761D01*
X88419580Y-97174761D02*
X88467200Y-97222380D01*
X88467200Y-97222380D02*
X88514819Y-97317618D01*
X88514819Y-97317618D02*
X88514819Y-97412856D01*
X88514819Y-97412856D02*
X88467200Y-97508094D01*
X88467200Y-97508094D02*
X88419580Y-97555713D01*
X88419580Y-97555713D02*
X88324342Y-97603332D01*
X88324342Y-97603332D02*
X88133866Y-97650951D01*
X88133866Y-97650951D02*
X87895771Y-97650951D01*
X87895771Y-97650951D02*
X87705295Y-97603332D01*
X87705295Y-97603332D02*
X87610057Y-97555713D01*
X87610057Y-97555713D02*
X87562438Y-97508094D01*
X87562438Y-97508094D02*
X87514819Y-97412856D01*
X88419580Y-96650951D02*
X88467200Y-96603332D01*
X88467200Y-96603332D02*
X88514819Y-96650951D01*
X88514819Y-96650951D02*
X88467200Y-96698570D01*
X88467200Y-96698570D02*
X88419580Y-96650951D01*
X88419580Y-96650951D02*
X88514819Y-96650951D01*
X88514819Y-95650952D02*
X88514819Y-96222380D01*
X88514819Y-95936666D02*
X87514819Y-95936666D01*
X87514819Y-95936666D02*
X87657676Y-96031904D01*
X87657676Y-96031904D02*
X87752914Y-96127142D01*
X87752914Y-96127142D02*
X87800533Y-96222380D01*
X87848152Y-94793809D02*
X88514819Y-94793809D01*
X87848152Y-95222380D02*
X88371961Y-95222380D01*
X88371961Y-95222380D02*
X88467200Y-95174761D01*
X88467200Y-95174761D02*
X88514819Y-95079523D01*
X88514819Y-95079523D02*
X88514819Y-94936666D01*
X88514819Y-94936666D02*
X88467200Y-94841428D01*
X88467200Y-94841428D02*
X88419580Y-94793809D01*
X87991009Y-93984285D02*
X87991009Y-94317618D01*
X88514819Y-94317618D02*
X87514819Y-94317618D01*
X87514819Y-94317618D02*
X87514819Y-93841428D01*
X144961009Y-117810476D02*
X145008628Y-117667619D01*
X145008628Y-117667619D02*
X145056247Y-117620000D01*
X145056247Y-117620000D02*
X145151485Y-117572381D01*
X145151485Y-117572381D02*
X145294342Y-117572381D01*
X145294342Y-117572381D02*
X145389580Y-117620000D01*
X145389580Y-117620000D02*
X145437200Y-117667619D01*
X145437200Y-117667619D02*
X145484819Y-117762857D01*
X145484819Y-117762857D02*
X145484819Y-118143809D01*
X145484819Y-118143809D02*
X144484819Y-118143809D01*
X144484819Y-118143809D02*
X144484819Y-117810476D01*
X144484819Y-117810476D02*
X144532438Y-117715238D01*
X144532438Y-117715238D02*
X144580057Y-117667619D01*
X144580057Y-117667619D02*
X144675295Y-117620000D01*
X144675295Y-117620000D02*
X144770533Y-117620000D01*
X144770533Y-117620000D02*
X144865771Y-117667619D01*
X144865771Y-117667619D02*
X144913390Y-117715238D01*
X144913390Y-117715238D02*
X144961009Y-117810476D01*
X144961009Y-117810476D02*
X144961009Y-118143809D01*
X145484819Y-116715238D02*
X144961009Y-116715238D01*
X144961009Y-116715238D02*
X144865771Y-116762857D01*
X144865771Y-116762857D02*
X144818152Y-116858095D01*
X144818152Y-116858095D02*
X144818152Y-117048571D01*
X144818152Y-117048571D02*
X144865771Y-117143809D01*
X145437200Y-116715238D02*
X145484819Y-116810476D01*
X145484819Y-116810476D02*
X145484819Y-117048571D01*
X145484819Y-117048571D02*
X145437200Y-117143809D01*
X145437200Y-117143809D02*
X145341961Y-117191428D01*
X145341961Y-117191428D02*
X145246723Y-117191428D01*
X145246723Y-117191428D02*
X145151485Y-117143809D01*
X145151485Y-117143809D02*
X145103866Y-117048571D01*
X145103866Y-117048571D02*
X145103866Y-116810476D01*
X145103866Y-116810476D02*
X145056247Y-116715238D01*
X144818152Y-116381904D02*
X144818152Y-116000952D01*
X144484819Y-116239047D02*
X145341961Y-116239047D01*
X145341961Y-116239047D02*
X145437200Y-116191428D01*
X145437200Y-116191428D02*
X145484819Y-116096190D01*
X145484819Y-116096190D02*
X145484819Y-116000952D01*
X144818152Y-115810475D02*
X144818152Y-115429523D01*
X144484819Y-115667618D02*
X145341961Y-115667618D01*
X145341961Y-115667618D02*
X145437200Y-115619999D01*
X145437200Y-115619999D02*
X145484819Y-115524761D01*
X145484819Y-115524761D02*
X145484819Y-115429523D01*
X145389580Y-113762856D02*
X145437200Y-113810475D01*
X145437200Y-113810475D02*
X145484819Y-113953332D01*
X145484819Y-113953332D02*
X145484819Y-114048570D01*
X145484819Y-114048570D02*
X145437200Y-114191427D01*
X145437200Y-114191427D02*
X145341961Y-114286665D01*
X145341961Y-114286665D02*
X145246723Y-114334284D01*
X145246723Y-114334284D02*
X145056247Y-114381903D01*
X145056247Y-114381903D02*
X144913390Y-114381903D01*
X144913390Y-114381903D02*
X144722914Y-114334284D01*
X144722914Y-114334284D02*
X144627676Y-114286665D01*
X144627676Y-114286665D02*
X144532438Y-114191427D01*
X144532438Y-114191427D02*
X144484819Y-114048570D01*
X144484819Y-114048570D02*
X144484819Y-113953332D01*
X144484819Y-113953332D02*
X144532438Y-113810475D01*
X144532438Y-113810475D02*
X144580057Y-113762856D01*
X145484819Y-113191427D02*
X145437200Y-113286665D01*
X145437200Y-113286665D02*
X145389580Y-113334284D01*
X145389580Y-113334284D02*
X145294342Y-113381903D01*
X145294342Y-113381903D02*
X145008628Y-113381903D01*
X145008628Y-113381903D02*
X144913390Y-113334284D01*
X144913390Y-113334284D02*
X144865771Y-113286665D01*
X144865771Y-113286665D02*
X144818152Y-113191427D01*
X144818152Y-113191427D02*
X144818152Y-113048570D01*
X144818152Y-113048570D02*
X144865771Y-112953332D01*
X144865771Y-112953332D02*
X144913390Y-112905713D01*
X144913390Y-112905713D02*
X145008628Y-112858094D01*
X145008628Y-112858094D02*
X145294342Y-112858094D01*
X145294342Y-112858094D02*
X145389580Y-112905713D01*
X145389580Y-112905713D02*
X145437200Y-112953332D01*
X145437200Y-112953332D02*
X145484819Y-113048570D01*
X145484819Y-113048570D02*
X145484819Y-113191427D01*
X144818152Y-112429522D02*
X145484819Y-112429522D01*
X144913390Y-112429522D02*
X144865771Y-112381903D01*
X144865771Y-112381903D02*
X144818152Y-112286665D01*
X144818152Y-112286665D02*
X144818152Y-112143808D01*
X144818152Y-112143808D02*
X144865771Y-112048570D01*
X144865771Y-112048570D02*
X144961009Y-112000951D01*
X144961009Y-112000951D02*
X145484819Y-112000951D01*
X144818152Y-111524760D02*
X145484819Y-111524760D01*
X144913390Y-111524760D02*
X144865771Y-111477141D01*
X144865771Y-111477141D02*
X144818152Y-111381903D01*
X144818152Y-111381903D02*
X144818152Y-111239046D01*
X144818152Y-111239046D02*
X144865771Y-111143808D01*
X144865771Y-111143808D02*
X144961009Y-111096189D01*
X144961009Y-111096189D02*
X145484819Y-111096189D01*
X102319523Y-117298152D02*
X102319523Y-117964819D01*
X102081428Y-116917200D02*
X101843333Y-117631485D01*
X101843333Y-117631485D02*
X102462380Y-117631485D01*
X102748095Y-116964819D02*
X103414761Y-116964819D01*
X103414761Y-116964819D02*
X102986190Y-117964819D01*
X103795714Y-117964819D02*
X103795714Y-116964819D01*
X103890952Y-117583866D02*
X104176666Y-117964819D01*
X104176666Y-117298152D02*
X103795714Y-117679104D01*
X102289523Y-120574819D02*
X102099047Y-120574819D01*
X102099047Y-120574819D02*
X102003809Y-120622438D01*
X102003809Y-120622438D02*
X101956190Y-120670057D01*
X101956190Y-120670057D02*
X101860952Y-120812914D01*
X101860952Y-120812914D02*
X101813333Y-121003390D01*
X101813333Y-121003390D02*
X101813333Y-121384342D01*
X101813333Y-121384342D02*
X101860952Y-121479580D01*
X101860952Y-121479580D02*
X101908571Y-121527200D01*
X101908571Y-121527200D02*
X102003809Y-121574819D01*
X102003809Y-121574819D02*
X102194285Y-121574819D01*
X102194285Y-121574819D02*
X102289523Y-121527200D01*
X102289523Y-121527200D02*
X102337142Y-121479580D01*
X102337142Y-121479580D02*
X102384761Y-121384342D01*
X102384761Y-121384342D02*
X102384761Y-121146247D01*
X102384761Y-121146247D02*
X102337142Y-121051009D01*
X102337142Y-121051009D02*
X102289523Y-121003390D01*
X102289523Y-121003390D02*
X102194285Y-120955771D01*
X102194285Y-120955771D02*
X102003809Y-120955771D01*
X102003809Y-120955771D02*
X101908571Y-121003390D01*
X101908571Y-121003390D02*
X101860952Y-121051009D01*
X101860952Y-121051009D02*
X101813333Y-121146247D01*
X102956190Y-121003390D02*
X102860952Y-120955771D01*
X102860952Y-120955771D02*
X102813333Y-120908152D01*
X102813333Y-120908152D02*
X102765714Y-120812914D01*
X102765714Y-120812914D02*
X102765714Y-120765295D01*
X102765714Y-120765295D02*
X102813333Y-120670057D01*
X102813333Y-120670057D02*
X102860952Y-120622438D01*
X102860952Y-120622438D02*
X102956190Y-120574819D01*
X102956190Y-120574819D02*
X103146666Y-120574819D01*
X103146666Y-120574819D02*
X103241904Y-120622438D01*
X103241904Y-120622438D02*
X103289523Y-120670057D01*
X103289523Y-120670057D02*
X103337142Y-120765295D01*
X103337142Y-120765295D02*
X103337142Y-120812914D01*
X103337142Y-120812914D02*
X103289523Y-120908152D01*
X103289523Y-120908152D02*
X103241904Y-120955771D01*
X103241904Y-120955771D02*
X103146666Y-121003390D01*
X103146666Y-121003390D02*
X102956190Y-121003390D01*
X102956190Y-121003390D02*
X102860952Y-121051009D01*
X102860952Y-121051009D02*
X102813333Y-121098628D01*
X102813333Y-121098628D02*
X102765714Y-121193866D01*
X102765714Y-121193866D02*
X102765714Y-121384342D01*
X102765714Y-121384342D02*
X102813333Y-121479580D01*
X102813333Y-121479580D02*
X102860952Y-121527200D01*
X102860952Y-121527200D02*
X102956190Y-121574819D01*
X102956190Y-121574819D02*
X103146666Y-121574819D01*
X103146666Y-121574819D02*
X103241904Y-121527200D01*
X103241904Y-121527200D02*
X103289523Y-121479580D01*
X103289523Y-121479580D02*
X103337142Y-121384342D01*
X103337142Y-121384342D02*
X103337142Y-121193866D01*
X103337142Y-121193866D02*
X103289523Y-121098628D01*
X103289523Y-121098628D02*
X103241904Y-121051009D01*
X103241904Y-121051009D02*
X103146666Y-121003390D01*
X103765714Y-121574819D02*
X103765714Y-120574819D01*
X103860952Y-121193866D02*
X104146666Y-121574819D01*
X104146666Y-120908152D02*
X103765714Y-121289104D01*
D15*
G04 #@! TO.C,J2*
X84700000Y-98760000D02*
X86080000Y-98760000D01*
X84700000Y-100140000D02*
X84700000Y-98760000D01*
X84700000Y-101410000D02*
X84700000Y-119300000D01*
X84700000Y-101410000D02*
X87460000Y-101410000D01*
X84700000Y-119300000D02*
X87460000Y-119300000D01*
X87460000Y-101410000D02*
X87460000Y-119300000D01*
G04 #@! TO.C,J3*
X131000000Y-100030000D02*
X131000000Y-107710000D01*
X131000000Y-100030000D02*
X133660000Y-100030000D01*
X131000000Y-107710000D02*
X133660000Y-107710000D01*
X132330000Y-97430000D02*
X133660000Y-97430000D01*
X133660000Y-97430000D02*
X133660000Y-98760000D01*
X133660000Y-100030000D02*
X133660000Y-107710000D01*
G04 #@! TO.C,MOSFET*
X120850000Y-114447500D02*
X124610000Y-114447500D01*
X120850000Y-121267500D02*
X124610000Y-121267500D01*
X124610000Y-114447500D02*
X124610000Y-115707500D01*
X124610000Y-121267500D02*
X124610000Y-120007500D01*
X119570000Y-114547500D02*
X119330000Y-114217500D01*
X119810000Y-114217500D01*
X119570000Y-114547500D01*
G36*
X119570000Y-114547500D02*
G01*
X119330000Y-114217500D01*
X119810000Y-114217500D01*
X119570000Y-114547500D01*
G37*
G04 #@! TO.C,1M*
X114590000Y-98470000D02*
X114590000Y-99240000D01*
X114590000Y-106550000D02*
X114590000Y-105780000D01*
X113220000Y-105780000D02*
X115960000Y-105780000D01*
X115960000Y-99240000D01*
X113220000Y-99240000D01*
X113220000Y-105780000D01*
X114590000Y-112800000D02*
X114590000Y-113570000D01*
X114590000Y-120880000D02*
X114590000Y-120110000D01*
X115960000Y-113570000D02*
X113220000Y-113570000D01*
X113220000Y-120110000D01*
X115960000Y-120110000D01*
X115960000Y-113570000D01*
G04 #@! TO.C,0.1uF*
X130880000Y-114000000D02*
X133380000Y-114000000D01*
X130880000Y-121740000D02*
X130880000Y-114000000D01*
X133380000Y-121740000D02*
X130880000Y-121740000D01*
X133480000Y-114000000D02*
X133480000Y-121740000D01*
G04 #@! TO.C,Q2*
X120940000Y-99292500D02*
X120940000Y-100552500D01*
X120940000Y-106112500D02*
X120940000Y-104852500D01*
X124700000Y-99292500D02*
X120940000Y-99292500D01*
X124700000Y-106112500D02*
X120940000Y-106112500D01*
X126220000Y-106342500D02*
X125740000Y-106342500D01*
X125980000Y-106012500D01*
X126220000Y-106342500D01*
G36*
X126220000Y-106342500D02*
G01*
X125740000Y-106342500D01*
X125980000Y-106012500D01*
X126220000Y-106342500D01*
G37*
D14*
G04 #@! TO.C,J1*
X93755000Y-112463000D02*
X93755000Y-95318000D01*
X95660000Y-114368000D02*
X109630000Y-114368000D01*
D16*
X98150000Y-93413000D02*
X98153728Y-92402728D01*
X98653728Y-91903000D02*
X106649000Y-91903000D01*
X107149000Y-92403000D02*
X107149000Y-93413000D01*
D14*
X109630000Y-93413000D02*
X95660000Y-93413000D01*
X111535000Y-112463000D02*
X111535000Y-95318000D01*
X93755000Y-95314000D02*
G75*
G02*
X95660000Y-93409000I1905001J-1D01*
G01*
X95660000Y-114368000D02*
G75*
G02*
X93755000Y-112463000I1J1905001D01*
G01*
D16*
X98153728Y-92402728D02*
G75*
G02*
X98653728Y-91903001I500018J-291D01*
G01*
X106649000Y-91903000D02*
G75*
G02*
X107149000Y-92403000I0J-500000D01*
G01*
D14*
X109630000Y-93413000D02*
G75*
G02*
X111535000Y-95318000I0J-1905000D01*
G01*
X111535000Y-112463000D02*
G75*
G02*
X109630000Y-114368000I-1905000J0D01*
G01*
D17*
X93797000Y-93829000D02*
G75*
G02*
X93293000Y-93829000I-252000J0D01*
G01*
X93293000Y-93829000D02*
G75*
G02*
X93797000Y-93829000I252000J0D01*
G01*
X94940000Y-94709000D02*
G75*
G02*
X94436000Y-94709000I-252000J0D01*
G01*
X94436000Y-94709000D02*
G75*
G02*
X94940000Y-94709000I252000J0D01*
G01*
D15*
G04 #@! TO.C,0.1uF*
X89880000Y-93440000D02*
X92480000Y-93440000D01*
X89880000Y-101180000D02*
X89880000Y-93440000D01*
X92380000Y-101180000D02*
X89980000Y-101180000D01*
X92480000Y-93440000D02*
X92480000Y-101180000D01*
G04 #@! TO.C,47k*
X98970000Y-117510000D02*
X99740000Y-117510000D01*
X107050000Y-117510000D02*
X106280000Y-117510000D01*
X99740000Y-116140000D02*
X106280000Y-116140000D01*
X106280000Y-118880000D01*
X99740000Y-118880000D01*
X99740000Y-116140000D01*
G04 #@! TO.C,68k*
X98940000Y-121120000D02*
X99710000Y-121120000D01*
X107020000Y-121120000D02*
X106250000Y-121120000D01*
X99710000Y-119750000D02*
X106250000Y-119750000D01*
X106250000Y-122490000D01*
X99710000Y-122490000D01*
X99710000Y-119750000D01*
G04 #@! TD*
M02*
