G04 #@! TF.GenerationSoftware,KiCad,Pcbnew,9.0.4*
G04 #@! TF.CreationDate,2026-03-10T08:15:31-07:00*
G04 #@! TF.ProjectId,e-ink_PCB,652d696e-6b5f-4504-9342-2e6b69636164,rev?*
G04 #@! TF.SameCoordinates,Original*
G04 #@! TF.FileFunction,Soldermask,Bot*
G04 #@! TF.FilePolarity,Negative*
%FSLAX46Y46*%
G04 Gerber Fmt 4.6, Leading zero omitted, Abs format (unit mm)*
G04 Created by KiCad (PCBNEW 9.0.4) date 2026-03-10 08:15:31*
%MOMM*%
%LPD*%
G01*
G04 APERTURE LIST*
G04 Aperture macros list*
%AMRoundRect*
0 Rectangle with rounded corners*
0 $1 Rounding radius*
0 $2 $3 $4 $5 $6 $7 $8 $9 X,Y pos of 4 corners*
0 Add a 4 corners polygon primitive as box body*
4,1,4,$2,$3,$4,$5,$6,$7,$8,$9,$2,$3,0*
0 Add four circle primitives for the rounded corners*
1,1,$1+$1,$2,$3*
1,1,$1+$1,$4,$5*
1,1,$1+$1,$6,$7*
1,1,$1+$1,$8,$9*
0 Add four rect primitives between the rounded corners*
20,1,$1+$1,$2,$3,$4,$5,0*
20,1,$1+$1,$4,$5,$6,$7,0*
20,1,$1+$1,$6,$7,$8,$9,0*
20,1,$1+$1,$8,$9,$2,$3,0*%
G04 Aperture macros list end*
%ADD10C,1.700000*%
%ADD11R,1.700000X1.700000*%
%ADD12C,1.600000*%
%ADD13C,2.000000*%
%ADD14C,2.101600*%
%ADD15RoundRect,0.300400X1.000400X0.300400X-1.000400X0.300400X-1.000400X-0.300400X1.000400X-0.300400X0*%
%ADD16R,2.000000X2.000000*%
%ADD17C,2.200000*%
G04 APERTURE END LIST*
D10*
G04 #@! TO.C,J2*
X86080000Y-117920000D03*
X86080000Y-115380000D03*
X86080000Y-112840000D03*
D11*
X86080000Y-100140000D03*
D10*
X86080000Y-110300000D03*
X86080000Y-105220000D03*
X86080000Y-107760000D03*
X86080000Y-102680000D03*
G04 #@! TD*
G04 #@! TO.C,J3*
X132330000Y-101300000D03*
X132330000Y-103840000D03*
X132330000Y-106380000D03*
D11*
X132330000Y-98760000D03*
G04 #@! TD*
D12*
G04 #@! TO.C,1M*
X114590000Y-107590000D03*
X114590000Y-97430000D03*
G04 #@! TD*
G04 #@! TO.C,1M*
X114590000Y-111760000D03*
X114590000Y-121920000D03*
G04 #@! TD*
D13*
G04 #@! TO.C,0.1uF*
X132180000Y-120370000D03*
X132180000Y-115370000D03*
G04 #@! TD*
D14*
G04 #@! TO.C,J1*
X95090000Y-96330000D03*
X95090000Y-98870000D03*
X110090000Y-101410000D03*
X95190000Y-101410000D03*
X95190000Y-103950000D03*
X110090000Y-96330000D03*
X95190000Y-106490000D03*
X95190000Y-109010000D03*
X110090000Y-109030000D03*
X110090000Y-106490000D03*
X110090000Y-103950000D03*
X110090000Y-111570000D03*
X95190000Y-111570000D03*
D15*
X98990000Y-106510000D03*
X98990000Y-98810000D03*
D14*
X110090000Y-98870000D03*
G04 #@! TD*
D13*
G04 #@! TO.C,0.1uF*
X91180000Y-99810000D03*
X91180000Y-94810000D03*
G04 #@! TD*
D16*
G04 #@! TO.C,J5*
X141520000Y-112040000D03*
D17*
X141620000Y-116640000D03*
G04 #@! TD*
D12*
G04 #@! TO.C,47k*
X97930000Y-117510000D03*
X108090000Y-117510000D03*
G04 #@! TD*
G04 #@! TO.C,68k*
X97900000Y-121120000D03*
X108060000Y-121120000D03*
G04 #@! TD*
M02*
