M48
; DRILL file {KiCad 9.0.4} date 2026-03-10T08:15:36-0700
; FORMAT={-:-/ absolute / metric / decimal}
; #@! TF.CreationDate,2026-03-10T08:15:36-07:00
; #@! TF.GenerationSoftware,Kicad,Pcbnew,9.0.4
; #@! TF.FileFunction,MixedPlating,1,2
FMAT,2
METRIC
; #@! TA.AperFunction,Plated,PTH,ViaDrill
T1C0.300
; #@! TA.AperFunction,Plated,PTH,ComponentDrill
T2C0.800
; #@! TA.AperFunction,Plated,PTH,ComponentDrill
T3C1.000
; #@! TA.AperFunction,Plated,PTH,ComponentDrill
T4C1.500
%
G90
G05
T1
X95.0Y-115.0
X95.0Y-120.0
X105.0Y-100.0
X105.0Y-105.0
X107.35Y-113.29
X116.54Y-94.66
X117.95Y-99.27
X120.0Y-110.0
X125.0Y-110.0
X130.0Y-110.0
X135.0Y-110.0
X140.0Y-100.0
X140.0Y-105.0
T2
X97.9Y-121.12
X97.93Y-117.51
X98.99Y-98.81
X98.99Y-106.51
X108.06Y-121.12
X108.09Y-117.51
X114.59Y-97.43
X114.59Y-107.59
X114.59Y-111.76
X114.59Y-121.92
T3
X86.08Y-100.14
X86.08Y-102.68
X86.08Y-105.22
X86.08Y-107.76
X86.08Y-110.3
X86.08Y-112.84
X86.08Y-115.38
X86.08Y-117.92
X91.18Y-94.81
X91.18Y-99.81
X95.09Y-96.33
X95.09Y-98.87
X95.19Y-101.41
X95.19Y-103.95
X95.19Y-106.49
X95.19Y-109.01
X95.19Y-111.57
X110.09Y-96.33
X110.09Y-98.87
X110.09Y-101.41
X110.09Y-103.95
X110.09Y-106.49
X110.09Y-109.03
X110.09Y-111.57
X132.18Y-115.37
X132.18Y-120.37
X132.33Y-98.76
X132.33Y-101.3
X132.33Y-103.84
X132.33Y-106.38
T4
X141.52Y-112.04
X141.62Y-116.64
M30
