G04 #@! TF.GenerationSoftware,KiCad,Pcbnew,9.0.4*
G04 #@! TF.CreationDate,2026-03-10T08:15:30-07:00*
G04 #@! TF.ProjectId,e-ink_PCB,652d696e-6b5f-4504-9342-2e6b69636164,rev?*
G04 #@! TF.SameCoordinates,Original*
G04 #@! TF.FileFunction,Copper,L2,Bot*
G04 #@! TF.FilePolarity,Positive*
%FSLAX46Y46*%
G04 Gerber Fmt 4.6, Leading zero omitted, Abs format (unit mm)*
G04 Created by KiCad (PCBNEW 9.0.4) date 2026-03-10 08:15:30*
%MOMM*%
%LPD*%
G01*
G04 APERTURE LIST*
G04 Aperture macros list*
%AMRoundRect*
0 Rectangle with rounded corners*
0 $1 Rounding radius*
0 $2 $3 $4 $5 $6 $7 $8 $9 X,Y pos of 4 corners*
0 Add a 4 corners polygon primitive as box body*
4,1,4,$2,$3,$4,$5,$6,$7,$8,$9,$2,$3,0*
0 Add four circle primitives for the rounded corners*
1,1,$1+$1,$2,$3*
1,1,$1+$1,$4,$5*
1,1,$1+$1,$6,$7*
1,1,$1+$1,$8,$9*
0 Add four rect primitives between the rounded corners*
20,1,$1+$1,$2,$3,$4,$5,0*
20,1,$1+$1,$4,$5,$6,$7,0*
20,1,$1+$1,$6,$7,$8,$9,0*
20,1,$1+$1,$8,$9,$2,$3,0*%
G04 Aperture macros list end*
G04 #@! TA.AperFunction,ComponentPad*
%ADD10C,1.700000*%
G04 #@! TD*
G04 #@! TA.AperFunction,ComponentPad*
%ADD11R,1.700000X1.700000*%
G04 #@! TD*
G04 #@! TA.AperFunction,ComponentPad*
%ADD12C,1.600000*%
G04 #@! TD*
G04 #@! TA.AperFunction,ComponentPad*
%ADD13C,2.000000*%
G04 #@! TD*
G04 #@! TA.AperFunction,ComponentPad*
%ADD14RoundRect,0.275000X0.975000X0.275000X-0.975000X0.275000X-0.975000X-0.275000X0.975000X-0.275000X0*%
G04 #@! TD*
G04 #@! TA.AperFunction,ComponentPad*
%ADD15R,2.000000X2.000000*%
G04 #@! TD*
G04 #@! TA.AperFunction,ComponentPad*
%ADD16C,2.200000*%
G04 #@! TD*
G04 #@! TA.AperFunction,ViaPad*
%ADD17C,0.600000*%
G04 #@! TD*
G04 #@! TA.AperFunction,Conductor*
%ADD18C,0.200000*%
G04 #@! TD*
G04 #@! TA.AperFunction,Conductor*
%ADD19C,0.254000*%
G04 #@! TD*
G04 APERTURE END LIST*
D10*
G04 #@! TO.P,J2,BUSY,Pin_8*
G04 #@! TO.N,Net-(J2-Pin_8)*
X86080000Y-117920000D03*
G04 #@! TO.P,J2,CS,Pin_7*
G04 #@! TO.N,Net-(J2-Pin_7)*
X86080000Y-115380000D03*
G04 #@! TO.P,J2,DC,Pin_6*
G04 #@! TO.N,Net-(J2-Pin_6)*
X86080000Y-112840000D03*
D11*
G04 #@! TO.P,J2,GND,Pin_1*
G04 #@! TO.N,GND*
X86080000Y-100140000D03*
D10*
G04 #@! TO.P,J2,RES,Pin_5*
G04 #@! TO.N,Net-(J2-Pin_5)*
X86080000Y-110300000D03*
G04 #@! TO.P,J2,SCL,Pin_3*
G04 #@! TO.N,Net-(J2-Pin_3)*
X86080000Y-105220000D03*
G04 #@! TO.P,J2,SDA,Pin_4*
G04 #@! TO.N,Net-(J2-Pin_4)*
X86080000Y-107760000D03*
G04 #@! TO.P,J2,VCC,Pin_2*
G04 #@! TO.N,Net-(J2-Pin_2)*
X86080000Y-102680000D03*
G04 #@! TD*
G04 #@! TO.P,J3,GND,Pin_2*
G04 #@! TO.N,GND*
X132330000Y-101300000D03*
G04 #@! TO.P,J3,SCL,Pin_3*
G04 #@! TO.N,Net-(J3-Pin_3)*
X132330000Y-103840000D03*
G04 #@! TO.P,J3,SDA,Pin_4*
G04 #@! TO.N,Net-(J3-Pin_4)*
X132330000Y-106380000D03*
D11*
G04 #@! TO.P,J3,VIN,Pin_1*
G04 #@! TO.N,Net-(J2-Pin_2)*
X132330000Y-98760000D03*
G04 #@! TD*
D12*
G04 #@! TO.P,1M,1*
G04 #@! TO.N,Net-(Q2-G)*
X114590000Y-107590000D03*
G04 #@! TO.P,1M,2*
G04 #@! TO.N,Net-(Q2-S)*
X114590000Y-97430000D03*
G04 #@! TD*
G04 #@! TO.P,1M,1*
G04 #@! TO.N,Net-(P-MOSFET1-G)*
X114590000Y-111760000D03*
G04 #@! TO.P,1M,2*
G04 #@! TO.N,Net-(J5-Pin_2)*
X114590000Y-121920000D03*
G04 #@! TD*
D13*
G04 #@! TO.P,0.1uF,1*
G04 #@! TO.N,Net-(J5-Pin_2)*
X132180000Y-120370000D03*
G04 #@! TO.P,0.1uF,2*
G04 #@! TO.N,GND*
X132180000Y-115370000D03*
G04 #@! TD*
G04 #@! TO.P,J1,2,Pin_8*
G04 #@! TO.N,Net-(J1-Pin_8)*
X95090000Y-96330000D03*
G04 #@! TO.P,J1,3,Pin_7*
G04 #@! TO.N,Net-(J2-Pin_3)*
X95090000Y-98870000D03*
G04 #@! TO.P,J1,3.3V,Pin_3*
G04 #@! TO.N,Net-(Q2-S)*
X110090000Y-101410000D03*
G04 #@! TO.P,J1,4,Pin_6*
G04 #@! TO.N,Net-(J2-Pin_4)*
X95190000Y-101410000D03*
G04 #@! TO.P,J1,5,Pin_5*
G04 #@! TO.N,Net-(J2-Pin_5)*
X95190000Y-103950000D03*
G04 #@! TO.P,J1,5V,Pin_1*
G04 #@! TO.N,unconnected-(J1-Pin_1-Pad5V)*
X110090000Y-96330000D03*
G04 #@! TO.P,J1,6,Pin_4*
G04 #@! TO.N,Net-(J2-Pin_6)*
X95190000Y-106490000D03*
G04 #@! TO.P,J1,7,Pin_3*
G04 #@! TO.N,Net-(J2-Pin_7)*
X95190000Y-109010000D03*
G04 #@! TO.P,J1,8,Pin_6*
G04 #@! TO.N,Net-(Q2-G)*
X110090000Y-109030000D03*
G04 #@! TO.P,J1,9,Pin_5*
G04 #@! TO.N,Net-(J3-Pin_4)*
X110090000Y-106490000D03*
G04 #@! TO.P,J1,10,Pin_4*
G04 #@! TO.N,Net-(J3-Pin_3)*
X110090000Y-103950000D03*
G04 #@! TO.P,J1,20,Pin_7*
G04 #@! TO.N,Net-(P-MOSFET1-G)*
X110090000Y-111570000D03*
G04 #@! TO.P,J1,21,Pin_2*
G04 #@! TO.N,Net-(J2-Pin_8)*
X95190000Y-111570000D03*
D14*
G04 #@! TO.P,J1,BAT+,Pin_1*
G04 #@! TO.N,Net-(J5-Pin_2)*
X98990000Y-106510000D03*
G04 #@! TO.P,J1,BAT-,Pin_1*
G04 #@! TO.N,unconnected-(J1-Pin_1-PadBAT-)*
X98990000Y-98810000D03*
D13*
G04 #@! TO.P,J1,GND,Pin_2*
G04 #@! TO.N,GND*
X110090000Y-98870000D03*
G04 #@! TD*
G04 #@! TO.P,0.1uF,1*
G04 #@! TO.N,GND*
X91180000Y-99810000D03*
G04 #@! TO.P,0.1uF,2*
G04 #@! TO.N,Net-(J2-Pin_2)*
X91180000Y-94810000D03*
G04 #@! TD*
D15*
G04 #@! TO.P,J5,1,Pin_1*
G04 #@! TO.N,GND*
X141520000Y-112040000D03*
D16*
G04 #@! TO.P,J5,2,Pin_2*
G04 #@! TO.N,Net-(J5-Pin_2)*
X141620000Y-116640000D03*
G04 #@! TD*
D12*
G04 #@! TO.P,47k,1*
G04 #@! TO.N,Net-(J1-Pin_8)*
X97930000Y-117510000D03*
G04 #@! TO.P,47k,2*
G04 #@! TO.N,Net-(P-MOSFET1-D)*
X108090000Y-117510000D03*
G04 #@! TD*
G04 #@! TO.P,68k,1*
G04 #@! TO.N,Net-(J1-Pin_8)*
X97900000Y-121120000D03*
G04 #@! TO.P,68k,2*
G04 #@! TO.N,GND*
X108060000Y-121120000D03*
G04 #@! TD*
D17*
G04 #@! TO.N,GND*
X95000000Y-115000000D03*
X95000000Y-120000000D03*
X105000000Y-105000000D03*
X105000000Y-100000000D03*
X140000000Y-100000000D03*
X140000000Y-105000000D03*
X135000000Y-110000000D03*
X130000000Y-110000000D03*
X125000000Y-110000000D03*
X120000000Y-110000000D03*
G04 #@! TO.N,Net-(J2-Pin_2)*
X116540000Y-94660000D03*
X117950000Y-99270000D03*
G04 #@! TO.N,Net-(J5-Pin_2)*
X107350000Y-113290000D03*
G04 #@! TD*
D18*
G04 #@! TO.N,Net-(J2-Pin_2)*
X117950000Y-96070000D02*
X116540000Y-94660000D01*
X117950000Y-96280000D02*
X117950000Y-96070000D01*
X117950000Y-99270000D02*
X117950000Y-96280000D01*
G04 #@! TO.N,Net-(J3-Pin_3)*
X110200000Y-103840000D02*
X110090000Y-103950000D01*
X132330000Y-103840000D02*
X110200000Y-103840000D01*
G04 #@! TO.N,Net-(J3-Pin_4)*
X132330000Y-106380000D02*
X110200000Y-106380000D01*
X110200000Y-106380000D02*
X110090000Y-106490000D01*
D19*
G04 #@! TO.N,Net-(J5-Pin_2)*
X107350000Y-113290000D02*
X114590000Y-120530000D01*
X114590000Y-120530000D02*
X114590000Y-121920000D01*
G04 #@! TD*
G04 #@! TA.AperFunction,Conductor*
G04 #@! TO.N,GND*
G36*
X145893558Y-92215185D02*
G01*
X145939313Y-92267989D01*
X145950518Y-92319217D01*
X145983689Y-106980500D01*
X146019718Y-122905515D01*
X146000185Y-122972599D01*
X145947485Y-123018474D01*
X145895516Y-123029796D01*
X115667859Y-122980485D01*
X115600851Y-122960691D01*
X115555183Y-122907812D01*
X115545352Y-122838638D01*
X115574481Y-122775130D01*
X115580360Y-122768824D01*
X115581966Y-122767219D01*
X115581971Y-122767211D01*
X115581974Y-122767209D01*
X115638811Y-122688977D01*
X115702287Y-122601610D01*
X115795220Y-122419219D01*
X115858477Y-122224534D01*
X115890500Y-122022352D01*
X115890500Y-121817648D01*
X115859072Y-121619223D01*
X115858477Y-121615465D01*
X115818601Y-121492741D01*
X115795220Y-121420781D01*
X115795218Y-121420778D01*
X115795218Y-121420776D01*
X115761503Y-121354607D01*
X115702287Y-121238390D01*
X115690609Y-121222317D01*
X115581971Y-121072786D01*
X115437217Y-120928032D01*
X115437212Y-120928028D01*
X115268615Y-120805536D01*
X115225949Y-120750207D01*
X115217500Y-120705218D01*
X115217500Y-120468194D01*
X115193386Y-120346970D01*
X115193385Y-120346969D01*
X115193385Y-120346965D01*
X115193383Y-120346960D01*
X115171649Y-120294488D01*
X115154009Y-120251902D01*
X130679500Y-120251902D01*
X130679500Y-120488097D01*
X130716446Y-120721368D01*
X130789433Y-120945996D01*
X130878093Y-121119999D01*
X130896657Y-121156433D01*
X131035483Y-121347510D01*
X131202490Y-121514517D01*
X131393567Y-121653343D01*
X131492991Y-121704002D01*
X131604003Y-121760566D01*
X131604005Y-121760566D01*
X131604008Y-121760568D01*
X131724412Y-121799689D01*
X131828631Y-121833553D01*
X132061903Y-121870500D01*
X132061908Y-121870500D01*
X132298097Y-121870500D01*
X132531368Y-121833553D01*
X132580318Y-121817648D01*
X132755992Y-121760568D01*
X132966433Y-121653343D01*
X133157510Y-121514517D01*
X133324517Y-121347510D01*
X133463343Y-121156433D01*
X133570568Y-120945992D01*
X133643553Y-120721368D01*
X133659455Y-120620968D01*
X133680500Y-120488097D01*
X133680500Y-120251902D01*
X133643553Y-120018631D01*
X133570566Y-119794003D01*
X133463342Y-119583566D01*
X133324517Y-119392490D01*
X133157510Y-119225483D01*
X132966433Y-119086657D01*
X132943649Y-119075048D01*
X132755996Y-118979433D01*
X132531368Y-118906446D01*
X132298097Y-118869500D01*
X132298092Y-118869500D01*
X132061908Y-118869500D01*
X132061903Y-118869500D01*
X131828631Y-118906446D01*
X131604003Y-118979433D01*
X131393566Y-119086657D01*
X131284550Y-119165862D01*
X131202490Y-119225483D01*
X131202488Y-119225485D01*
X131202487Y-119225485D01*
X131035485Y-119392487D01*
X131035485Y-119392488D01*
X131035483Y-119392490D01*
X130975862Y-119474550D01*
X130896657Y-119583566D01*
X130789433Y-119794003D01*
X130716446Y-120018631D01*
X130679500Y-120251902D01*
X115154009Y-120251902D01*
X115146086Y-120232773D01*
X115146079Y-120232760D01*
X115077412Y-120129993D01*
X115075447Y-120128028D01*
X114990008Y-120042589D01*
X110199366Y-115251947D01*
X130680000Y-115251947D01*
X130680000Y-115488052D01*
X130716934Y-115721247D01*
X130789897Y-115945802D01*
X130897087Y-116156174D01*
X130957338Y-116239104D01*
X130957340Y-116239105D01*
X131697037Y-115499408D01*
X131714075Y-115562993D01*
X131779901Y-115677007D01*
X131872993Y-115770099D01*
X131987007Y-115835925D01*
X132050590Y-115852962D01*
X131310893Y-116592658D01*
X131393828Y-116652914D01*
X131604197Y-116760102D01*
X131828752Y-116833065D01*
X131828751Y-116833065D01*
X132061948Y-116870000D01*
X132298052Y-116870000D01*
X132531247Y-116833065D01*
X132755802Y-116760102D01*
X132966163Y-116652918D01*
X132966169Y-116652914D01*
X133049104Y-116592658D01*
X133049105Y-116592658D01*
X132970485Y-116514038D01*
X140019500Y-116514038D01*
X140019500Y-116765962D01*
X140039129Y-116889896D01*
X140058910Y-117014785D01*
X140136760Y-117254383D01*
X140251132Y-117478848D01*
X140399201Y-117682649D01*
X140399205Y-117682654D01*
X140577345Y-117860794D01*
X140577350Y-117860798D01*
X140755117Y-117989952D01*
X140781155Y-118008870D01*
X140924184Y-118081747D01*
X141005616Y-118123239D01*
X141005618Y-118123239D01*
X141005621Y-118123241D01*
X141245215Y-118201090D01*
X141494038Y-118240500D01*
X141494039Y-118240500D01*
X141745961Y-118240500D01*
X141745962Y-118240500D01*
X141994785Y-118201090D01*
X142234379Y-118123241D01*
X142458845Y-118008870D01*
X142662656Y-117860793D01*
X142840793Y-117682656D01*
X142988870Y-117478845D01*
X143103241Y-117254379D01*
X143181090Y-117014785D01*
X143220500Y-116765962D01*
X143220500Y-116514038D01*
X143181090Y-116265215D01*
X143103241Y-116025621D01*
X143103239Y-116025618D01*
X143103239Y-116025616D01*
X143023948Y-115870000D01*
X142988870Y-115801155D01*
X142912647Y-115696243D01*
X142840798Y-115597350D01*
X142840794Y-115597345D01*
X142662654Y-115419205D01*
X142662649Y-115419201D01*
X142458848Y-115271132D01*
X142458847Y-115271131D01*
X142458845Y-115271130D01*
X142388747Y-115235413D01*
X142234383Y-115156760D01*
X141994785Y-115078910D01*
X141899113Y-115063757D01*
X141745962Y-115039500D01*
X141494038Y-115039500D01*
X141369626Y-115059205D01*
X141245214Y-115078910D01*
X141005616Y-115156760D01*
X140781151Y-115271132D01*
X140577350Y-115419201D01*
X140577345Y-115419205D01*
X140399205Y-115597345D01*
X140399201Y-115597350D01*
X140251132Y-115801151D01*
X140136760Y-116025616D01*
X140066608Y-116241522D01*
X140058910Y-116265215D01*
X140019500Y-116514038D01*
X132970485Y-116514038D01*
X132309408Y-115852962D01*
X132372993Y-115835925D01*
X132487007Y-115770099D01*
X132580099Y-115677007D01*
X132645925Y-115562993D01*
X132662962Y-115499408D01*
X133402658Y-116239105D01*
X133402658Y-116239104D01*
X133462914Y-116156169D01*
X133462918Y-116156163D01*
X133570102Y-115945802D01*
X133643065Y-115721247D01*
X133680000Y-115488052D01*
X133680000Y-115251947D01*
X133643065Y-115018752D01*
X133570102Y-114794197D01*
X133462914Y-114583828D01*
X133402658Y-114500894D01*
X133402658Y-114500893D01*
X132662962Y-115240590D01*
X132645925Y-115177007D01*
X132580099Y-115062993D01*
X132487007Y-114969901D01*
X132372993Y-114904075D01*
X132309409Y-114887037D01*
X133049105Y-114147340D01*
X133049104Y-114147338D01*
X132966174Y-114087087D01*
X132755802Y-113979897D01*
X132531247Y-113906934D01*
X132531248Y-113906934D01*
X132298052Y-113870000D01*
X132061948Y-113870000D01*
X131828752Y-113906934D01*
X131604197Y-113979897D01*
X131393830Y-114087084D01*
X131310894Y-114147340D01*
X132050591Y-114887037D01*
X131987007Y-114904075D01*
X131872993Y-114969901D01*
X131779901Y-115062993D01*
X131714075Y-115177007D01*
X131697037Y-115240591D01*
X130957340Y-114500894D01*
X130897084Y-114583830D01*
X130789897Y-114794197D01*
X130716934Y-115018752D01*
X130680000Y-115251947D01*
X110199366Y-115251947D01*
X108175091Y-113227672D01*
X108141606Y-113166349D01*
X108141183Y-113164323D01*
X108119737Y-113056503D01*
X108079999Y-112960566D01*
X108059397Y-112910827D01*
X108059390Y-112910814D01*
X107971789Y-112779711D01*
X107971786Y-112779707D01*
X107860292Y-112668213D01*
X107860288Y-112668210D01*
X107729185Y-112580609D01*
X107729172Y-112580602D01*
X107583501Y-112520264D01*
X107583489Y-112520261D01*
X107428845Y-112489500D01*
X107428842Y-112489500D01*
X107271158Y-112489500D01*
X107271155Y-112489500D01*
X107116510Y-112520261D01*
X107116498Y-112520264D01*
X106970827Y-112580602D01*
X106970814Y-112580609D01*
X106839711Y-112668210D01*
X106839707Y-112668213D01*
X106728213Y-112779707D01*
X106728210Y-112779711D01*
X106640609Y-112910814D01*
X106640602Y-112910827D01*
X106580264Y-113056498D01*
X106580261Y-113056510D01*
X106549500Y-113211153D01*
X106549500Y-113368846D01*
X106580261Y-113523489D01*
X106580264Y-113523501D01*
X106640602Y-113669172D01*
X106640609Y-113669185D01*
X106728210Y-113800288D01*
X106728213Y-113800292D01*
X106839707Y-113911786D01*
X106839711Y-113911789D01*
X106970814Y-113999390D01*
X106970827Y-113999397D01*
X107038961Y-114027618D01*
X107116503Y-114059737D01*
X107224185Y-114081156D01*
X107286092Y-114113539D01*
X107287672Y-114115091D01*
X113847374Y-120674793D01*
X113880859Y-120736116D01*
X113875875Y-120805808D01*
X113834003Y-120861741D01*
X113832578Y-120862792D01*
X113742787Y-120928028D01*
X113742782Y-120928032D01*
X113598028Y-121072786D01*
X113477715Y-121238386D01*
X113384781Y-121420776D01*
X113321522Y-121615465D01*
X113289500Y-121817648D01*
X113289500Y-122022351D01*
X113321522Y-122224534D01*
X113384781Y-122419223D01*
X113477715Y-122601613D01*
X113598028Y-122767213D01*
X113601191Y-122770915D01*
X113599814Y-122772090D01*
X113629581Y-122826604D01*
X113624597Y-122896296D01*
X113582725Y-122952229D01*
X113517261Y-122976646D01*
X113508213Y-122976962D01*
X85204298Y-122930789D01*
X85137290Y-122910995D01*
X85091622Y-122858116D01*
X85080500Y-122806789D01*
X85080500Y-121017648D01*
X96599500Y-121017648D01*
X96599500Y-121222351D01*
X96631522Y-121424534D01*
X96694781Y-121619223D01*
X96758691Y-121744653D01*
X96787585Y-121801359D01*
X96787715Y-121801613D01*
X96908028Y-121967213D01*
X97052786Y-122111971D01*
X97173226Y-122199474D01*
X97218390Y-122232287D01*
X97334607Y-122291503D01*
X97400776Y-122325218D01*
X97400778Y-122325218D01*
X97400781Y-122325220D01*
X97505137Y-122359127D01*
X97595465Y-122388477D01*
X97696557Y-122404488D01*
X97797648Y-122420500D01*
X97797649Y-122420500D01*
X98002351Y-122420500D01*
X98002352Y-122420500D01*
X98204534Y-122388477D01*
X98399219Y-122325220D01*
X98581610Y-122232287D01*
X98674590Y-122164732D01*
X98747213Y-122111971D01*
X98747215Y-122111968D01*
X98747219Y-122111966D01*
X98891966Y-121967219D01*
X98891968Y-121967215D01*
X98891971Y-121967213D01*
X98962236Y-121870500D01*
X99012287Y-121801610D01*
X99105220Y-121619219D01*
X99168477Y-121424534D01*
X99200500Y-121222352D01*
X99200500Y-121017682D01*
X106760000Y-121017682D01*
X106760000Y-121222317D01*
X106792009Y-121424417D01*
X106855244Y-121619031D01*
X106948141Y-121801350D01*
X106948147Y-121801359D01*
X106980523Y-121845921D01*
X106980524Y-121845922D01*
X107660000Y-121166446D01*
X107660000Y-121172661D01*
X107687259Y-121274394D01*
X107739920Y-121365606D01*
X107814394Y-121440080D01*
X107905606Y-121492741D01*
X108007339Y-121520000D01*
X108013553Y-121520000D01*
X107334076Y-122199474D01*
X107378650Y-122231859D01*
X107560968Y-122324755D01*
X107755582Y-122387990D01*
X107957683Y-122420000D01*
X108162317Y-122420000D01*
X108364417Y-122387990D01*
X108559031Y-122324755D01*
X108741349Y-122231859D01*
X108785921Y-122199474D01*
X108106447Y-121520000D01*
X108112661Y-121520000D01*
X108214394Y-121492741D01*
X108305606Y-121440080D01*
X108380080Y-121365606D01*
X108432741Y-121274394D01*
X108460000Y-121172661D01*
X108460000Y-121166447D01*
X109139474Y-121845921D01*
X109171859Y-121801349D01*
X109264755Y-121619031D01*
X109327990Y-121424417D01*
X109360000Y-121222317D01*
X109360000Y-121017682D01*
X109327990Y-120815582D01*
X109264755Y-120620968D01*
X109171859Y-120438650D01*
X109139474Y-120394077D01*
X109139474Y-120394076D01*
X108460000Y-121073551D01*
X108460000Y-121067339D01*
X108432741Y-120965606D01*
X108380080Y-120874394D01*
X108305606Y-120799920D01*
X108214394Y-120747259D01*
X108112661Y-120720000D01*
X108106446Y-120720000D01*
X108785922Y-120040524D01*
X108785921Y-120040523D01*
X108741359Y-120008147D01*
X108741350Y-120008141D01*
X108559031Y-119915244D01*
X108364417Y-119852009D01*
X108162317Y-119820000D01*
X107957683Y-119820000D01*
X107755582Y-119852009D01*
X107560968Y-119915244D01*
X107378644Y-120008143D01*
X107334077Y-120040523D01*
X107334077Y-120040524D01*
X108013554Y-120720000D01*
X108007339Y-120720000D01*
X107905606Y-120747259D01*
X107814394Y-120799920D01*
X107739920Y-120874394D01*
X107687259Y-120965606D01*
X107660000Y-121067339D01*
X107660000Y-121073553D01*
X106980524Y-120394077D01*
X106980523Y-120394077D01*
X106948143Y-120438644D01*
X106855244Y-120620968D01*
X106792009Y-120815582D01*
X106760000Y-121017682D01*
X99200500Y-121017682D01*
X99200500Y-121017648D01*
X99186305Y-120928028D01*
X99168477Y-120815465D01*
X99132655Y-120705218D01*
X99105220Y-120620781D01*
X99105218Y-120620778D01*
X99105218Y-120620776D01*
X99071503Y-120554607D01*
X99012287Y-120438390D01*
X98980092Y-120394077D01*
X98891971Y-120272786D01*
X98747213Y-120128028D01*
X98581613Y-120007715D01*
X98581612Y-120007714D01*
X98581610Y-120007713D01*
X98524653Y-119978691D01*
X98399223Y-119914781D01*
X98204534Y-119851522D01*
X98029995Y-119823878D01*
X98002352Y-119819500D01*
X97797648Y-119819500D01*
X97773329Y-119823351D01*
X97595465Y-119851522D01*
X97400776Y-119914781D01*
X97218386Y-120007715D01*
X97052786Y-120128028D01*
X96908028Y-120272786D01*
X96787715Y-120438386D01*
X96694781Y-120620776D01*
X96631522Y-120815465D01*
X96599500Y-121017648D01*
X85080500Y-121017648D01*
X85080500Y-119106494D01*
X85100185Y-119039455D01*
X85152989Y-118993700D01*
X85222147Y-118983756D01*
X85277385Y-119006176D01*
X85372184Y-119075051D01*
X85561588Y-119171557D01*
X85763757Y-119237246D01*
X85973713Y-119270500D01*
X85973714Y-119270500D01*
X86186286Y-119270500D01*
X86186287Y-119270500D01*
X86396243Y-119237246D01*
X86598412Y-119171557D01*
X86787816Y-119075051D01*
X86919424Y-118979433D01*
X86959786Y-118950109D01*
X86959788Y-118950106D01*
X86959792Y-118950104D01*
X87110104Y-118799792D01*
X87110106Y-118799788D01*
X87110109Y-118799786D01*
X87235048Y-118627820D01*
X87235047Y-118627820D01*
X87235051Y-118627816D01*
X87331557Y-118438412D01*
X87397246Y-118236243D01*
X87430500Y-118026287D01*
X87430500Y-117813713D01*
X87397246Y-117603757D01*
X87333526Y-117407648D01*
X96629500Y-117407648D01*
X96629500Y-117612351D01*
X96661522Y-117814534D01*
X96724781Y-118009223D01*
X96817715Y-118191613D01*
X96938028Y-118357213D01*
X97082786Y-118501971D01*
X97237749Y-118614556D01*
X97248390Y-118622287D01*
X97364607Y-118681503D01*
X97430776Y-118715218D01*
X97430778Y-118715218D01*
X97430781Y-118715220D01*
X97535137Y-118749127D01*
X97625465Y-118778477D01*
X97726557Y-118794488D01*
X97827648Y-118810500D01*
X97827649Y-118810500D01*
X98032351Y-118810500D01*
X98032352Y-118810500D01*
X98234534Y-118778477D01*
X98429219Y-118715220D01*
X98611610Y-118622287D01*
X98704590Y-118554732D01*
X98777213Y-118501971D01*
X98777215Y-118501968D01*
X98777219Y-118501966D01*
X98921966Y-118357219D01*
X98921968Y-118357215D01*
X98921971Y-118357213D01*
X98974732Y-118284590D01*
X99042287Y-118191610D01*
X99135220Y-118009219D01*
X99198477Y-117814534D01*
X99230500Y-117612352D01*
X99230500Y-117407648D01*
X106789500Y-117407648D01*
X106789500Y-117612351D01*
X106821522Y-117814534D01*
X106884781Y-118009223D01*
X106977715Y-118191613D01*
X107098028Y-118357213D01*
X107242786Y-118501971D01*
X107397749Y-118614556D01*
X107408390Y-118622287D01*
X107524607Y-118681503D01*
X107590776Y-118715218D01*
X107590778Y-118715218D01*
X107590781Y-118715220D01*
X107695137Y-118749127D01*
X107785465Y-118778477D01*
X107886557Y-118794488D01*
X107987648Y-118810500D01*
X107987649Y-118810500D01*
X108192351Y-118810500D01*
X108192352Y-118810500D01*
X108394534Y-118778477D01*
X108589219Y-118715220D01*
X108771610Y-118622287D01*
X108864590Y-118554732D01*
X108937213Y-118501971D01*
X108937215Y-118501968D01*
X108937219Y-118501966D01*
X109081966Y-118357219D01*
X109081968Y-118357215D01*
X109081971Y-118357213D01*
X109134732Y-118284590D01*
X109202287Y-118191610D01*
X109295220Y-118009219D01*
X109358477Y-117814534D01*
X109390500Y-117612352D01*
X109390500Y-117407648D01*
X109358477Y-117205466D01*
X109295220Y-117010781D01*
X109295218Y-117010778D01*
X109295218Y-117010776D01*
X109261503Y-116944607D01*
X109202287Y-116828390D01*
X109156931Y-116765962D01*
X109081971Y-116662786D01*
X108937213Y-116518028D01*
X108771613Y-116397715D01*
X108771612Y-116397714D01*
X108771610Y-116397713D01*
X108714653Y-116368691D01*
X108589223Y-116304781D01*
X108394534Y-116241522D01*
X108219995Y-116213878D01*
X108192352Y-116209500D01*
X107987648Y-116209500D01*
X107963329Y-116213351D01*
X107785465Y-116241522D01*
X107590776Y-116304781D01*
X107408386Y-116397715D01*
X107242786Y-116518028D01*
X107098028Y-116662786D01*
X106977715Y-116828386D01*
X106884781Y-117010776D01*
X106821522Y-117205465D01*
X106789500Y-117407648D01*
X99230500Y-117407648D01*
X99198477Y-117205466D01*
X99135220Y-117010781D01*
X99135218Y-117010778D01*
X99135218Y-117010776D01*
X99101503Y-116944607D01*
X99042287Y-116828390D01*
X98996931Y-116765962D01*
X98921971Y-116662786D01*
X98777213Y-116518028D01*
X98611613Y-116397715D01*
X98611612Y-116397714D01*
X98611610Y-116397713D01*
X98554653Y-116368691D01*
X98429223Y-116304781D01*
X98234534Y-116241522D01*
X98059995Y-116213878D01*
X98032352Y-116209500D01*
X97827648Y-116209500D01*
X97803329Y-116213351D01*
X97625465Y-116241522D01*
X97430776Y-116304781D01*
X97248386Y-116397715D01*
X97082786Y-116518028D01*
X96938028Y-116662786D01*
X96817715Y-116828386D01*
X96724781Y-117010776D01*
X96661522Y-117205465D01*
X96629500Y-117407648D01*
X87333526Y-117407648D01*
X87331557Y-117401588D01*
X87235051Y-117212184D01*
X87235049Y-117212181D01*
X87235048Y-117212179D01*
X87110109Y-117040213D01*
X86959786Y-116889890D01*
X86787820Y-116764951D01*
X86787115Y-116764591D01*
X86779054Y-116760485D01*
X86728259Y-116712512D01*
X86711463Y-116644692D01*
X86733999Y-116578556D01*
X86779054Y-116539515D01*
X86787816Y-116535051D01*
X86816738Y-116514038D01*
X86959786Y-116410109D01*
X86959788Y-116410106D01*
X86959792Y-116410104D01*
X87110104Y-116259792D01*
X87110106Y-116259788D01*
X87110109Y-116259786D01*
X87235048Y-116087820D01*
X87235047Y-116087820D01*
X87235051Y-116087816D01*
X87331557Y-115898412D01*
X87397246Y-115696243D01*
X87430500Y-115486287D01*
X87430500Y-115273713D01*
X87397246Y-115063757D01*
X87331557Y-114861588D01*
X87235051Y-114672184D01*
X87235049Y-114672181D01*
X87235048Y-114672179D01*
X87110109Y-114500213D01*
X86959786Y-114349890D01*
X86787820Y-114224951D01*
X86787115Y-114224591D01*
X86779054Y-114220485D01*
X86728259Y-114172512D01*
X86711463Y-114104692D01*
X86733999Y-114038556D01*
X86779054Y-113999515D01*
X86787816Y-113995051D01*
X86809789Y-113979086D01*
X86959786Y-113870109D01*
X86959788Y-113870106D01*
X86959792Y-113870104D01*
X87110104Y-113719792D01*
X87110106Y-113719788D01*
X87110109Y-113719786D01*
X87235048Y-113547820D01*
X87235047Y-113547820D01*
X87235051Y-113547816D01*
X87331557Y-113358412D01*
X87397246Y-113156243D01*
X87430500Y-112946287D01*
X87430500Y-112733713D01*
X87397246Y-112523757D01*
X87331557Y-112321588D01*
X87235051Y-112132184D01*
X87235049Y-112132181D01*
X87235048Y-112132179D01*
X87110109Y-111960213D01*
X86959786Y-111809890D01*
X86787820Y-111684951D01*
X86787115Y-111684591D01*
X86779054Y-111680485D01*
X86728259Y-111632512D01*
X86711463Y-111564692D01*
X86733999Y-111498556D01*
X86779054Y-111459515D01*
X86787816Y-111455051D01*
X86809789Y-111439086D01*
X86959786Y-111330109D01*
X86959788Y-111330106D01*
X86959792Y-111330104D01*
X87110104Y-111179792D01*
X87110106Y-111179788D01*
X87110109Y-111179786D01*
X87235048Y-111007820D01*
X87235047Y-111007820D01*
X87235051Y-111007816D01*
X87331557Y-110818412D01*
X87397246Y-110616243D01*
X87430500Y-110406287D01*
X87430500Y-110193713D01*
X87397246Y-109983757D01*
X87331557Y-109781588D01*
X87235051Y-109592184D01*
X87235049Y-109592181D01*
X87235048Y-109592179D01*
X87110109Y-109420213D01*
X86959786Y-109269890D01*
X86787820Y-109144951D01*
X86787115Y-109144591D01*
X86779054Y-109140485D01*
X86728259Y-109092512D01*
X86711463Y-109024692D01*
X86733999Y-108958556D01*
X86779054Y-108919515D01*
X86787816Y-108915051D01*
X86865684Y-108858477D01*
X86959786Y-108790109D01*
X86959788Y-108790106D01*
X86959792Y-108790104D01*
X87110104Y-108639792D01*
X87110106Y-108639788D01*
X87110109Y-108639786D01*
X87235048Y-108467820D01*
X87235047Y-108467820D01*
X87235051Y-108467816D01*
X87331557Y-108278412D01*
X87397246Y-108076243D01*
X87430500Y-107866287D01*
X87430500Y-107653713D01*
X87397246Y-107443757D01*
X87331557Y-107241588D01*
X87235051Y-107052184D01*
X87235049Y-107052181D01*
X87235048Y-107052179D01*
X87110109Y-106880213D01*
X86959786Y-106729890D01*
X86787820Y-106604951D01*
X86787115Y-106604591D01*
X86779054Y-106600485D01*
X86728259Y-106552512D01*
X86711463Y-106484692D01*
X86733999Y-106418556D01*
X86779054Y-106379515D01*
X86787816Y-106375051D01*
X86927297Y-106273713D01*
X86959786Y-106250109D01*
X86959788Y-106250106D01*
X86959792Y-106250104D01*
X87110104Y-106099792D01*
X87110106Y-106099788D01*
X87110109Y-106099786D01*
X87235048Y-105927820D01*
X87235047Y-105927820D01*
X87235051Y-105927816D01*
X87331557Y-105738412D01*
X87397246Y-105536243D01*
X87430500Y-105326287D01*
X87430500Y-105113713D01*
X87397246Y-104903757D01*
X87331557Y-104701588D01*
X87235051Y-104512184D01*
X87235049Y-104512181D01*
X87235048Y-104512179D01*
X87110109Y-104340213D01*
X86959786Y-104189890D01*
X86787820Y-104064951D01*
X86787115Y-104064591D01*
X86779054Y-104060485D01*
X86728259Y-104012512D01*
X86711463Y-103944692D01*
X86733999Y-103878556D01*
X86779054Y-103839515D01*
X86787816Y-103835051D01*
X86927297Y-103733713D01*
X86959786Y-103710109D01*
X86959788Y-103710106D01*
X86959792Y-103710104D01*
X87110104Y-103559792D01*
X87110106Y-103559788D01*
X87110109Y-103559786D01*
X87235048Y-103387820D01*
X87235047Y-103387820D01*
X87235051Y-103387816D01*
X87331557Y-103198412D01*
X87397246Y-102996243D01*
X87430500Y-102786287D01*
X87430500Y-102573713D01*
X87397246Y-102363757D01*
X87331557Y-102161588D01*
X87235051Y-101972184D01*
X87235049Y-101972181D01*
X87235048Y-101972179D01*
X87110109Y-101800213D01*
X86996181Y-101686285D01*
X86962696Y-101624962D01*
X86967680Y-101555270D01*
X87009552Y-101499337D01*
X87040529Y-101482422D01*
X87172086Y-101433354D01*
X87172093Y-101433350D01*
X87287187Y-101347190D01*
X87287190Y-101347187D01*
X87373350Y-101232093D01*
X87373354Y-101232086D01*
X87423596Y-101097379D01*
X87423598Y-101097372D01*
X87429999Y-101037844D01*
X87430000Y-101037827D01*
X87430000Y-100390000D01*
X86513012Y-100390000D01*
X86545925Y-100332993D01*
X86580000Y-100205826D01*
X86580000Y-100074174D01*
X86545925Y-99947007D01*
X86513012Y-99890000D01*
X87430000Y-99890000D01*
X87430000Y-99691947D01*
X89680000Y-99691947D01*
X89680000Y-99928052D01*
X89716934Y-100161247D01*
X89789897Y-100385802D01*
X89897087Y-100596174D01*
X89957338Y-100679104D01*
X89957340Y-100679105D01*
X90697037Y-99939408D01*
X90714075Y-100002993D01*
X90779901Y-100117007D01*
X90872993Y-100210099D01*
X90987007Y-100275925D01*
X91050590Y-100292962D01*
X90310893Y-101032658D01*
X90393828Y-101092914D01*
X90604197Y-101200102D01*
X90828752Y-101273065D01*
X90828751Y-101273065D01*
X91061948Y-101310000D01*
X91298052Y-101310000D01*
X91531247Y-101273065D01*
X91755802Y-101200102D01*
X91966163Y-101092918D01*
X91966169Y-101092914D01*
X92049104Y-101032658D01*
X92049105Y-101032658D01*
X91309408Y-100292962D01*
X91372993Y-100275925D01*
X91487007Y-100210099D01*
X91580099Y-100117007D01*
X91645925Y-100002993D01*
X91662962Y-99939409D01*
X92402658Y-100679105D01*
X92402658Y-100679104D01*
X92462914Y-100596169D01*
X92462918Y-100596163D01*
X92570102Y-100385802D01*
X92643065Y-100161247D01*
X92680000Y-99928052D01*
X92680000Y-99691947D01*
X92643065Y-99458752D01*
X92570102Y-99234197D01*
X92462914Y-99023828D01*
X92402658Y-98940894D01*
X92402658Y-98940893D01*
X91662962Y-99680590D01*
X91645925Y-99617007D01*
X91580099Y-99502993D01*
X91487007Y-99409901D01*
X91372993Y-99344075D01*
X91309409Y-99327037D01*
X92049105Y-98587340D01*
X92049104Y-98587338D01*
X91966174Y-98527087D01*
X91755802Y-98419897D01*
X91531247Y-98346934D01*
X91531248Y-98346934D01*
X91298052Y-98310000D01*
X91061948Y-98310000D01*
X90828752Y-98346934D01*
X90604197Y-98419897D01*
X90393830Y-98527084D01*
X90310894Y-98587340D01*
X91050591Y-99327037D01*
X90987007Y-99344075D01*
X90872993Y-99409901D01*
X90779901Y-99502993D01*
X90714075Y-99617007D01*
X90697037Y-99680591D01*
X89957340Y-98940894D01*
X89897084Y-99023830D01*
X89789897Y-99234197D01*
X89716934Y-99458752D01*
X89680000Y-99691947D01*
X87430000Y-99691947D01*
X87430000Y-99242172D01*
X87429999Y-99242155D01*
X87423598Y-99182627D01*
X87423596Y-99182620D01*
X87373354Y-99047913D01*
X87373350Y-99047906D01*
X87287190Y-98932812D01*
X87287187Y-98932809D01*
X87172093Y-98846649D01*
X87172086Y-98846645D01*
X87037379Y-98796403D01*
X87037372Y-98796401D01*
X86977844Y-98790000D01*
X86330000Y-98790000D01*
X86330000Y-99706988D01*
X86272993Y-99674075D01*
X86145826Y-99640000D01*
X86014174Y-99640000D01*
X85887007Y-99674075D01*
X85830000Y-99706988D01*
X85830000Y-98790000D01*
X85204500Y-98790000D01*
X85195814Y-98787449D01*
X85186853Y-98788738D01*
X85162812Y-98777759D01*
X85137461Y-98770315D01*
X85131533Y-98763474D01*
X85123297Y-98759713D01*
X85109007Y-98737478D01*
X85091706Y-98717511D01*
X85089418Y-98706996D01*
X85085523Y-98700935D01*
X85080500Y-98666000D01*
X85080500Y-94691902D01*
X89679500Y-94691902D01*
X89679500Y-94928097D01*
X89716446Y-95161368D01*
X89789433Y-95385996D01*
X89893113Y-95589478D01*
X89896657Y-95596433D01*
X90035483Y-95787510D01*
X90202490Y-95954517D01*
X90393567Y-96093343D01*
X90464529Y-96129500D01*
X90604003Y-96200566D01*
X90604005Y-96200566D01*
X90604008Y-96200568D01*
X90678525Y-96224780D01*
X90828631Y-96273553D01*
X91061903Y-96310500D01*
X91061908Y-96310500D01*
X91298097Y-96310500D01*
X91531368Y-96273553D01*
X91721110Y-96211902D01*
X93589500Y-96211902D01*
X93589500Y-96448097D01*
X93626446Y-96681368D01*
X93699433Y-96905996D01*
X93806657Y-97116433D01*
X93945483Y-97307510D01*
X94112490Y-97474517D01*
X94147127Y-97499683D01*
X94189792Y-97555013D01*
X94195771Y-97624626D01*
X94163165Y-97686421D01*
X94147130Y-97700315D01*
X94129365Y-97713222D01*
X94112488Y-97725484D01*
X93945485Y-97892487D01*
X93945485Y-97892488D01*
X93945483Y-97892490D01*
X93921970Y-97924853D01*
X93806657Y-98083566D01*
X93699433Y-98294003D01*
X93626446Y-98518631D01*
X93589500Y-98751902D01*
X93589500Y-98988097D01*
X93626446Y-99221368D01*
X93699433Y-99445996D01*
X93728734Y-99503501D01*
X93806657Y-99656433D01*
X93945483Y-99847510D01*
X94112490Y-100014517D01*
X94189542Y-100070499D01*
X94198309Y-100076868D01*
X94240975Y-100132198D01*
X94246954Y-100201811D01*
X94214348Y-100263606D01*
X94213105Y-100264867D01*
X94045486Y-100432486D01*
X94045485Y-100432488D01*
X94045483Y-100432490D01*
X94034936Y-100447007D01*
X93906657Y-100623566D01*
X93799433Y-100834003D01*
X93726446Y-101058631D01*
X93689500Y-101291902D01*
X93689500Y-101528097D01*
X93726446Y-101761368D01*
X93799433Y-101985996D01*
X93906657Y-102196433D01*
X94045483Y-102387510D01*
X94212490Y-102554517D01*
X94247127Y-102579683D01*
X94289792Y-102635013D01*
X94295771Y-102704626D01*
X94263165Y-102766421D01*
X94247130Y-102780315D01*
X94238911Y-102786287D01*
X94212488Y-102805484D01*
X94045485Y-102972487D01*
X94045485Y-102972488D01*
X94045483Y-102972490D01*
X93985862Y-103054550D01*
X93906657Y-103163566D01*
X93799433Y-103374003D01*
X93726446Y-103598631D01*
X93689500Y-103831902D01*
X93689500Y-104068097D01*
X93726446Y-104301368D01*
X93799433Y-104525996D01*
X93898175Y-104719786D01*
X93906657Y-104736433D01*
X94045483Y-104927510D01*
X94212490Y-105094517D01*
X94247127Y-105119683D01*
X94289792Y-105175013D01*
X94295771Y-105244626D01*
X94263165Y-105306421D01*
X94247130Y-105320315D01*
X94238911Y-105326287D01*
X94212488Y-105345484D01*
X94045485Y-105512487D01*
X94045485Y-105512488D01*
X94045483Y-105512490D01*
X93985862Y-105594550D01*
X93906657Y-105703566D01*
X93799433Y-105914003D01*
X93726446Y-106138631D01*
X93689500Y-106371902D01*
X93689500Y-106608097D01*
X93726446Y-106841368D01*
X93799433Y-107065996D01*
X93898175Y-107259786D01*
X93906657Y-107276433D01*
X94045483Y-107467510D01*
X94045485Y-107467512D01*
X94212490Y-107634517D01*
X94233364Y-107649683D01*
X94276029Y-107705014D01*
X94282007Y-107774627D01*
X94249400Y-107836422D01*
X94233364Y-107850317D01*
X94212490Y-107865482D01*
X94045485Y-108032487D01*
X94045485Y-108032488D01*
X94045483Y-108032490D01*
X94004267Y-108089219D01*
X93906657Y-108223566D01*
X93799433Y-108434003D01*
X93726446Y-108658631D01*
X93689500Y-108891902D01*
X93689500Y-109128097D01*
X93726446Y-109361368D01*
X93799433Y-109585996D01*
X93899093Y-109781588D01*
X93906657Y-109796433D01*
X94045483Y-109987510D01*
X94045485Y-109987512D01*
X94212490Y-110154517D01*
X94260891Y-110189683D01*
X94303556Y-110245013D01*
X94309534Y-110314627D01*
X94276927Y-110376421D01*
X94260891Y-110390317D01*
X94212490Y-110425482D01*
X94045485Y-110592487D01*
X94045485Y-110592488D01*
X94045483Y-110592490D01*
X94005361Y-110647713D01*
X93906657Y-110783566D01*
X93799433Y-110994003D01*
X93726446Y-111218631D01*
X93689500Y-111451902D01*
X93689500Y-111688097D01*
X93726446Y-111921368D01*
X93799433Y-112145996D01*
X93906657Y-112356433D01*
X94045483Y-112547510D01*
X94212490Y-112714517D01*
X94403567Y-112853343D01*
X94440741Y-112872284D01*
X94614003Y-112960566D01*
X94614005Y-112960566D01*
X94614008Y-112960568D01*
X94734412Y-112999689D01*
X94838631Y-113033553D01*
X95071903Y-113070500D01*
X95071908Y-113070500D01*
X95308097Y-113070500D01*
X95541368Y-113033553D01*
X95556990Y-113028477D01*
X95765992Y-112960568D01*
X95976433Y-112853343D01*
X96167510Y-112714517D01*
X96334517Y-112547510D01*
X96473343Y-112356433D01*
X96580568Y-112145992D01*
X96653553Y-111921368D01*
X96662900Y-111862352D01*
X96690500Y-111688097D01*
X96690500Y-111451902D01*
X96653553Y-111218631D01*
X96602574Y-111061736D01*
X96580568Y-110994008D01*
X96580566Y-110994005D01*
X96580566Y-110994003D01*
X96491097Y-110818412D01*
X96473343Y-110783567D01*
X96334517Y-110592490D01*
X96167510Y-110425483D01*
X96119108Y-110390316D01*
X96076443Y-110334989D01*
X96070464Y-110265375D01*
X96103069Y-110203580D01*
X96119108Y-110189683D01*
X96167510Y-110154517D01*
X96334517Y-109987510D01*
X96473343Y-109796433D01*
X96580568Y-109585992D01*
X96653553Y-109361368D01*
X96687332Y-109148097D01*
X96690500Y-109128097D01*
X96690500Y-108891902D01*
X96653553Y-108658631D01*
X96587066Y-108454008D01*
X96580568Y-108434008D01*
X96580566Y-108434005D01*
X96580566Y-108434003D01*
X96501288Y-108278412D01*
X96473343Y-108223567D01*
X96334517Y-108032490D01*
X96167510Y-107865483D01*
X96146636Y-107850317D01*
X96103971Y-107794989D01*
X96097992Y-107725375D01*
X96130597Y-107663580D01*
X96146637Y-107649682D01*
X96167510Y-107634517D01*
X96334517Y-107467510D01*
X96473343Y-107276433D01*
X96580568Y-107065992D01*
X96653553Y-106841368D01*
X96655583Y-106828552D01*
X96690500Y-106608097D01*
X96690500Y-106371902D01*
X96664440Y-106207367D01*
X96661918Y-106191441D01*
X97239500Y-106191441D01*
X97239500Y-106828558D01*
X97254157Y-106958648D01*
X97254159Y-106958658D01*
X97300392Y-107090781D01*
X97311878Y-107123606D01*
X97404853Y-107271576D01*
X97528424Y-107395147D01*
X97676394Y-107488122D01*
X97841343Y-107545841D01*
X97841349Y-107545841D01*
X97841351Y-107545842D01*
X97882750Y-107550506D01*
X97971442Y-107560499D01*
X97971445Y-107560500D01*
X97971448Y-107560500D01*
X100008555Y-107560500D01*
X100008556Y-107560499D01*
X100138657Y-107545841D01*
X100303606Y-107488122D01*
X100451576Y-107395147D01*
X100575147Y-107271576D01*
X100668122Y-107123606D01*
X100725841Y-106958657D01*
X100740500Y-106828552D01*
X100740500Y-106191448D01*
X100725841Y-106061343D01*
X100668122Y-105896394D01*
X100575147Y-105748424D01*
X100451576Y-105624853D01*
X100303606Y-105531878D01*
X100303605Y-105531877D01*
X100303604Y-105531877D01*
X100138658Y-105474159D01*
X100138648Y-105474157D01*
X100008558Y-105459500D01*
X100008552Y-105459500D01*
X97971448Y-105459500D01*
X97971441Y-105459500D01*
X97841351Y-105474157D01*
X97841341Y-105474159D01*
X97676395Y-105531877D01*
X97528423Y-105624853D01*
X97404853Y-105748423D01*
X97311877Y-105896395D01*
X97254159Y-106061341D01*
X97254157Y-106061351D01*
X97239500Y-106191441D01*
X96661918Y-106191441D01*
X96653553Y-106138631D01*
X96619689Y-106034412D01*
X96580568Y-105914008D01*
X96580566Y-105914005D01*
X96580566Y-105914003D01*
X96473342Y-105703566D01*
X96334517Y-105512490D01*
X96167510Y-105345483D01*
X96132872Y-105320317D01*
X96090207Y-105264989D01*
X96084228Y-105195375D01*
X96116833Y-105133580D01*
X96132873Y-105119682D01*
X96138888Y-105115312D01*
X96167510Y-105094517D01*
X96334517Y-104927510D01*
X96473343Y-104736433D01*
X96580568Y-104525992D01*
X96653553Y-104301368D01*
X96690500Y-104068097D01*
X96690500Y-103831902D01*
X96653553Y-103598631D01*
X96619689Y-103494412D01*
X96580568Y-103374008D01*
X96580566Y-103374005D01*
X96580566Y-103374003D01*
X96473342Y-103163566D01*
X96334517Y-102972490D01*
X96167510Y-102805483D01*
X96132872Y-102780317D01*
X96090207Y-102724989D01*
X96084228Y-102655375D01*
X96116833Y-102593580D01*
X96132873Y-102579682D01*
X96167510Y-102554517D01*
X96334517Y-102387510D01*
X96473343Y-102196433D01*
X96580568Y-101985992D01*
X96653553Y-101761368D01*
X96670629Y-101653554D01*
X96690500Y-101528097D01*
X96690500Y-101291902D01*
X96653553Y-101058631D01*
X96601978Y-100899901D01*
X96580568Y-100834008D01*
X96580566Y-100834005D01*
X96580566Y-100834003D01*
X96501641Y-100679105D01*
X96473343Y-100623567D01*
X96334517Y-100432490D01*
X96167510Y-100265483D01*
X96081689Y-100203130D01*
X96039024Y-100147801D01*
X96033045Y-100078188D01*
X96065651Y-100016393D01*
X96066894Y-100015132D01*
X96067506Y-100014519D01*
X96067510Y-100014517D01*
X96234517Y-99847510D01*
X96373343Y-99656433D01*
X96480568Y-99445992D01*
X96553553Y-99221368D01*
X96568253Y-99128554D01*
X96590500Y-98988097D01*
X96590500Y-98751902D01*
X96560579Y-98562993D01*
X96553553Y-98518632D01*
X96544718Y-98491441D01*
X97239500Y-98491441D01*
X97239500Y-99128558D01*
X97254157Y-99258648D01*
X97254159Y-99258658D01*
X97285717Y-99348844D01*
X97311878Y-99423606D01*
X97404853Y-99571576D01*
X97528424Y-99695147D01*
X97676394Y-99788122D01*
X97841343Y-99845841D01*
X97841349Y-99845841D01*
X97841351Y-99845842D01*
X97882750Y-99850506D01*
X97971442Y-99860499D01*
X97971445Y-99860500D01*
X97971448Y-99860500D01*
X100008555Y-99860500D01*
X100008556Y-99860499D01*
X100138657Y-99845841D01*
X100303606Y-99788122D01*
X100451576Y-99695147D01*
X100575147Y-99571576D01*
X100668122Y-99423606D01*
X100725841Y-99258657D01*
X100740500Y-99128552D01*
X100740500Y-98491448D01*
X100725841Y-98361343D01*
X100668122Y-98196394D01*
X100575147Y-98048424D01*
X100451576Y-97924853D01*
X100303606Y-97831878D01*
X100303605Y-97831877D01*
X100303604Y-97831877D01*
X100138658Y-97774159D01*
X100138648Y-97774157D01*
X100008558Y-97759500D01*
X100008552Y-97759500D01*
X97971448Y-97759500D01*
X97971441Y-97759500D01*
X97841351Y-97774157D01*
X97841341Y-97774159D01*
X97676395Y-97831877D01*
X97528423Y-97924853D01*
X97404853Y-98048423D01*
X97311877Y-98196395D01*
X97254159Y-98361341D01*
X97254157Y-98361351D01*
X97239500Y-98491441D01*
X96544718Y-98491441D01*
X96480568Y-98294008D01*
X96480566Y-98294005D01*
X96480566Y-98294003D01*
X96387633Y-98111613D01*
X96373343Y-98083567D01*
X96234517Y-97892490D01*
X96067510Y-97725483D01*
X96032872Y-97700317D01*
X95990207Y-97644989D01*
X95984228Y-97575375D01*
X96016833Y-97513580D01*
X96032873Y-97499682D01*
X96067510Y-97474517D01*
X96234517Y-97307510D01*
X96373343Y-97116433D01*
X96480568Y-96905992D01*
X96553553Y-96681368D01*
X96569168Y-96582781D01*
X96590500Y-96448097D01*
X96590500Y-96211902D01*
X108589500Y-96211902D01*
X108589500Y-96448097D01*
X108626446Y-96681368D01*
X108699433Y-96905996D01*
X108806657Y-97116433D01*
X108945483Y-97307510D01*
X109112490Y-97474517D01*
X109171716Y-97517547D01*
X109214381Y-97572875D01*
X109222448Y-97627593D01*
X109220893Y-97647340D01*
X109960591Y-98387037D01*
X109897007Y-98404075D01*
X109782993Y-98469901D01*
X109689901Y-98562993D01*
X109624075Y-98677007D01*
X109607037Y-98740591D01*
X108867340Y-98000894D01*
X108807084Y-98083830D01*
X108699897Y-98294197D01*
X108626934Y-98518752D01*
X108590000Y-98751947D01*
X108590000Y-98988052D01*
X108626934Y-99221247D01*
X108699897Y-99445802D01*
X108807087Y-99656174D01*
X108867338Y-99739104D01*
X108867340Y-99739105D01*
X109607037Y-98999408D01*
X109624075Y-99062993D01*
X109689901Y-99177007D01*
X109782993Y-99270099D01*
X109897007Y-99335925D01*
X109960590Y-99352962D01*
X109220893Y-100092658D01*
X109222448Y-100112405D01*
X109208084Y-100180783D01*
X109171717Y-100222451D01*
X109112490Y-100265482D01*
X108945485Y-100432487D01*
X108945485Y-100432488D01*
X108945483Y-100432490D01*
X108934936Y-100447007D01*
X108806657Y-100623566D01*
X108699433Y-100834003D01*
X108626446Y-101058631D01*
X108589500Y-101291902D01*
X108589500Y-101528097D01*
X108626446Y-101761368D01*
X108699433Y-101985996D01*
X108806657Y-102196433D01*
X108945483Y-102387510D01*
X109112490Y-102554517D01*
X109147127Y-102579683D01*
X109189792Y-102635013D01*
X109195771Y-102704626D01*
X109163165Y-102766421D01*
X109147130Y-102780315D01*
X109138911Y-102786287D01*
X109112488Y-102805484D01*
X108945485Y-102972487D01*
X108945485Y-102972488D01*
X108945483Y-102972490D01*
X108885862Y-103054550D01*
X108806657Y-103163566D01*
X108699433Y-103374003D01*
X108626446Y-103598631D01*
X108589500Y-103831902D01*
X108589500Y-104068097D01*
X108626446Y-104301368D01*
X108699433Y-104525996D01*
X108798175Y-104719786D01*
X108806657Y-104736433D01*
X108945483Y-104927510D01*
X109112490Y-105094517D01*
X109147127Y-105119683D01*
X109189792Y-105175013D01*
X109195771Y-105244626D01*
X109163165Y-105306421D01*
X109147130Y-105320315D01*
X109138911Y-105326287D01*
X109112488Y-105345484D01*
X108945485Y-105512487D01*
X108945485Y-105512488D01*
X108945483Y-105512490D01*
X108885862Y-105594550D01*
X108806657Y-105703566D01*
X108699433Y-105914003D01*
X108626446Y-106138631D01*
X108589500Y-106371902D01*
X108589500Y-106608097D01*
X108626446Y-106841368D01*
X108699433Y-107065996D01*
X108798175Y-107259786D01*
X108806657Y-107276433D01*
X108945483Y-107467510D01*
X109112490Y-107634517D01*
X109147127Y-107659683D01*
X109189792Y-107715013D01*
X109195771Y-107784626D01*
X109163165Y-107846421D01*
X109147130Y-107860315D01*
X109138911Y-107866287D01*
X109112488Y-107885484D01*
X108945485Y-108052487D01*
X108945485Y-108052488D01*
X108945483Y-108052490D01*
X108918798Y-108089219D01*
X108806657Y-108243566D01*
X108699433Y-108454003D01*
X108626446Y-108678631D01*
X108589500Y-108911902D01*
X108589500Y-109148097D01*
X108626446Y-109381368D01*
X108699433Y-109605996D01*
X108796466Y-109796433D01*
X108806657Y-109816433D01*
X108945483Y-110007510D01*
X109112490Y-110174517D01*
X109147127Y-110199683D01*
X109189792Y-110255013D01*
X109195771Y-110324626D01*
X109163165Y-110386421D01*
X109147130Y-110400315D01*
X109138911Y-110406287D01*
X109112488Y-110425484D01*
X108945485Y-110592487D01*
X108945485Y-110592488D01*
X108945483Y-110592490D01*
X108905361Y-110647713D01*
X108806657Y-110783566D01*
X108699433Y-110994003D01*
X108626446Y-111218631D01*
X108589500Y-111451902D01*
X108589500Y-111688097D01*
X108626446Y-111921368D01*
X108699433Y-112145996D01*
X108806657Y-112356433D01*
X108945483Y-112547510D01*
X109112490Y-112714517D01*
X109303567Y-112853343D01*
X109340741Y-112872284D01*
X109514003Y-112960566D01*
X109514005Y-112960566D01*
X109514008Y-112960568D01*
X109634412Y-112999689D01*
X109738631Y-113033553D01*
X109971903Y-113070500D01*
X109971908Y-113070500D01*
X110208097Y-113070500D01*
X110441368Y-113033553D01*
X110456990Y-113028477D01*
X110665992Y-112960568D01*
X110876433Y-112853343D01*
X111067510Y-112714517D01*
X111234517Y-112547510D01*
X111373343Y-112356433D01*
X111480568Y-112145992D01*
X111553553Y-111921368D01*
X111562900Y-111862352D01*
X111590500Y-111688097D01*
X111590500Y-111657648D01*
X113289500Y-111657648D01*
X113289500Y-111862351D01*
X113321522Y-112064534D01*
X113384781Y-112259223D01*
X113434313Y-112356433D01*
X113454095Y-112395258D01*
X113477715Y-112441613D01*
X113598028Y-112607213D01*
X113742786Y-112751971D01*
X113897749Y-112864556D01*
X113908390Y-112872287D01*
X114024607Y-112931503D01*
X114090776Y-112965218D01*
X114090778Y-112965218D01*
X114090781Y-112965220D01*
X114195137Y-112999127D01*
X114285465Y-113028477D01*
X114386557Y-113044488D01*
X114487648Y-113060500D01*
X114487649Y-113060500D01*
X114692351Y-113060500D01*
X114692352Y-113060500D01*
X114894534Y-113028477D01*
X115089219Y-112965220D01*
X115271610Y-112872287D01*
X115364590Y-112804732D01*
X115437213Y-112751971D01*
X115437215Y-112751968D01*
X115437219Y-112751966D01*
X115581966Y-112607219D01*
X115581968Y-112607215D01*
X115581971Y-112607213D01*
X115667493Y-112489500D01*
X115702287Y-112441610D01*
X115795220Y-112259219D01*
X115858477Y-112064534D01*
X115890500Y-111862352D01*
X115890500Y-111657648D01*
X115858477Y-111455466D01*
X115858341Y-111455048D01*
X115795218Y-111260776D01*
X115753951Y-111179786D01*
X115702287Y-111078390D01*
X115700923Y-111076513D01*
X115690188Y-111061736D01*
X115639635Y-110992155D01*
X140020000Y-110992155D01*
X140020000Y-111790000D01*
X140811759Y-111790000D01*
X140798822Y-111821233D01*
X140770000Y-111966131D01*
X140770000Y-112113869D01*
X140798822Y-112258767D01*
X140811759Y-112290000D01*
X140020000Y-112290000D01*
X140020000Y-113087844D01*
X140026401Y-113147372D01*
X140026403Y-113147379D01*
X140076645Y-113282086D01*
X140076649Y-113282093D01*
X140162809Y-113397187D01*
X140162812Y-113397190D01*
X140277906Y-113483350D01*
X140277913Y-113483354D01*
X140412620Y-113533596D01*
X140412627Y-113533598D01*
X140472155Y-113539999D01*
X140472172Y-113540000D01*
X141270000Y-113540000D01*
X141270000Y-112748240D01*
X141301233Y-112761178D01*
X141446131Y-112790000D01*
X141593869Y-112790000D01*
X141738767Y-112761178D01*
X141770000Y-112748240D01*
X141770000Y-113540000D01*
X142567828Y-113540000D01*
X142567844Y-113539999D01*
X142627372Y-113533598D01*
X142627379Y-113533596D01*
X142762086Y-113483354D01*
X142762093Y-113483350D01*
X142877187Y-113397190D01*
X142877190Y-113397187D01*
X142963350Y-113282093D01*
X142963354Y-113282086D01*
X143013596Y-113147379D01*
X143013598Y-113147372D01*
X143019999Y-113087844D01*
X143020000Y-113087827D01*
X143020000Y-112290000D01*
X142228241Y-112290000D01*
X142241178Y-112258767D01*
X142270000Y-112113869D01*
X142270000Y-111966131D01*
X142241178Y-111821233D01*
X142228241Y-111790000D01*
X143020000Y-111790000D01*
X143020000Y-110992172D01*
X143019999Y-110992155D01*
X143013598Y-110932627D01*
X143013596Y-110932620D01*
X142963354Y-110797913D01*
X142963350Y-110797906D01*
X142877190Y-110682812D01*
X142877187Y-110682809D01*
X142762093Y-110596649D01*
X142762086Y-110596645D01*
X142627379Y-110546403D01*
X142627372Y-110546401D01*
X142567844Y-110540000D01*
X141770000Y-110540000D01*
X141770000Y-111331759D01*
X141738767Y-111318822D01*
X141593869Y-111290000D01*
X141446131Y-111290000D01*
X141301233Y-111318822D01*
X141270000Y-111331759D01*
X141270000Y-110540000D01*
X140472155Y-110540000D01*
X140412627Y-110546401D01*
X140412620Y-110546403D01*
X140277913Y-110596645D01*
X140277906Y-110596649D01*
X140162812Y-110682809D01*
X140162809Y-110682812D01*
X140076649Y-110797906D01*
X140076645Y-110797913D01*
X140026403Y-110932620D01*
X140026401Y-110932627D01*
X140020000Y-110992155D01*
X115639635Y-110992155D01*
X115581971Y-110912786D01*
X115437213Y-110768028D01*
X115271613Y-110647715D01*
X115271612Y-110647714D01*
X115271610Y-110647713D01*
X115209839Y-110616239D01*
X115089223Y-110554781D01*
X114894534Y-110491522D01*
X114719995Y-110463878D01*
X114692352Y-110459500D01*
X114487648Y-110459500D01*
X114463329Y-110463351D01*
X114285465Y-110491522D01*
X114090776Y-110554781D01*
X113908386Y-110647715D01*
X113742786Y-110768028D01*
X113598028Y-110912786D01*
X113477715Y-111078386D01*
X113384781Y-111260776D01*
X113321522Y-111455465D01*
X113289500Y-111657648D01*
X111590500Y-111657648D01*
X111590500Y-111451902D01*
X111553553Y-111218631D01*
X111502574Y-111061736D01*
X111480568Y-110994008D01*
X111480566Y-110994005D01*
X111480566Y-110994003D01*
X111391097Y-110818412D01*
X111373343Y-110783567D01*
X111234517Y-110592490D01*
X111067510Y-110425483D01*
X111032872Y-110400317D01*
X110990207Y-110344989D01*
X110984228Y-110275375D01*
X111016833Y-110213580D01*
X111032873Y-110199682D01*
X111067510Y-110174517D01*
X111234517Y-110007510D01*
X111373343Y-109816433D01*
X111480568Y-109605992D01*
X111553553Y-109381368D01*
X111556721Y-109361368D01*
X111590500Y-109148097D01*
X111590500Y-108911902D01*
X111553553Y-108678631D01*
X111519689Y-108574412D01*
X111480568Y-108454008D01*
X111480566Y-108454005D01*
X111480566Y-108454003D01*
X111387633Y-108271613D01*
X111373343Y-108243567D01*
X111234517Y-108052490D01*
X111067510Y-107885483D01*
X111032872Y-107860317D01*
X110990207Y-107804989D01*
X110984228Y-107735375D01*
X111016833Y-107673580D01*
X111032873Y-107659682D01*
X111067510Y-107634517D01*
X111234517Y-107467510D01*
X111373343Y-107276433D01*
X111480568Y-107065992D01*
X111480569Y-107065990D01*
X111482429Y-107061499D01*
X111483425Y-107061911D01*
X111519945Y-107008506D01*
X111584303Y-106981308D01*
X111598437Y-106980500D01*
X113249941Y-106980500D01*
X113316980Y-107000185D01*
X113362735Y-107052989D01*
X113372679Y-107122147D01*
X113367872Y-107142818D01*
X113321523Y-107285461D01*
X113321523Y-107285464D01*
X113321523Y-107285466D01*
X113289500Y-107487648D01*
X113289500Y-107692352D01*
X113293089Y-107715013D01*
X113321522Y-107894534D01*
X113384781Y-108089223D01*
X113448691Y-108214653D01*
X113463424Y-108243567D01*
X113477715Y-108271613D01*
X113598028Y-108437213D01*
X113742786Y-108581971D01*
X113864495Y-108670396D01*
X113908390Y-108702287D01*
X114024607Y-108761503D01*
X114090776Y-108795218D01*
X114090778Y-108795218D01*
X114090781Y-108795220D01*
X114195137Y-108829127D01*
X114285465Y-108858477D01*
X114386557Y-108874488D01*
X114487648Y-108890500D01*
X114487649Y-108890500D01*
X114692351Y-108890500D01*
X114692352Y-108890500D01*
X114894534Y-108858477D01*
X115089219Y-108795220D01*
X115271610Y-108702287D01*
X115364590Y-108634732D01*
X115437213Y-108581971D01*
X115437215Y-108581968D01*
X115437219Y-108581966D01*
X115581966Y-108437219D01*
X115581968Y-108437215D01*
X115581971Y-108437213D01*
X115634732Y-108364590D01*
X115702287Y-108271610D01*
X115795220Y-108089219D01*
X115858477Y-107894534D01*
X115890500Y-107692352D01*
X115890500Y-107487648D01*
X115858477Y-107285466D01*
X115858476Y-107285462D01*
X115858476Y-107285461D01*
X115812128Y-107142818D01*
X115810133Y-107072977D01*
X115846213Y-107013144D01*
X115908914Y-106982316D01*
X115930059Y-106980500D01*
X131044281Y-106980500D01*
X131111320Y-107000185D01*
X131154765Y-107048205D01*
X131174947Y-107087814D01*
X131174948Y-107087815D01*
X131299890Y-107259786D01*
X131450213Y-107410109D01*
X131622179Y-107535048D01*
X131622181Y-107535049D01*
X131622184Y-107535051D01*
X131811588Y-107631557D01*
X132013757Y-107697246D01*
X132223713Y-107730500D01*
X132223714Y-107730500D01*
X132436286Y-107730500D01*
X132436287Y-107730500D01*
X132646243Y-107697246D01*
X132848412Y-107631557D01*
X133037816Y-107535051D01*
X133103061Y-107487648D01*
X133209786Y-107410109D01*
X133209788Y-107410106D01*
X133209792Y-107410104D01*
X133360104Y-107259792D01*
X133360106Y-107259788D01*
X133360109Y-107259786D01*
X133485048Y-107087820D01*
X133485047Y-107087820D01*
X133485051Y-107087816D01*
X133581557Y-106898412D01*
X133647246Y-106696243D01*
X133680500Y-106486287D01*
X133680500Y-106273713D01*
X133647246Y-106063757D01*
X133581557Y-105861588D01*
X133485051Y-105672184D01*
X133485049Y-105672181D01*
X133485048Y-105672179D01*
X133360109Y-105500213D01*
X133209786Y-105349890D01*
X133037820Y-105224951D01*
X133037115Y-105224591D01*
X133029054Y-105220485D01*
X132978259Y-105172512D01*
X132961463Y-105104692D01*
X132983999Y-105038556D01*
X133029054Y-104999515D01*
X133037816Y-104995051D01*
X133059789Y-104979086D01*
X133209786Y-104870109D01*
X133209788Y-104870106D01*
X133209792Y-104870104D01*
X133360104Y-104719792D01*
X133360106Y-104719788D01*
X133360109Y-104719786D01*
X133485048Y-104547820D01*
X133485047Y-104547820D01*
X133485051Y-104547816D01*
X133581557Y-104358412D01*
X133647246Y-104156243D01*
X133680500Y-103946287D01*
X133680500Y-103733713D01*
X133647246Y-103523757D01*
X133581557Y-103321588D01*
X133485051Y-103132184D01*
X133485049Y-103132181D01*
X133485048Y-103132179D01*
X133360109Y-102960213D01*
X133209786Y-102809890D01*
X133037817Y-102684949D01*
X133028504Y-102680204D01*
X132977707Y-102632230D01*
X132960912Y-102564409D01*
X132983449Y-102498274D01*
X133028507Y-102459232D01*
X133037555Y-102454622D01*
X133091716Y-102415270D01*
X133091717Y-102415270D01*
X132459408Y-101782962D01*
X132522993Y-101765925D01*
X132637007Y-101700099D01*
X132730099Y-101607007D01*
X132795925Y-101492993D01*
X132812962Y-101429409D01*
X133445270Y-102061717D01*
X133445270Y-102061716D01*
X133484622Y-102007554D01*
X133581095Y-101818217D01*
X133646757Y-101616130D01*
X133646757Y-101616127D01*
X133680000Y-101406246D01*
X133680000Y-101193753D01*
X133646757Y-100983872D01*
X133646757Y-100983869D01*
X133581095Y-100781782D01*
X133484624Y-100592449D01*
X133445270Y-100538282D01*
X133445269Y-100538282D01*
X132812962Y-101170590D01*
X132795925Y-101107007D01*
X132730099Y-100992993D01*
X132637007Y-100899901D01*
X132522993Y-100834075D01*
X132459409Y-100817037D01*
X133129627Y-100146818D01*
X133190950Y-100113333D01*
X133217307Y-100110499D01*
X133227872Y-100110499D01*
X133287483Y-100104091D01*
X133422331Y-100053796D01*
X133537546Y-99967546D01*
X133623796Y-99852331D01*
X133674091Y-99717483D01*
X133680500Y-99657873D01*
X133680499Y-97862128D01*
X133674091Y-97802517D01*
X133663514Y-97774159D01*
X133623797Y-97667671D01*
X133623793Y-97667664D01*
X133537547Y-97552455D01*
X133537544Y-97552452D01*
X133422335Y-97466206D01*
X133422328Y-97466202D01*
X133287482Y-97415908D01*
X133287483Y-97415908D01*
X133227883Y-97409501D01*
X133227881Y-97409500D01*
X133227873Y-97409500D01*
X133227864Y-97409500D01*
X131432129Y-97409500D01*
X131432123Y-97409501D01*
X131372516Y-97415908D01*
X131237671Y-97466202D01*
X131237664Y-97466206D01*
X131122455Y-97552452D01*
X131122452Y-97552455D01*
X131036206Y-97667664D01*
X131036202Y-97667671D01*
X130985908Y-97802517D01*
X130982900Y-97830500D01*
X130979501Y-97862123D01*
X130979500Y-97862135D01*
X130979500Y-99657870D01*
X130979501Y-99657876D01*
X130985908Y-99717483D01*
X131036202Y-99852328D01*
X131036206Y-99852335D01*
X131122452Y-99967544D01*
X131122455Y-99967547D01*
X131237664Y-100053793D01*
X131237671Y-100053797D01*
X131274441Y-100067511D01*
X131372517Y-100104091D01*
X131432127Y-100110500D01*
X131442685Y-100110499D01*
X131509723Y-100130179D01*
X131530372Y-100146818D01*
X132200591Y-100817037D01*
X132137007Y-100834075D01*
X132022993Y-100899901D01*
X131929901Y-100992993D01*
X131864075Y-101107007D01*
X131847037Y-101170591D01*
X131214728Y-100538282D01*
X131214727Y-100538282D01*
X131175380Y-100592439D01*
X131078904Y-100781782D01*
X131013242Y-100983869D01*
X131013242Y-100983872D01*
X130980000Y-101193753D01*
X130980000Y-101406246D01*
X131013242Y-101616127D01*
X131013242Y-101616130D01*
X131078904Y-101818217D01*
X131175375Y-102007550D01*
X131214728Y-102061716D01*
X131847037Y-101429408D01*
X131864075Y-101492993D01*
X131929901Y-101607007D01*
X132022993Y-101700099D01*
X132137007Y-101765925D01*
X132200590Y-101782962D01*
X131568282Y-102415269D01*
X131568282Y-102415270D01*
X131622452Y-102454626D01*
X131622451Y-102454626D01*
X131631495Y-102459234D01*
X131682292Y-102507208D01*
X131699087Y-102575029D01*
X131676550Y-102641164D01*
X131631499Y-102680202D01*
X131622182Y-102684949D01*
X131450213Y-102809890D01*
X131299890Y-102960213D01*
X131174948Y-103132184D01*
X131174947Y-103132185D01*
X131154765Y-103171795D01*
X131106791Y-103222591D01*
X131044281Y-103239500D01*
X111488020Y-103239500D01*
X111420981Y-103219815D01*
X111377534Y-103171793D01*
X111373342Y-103163566D01*
X111234517Y-102972490D01*
X111067510Y-102805483D01*
X111032872Y-102780317D01*
X110990207Y-102724989D01*
X110984228Y-102655375D01*
X111016833Y-102593580D01*
X111032873Y-102579682D01*
X111067510Y-102554517D01*
X111234517Y-102387510D01*
X111373343Y-102196433D01*
X111480568Y-101985992D01*
X111553553Y-101761368D01*
X111570629Y-101653554D01*
X111590500Y-101528097D01*
X111590500Y-101291902D01*
X111577255Y-101208279D01*
X111553553Y-101058631D01*
X111501978Y-100899901D01*
X111480568Y-100834008D01*
X111480566Y-100834005D01*
X111480566Y-100834003D01*
X111401641Y-100679105D01*
X111373343Y-100623567D01*
X111234517Y-100432490D01*
X111067510Y-100265483D01*
X111008282Y-100222451D01*
X110965617Y-100167122D01*
X110957550Y-100112404D01*
X110959104Y-100092657D01*
X110219408Y-99352962D01*
X110282993Y-99335925D01*
X110397007Y-99270099D01*
X110490099Y-99177007D01*
X110555925Y-99062993D01*
X110572962Y-98999408D01*
X111312658Y-99739105D01*
X111312658Y-99739104D01*
X111372914Y-99656169D01*
X111372918Y-99656163D01*
X111480102Y-99445802D01*
X111553065Y-99221247D01*
X111590000Y-98988052D01*
X111590000Y-98751947D01*
X111553065Y-98518752D01*
X111480102Y-98294197D01*
X111372914Y-98083828D01*
X111312658Y-98000894D01*
X111312658Y-98000893D01*
X110572962Y-98740590D01*
X110555925Y-98677007D01*
X110490099Y-98562993D01*
X110397007Y-98469901D01*
X110282993Y-98404075D01*
X110219409Y-98387037D01*
X110959105Y-97647340D01*
X110957551Y-97627594D01*
X110971915Y-97559216D01*
X111008284Y-97517547D01*
X111067510Y-97474517D01*
X111214379Y-97327648D01*
X113289500Y-97327648D01*
X113289500Y-97532351D01*
X113321522Y-97734534D01*
X113384781Y-97929223D01*
X113421300Y-98000894D01*
X113463558Y-98083830D01*
X113477715Y-98111613D01*
X113598028Y-98277213D01*
X113742786Y-98421971D01*
X113887465Y-98527084D01*
X113908390Y-98542287D01*
X114024607Y-98601503D01*
X114090776Y-98635218D01*
X114090778Y-98635218D01*
X114090781Y-98635220D01*
X114185512Y-98666000D01*
X114285465Y-98698477D01*
X114339252Y-98706996D01*
X114487648Y-98730500D01*
X114487649Y-98730500D01*
X114692351Y-98730500D01*
X114692352Y-98730500D01*
X114894534Y-98698477D01*
X115089219Y-98635220D01*
X115271610Y-98542287D01*
X115371242Y-98469901D01*
X115437213Y-98421971D01*
X115437215Y-98421968D01*
X115437219Y-98421966D01*
X115581966Y-98277219D01*
X115581968Y-98277215D01*
X115581971Y-98277213D01*
X115640688Y-98196394D01*
X115702287Y-98111610D01*
X115795220Y-97929219D01*
X115858477Y-97734534D01*
X115890500Y-97532352D01*
X115890500Y-97327648D01*
X115858477Y-97125466D01*
X115795220Y-96930781D01*
X115795218Y-96930778D01*
X115795218Y-96930776D01*
X115761503Y-96864607D01*
X115702287Y-96748390D01*
X115694556Y-96737749D01*
X115581971Y-96582786D01*
X115437213Y-96438028D01*
X115271613Y-96317715D01*
X115271612Y-96317714D01*
X115271610Y-96317713D01*
X115202336Y-96282416D01*
X115089223Y-96224781D01*
X114894534Y-96161522D01*
X114719995Y-96133878D01*
X114692352Y-96129500D01*
X114487648Y-96129500D01*
X114463329Y-96133351D01*
X114285465Y-96161522D01*
X114090776Y-96224781D01*
X113908386Y-96317715D01*
X113742786Y-96438028D01*
X113598028Y-96582786D01*
X113477715Y-96748386D01*
X113384781Y-96930776D01*
X113321522Y-97125465D01*
X113289500Y-97327648D01*
X111214379Y-97327648D01*
X111234517Y-97307510D01*
X111373343Y-97116433D01*
X111480568Y-96905992D01*
X111553553Y-96681368D01*
X111569168Y-96582781D01*
X111590500Y-96448097D01*
X111590500Y-96211902D01*
X111553553Y-95978631D01*
X111519689Y-95874412D01*
X111480568Y-95754008D01*
X111480566Y-95754005D01*
X111480566Y-95754003D01*
X111424002Y-95642991D01*
X111373343Y-95543567D01*
X111234517Y-95352490D01*
X111067510Y-95185483D01*
X110876433Y-95046657D01*
X110665996Y-94939433D01*
X110441368Y-94866446D01*
X110208097Y-94829500D01*
X110208092Y-94829500D01*
X109971908Y-94829500D01*
X109971903Y-94829500D01*
X109738631Y-94866446D01*
X109514003Y-94939433D01*
X109303566Y-95046657D01*
X109194550Y-95125862D01*
X109112490Y-95185483D01*
X109112488Y-95185485D01*
X109112487Y-95185485D01*
X108945485Y-95352487D01*
X108945485Y-95352488D01*
X108945483Y-95352490D01*
X108889361Y-95429735D01*
X108806657Y-95543566D01*
X108699433Y-95754003D01*
X108626446Y-95978631D01*
X108589500Y-96211902D01*
X96590500Y-96211902D01*
X96553553Y-95978631D01*
X96519689Y-95874412D01*
X96480568Y-95754008D01*
X96480566Y-95754005D01*
X96480566Y-95754003D01*
X96424002Y-95642991D01*
X96373343Y-95543567D01*
X96234517Y-95352490D01*
X96067510Y-95185483D01*
X95876433Y-95046657D01*
X95665996Y-94939433D01*
X95441368Y-94866446D01*
X95208097Y-94829500D01*
X95208092Y-94829500D01*
X94971908Y-94829500D01*
X94971903Y-94829500D01*
X94738631Y-94866446D01*
X94514003Y-94939433D01*
X94303566Y-95046657D01*
X94194550Y-95125862D01*
X94112490Y-95185483D01*
X94112488Y-95185485D01*
X94112487Y-95185485D01*
X93945485Y-95352487D01*
X93945485Y-95352488D01*
X93945483Y-95352490D01*
X93889361Y-95429735D01*
X93806657Y-95543566D01*
X93699433Y-95754003D01*
X93626446Y-95978631D01*
X93589500Y-96211902D01*
X91721110Y-96211902D01*
X91755992Y-96200568D01*
X91966433Y-96093343D01*
X92157510Y-95954517D01*
X92324517Y-95787510D01*
X92463343Y-95596433D01*
X92570568Y-95385992D01*
X92643553Y-95161368D01*
X92680500Y-94928097D01*
X92680500Y-94691902D01*
X92665067Y-94594464D01*
X92662959Y-94581153D01*
X115739500Y-94581153D01*
X115739500Y-94738846D01*
X115770261Y-94893489D01*
X115770264Y-94893501D01*
X115830602Y-95039172D01*
X115830609Y-95039185D01*
X115918210Y-95170288D01*
X115918213Y-95170292D01*
X116029707Y-95281786D01*
X116029711Y-95281789D01*
X116160814Y-95369390D01*
X116160827Y-95369397D01*
X116306498Y-95429735D01*
X116306503Y-95429737D01*
X116371147Y-95442595D01*
X116461849Y-95460638D01*
X116523760Y-95493023D01*
X116525339Y-95494574D01*
X117313181Y-96282416D01*
X117346666Y-96343739D01*
X117349500Y-96370097D01*
X117349500Y-98690234D01*
X117329815Y-98757273D01*
X117328602Y-98759125D01*
X117240609Y-98890814D01*
X117240602Y-98890827D01*
X117180264Y-99036498D01*
X117180261Y-99036510D01*
X117149500Y-99191153D01*
X117149500Y-99348846D01*
X117180261Y-99503489D01*
X117180264Y-99503501D01*
X117240602Y-99649172D01*
X117240609Y-99649185D01*
X117328210Y-99780288D01*
X117328213Y-99780292D01*
X117439707Y-99891786D01*
X117439711Y-99891789D01*
X117570814Y-99979390D01*
X117570827Y-99979397D01*
X117716498Y-100039735D01*
X117716503Y-100039737D01*
X117871153Y-100070499D01*
X117871156Y-100070500D01*
X117871158Y-100070500D01*
X118028844Y-100070500D01*
X118028845Y-100070499D01*
X118183497Y-100039737D01*
X118329179Y-99979394D01*
X118460289Y-99891789D01*
X118571789Y-99780289D01*
X118659394Y-99649179D01*
X118719737Y-99503497D01*
X118750500Y-99348842D01*
X118750500Y-99191158D01*
X118750500Y-99191155D01*
X118750499Y-99191153D01*
X118725006Y-99062993D01*
X118719737Y-99036503D01*
X118680135Y-98940894D01*
X118659397Y-98890827D01*
X118659390Y-98890814D01*
X118571398Y-98759125D01*
X118550520Y-98692447D01*
X118550500Y-98690234D01*
X118550500Y-95990946D01*
X118550499Y-95990939D01*
X118540740Y-95954517D01*
X118509577Y-95838215D01*
X118460960Y-95754008D01*
X118430520Y-95701284D01*
X118318716Y-95589480D01*
X118318715Y-95589479D01*
X118314385Y-95585149D01*
X118314374Y-95585139D01*
X117374574Y-94645339D01*
X117341089Y-94584016D01*
X117340638Y-94581849D01*
X117309738Y-94426510D01*
X117309737Y-94426503D01*
X117309735Y-94426498D01*
X117249397Y-94280827D01*
X117249390Y-94280814D01*
X117161789Y-94149711D01*
X117161786Y-94149707D01*
X117050292Y-94038213D01*
X117050288Y-94038210D01*
X116919185Y-93950609D01*
X116919172Y-93950602D01*
X116773501Y-93890264D01*
X116773489Y-93890261D01*
X116618845Y-93859500D01*
X116618842Y-93859500D01*
X116461158Y-93859500D01*
X116461155Y-93859500D01*
X116306510Y-93890261D01*
X116306498Y-93890264D01*
X116160827Y-93950602D01*
X116160814Y-93950609D01*
X116029711Y-94038210D01*
X116029707Y-94038213D01*
X115918213Y-94149707D01*
X115918210Y-94149711D01*
X115830609Y-94280814D01*
X115830602Y-94280827D01*
X115770264Y-94426498D01*
X115770261Y-94426510D01*
X115739500Y-94581153D01*
X92662959Y-94581153D01*
X92643553Y-94458631D01*
X92585780Y-94280827D01*
X92570568Y-94234008D01*
X92570566Y-94234005D01*
X92570566Y-94234003D01*
X92514002Y-94122991D01*
X92463343Y-94023567D01*
X92324517Y-93832490D01*
X92157510Y-93665483D01*
X91966433Y-93526657D01*
X91755996Y-93419433D01*
X91531368Y-93346446D01*
X91298097Y-93309500D01*
X91298092Y-93309500D01*
X91061908Y-93309500D01*
X91061903Y-93309500D01*
X90828631Y-93346446D01*
X90604003Y-93419433D01*
X90393566Y-93526657D01*
X90284550Y-93605862D01*
X90202490Y-93665483D01*
X90202488Y-93665485D01*
X90202487Y-93665485D01*
X90035485Y-93832487D01*
X90035485Y-93832488D01*
X90035483Y-93832490D01*
X90015859Y-93859500D01*
X89896657Y-94023566D01*
X89789433Y-94234003D01*
X89716446Y-94458631D01*
X89679500Y-94691902D01*
X85080500Y-94691902D01*
X85080500Y-92319500D01*
X85100185Y-92252461D01*
X85152989Y-92206706D01*
X85204500Y-92195500D01*
X145826519Y-92195500D01*
X145893558Y-92215185D01*
G37*
G04 #@! TD.AperFunction*
G04 #@! TD*
M02*
