G04 #@! TF.GenerationSoftware,KiCad,Pcbnew,9.0.4*
G04 #@! TF.CreationDate,2026-01-27T17:59:56-08:00*
G04 #@! TF.ProjectId,e-ink_PCB,652d696e-6b5f-4504-9342-2e6b69636164,rev?*
G04 #@! TF.SameCoordinates,Original*
G04 #@! TF.FileFunction,Soldermask,Bot*
G04 #@! TF.FilePolarity,Negative*
%FSLAX46Y46*%
G04 Gerber Fmt 4.6, Leading zero omitted, Abs format (unit mm)*
G04 Created by KiCad (PCBNEW 9.0.4) date 2026-01-27 17:59:56*
%MOMM*%
%LPD*%
G01*
G04 APERTURE LIST*
G04 Aperture macros list*
%AMRoundRect*
0 Rectangle with rounded corners*
0 $1 Rounding radius*
0 $2 $3 $4 $5 $6 $7 $8 $9 X,Y pos of 4 corners*
0 Add a 4 corners polygon primitive as box body*
4,1,4,$2,$3,$4,$5,$6,$7,$8,$9,$2,$3,0*
0 Add four circle primitives for the rounded corners*
1,1,$1+$1,$2,$3*
1,1,$1+$1,$4,$5*
1,1,$1+$1,$6,$7*
1,1,$1+$1,$8,$9*
0 Add four rect primitives between the rounded corners*
20,1,$1+$1,$2,$3,$4,$5,0*
20,1,$1+$1,$4,$5,$6,$7,0*
20,1,$1+$1,$6,$7,$8,$9,0*
20,1,$1+$1,$8,$9,$2,$3,0*%
G04 Aperture macros list end*
%ADD10RoundRect,0.525400X-0.900400X-0.525400X0.900400X-0.525400X0.900400X0.525400X-0.900400X0.525400X0*%
%ADD11RoundRect,0.300400X1.000400X0.300400X-1.000400X0.300400X-1.000400X-0.300400X1.000400X-0.300400X0*%
%ADD12C,1.700000*%
%ADD13R,1.700000X1.700000*%
%ADD14RoundRect,0.250000X0.550000X0.550000X-0.550000X0.550000X-0.550000X-0.550000X0.550000X-0.550000X0*%
%ADD15C,1.600000*%
%ADD16R,2.000000X1.905000*%
%ADD17O,2.000000X1.905000*%
%ADD18C,2.000000*%
%ADD19R,1.350000X1.350000*%
%ADD20C,1.350000*%
G04 APERTURE END LIST*
D10*
G04 #@! TO.C,J1*
X88000000Y-96420000D03*
X88000000Y-98960000D03*
X104165000Y-101500000D03*
X88000000Y-101500000D03*
X88000000Y-104040000D03*
X104165000Y-96420000D03*
X88000000Y-106580000D03*
X88000000Y-109120000D03*
X104165000Y-109120000D03*
X104165000Y-106580000D03*
X104165000Y-104040000D03*
X104165000Y-111660000D03*
X88000000Y-111660000D03*
D11*
X91610000Y-103658000D03*
X91610000Y-101753000D03*
D10*
X104165000Y-98960000D03*
G04 #@! TD*
D12*
G04 #@! TO.C,J3*
X110200000Y-100120000D03*
X110200000Y-102660000D03*
X110200000Y-105200000D03*
D13*
X110200000Y-97580000D03*
G04 #@! TD*
D14*
G04 #@! TO.C,J4*
X135902651Y-96500000D03*
D15*
X130902651Y-96500000D03*
G04 #@! TD*
D16*
G04 #@! TO.C,Q1*
X110300000Y-115220000D03*
D17*
X110300000Y-117760000D03*
X110300000Y-120300000D03*
G04 #@! TD*
D12*
G04 #@! TO.C,J2*
X76500000Y-100420000D03*
X76500000Y-102960000D03*
X76500000Y-105500000D03*
D13*
X76500000Y-118200000D03*
D12*
X76500000Y-108040000D03*
X76500000Y-113120000D03*
X76500000Y-110580000D03*
X76500000Y-115660000D03*
G04 #@! TD*
D15*
G04 #@! TO.C,R3*
X110240000Y-109700000D03*
X120400000Y-109700000D03*
G04 #@! TD*
D18*
G04 #@! TO.C,C1*
X83200000Y-120800000D03*
X83200000Y-115800000D03*
G04 #@! TD*
D19*
G04 #@! TO.C,J5*
X143000000Y-112500000D03*
D20*
X143000000Y-110500000D03*
G04 #@! TD*
D15*
G04 #@! TO.C,R1*
X90920000Y-116300000D03*
X101080000Y-116300000D03*
G04 #@! TD*
G04 #@! TO.C,R2*
X101200000Y-120900000D03*
X91040000Y-120900000D03*
G04 #@! TD*
M02*
