M48
; DRILL file {KiCad 9.0.4} date 2026-01-27T18:00:09-0800
; FORMAT={-:-/ absolute / metric / decimal}
; #@! TF.CreationDate,2026-01-27T18:00:09-08:00
; #@! TF.GenerationSoftware,Kicad,Pcbnew,9.0.4
; #@! TF.FileFunction,MixedPlating,1,2
FMAT,2
METRIC
; #@! TA.AperFunction,Plated,PTH,ViaDrill
T1C0.300
; #@! TA.AperFunction,Plated,PTH,ComponentDrill
T2C0.800
; #@! TA.AperFunction,Plated,PTH,ComponentDrill
T3C1.000
; #@! TA.AperFunction,Plated,PTH,ComponentDrill
T4C1.100
%
G90
G05
T1
X79.5Y-119.5
X80.0Y-95.0
X88.0Y-121.5
X91.1Y-97.4
X94.3Y-109.6
X97.4Y-106.4
X103.7Y-117.9
X107.5Y-117.8
X110.0Y-95.0
X120.0Y-95.0
X120.0Y-96.5
X120.0Y-105.0
X120.0Y-120.0
X126.1Y-96.5
X130.0Y-105.0
X130.0Y-120.0
X140.0Y-95.0
X140.0Y-120.0
X141.0Y-112.5
X143.0Y-114.5
T2
X90.92Y-116.3
X91.04Y-120.9
X91.61Y-101.753
X91.61Y-103.658
X101.08Y-116.3
X101.2Y-120.9
X110.24Y-109.7
X120.4Y-109.7
X130.903Y-96.5
X135.903Y-96.5
X143.0Y-110.5
X143.0Y-112.5
T3
X76.5Y-100.42
X76.5Y-102.96
X76.5Y-105.5
X76.5Y-108.04
X76.5Y-110.58
X76.5Y-113.12
X76.5Y-115.66
X76.5Y-118.2
X83.2Y-115.8
X83.2Y-120.8
X88.0Y-96.42
X88.0Y-98.96
X88.0Y-101.5
X88.0Y-104.04
X88.0Y-106.58
X88.0Y-109.12
X88.0Y-111.66
X104.165Y-96.42
X104.165Y-98.96
X104.165Y-101.5
X104.165Y-104.04
X104.165Y-106.58
X104.165Y-109.12
X104.165Y-111.66
X110.2Y-97.58
X110.2Y-100.12
X110.2Y-102.66
X110.2Y-105.2
T4
X110.3Y-115.22
X110.3Y-117.76
X110.3Y-120.3
M30
