G04 #@! TF.GenerationSoftware,KiCad,Pcbnew,9.0.4*
G04 #@! TF.CreationDate,2026-01-27T17:59:56-08:00*
G04 #@! TF.ProjectId,e-ink_PCB,652d696e-6b5f-4504-9342-2e6b69636164,rev?*
G04 #@! TF.SameCoordinates,Original*
G04 #@! TF.FileFunction,Copper,L1,Top*
G04 #@! TF.FilePolarity,Positive*
%FSLAX46Y46*%
G04 Gerber Fmt 4.6, Leading zero omitted, Abs format (unit mm)*
G04 Created by KiCad (PCBNEW 9.0.4) date 2026-01-27 17:59:56*
%MOMM*%
%LPD*%
G01*
G04 APERTURE LIST*
G04 Aperture macros list*
%AMRoundRect*
0 Rectangle with rounded corners*
0 $1 Rounding radius*
0 $2 $3 $4 $5 $6 $7 $8 $9 X,Y pos of 4 corners*
0 Add a 4 corners polygon primitive as box body*
4,1,4,$2,$3,$4,$5,$6,$7,$8,$9,$2,$3,0*
0 Add four circle primitives for the rounded corners*
1,1,$1+$1,$2,$3*
1,1,$1+$1,$4,$5*
1,1,$1+$1,$6,$7*
1,1,$1+$1,$8,$9*
0 Add four rect primitives between the rounded corners*
20,1,$1+$1,$2,$3,$4,$5,0*
20,1,$1+$1,$4,$5,$6,$7,0*
20,1,$1+$1,$6,$7,$8,$9,0*
20,1,$1+$1,$8,$9,$2,$3,0*%
G04 Aperture macros list end*
G04 #@! TA.AperFunction,ComponentPad*
%ADD10RoundRect,0.500000X-0.875000X-0.500000X0.875000X-0.500000X0.875000X0.500000X-0.875000X0.500000X0*%
G04 #@! TD*
G04 #@! TA.AperFunction,ComponentPad*
%ADD11RoundRect,0.275000X0.975000X0.275000X-0.975000X0.275000X-0.975000X-0.275000X0.975000X-0.275000X0*%
G04 #@! TD*
G04 #@! TA.AperFunction,ComponentPad*
%ADD12C,1.700000*%
G04 #@! TD*
G04 #@! TA.AperFunction,ComponentPad*
%ADD13R,1.700000X1.700000*%
G04 #@! TD*
G04 #@! TA.AperFunction,ComponentPad*
%ADD14RoundRect,0.250000X0.550000X0.550000X-0.550000X0.550000X-0.550000X-0.550000X0.550000X-0.550000X0*%
G04 #@! TD*
G04 #@! TA.AperFunction,ComponentPad*
%ADD15C,1.600000*%
G04 #@! TD*
G04 #@! TA.AperFunction,ComponentPad*
%ADD16R,2.000000X1.905000*%
G04 #@! TD*
G04 #@! TA.AperFunction,ComponentPad*
%ADD17O,2.000000X1.905000*%
G04 #@! TD*
G04 #@! TA.AperFunction,ComponentPad*
%ADD18C,2.000000*%
G04 #@! TD*
G04 #@! TA.AperFunction,ComponentPad*
%ADD19R,1.350000X1.350000*%
G04 #@! TD*
G04 #@! TA.AperFunction,ComponentPad*
%ADD20C,1.350000*%
G04 #@! TD*
G04 #@! TA.AperFunction,ViaPad*
%ADD21C,0.600000*%
G04 #@! TD*
G04 #@! TA.AperFunction,Conductor*
%ADD22C,0.200000*%
G04 #@! TD*
G04 #@! TA.AperFunction,Conductor*
%ADD23C,0.254000*%
G04 #@! TD*
G04 APERTURE END LIST*
D10*
G04 #@! TO.P,J1,2,Pin_8*
G04 #@! TO.N,Net-(J1-Pin_8)*
X88000000Y-96420000D03*
G04 #@! TO.P,J1,3,Pin_7*
G04 #@! TO.N,Net-(J2-Pin_8)*
X88000000Y-98960000D03*
G04 #@! TO.P,J1,3.3V,Pin_3*
G04 #@! TO.N,Net-(J2-Pin_2)*
X104165000Y-101500000D03*
G04 #@! TO.P,J1,4,Pin_6*
G04 #@! TO.N,Net-(J2-Pin_7)*
X88000000Y-101500000D03*
G04 #@! TO.P,J1,5,Pin_5*
G04 #@! TO.N,Net-(J2-Pin_6)*
X88000000Y-104040000D03*
G04 #@! TO.P,J1,5V,Pin_1*
G04 #@! TO.N,unconnected-(J1-Pin_1-Pad5V)*
X104165000Y-96420000D03*
G04 #@! TO.P,J1,6,Pin_4*
G04 #@! TO.N,Net-(J2-Pin_5)*
X88000000Y-106580000D03*
G04 #@! TO.P,J1,7,Pin_3*
G04 #@! TO.N,Net-(J2-Pin_4)*
X88000000Y-109120000D03*
G04 #@! TO.P,J1,8,Pin_6*
G04 #@! TO.N,Net-(Q1-G)*
X104165000Y-109120000D03*
G04 #@! TO.P,J1,9,Pin_5*
G04 #@! TO.N,Net-(J3-Pin_4)*
X104165000Y-106580000D03*
G04 #@! TO.P,J1,10,Pin_4*
G04 #@! TO.N,Net-(J3-Pin_3)*
X104165000Y-104040000D03*
G04 #@! TO.P,J1,20,Pin_7*
G04 #@! TO.N,unconnected-(J1-Pin_7-Pad20)*
X104165000Y-111660000D03*
G04 #@! TO.P,J1,21,Pin_2*
G04 #@! TO.N,Net-(J2-Pin_3)*
X88000000Y-111660000D03*
D11*
G04 #@! TO.P,J1,BAT+,Pin_1*
G04 #@! TO.N,Net-(J4-Pin_2)*
X91610000Y-103658000D03*
G04 #@! TO.P,J1,BAT-,Pin_1*
G04 #@! TO.N,GND*
X91610000Y-101753000D03*
D10*
G04 #@! TO.P,J1,GND,Pin_2*
X104165000Y-98960000D03*
G04 #@! TD*
D12*
G04 #@! TO.P,J3,GND,Pin_2*
G04 #@! TO.N,GND*
X110200000Y-100120000D03*
G04 #@! TO.P,J3,SCL,Pin_3*
G04 #@! TO.N,Net-(J3-Pin_3)*
X110200000Y-102660000D03*
G04 #@! TO.P,J3,SDA,Pin_4*
G04 #@! TO.N,Net-(J3-Pin_4)*
X110200000Y-105200000D03*
D13*
G04 #@! TO.P,J3,VIN,Pin_1*
G04 #@! TO.N,Net-(J2-Pin_2)*
X110200000Y-97580000D03*
G04 #@! TD*
D14*
G04 #@! TO.P,J4,+,Pin_2*
G04 #@! TO.N,Net-(J4-Pin_2)*
X135902651Y-96500000D03*
D15*
G04 #@! TO.P,J4,-,Pin_1*
G04 #@! TO.N,GND*
X130902651Y-96500000D03*
G04 #@! TD*
D16*
G04 #@! TO.P,Q1,1,G*
G04 #@! TO.N,Net-(Q1-G)*
X110300000Y-115220000D03*
D17*
G04 #@! TO.P,Q1,2,D*
G04 #@! TO.N,Net-(Q1-D)*
X110300000Y-117760000D03*
G04 #@! TO.P,Q1,3,S*
G04 #@! TO.N,Net-(J4-Pin_2)*
X110300000Y-120300000D03*
G04 #@! TD*
D12*
G04 #@! TO.P,J2,BUSY,Pin_8*
G04 #@! TO.N,Net-(J2-Pin_8)*
X76500000Y-100420000D03*
G04 #@! TO.P,J2,CS,Pin_7*
G04 #@! TO.N,Net-(J2-Pin_7)*
X76500000Y-102960000D03*
G04 #@! TO.P,J2,DC,Pin_6*
G04 #@! TO.N,Net-(J2-Pin_6)*
X76500000Y-105500000D03*
D13*
G04 #@! TO.P,J2,GND,Pin_1*
G04 #@! TO.N,GND*
X76500000Y-118200000D03*
D12*
G04 #@! TO.P,J2,RES,Pin_5*
G04 #@! TO.N,Net-(J2-Pin_5)*
X76500000Y-108040000D03*
G04 #@! TO.P,J2,SCL,Pin_3*
G04 #@! TO.N,Net-(J2-Pin_3)*
X76500000Y-113120000D03*
G04 #@! TO.P,J2,SDA,Pin_4*
G04 #@! TO.N,Net-(J2-Pin_4)*
X76500000Y-110580000D03*
G04 #@! TO.P,J2,VCC,Pin_2*
G04 #@! TO.N,Net-(J2-Pin_2)*
X76500000Y-115660000D03*
G04 #@! TD*
D15*
G04 #@! TO.P,R3,1*
G04 #@! TO.N,Net-(Q1-G)*
X110240000Y-109700000D03*
G04 #@! TO.P,R3,2*
G04 #@! TO.N,Net-(J4-Pin_2)*
X120400000Y-109700000D03*
G04 #@! TD*
D18*
G04 #@! TO.P,C1,1*
G04 #@! TO.N,GND*
X83200000Y-120800000D03*
G04 #@! TO.P,C1,2*
G04 #@! TO.N,Net-(J2-Pin_2)*
X83200000Y-115800000D03*
G04 #@! TD*
D19*
G04 #@! TO.P,J5,1,Pin_1*
G04 #@! TO.N,GND*
X143000000Y-112500000D03*
D20*
G04 #@! TO.P,J5,2,Pin_2*
G04 #@! TO.N,Net-(J4-Pin_2)*
X143000000Y-110500000D03*
G04 #@! TD*
D15*
G04 #@! TO.P,R1,1*
G04 #@! TO.N,Net-(J1-Pin_8)*
X90920000Y-116300000D03*
G04 #@! TO.P,R1,2*
G04 #@! TO.N,Net-(Q1-D)*
X101080000Y-116300000D03*
G04 #@! TD*
G04 #@! TO.P,R2,1*
G04 #@! TO.N,GND*
X101200000Y-120900000D03*
G04 #@! TO.P,R2,2*
G04 #@! TO.N,Net-(J1-Pin_8)*
X91040000Y-120900000D03*
G04 #@! TD*
D21*
G04 #@! TO.N,Net-(J1-Pin_8)*
X91100000Y-97400000D03*
G04 #@! TO.N,Net-(J2-Pin_2)*
X94300000Y-109600000D03*
X97400000Y-106400000D03*
G04 #@! TO.N,Net-(Q1-D)*
X107500000Y-117800000D03*
X103700000Y-117900000D03*
G04 #@! TO.N,GND*
X126100000Y-96500000D03*
X80000000Y-95000000D03*
X79500000Y-119500000D03*
X120000000Y-96500000D03*
X143000000Y-114500000D03*
X140000000Y-120000000D03*
X130000000Y-120000000D03*
X120000000Y-120000000D03*
X140000000Y-95000000D03*
X88000000Y-121500000D03*
X120000000Y-95000000D03*
X141000000Y-112500000D03*
X120000000Y-105000000D03*
X130000000Y-105000000D03*
X110000000Y-95000000D03*
G04 #@! TD*
D22*
G04 #@! TO.N,Net-(J1-Pin_8)*
X91040000Y-120900000D02*
X91040000Y-116420000D01*
X91040000Y-116420000D02*
X90920000Y-116300000D01*
X91100000Y-97400000D02*
X90120000Y-96420000D01*
X90120000Y-96420000D02*
X88000000Y-96420000D01*
D23*
G04 #@! TO.N,Net-(J2-Pin_2)*
X76500000Y-115660000D02*
X83060000Y-115660000D01*
X104165000Y-101500000D02*
X106280000Y-101500000D01*
X88100000Y-115800000D02*
X94300000Y-109600000D01*
X83200000Y-115800000D02*
X88100000Y-115800000D01*
X102300000Y-101500000D02*
X104165000Y-101500000D01*
D22*
X83060000Y-115660000D02*
X83200000Y-115800000D01*
D23*
X106280000Y-101500000D02*
X110200000Y-97580000D01*
X97400000Y-106400000D02*
X102300000Y-101500000D01*
D22*
G04 #@! TO.N,Net-(J2-Pin_3)*
X77960000Y-111660000D02*
X88000000Y-111660000D01*
X76500000Y-113120000D02*
X77960000Y-111660000D01*
G04 #@! TO.N,Net-(J2-Pin_8)*
X76500000Y-100420000D02*
X77960000Y-98960000D01*
X77960000Y-98960000D02*
X88000000Y-98960000D01*
G04 #@! TO.N,Net-(J3-Pin_3)*
X108820000Y-104040000D02*
X110200000Y-102660000D01*
X104165000Y-104040000D02*
X108820000Y-104040000D01*
G04 #@! TO.N,Net-(J3-Pin_4)*
X108820000Y-106580000D02*
X110200000Y-105200000D01*
X104165000Y-106580000D02*
X108820000Y-106580000D01*
G04 #@! TO.N,Net-(J2-Pin_4)*
X77960000Y-109120000D02*
X88000000Y-109120000D01*
X76500000Y-110580000D02*
X77960000Y-109120000D01*
G04 #@! TO.N,Net-(Q1-G)*
X104165000Y-109120000D02*
X105620000Y-109120000D01*
X106200000Y-109700000D02*
X110240000Y-109700000D01*
X105620000Y-109120000D02*
X106200000Y-109700000D01*
X110300000Y-109760000D02*
X110240000Y-109700000D01*
X110300000Y-115220000D02*
X110300000Y-109760000D01*
G04 #@! TO.N,Net-(J2-Pin_5)*
X77960000Y-106580000D02*
X88000000Y-106580000D01*
X76500000Y-108040000D02*
X77960000Y-106580000D01*
G04 #@! TO.N,Net-(J2-Pin_6)*
X76500000Y-105500000D02*
X77960000Y-104040000D01*
X77960000Y-104040000D02*
X88000000Y-104040000D01*
G04 #@! TO.N,Net-(J1-Pin_8)*
X89120000Y-96420000D02*
X88000000Y-96420000D01*
G04 #@! TO.N,Net-(J2-Pin_7)*
X77960000Y-101500000D02*
X88000000Y-101500000D01*
X76500000Y-102960000D02*
X77960000Y-101500000D01*
G04 #@! TO.N,Net-(Q1-D)*
X107540000Y-117760000D02*
X110300000Y-117760000D01*
X101080000Y-116300000D02*
X102680000Y-117900000D01*
X107500000Y-117800000D02*
X107540000Y-117760000D01*
X102680000Y-117900000D02*
X103700000Y-117900000D01*
G04 #@! TO.N,Net-(J4-Pin_2)*
X143000000Y-110500000D02*
X143000000Y-107000000D01*
D23*
X108252000Y-120300000D02*
X110300000Y-120300000D01*
D22*
X135902651Y-99902651D02*
X135902651Y-96500000D01*
D23*
X121199999Y-110499999D02*
X120400000Y-109700000D01*
X143000000Y-110500000D02*
X121199999Y-110499999D01*
X120400000Y-109700000D02*
X120400000Y-116200000D01*
X120400000Y-116200000D02*
X116300000Y-120300000D01*
X116300000Y-120300000D02*
X110300000Y-120300000D01*
D22*
X143000000Y-107000000D02*
X135902651Y-99902651D01*
D23*
X91610000Y-103658000D02*
X108252000Y-120300000D01*
D22*
G04 #@! TO.N,GND*
X113820000Y-96500000D02*
X120000000Y-96500000D01*
X120000000Y-96500000D02*
X126100000Y-96500000D01*
G04 #@! TO.N,Net-(J1-Pin_8)*
X90820000Y-120800000D02*
X91020000Y-121000000D01*
G04 #@! TO.N,GND*
X110200000Y-100120000D02*
X113820000Y-96500000D01*
X126100000Y-96500000D02*
X130902651Y-96500000D01*
G04 #@! TD*
G04 #@! TA.AperFunction,Conductor*
G04 #@! TO.N,GND*
G36*
X144442271Y-93020109D02*
G01*
X144488413Y-93072576D01*
X144500000Y-93124915D01*
X144500000Y-122876908D01*
X144480315Y-122943947D01*
X144427511Y-122989702D01*
X144376912Y-123000905D01*
X76624912Y-123499081D01*
X76557729Y-123479890D01*
X76511587Y-123427423D01*
X76500000Y-123375084D01*
X76500000Y-120681947D01*
X81700000Y-120681947D01*
X81700000Y-120918052D01*
X81736934Y-121151247D01*
X81809897Y-121375802D01*
X81917087Y-121586174D01*
X81977338Y-121669104D01*
X81977340Y-121669105D01*
X82717037Y-120929408D01*
X82734075Y-120992993D01*
X82799901Y-121107007D01*
X82892993Y-121200099D01*
X83007007Y-121265925D01*
X83070590Y-121282962D01*
X82330893Y-122022658D01*
X82413828Y-122082914D01*
X82624197Y-122190102D01*
X82848752Y-122263065D01*
X82848751Y-122263065D01*
X83081948Y-122300000D01*
X83318052Y-122300000D01*
X83551247Y-122263065D01*
X83775802Y-122190102D01*
X83986163Y-122082918D01*
X83986169Y-122082914D01*
X84069104Y-122022658D01*
X84069105Y-122022658D01*
X83329408Y-121282962D01*
X83392993Y-121265925D01*
X83507007Y-121200099D01*
X83600099Y-121107007D01*
X83665925Y-120992993D01*
X83682962Y-120929408D01*
X84422658Y-121669105D01*
X84422658Y-121669104D01*
X84482914Y-121586169D01*
X84482918Y-121586163D01*
X84590102Y-121375802D01*
X84663065Y-121151247D01*
X84700000Y-120918052D01*
X84700000Y-120681947D01*
X84663065Y-120448752D01*
X84590102Y-120224197D01*
X84482914Y-120013828D01*
X84422658Y-119930894D01*
X84422658Y-119930893D01*
X83682962Y-120670590D01*
X83665925Y-120607007D01*
X83600099Y-120492993D01*
X83507007Y-120399901D01*
X83392993Y-120334075D01*
X83329409Y-120317037D01*
X84069105Y-119577340D01*
X84069104Y-119577338D01*
X83986174Y-119517087D01*
X83775802Y-119409897D01*
X83551247Y-119336934D01*
X83551248Y-119336934D01*
X83318052Y-119300000D01*
X83081948Y-119300000D01*
X82848752Y-119336934D01*
X82624197Y-119409897D01*
X82413830Y-119517084D01*
X82330894Y-119577340D01*
X83070591Y-120317037D01*
X83007007Y-120334075D01*
X82892993Y-120399901D01*
X82799901Y-120492993D01*
X82734075Y-120607007D01*
X82717037Y-120670591D01*
X81977340Y-119930894D01*
X81917084Y-120013830D01*
X81809897Y-120224197D01*
X81736934Y-120448752D01*
X81700000Y-120681947D01*
X76500000Y-120681947D01*
X76500000Y-119680000D01*
X76500000Y-118700000D01*
X76565826Y-118700000D01*
X76692993Y-118665925D01*
X76750000Y-118633012D01*
X76750000Y-119550000D01*
X77397828Y-119550000D01*
X77397844Y-119549999D01*
X77457372Y-119543598D01*
X77457379Y-119543596D01*
X77551702Y-119508417D01*
X77592086Y-119493354D01*
X77592093Y-119493350D01*
X77707187Y-119407190D01*
X77707190Y-119407187D01*
X77793350Y-119292093D01*
X77793354Y-119292086D01*
X77843596Y-119157379D01*
X77843598Y-119157372D01*
X77849999Y-119097844D01*
X77850000Y-119097827D01*
X77850000Y-118450000D01*
X76933012Y-118450000D01*
X76965925Y-118392993D01*
X77000000Y-118265826D01*
X77000000Y-118134174D01*
X76965925Y-118007007D01*
X76933012Y-117950000D01*
X77850000Y-117950000D01*
X77850000Y-117302172D01*
X77849999Y-117302155D01*
X77843598Y-117242627D01*
X77843596Y-117242620D01*
X77793354Y-117107913D01*
X77793350Y-117107906D01*
X77707190Y-116992812D01*
X77707187Y-116992809D01*
X77592093Y-116906649D01*
X77592088Y-116906646D01*
X77460528Y-116857577D01*
X77404595Y-116815705D01*
X77380178Y-116750241D01*
X77395030Y-116681968D01*
X77416175Y-116653720D01*
X77530104Y-116539792D01*
X77537186Y-116530044D01*
X77655050Y-116367818D01*
X77661475Y-116355208D01*
X77709448Y-116304411D01*
X77771961Y-116287500D01*
X81690588Y-116287500D01*
X81757627Y-116307185D01*
X81803382Y-116359989D01*
X81808518Y-116373178D01*
X81809433Y-116375995D01*
X81844292Y-116444409D01*
X81916657Y-116586433D01*
X82055483Y-116777510D01*
X82222490Y-116944517D01*
X82413567Y-117083343D01*
X82476498Y-117115408D01*
X82624003Y-117190566D01*
X82624005Y-117190566D01*
X82624008Y-117190568D01*
X82744412Y-117229689D01*
X82848631Y-117263553D01*
X83081903Y-117300500D01*
X83081908Y-117300500D01*
X83318097Y-117300500D01*
X83551368Y-117263553D01*
X83615771Y-117242627D01*
X83775992Y-117190568D01*
X83986433Y-117083343D01*
X84177510Y-116944517D01*
X84344517Y-116777510D01*
X84483343Y-116586433D01*
X84520629Y-116513253D01*
X84529826Y-116495205D01*
X84577801Y-116444409D01*
X84640311Y-116427500D01*
X88161804Y-116427500D01*
X88161805Y-116427499D01*
X88283035Y-116403386D01*
X88368907Y-116367816D01*
X88368908Y-116367816D01*
X88397226Y-116356086D01*
X88397226Y-116356085D01*
X88397233Y-116356083D01*
X88500008Y-116287411D01*
X88587411Y-116200008D01*
X88589771Y-116197648D01*
X89619500Y-116197648D01*
X89619500Y-116402351D01*
X89651522Y-116604534D01*
X89714781Y-116799223D01*
X89769243Y-116906109D01*
X89805489Y-116977246D01*
X89807715Y-116981613D01*
X89928028Y-117147213D01*
X90072786Y-117291971D01*
X90238385Y-117412284D01*
X90238387Y-117412285D01*
X90238390Y-117412287D01*
X90371795Y-117480260D01*
X90422591Y-117528234D01*
X90439500Y-117590745D01*
X90439500Y-119670397D01*
X90419815Y-119737436D01*
X90371800Y-119780879D01*
X90358389Y-119787712D01*
X90192786Y-119908028D01*
X90048028Y-120052786D01*
X89927715Y-120218386D01*
X89834781Y-120400776D01*
X89771522Y-120595465D01*
X89739500Y-120797648D01*
X89739500Y-121002351D01*
X89771522Y-121204534D01*
X89834781Y-121399223D01*
X89898691Y-121524653D01*
X89927585Y-121581359D01*
X89927715Y-121581613D01*
X90048028Y-121747213D01*
X90192786Y-121891971D01*
X90313226Y-121979474D01*
X90358390Y-122012287D01*
X90474607Y-122071503D01*
X90540776Y-122105218D01*
X90540778Y-122105218D01*
X90540781Y-122105220D01*
X90645137Y-122139127D01*
X90735465Y-122168477D01*
X90836557Y-122184488D01*
X90937648Y-122200500D01*
X90937649Y-122200500D01*
X91142351Y-122200500D01*
X91142352Y-122200500D01*
X91344534Y-122168477D01*
X91539219Y-122105220D01*
X91721610Y-122012287D01*
X91814590Y-121944732D01*
X91887213Y-121891971D01*
X91887215Y-121891968D01*
X91887219Y-121891966D01*
X92031966Y-121747219D01*
X92031968Y-121747215D01*
X92031971Y-121747213D01*
X92105107Y-121646548D01*
X92152287Y-121581610D01*
X92245220Y-121399219D01*
X92308477Y-121204534D01*
X92340500Y-121002352D01*
X92340500Y-120797682D01*
X99900000Y-120797682D01*
X99900000Y-121002317D01*
X99932009Y-121204417D01*
X99995244Y-121399031D01*
X100088141Y-121581350D01*
X100088147Y-121581359D01*
X100120523Y-121625921D01*
X100120524Y-121625922D01*
X100800000Y-120946446D01*
X100800000Y-120952661D01*
X100827259Y-121054394D01*
X100879920Y-121145606D01*
X100954394Y-121220080D01*
X101045606Y-121272741D01*
X101147339Y-121300000D01*
X101153553Y-121300000D01*
X100474076Y-121979474D01*
X100518650Y-122011859D01*
X100700968Y-122104755D01*
X100895582Y-122167990D01*
X101097683Y-122200000D01*
X101302317Y-122200000D01*
X101504417Y-122167990D01*
X101699031Y-122104755D01*
X101881349Y-122011859D01*
X101925921Y-121979474D01*
X101246447Y-121300000D01*
X101252661Y-121300000D01*
X101354394Y-121272741D01*
X101445606Y-121220080D01*
X101520080Y-121145606D01*
X101572741Y-121054394D01*
X101600000Y-120952661D01*
X101600000Y-120946447D01*
X102279474Y-121625921D01*
X102311859Y-121581349D01*
X102404755Y-121399031D01*
X102467990Y-121204417D01*
X102500000Y-121002317D01*
X102500000Y-120797682D01*
X102467990Y-120595582D01*
X102404755Y-120400968D01*
X102311859Y-120218650D01*
X102279474Y-120174077D01*
X102279474Y-120174076D01*
X101600000Y-120853551D01*
X101600000Y-120847339D01*
X101572741Y-120745606D01*
X101520080Y-120654394D01*
X101445606Y-120579920D01*
X101354394Y-120527259D01*
X101252661Y-120500000D01*
X101246446Y-120500000D01*
X101925922Y-119820524D01*
X101925921Y-119820523D01*
X101881359Y-119788147D01*
X101881350Y-119788141D01*
X101699031Y-119695244D01*
X101504417Y-119632009D01*
X101302317Y-119600000D01*
X101097683Y-119600000D01*
X100895582Y-119632009D01*
X100700968Y-119695244D01*
X100518644Y-119788143D01*
X100474077Y-119820523D01*
X100474077Y-119820524D01*
X101153554Y-120500000D01*
X101147339Y-120500000D01*
X101045606Y-120527259D01*
X100954394Y-120579920D01*
X100879920Y-120654394D01*
X100827259Y-120745606D01*
X100800000Y-120847339D01*
X100800000Y-120853553D01*
X100120524Y-120174077D01*
X100120523Y-120174077D01*
X100088143Y-120218644D01*
X99995244Y-120400968D01*
X99932009Y-120595582D01*
X99900000Y-120797682D01*
X92340500Y-120797682D01*
X92340500Y-120797648D01*
X92325035Y-120700008D01*
X92308477Y-120595465D01*
X92260057Y-120446446D01*
X92245220Y-120400781D01*
X92245218Y-120400778D01*
X92245218Y-120400776D01*
X92193869Y-120300000D01*
X92152287Y-120218390D01*
X92120092Y-120174077D01*
X92031971Y-120052786D01*
X91887213Y-119908028D01*
X91721610Y-119787712D01*
X91708200Y-119780879D01*
X91657406Y-119732903D01*
X91640500Y-119670397D01*
X91640500Y-117447212D01*
X91660185Y-117380173D01*
X91691613Y-117346895D01*
X91767219Y-117291966D01*
X91911966Y-117147219D01*
X91911968Y-117147215D01*
X91911971Y-117147213D01*
X91996938Y-117030264D01*
X92032287Y-116981610D01*
X92125220Y-116799219D01*
X92188477Y-116604534D01*
X92220500Y-116402352D01*
X92220500Y-116197648D01*
X92188477Y-115995466D01*
X92125220Y-115800781D01*
X92125218Y-115800778D01*
X92125218Y-115800776D01*
X92091503Y-115734607D01*
X92032287Y-115618390D01*
X92024556Y-115607749D01*
X91911971Y-115452786D01*
X91767213Y-115308028D01*
X91601613Y-115187715D01*
X91601612Y-115187714D01*
X91601610Y-115187713D01*
X91511085Y-115141588D01*
X91419223Y-115094781D01*
X91224534Y-115031522D01*
X91049995Y-115003878D01*
X91022352Y-114999500D01*
X90817648Y-114999500D01*
X90793329Y-115003351D01*
X90615465Y-115031522D01*
X90420776Y-115094781D01*
X90238386Y-115187715D01*
X90072786Y-115308028D01*
X89928028Y-115452786D01*
X89807715Y-115618386D01*
X89714781Y-115800776D01*
X89651522Y-115995465D01*
X89619500Y-116197648D01*
X88589771Y-116197648D01*
X94362328Y-110425089D01*
X94423649Y-110391606D01*
X94425648Y-110391189D01*
X94533497Y-110369737D01*
X94679179Y-110309394D01*
X94810289Y-110221789D01*
X94921789Y-110110289D01*
X95009394Y-109979179D01*
X95069737Y-109833497D01*
X95100500Y-109678842D01*
X95100500Y-109521158D01*
X95100500Y-109521155D01*
X95100499Y-109521153D01*
X95089349Y-109465098D01*
X95069737Y-109366503D01*
X95038694Y-109291557D01*
X95009397Y-109220827D01*
X95009390Y-109220814D01*
X94921789Y-109089711D01*
X94921786Y-109089707D01*
X94810292Y-108978213D01*
X94810288Y-108978210D01*
X94679185Y-108890609D01*
X94679172Y-108890602D01*
X94533501Y-108830264D01*
X94533489Y-108830261D01*
X94378845Y-108799500D01*
X94378842Y-108799500D01*
X94221158Y-108799500D01*
X94221155Y-108799500D01*
X94066510Y-108830261D01*
X94066498Y-108830264D01*
X93920827Y-108890602D01*
X93920814Y-108890609D01*
X93789711Y-108978210D01*
X93789707Y-108978213D01*
X93678213Y-109089707D01*
X93678210Y-109089711D01*
X93590609Y-109220814D01*
X93590602Y-109220827D01*
X93530264Y-109366498D01*
X93530261Y-109366508D01*
X93508843Y-109474183D01*
X93476458Y-109536094D01*
X93474907Y-109537672D01*
X87876400Y-115136181D01*
X87815077Y-115169666D01*
X87788719Y-115172500D01*
X84640311Y-115172500D01*
X84573272Y-115152815D01*
X84529826Y-115104795D01*
X84514272Y-115074269D01*
X84483343Y-115013567D01*
X84344517Y-114822490D01*
X84177510Y-114655483D01*
X83986433Y-114516657D01*
X83954696Y-114500486D01*
X83775996Y-114409433D01*
X83551368Y-114336446D01*
X83318097Y-114299500D01*
X83318092Y-114299500D01*
X83081908Y-114299500D01*
X83081903Y-114299500D01*
X82848631Y-114336446D01*
X82624003Y-114409433D01*
X82413566Y-114516657D01*
X82304550Y-114595862D01*
X82222490Y-114655483D01*
X82222488Y-114655485D01*
X82222487Y-114655485D01*
X82055485Y-114822487D01*
X82055485Y-114822488D01*
X82055483Y-114822490D01*
X81952094Y-114964792D01*
X81940038Y-114981386D01*
X81884708Y-115024051D01*
X81839720Y-115032500D01*
X77771961Y-115032500D01*
X77704922Y-115012815D01*
X77661475Y-114964792D01*
X77655050Y-114952181D01*
X77530109Y-114780213D01*
X77379786Y-114629890D01*
X77207820Y-114504951D01*
X77207115Y-114504591D01*
X77199054Y-114500485D01*
X77148259Y-114452512D01*
X77131463Y-114384692D01*
X77153999Y-114318556D01*
X77199054Y-114279515D01*
X77207816Y-114275051D01*
X77284090Y-114219635D01*
X77379786Y-114150109D01*
X77379788Y-114150106D01*
X77379792Y-114150104D01*
X77530104Y-113999792D01*
X77530106Y-113999788D01*
X77530109Y-113999786D01*
X77655048Y-113827820D01*
X77655047Y-113827820D01*
X77655051Y-113827816D01*
X77751557Y-113638412D01*
X77817246Y-113436243D01*
X77850500Y-113226287D01*
X77850500Y-113013713D01*
X77817246Y-112803757D01*
X77803506Y-112761473D01*
X77801512Y-112691635D01*
X77833753Y-112635480D01*
X78172418Y-112296817D01*
X78233740Y-112263334D01*
X78260098Y-112260500D01*
X86019610Y-112260500D01*
X86086649Y-112280185D01*
X86132404Y-112332989D01*
X86138823Y-112350382D01*
X86156507Y-112412184D01*
X86191089Y-112533045D01*
X86191090Y-112533048D01*
X86191091Y-112533049D01*
X86285302Y-112713407D01*
X86285304Y-112713409D01*
X86413890Y-112871109D01*
X86507803Y-112947684D01*
X86571593Y-112999698D01*
X86751951Y-113093909D01*
X86947582Y-113149886D01*
X87066963Y-113160500D01*
X88933036Y-113160499D01*
X89052418Y-113149886D01*
X89248049Y-113093909D01*
X89428407Y-112999698D01*
X89586109Y-112871109D01*
X89714698Y-112713407D01*
X89808909Y-112533049D01*
X89864886Y-112337418D01*
X89875500Y-112218037D01*
X89875499Y-111101964D01*
X89864886Y-110982582D01*
X89816158Y-110812286D01*
X89808910Y-110786954D01*
X89808909Y-110786953D01*
X89808909Y-110786951D01*
X89714698Y-110606593D01*
X89601983Y-110468359D01*
X89574875Y-110403965D01*
X89586884Y-110335135D01*
X89601981Y-110311642D01*
X89714698Y-110173407D01*
X89808909Y-109993049D01*
X89864886Y-109797418D01*
X89875500Y-109678037D01*
X89875499Y-108561964D01*
X89864886Y-108442582D01*
X89808909Y-108246951D01*
X89714698Y-108066593D01*
X89601983Y-107928359D01*
X89574875Y-107863965D01*
X89586884Y-107795135D01*
X89601981Y-107771642D01*
X89714698Y-107633407D01*
X89808909Y-107453049D01*
X89864886Y-107257418D01*
X89875500Y-107138037D01*
X89875499Y-106021964D01*
X89864886Y-105902582D01*
X89812189Y-105718414D01*
X89808910Y-105706954D01*
X89808909Y-105706953D01*
X89808909Y-105706951D01*
X89714698Y-105526593D01*
X89601983Y-105388359D01*
X89574875Y-105323965D01*
X89586884Y-105255135D01*
X89601981Y-105231642D01*
X89714698Y-105093407D01*
X89808909Y-104913049D01*
X89864886Y-104717418D01*
X89875500Y-104598037D01*
X89875499Y-104569584D01*
X89895181Y-104502548D01*
X89947984Y-104456791D01*
X90017142Y-104446846D01*
X90080699Y-104475868D01*
X90087180Y-104481903D01*
X90148424Y-104543147D01*
X90296394Y-104636122D01*
X90461343Y-104693841D01*
X90461349Y-104693841D01*
X90461351Y-104693842D01*
X90502750Y-104698506D01*
X90591442Y-104708499D01*
X90591445Y-104708500D01*
X90591448Y-104708500D01*
X91721719Y-104708500D01*
X91788758Y-104728185D01*
X91809400Y-104744819D01*
X103970690Y-116906109D01*
X104004175Y-116967432D01*
X103999191Y-117037124D01*
X103957319Y-117093057D01*
X103891855Y-117117474D01*
X103858819Y-117115408D01*
X103778842Y-117099500D01*
X103621158Y-117099500D01*
X103621155Y-117099500D01*
X103466510Y-117130261D01*
X103466498Y-117130264D01*
X103320827Y-117190602D01*
X103320814Y-117190609D01*
X103189125Y-117278602D01*
X103171078Y-117284252D01*
X103155169Y-117294477D01*
X103124207Y-117298928D01*
X103122447Y-117299480D01*
X103120234Y-117299500D01*
X102980098Y-117299500D01*
X102913059Y-117279815D01*
X102892417Y-117263181D01*
X102374077Y-116744841D01*
X102340592Y-116683518D01*
X102343827Y-116618842D01*
X102348477Y-116604534D01*
X102380500Y-116402352D01*
X102380500Y-116197648D01*
X102348477Y-115995466D01*
X102285220Y-115800781D01*
X102285218Y-115800778D01*
X102285218Y-115800776D01*
X102251503Y-115734607D01*
X102192287Y-115618390D01*
X102184556Y-115607749D01*
X102071971Y-115452786D01*
X101927213Y-115308028D01*
X101761613Y-115187715D01*
X101761612Y-115187714D01*
X101761610Y-115187713D01*
X101671085Y-115141588D01*
X101579223Y-115094781D01*
X101384534Y-115031522D01*
X101209995Y-115003878D01*
X101182352Y-114999500D01*
X100977648Y-114999500D01*
X100953329Y-115003351D01*
X100775465Y-115031522D01*
X100580776Y-115094781D01*
X100398386Y-115187715D01*
X100232786Y-115308028D01*
X100088028Y-115452786D01*
X99967715Y-115618386D01*
X99874781Y-115800776D01*
X99811522Y-115995465D01*
X99779500Y-116197648D01*
X99779500Y-116402351D01*
X99811522Y-116604534D01*
X99874781Y-116799223D01*
X99929243Y-116906109D01*
X99965489Y-116977246D01*
X99967715Y-116981613D01*
X100088028Y-117147213D01*
X100232786Y-117291971D01*
X100387749Y-117404556D01*
X100398390Y-117412287D01*
X100514607Y-117471503D01*
X100580776Y-117505218D01*
X100580778Y-117505218D01*
X100580781Y-117505220D01*
X100651611Y-117528234D01*
X100775465Y-117568477D01*
X100876557Y-117584488D01*
X100977648Y-117600500D01*
X100977649Y-117600500D01*
X101182351Y-117600500D01*
X101182352Y-117600500D01*
X101384534Y-117568477D01*
X101398842Y-117563827D01*
X101468679Y-117561831D01*
X101524841Y-117594077D01*
X102311284Y-118380520D01*
X102311286Y-118380521D01*
X102311290Y-118380524D01*
X102431628Y-118450000D01*
X102448216Y-118459577D01*
X102600943Y-118500501D01*
X102600945Y-118500501D01*
X102766654Y-118500501D01*
X102766670Y-118500500D01*
X103120234Y-118500500D01*
X103187273Y-118520185D01*
X103189125Y-118521398D01*
X103320814Y-118609390D01*
X103320827Y-118609397D01*
X103434722Y-118656573D01*
X103466503Y-118669737D01*
X103618644Y-118700000D01*
X103621153Y-118700499D01*
X103621156Y-118700500D01*
X103621158Y-118700500D01*
X103778844Y-118700500D01*
X103778845Y-118700499D01*
X103933497Y-118669737D01*
X104079179Y-118609394D01*
X104210289Y-118521789D01*
X104321789Y-118410289D01*
X104409394Y-118279179D01*
X104469737Y-118133497D01*
X104500500Y-117978842D01*
X104500500Y-117821158D01*
X104500500Y-117821155D01*
X104484592Y-117741182D01*
X104490819Y-117671590D01*
X104533682Y-117616413D01*
X104599572Y-117593168D01*
X104667569Y-117609236D01*
X104693890Y-117629309D01*
X107764589Y-120700008D01*
X107810187Y-120745606D01*
X107851994Y-120787413D01*
X107851996Y-120787414D01*
X107954756Y-120856076D01*
X107954760Y-120856078D01*
X107954767Y-120856083D01*
X108010232Y-120879057D01*
X108068965Y-120903385D01*
X108068969Y-120903385D01*
X108068970Y-120903386D01*
X108190194Y-120927500D01*
X108190197Y-120927500D01*
X108313803Y-120927500D01*
X108865500Y-120927500D01*
X108932539Y-120947185D01*
X108975983Y-120995203D01*
X109009783Y-121061538D01*
X109144214Y-121246566D01*
X109305934Y-121408286D01*
X109490962Y-121542717D01*
X109654259Y-121625921D01*
X109694744Y-121646549D01*
X109912251Y-121717221D01*
X109912252Y-121717221D01*
X109912255Y-121717222D01*
X110138146Y-121753000D01*
X110138147Y-121753000D01*
X110461853Y-121753000D01*
X110461854Y-121753000D01*
X110687745Y-121717222D01*
X110687748Y-121717221D01*
X110687749Y-121717221D01*
X110905255Y-121646549D01*
X110905255Y-121646548D01*
X110905258Y-121646548D01*
X111109038Y-121542717D01*
X111294066Y-121408286D01*
X111455786Y-121246566D01*
X111590217Y-121061538D01*
X111624016Y-120995203D01*
X111671989Y-120944409D01*
X111734500Y-120927500D01*
X116361804Y-120927500D01*
X116361805Y-120927499D01*
X116483035Y-120903386D01*
X116563784Y-120869937D01*
X116597233Y-120856083D01*
X116700008Y-120787411D01*
X116787411Y-120700008D01*
X120887411Y-116600008D01*
X120956083Y-116497233D01*
X120956084Y-116497230D01*
X120956086Y-116497227D01*
X120977963Y-116444409D01*
X120990786Y-116413452D01*
X121003386Y-116383034D01*
X121027500Y-116261803D01*
X121027500Y-116138196D01*
X121027500Y-111251499D01*
X121047185Y-111184460D01*
X121099989Y-111138705D01*
X121151500Y-111127499D01*
X141939726Y-111127499D01*
X141944975Y-111129040D01*
X141950337Y-111127954D01*
X141978141Y-111138779D01*
X142006765Y-111147184D01*
X142011699Y-111151844D01*
X142015446Y-111153303D01*
X142040044Y-111178614D01*
X142078840Y-111232012D01*
X142102320Y-111297818D01*
X142086495Y-111365872D01*
X142052833Y-111404164D01*
X141967809Y-111467813D01*
X141881649Y-111582906D01*
X141881645Y-111582913D01*
X141831403Y-111717620D01*
X141831401Y-111717627D01*
X141825000Y-111777155D01*
X141825000Y-112250000D01*
X142684314Y-112250000D01*
X142679920Y-112254394D01*
X142627259Y-112345606D01*
X142600000Y-112447339D01*
X142600000Y-112552661D01*
X142627259Y-112654394D01*
X142679920Y-112745606D01*
X142684314Y-112750000D01*
X141825000Y-112750000D01*
X141825000Y-113222844D01*
X141831401Y-113282372D01*
X141831403Y-113282379D01*
X141881645Y-113417086D01*
X141881649Y-113417093D01*
X141967809Y-113532187D01*
X141967812Y-113532190D01*
X142082906Y-113618350D01*
X142082913Y-113618354D01*
X142217620Y-113668596D01*
X142217627Y-113668598D01*
X142277155Y-113674999D01*
X142277172Y-113675000D01*
X142750000Y-113675000D01*
X142750000Y-112815686D01*
X142754394Y-112820080D01*
X142845606Y-112872741D01*
X142947339Y-112900000D01*
X143052661Y-112900000D01*
X143154394Y-112872741D01*
X143245606Y-112820080D01*
X143250000Y-112815686D01*
X143250000Y-113675000D01*
X143722828Y-113675000D01*
X143722844Y-113674999D01*
X143782372Y-113668598D01*
X143782379Y-113668596D01*
X143917086Y-113618354D01*
X143917093Y-113618350D01*
X144032187Y-113532190D01*
X144032190Y-113532187D01*
X144118350Y-113417093D01*
X144118354Y-113417086D01*
X144168596Y-113282379D01*
X144168598Y-113282372D01*
X144174999Y-113222844D01*
X144175000Y-113222827D01*
X144175000Y-112750000D01*
X143315686Y-112750000D01*
X143320080Y-112745606D01*
X143372741Y-112654394D01*
X143400000Y-112552661D01*
X143400000Y-112447339D01*
X143372741Y-112345606D01*
X143320080Y-112254394D01*
X143315686Y-112250000D01*
X144175000Y-112250000D01*
X144175000Y-111777172D01*
X144174999Y-111777155D01*
X144168598Y-111717627D01*
X144168596Y-111717620D01*
X144118354Y-111582913D01*
X144118350Y-111582906D01*
X144032190Y-111467812D01*
X143947166Y-111404162D01*
X143905296Y-111348228D01*
X143900312Y-111278536D01*
X143921157Y-111232015D01*
X144005378Y-111116096D01*
X144089379Y-110951235D01*
X144146555Y-110775264D01*
X144175500Y-110592514D01*
X144175500Y-110407486D01*
X144146555Y-110224736D01*
X144104556Y-110095475D01*
X144089380Y-110048767D01*
X144089379Y-110048764D01*
X144005377Y-109883903D01*
X143896621Y-109734213D01*
X143765787Y-109603379D01*
X143651615Y-109520428D01*
X143608949Y-109465098D01*
X143600500Y-109420110D01*
X143600500Y-106920943D01*
X143597647Y-106910293D01*
X143562516Y-106779185D01*
X143559577Y-106768215D01*
X143518595Y-106697232D01*
X143518595Y-106697231D01*
X143480524Y-106631290D01*
X143480521Y-106631286D01*
X143480520Y-106631284D01*
X143368716Y-106519480D01*
X143368715Y-106519479D01*
X143364385Y-106515149D01*
X143364374Y-106515139D01*
X136539470Y-99690235D01*
X136505985Y-99628912D01*
X136503151Y-99602554D01*
X136503151Y-97912162D01*
X136522836Y-97845123D01*
X136575640Y-97799368D01*
X136601203Y-97790907D01*
X136605439Y-97789999D01*
X136605448Y-97789999D01*
X136771985Y-97734814D01*
X136921307Y-97642712D01*
X137045363Y-97518656D01*
X137137465Y-97369334D01*
X137192650Y-97202797D01*
X137203151Y-97100009D01*
X137203150Y-95899992D01*
X137192650Y-95797203D01*
X137137465Y-95630666D01*
X137045363Y-95481344D01*
X136921307Y-95357288D01*
X136771985Y-95265186D01*
X136605448Y-95210001D01*
X136605446Y-95210000D01*
X136502661Y-95199500D01*
X135302649Y-95199500D01*
X135302632Y-95199501D01*
X135199854Y-95210000D01*
X135199851Y-95210001D01*
X135033319Y-95265185D01*
X135033314Y-95265187D01*
X134883993Y-95357289D01*
X134759940Y-95481342D01*
X134667838Y-95630663D01*
X134667837Y-95630666D01*
X134612652Y-95797203D01*
X134612652Y-95797204D01*
X134612651Y-95797204D01*
X134602151Y-95899983D01*
X134602151Y-97100001D01*
X134602152Y-97100018D01*
X134612651Y-97202796D01*
X134612652Y-97202799D01*
X134651871Y-97321153D01*
X134667837Y-97369334D01*
X134759939Y-97518656D01*
X134883995Y-97642712D01*
X135033317Y-97734814D01*
X135199854Y-97789999D01*
X135199860Y-97789999D01*
X135204099Y-97790907D01*
X135265535Y-97824185D01*
X135299227Y-97885394D01*
X135302151Y-97912162D01*
X135302151Y-99815981D01*
X135302150Y-99815999D01*
X135302150Y-99981705D01*
X135302149Y-99981705D01*
X135323524Y-100061476D01*
X135343074Y-100134436D01*
X135353006Y-100151639D01*
X135372009Y-100184551D01*
X135372010Y-100184555D01*
X135372011Y-100184555D01*
X135389956Y-100215638D01*
X135422130Y-100271365D01*
X135422132Y-100271368D01*
X135541000Y-100390236D01*
X135541006Y-100390241D01*
X142363181Y-107212416D01*
X142396666Y-107273739D01*
X142399500Y-107300097D01*
X142399500Y-109420110D01*
X142379815Y-109487149D01*
X142348385Y-109520428D01*
X142234216Y-109603376D01*
X142234210Y-109603381D01*
X142103381Y-109734210D01*
X142103374Y-109734219D01*
X142040043Y-109821385D01*
X141984713Y-109864051D01*
X141939726Y-109872499D01*
X121824500Y-109872499D01*
X121757461Y-109852814D01*
X121711706Y-109800010D01*
X121700500Y-109748499D01*
X121700500Y-109597648D01*
X121668477Y-109395465D01*
X121605218Y-109200776D01*
X121571503Y-109134607D01*
X121512287Y-109018390D01*
X121483097Y-108978213D01*
X121391971Y-108852786D01*
X121247213Y-108708028D01*
X121081613Y-108587715D01*
X121081612Y-108587714D01*
X121081610Y-108587713D01*
X121024104Y-108558412D01*
X120899223Y-108494781D01*
X120704534Y-108431522D01*
X120529995Y-108403878D01*
X120502352Y-108399500D01*
X120297648Y-108399500D01*
X120273329Y-108403351D01*
X120095465Y-108431522D01*
X119900776Y-108494781D01*
X119718386Y-108587715D01*
X119552786Y-108708028D01*
X119408028Y-108852786D01*
X119287715Y-109018386D01*
X119194781Y-109200776D01*
X119131522Y-109395465D01*
X119099500Y-109597648D01*
X119099500Y-109802351D01*
X119131522Y-110004534D01*
X119194781Y-110199223D01*
X119252060Y-110311637D01*
X119281663Y-110369737D01*
X119287715Y-110381613D01*
X119408028Y-110547213D01*
X119552784Y-110691969D01*
X119619572Y-110740492D01*
X119718390Y-110812287D01*
X119718395Y-110812289D01*
X119721384Y-110814461D01*
X119764051Y-110869791D01*
X119772500Y-110914780D01*
X119772500Y-115888719D01*
X119752815Y-115955758D01*
X119736181Y-115976400D01*
X116076400Y-119636181D01*
X116015077Y-119669666D01*
X115988719Y-119672500D01*
X111734500Y-119672500D01*
X111667461Y-119652815D01*
X111624015Y-119604795D01*
X111610025Y-119577338D01*
X111590217Y-119538462D01*
X111455786Y-119353434D01*
X111294066Y-119191714D01*
X111209559Y-119130316D01*
X111166896Y-119074988D01*
X111160917Y-119005375D01*
X111193523Y-118943580D01*
X111209556Y-118929685D01*
X111294066Y-118868286D01*
X111455786Y-118706566D01*
X111590217Y-118521538D01*
X111694048Y-118317758D01*
X111753918Y-118133497D01*
X111764721Y-118100249D01*
X111764721Y-118100248D01*
X111764722Y-118100245D01*
X111800500Y-117874354D01*
X111800500Y-117645646D01*
X111764722Y-117419755D01*
X111764721Y-117419751D01*
X111764721Y-117419750D01*
X111694049Y-117202244D01*
X111657372Y-117130261D01*
X111590217Y-116998462D01*
X111457472Y-116815755D01*
X111433994Y-116749953D01*
X111449819Y-116681899D01*
X111499925Y-116633204D01*
X111514455Y-116626692D01*
X111542331Y-116616296D01*
X111657546Y-116530046D01*
X111743796Y-116414831D01*
X111794091Y-116279983D01*
X111800500Y-116220373D01*
X111800499Y-114219628D01*
X111794091Y-114160017D01*
X111743796Y-114025169D01*
X111743795Y-114025168D01*
X111743793Y-114025164D01*
X111657547Y-113909955D01*
X111657544Y-113909952D01*
X111542335Y-113823706D01*
X111542328Y-113823702D01*
X111407482Y-113773408D01*
X111407483Y-113773408D01*
X111347883Y-113767001D01*
X111347881Y-113767000D01*
X111347873Y-113767000D01*
X111347865Y-113767000D01*
X111024500Y-113767000D01*
X110957461Y-113747315D01*
X110911706Y-113694511D01*
X110900500Y-113643000D01*
X110900500Y-110890805D01*
X110920185Y-110823766D01*
X110951614Y-110790487D01*
X111087219Y-110691966D01*
X111231966Y-110547219D01*
X111231968Y-110547215D01*
X111231971Y-110547213D01*
X111336045Y-110403965D01*
X111352287Y-110381610D01*
X111445220Y-110199219D01*
X111508477Y-110004534D01*
X111540500Y-109802352D01*
X111540500Y-109597648D01*
X111508477Y-109395466D01*
X111499066Y-109366503D01*
X111445218Y-109200776D01*
X111411503Y-109134607D01*
X111352287Y-109018390D01*
X111323097Y-108978213D01*
X111231971Y-108852786D01*
X111087213Y-108708028D01*
X110921613Y-108587715D01*
X110921612Y-108587714D01*
X110921610Y-108587713D01*
X110864104Y-108558412D01*
X110739223Y-108494781D01*
X110544534Y-108431522D01*
X110369995Y-108403878D01*
X110342352Y-108399500D01*
X110137648Y-108399500D01*
X110113329Y-108403351D01*
X109935465Y-108431522D01*
X109740776Y-108494781D01*
X109558386Y-108587715D01*
X109392786Y-108708028D01*
X109248028Y-108852786D01*
X109127715Y-109018385D01*
X109120883Y-109031795D01*
X109072909Y-109082591D01*
X109010398Y-109099500D01*
X106500097Y-109099500D01*
X106433058Y-109079815D01*
X106412416Y-109063181D01*
X106107590Y-108758355D01*
X106100521Y-108751286D01*
X106100520Y-108751284D01*
X106076814Y-108727578D01*
X106043332Y-108666257D01*
X106043332Y-108666252D01*
X106040499Y-108639901D01*
X106040499Y-108561971D01*
X106040499Y-108561964D01*
X106029886Y-108442582D01*
X105973909Y-108246951D01*
X105879698Y-108066593D01*
X105766983Y-107928359D01*
X105739875Y-107863965D01*
X105751884Y-107795135D01*
X105766981Y-107771642D01*
X105879698Y-107633407D01*
X105973909Y-107453049D01*
X106026174Y-107270387D01*
X106063541Y-107211351D01*
X106126895Y-107181887D01*
X106145390Y-107180500D01*
X108733331Y-107180500D01*
X108733347Y-107180501D01*
X108740943Y-107180501D01*
X108899054Y-107180501D01*
X108899057Y-107180501D01*
X109051785Y-107139577D01*
X109051787Y-107139575D01*
X109051789Y-107139575D01*
X109051790Y-107139574D01*
X109054458Y-107138034D01*
X109062834Y-107133197D01*
X109104062Y-107109395D01*
X109104063Y-107109394D01*
X109188716Y-107060520D01*
X109300520Y-106948716D01*
X109300520Y-106948714D01*
X109310724Y-106938511D01*
X109310728Y-106938506D01*
X109715478Y-106533755D01*
X109776799Y-106500272D01*
X109841473Y-106503506D01*
X109883757Y-106517246D01*
X110093713Y-106550500D01*
X110093714Y-106550500D01*
X110306286Y-106550500D01*
X110306287Y-106550500D01*
X110516243Y-106517246D01*
X110718412Y-106451557D01*
X110907816Y-106355051D01*
X110954473Y-106321153D01*
X111079786Y-106230109D01*
X111079788Y-106230106D01*
X111079792Y-106230104D01*
X111230104Y-106079792D01*
X111230106Y-106079788D01*
X111230109Y-106079786D01*
X111355048Y-105907820D01*
X111355047Y-105907820D01*
X111355051Y-105907816D01*
X111451557Y-105718412D01*
X111517246Y-105516243D01*
X111550500Y-105306287D01*
X111550500Y-105093713D01*
X111517246Y-104883757D01*
X111451557Y-104681588D01*
X111355051Y-104492184D01*
X111355049Y-104492181D01*
X111355048Y-104492179D01*
X111230109Y-104320213D01*
X111079786Y-104169890D01*
X110907820Y-104044951D01*
X110907115Y-104044591D01*
X110899054Y-104040485D01*
X110848259Y-103992512D01*
X110831463Y-103924692D01*
X110853999Y-103858556D01*
X110899054Y-103819515D01*
X110907816Y-103815051D01*
X110929789Y-103799086D01*
X111079786Y-103690109D01*
X111079788Y-103690106D01*
X111079792Y-103690104D01*
X111230104Y-103539792D01*
X111230106Y-103539788D01*
X111230109Y-103539786D01*
X111355048Y-103367820D01*
X111355047Y-103367820D01*
X111355051Y-103367816D01*
X111451557Y-103178412D01*
X111517246Y-102976243D01*
X111550500Y-102766287D01*
X111550500Y-102553713D01*
X111517246Y-102343757D01*
X111451557Y-102141588D01*
X111355051Y-101952184D01*
X111355049Y-101952181D01*
X111355048Y-101952179D01*
X111230109Y-101780213D01*
X111079786Y-101629890D01*
X110907817Y-101504949D01*
X110898504Y-101500204D01*
X110847707Y-101452230D01*
X110830912Y-101384409D01*
X110853449Y-101318274D01*
X110898507Y-101279232D01*
X110907555Y-101274622D01*
X110961716Y-101235270D01*
X110961717Y-101235270D01*
X110329408Y-100602962D01*
X110392993Y-100585925D01*
X110507007Y-100520099D01*
X110600099Y-100427007D01*
X110665925Y-100312993D01*
X110682962Y-100249408D01*
X111315270Y-100881717D01*
X111315270Y-100881716D01*
X111354622Y-100827554D01*
X111451095Y-100638217D01*
X111516757Y-100436130D01*
X111516757Y-100436127D01*
X111550000Y-100226246D01*
X111550000Y-100013753D01*
X111516757Y-99803872D01*
X111516757Y-99803869D01*
X111451095Y-99601782D01*
X111354624Y-99412449D01*
X111315270Y-99358282D01*
X111315269Y-99358282D01*
X110682962Y-99990590D01*
X110665925Y-99927007D01*
X110600099Y-99812993D01*
X110507007Y-99719901D01*
X110392993Y-99654075D01*
X110329408Y-99637037D01*
X110999627Y-98966818D01*
X111060950Y-98933333D01*
X111087308Y-98930499D01*
X111097871Y-98930499D01*
X111097872Y-98930499D01*
X111157483Y-98924091D01*
X111292331Y-98873796D01*
X111407546Y-98787546D01*
X111493796Y-98672331D01*
X111544091Y-98537483D01*
X111550500Y-98477873D01*
X111550499Y-96682128D01*
X111544091Y-96622517D01*
X111535506Y-96599500D01*
X111493797Y-96487671D01*
X111493793Y-96487664D01*
X111478419Y-96467127D01*
X111426432Y-96397682D01*
X129602651Y-96397682D01*
X129602651Y-96602317D01*
X129634660Y-96804417D01*
X129697895Y-96999031D01*
X129790792Y-97181350D01*
X129790798Y-97181359D01*
X129823174Y-97225921D01*
X129823175Y-97225922D01*
X130502651Y-96546446D01*
X130502651Y-96552661D01*
X130529910Y-96654394D01*
X130582571Y-96745606D01*
X130657045Y-96820080D01*
X130748257Y-96872741D01*
X130849990Y-96900000D01*
X130856204Y-96900000D01*
X130176727Y-97579474D01*
X130221301Y-97611859D01*
X130403619Y-97704755D01*
X130598233Y-97767990D01*
X130800334Y-97800000D01*
X131004968Y-97800000D01*
X131207068Y-97767990D01*
X131401682Y-97704755D01*
X131584000Y-97611859D01*
X131628572Y-97579474D01*
X130949098Y-96900000D01*
X130955312Y-96900000D01*
X131057045Y-96872741D01*
X131148257Y-96820080D01*
X131222731Y-96745606D01*
X131275392Y-96654394D01*
X131302651Y-96552661D01*
X131302651Y-96546447D01*
X131982125Y-97225921D01*
X132014510Y-97181349D01*
X132107406Y-96999031D01*
X132170641Y-96804417D01*
X132202651Y-96602317D01*
X132202651Y-96397682D01*
X132170641Y-96195582D01*
X132107406Y-96000968D01*
X132014510Y-95818650D01*
X131982125Y-95774077D01*
X131982125Y-95774076D01*
X131302651Y-96453551D01*
X131302651Y-96447339D01*
X131275392Y-96345606D01*
X131222731Y-96254394D01*
X131148257Y-96179920D01*
X131057045Y-96127259D01*
X130955312Y-96100000D01*
X130949097Y-96100000D01*
X131628573Y-95420524D01*
X131628572Y-95420523D01*
X131584010Y-95388147D01*
X131584001Y-95388141D01*
X131401682Y-95295244D01*
X131207068Y-95232009D01*
X131004968Y-95200000D01*
X130800334Y-95200000D01*
X130598233Y-95232009D01*
X130403619Y-95295244D01*
X130221295Y-95388143D01*
X130176728Y-95420523D01*
X130176728Y-95420524D01*
X130856205Y-96100000D01*
X130849990Y-96100000D01*
X130748257Y-96127259D01*
X130657045Y-96179920D01*
X130582571Y-96254394D01*
X130529910Y-96345606D01*
X130502651Y-96447339D01*
X130502651Y-96453553D01*
X129823175Y-95774077D01*
X129823174Y-95774077D01*
X129790794Y-95818644D01*
X129697895Y-96000968D01*
X129634660Y-96195582D01*
X129602651Y-96397682D01*
X111426432Y-96397682D01*
X111407547Y-96372455D01*
X111407544Y-96372452D01*
X111292335Y-96286206D01*
X111292328Y-96286202D01*
X111157482Y-96235908D01*
X111157483Y-96235908D01*
X111097883Y-96229501D01*
X111097881Y-96229500D01*
X111097873Y-96229500D01*
X111097864Y-96229500D01*
X109302129Y-96229500D01*
X109302123Y-96229501D01*
X109242516Y-96235908D01*
X109107671Y-96286202D01*
X109107664Y-96286206D01*
X108992455Y-96372452D01*
X108992452Y-96372455D01*
X108906206Y-96487664D01*
X108906202Y-96487671D01*
X108855908Y-96622517D01*
X108849501Y-96682116D01*
X108849501Y-96682123D01*
X108849500Y-96682135D01*
X108849500Y-97991718D01*
X108829815Y-98058757D01*
X108813181Y-98079399D01*
X106187759Y-100704820D01*
X106126436Y-100738305D01*
X106056744Y-100733321D01*
X106000811Y-100691449D01*
X105980862Y-100651251D01*
X105973909Y-100626951D01*
X105879698Y-100446593D01*
X105766661Y-100307964D01*
X105739552Y-100243568D01*
X105751561Y-100174738D01*
X105766662Y-100151241D01*
X105879278Y-100013130D01*
X105973442Y-99832861D01*
X106029390Y-99637328D01*
X106029391Y-99637325D01*
X106039999Y-99518000D01*
X106040000Y-99517998D01*
X106040000Y-98402002D01*
X106039999Y-98401999D01*
X106029391Y-98282674D01*
X106029390Y-98282671D01*
X105973442Y-98087138D01*
X105879278Y-97906870D01*
X105766661Y-97768757D01*
X105739552Y-97704361D01*
X105751561Y-97635531D01*
X105766658Y-97612039D01*
X105879698Y-97473407D01*
X105973909Y-97293049D01*
X106029886Y-97097418D01*
X106040500Y-96978037D01*
X106040499Y-95861964D01*
X106029886Y-95742582D01*
X105973909Y-95546951D01*
X105879698Y-95366593D01*
X105821521Y-95295244D01*
X105751109Y-95208890D01*
X105593409Y-95080304D01*
X105593410Y-95080304D01*
X105593407Y-95080302D01*
X105413049Y-94986091D01*
X105413048Y-94986090D01*
X105413045Y-94986089D01*
X105295829Y-94952550D01*
X105217418Y-94930114D01*
X105217415Y-94930113D01*
X105217413Y-94930113D01*
X105151102Y-94924217D01*
X105098037Y-94919500D01*
X105098032Y-94919500D01*
X103231971Y-94919500D01*
X103231965Y-94919500D01*
X103231964Y-94919501D01*
X103220316Y-94920536D01*
X103112584Y-94930113D01*
X102916954Y-94986089D01*
X102826772Y-95033196D01*
X102736593Y-95080302D01*
X102736591Y-95080303D01*
X102736590Y-95080304D01*
X102578890Y-95208890D01*
X102457889Y-95357288D01*
X102450302Y-95366593D01*
X102422131Y-95420524D01*
X102356089Y-95546954D01*
X102311332Y-95703376D01*
X102303826Y-95729611D01*
X102300114Y-95742583D01*
X102300113Y-95742586D01*
X102289500Y-95861966D01*
X102289500Y-96978028D01*
X102289501Y-96978034D01*
X102300113Y-97097415D01*
X102356089Y-97293045D01*
X102356090Y-97293048D01*
X102356091Y-97293049D01*
X102450302Y-97473407D01*
X102454737Y-97478846D01*
X102563338Y-97612035D01*
X102590447Y-97676432D01*
X102578438Y-97745261D01*
X102563338Y-97768757D01*
X102450721Y-97906870D01*
X102356557Y-98087138D01*
X102300609Y-98282671D01*
X102300608Y-98282674D01*
X102290000Y-98401999D01*
X102290000Y-99518000D01*
X102300608Y-99637325D01*
X102300609Y-99637328D01*
X102356557Y-99832861D01*
X102450721Y-100013129D01*
X102563338Y-100151242D01*
X102590447Y-100215638D01*
X102578438Y-100284468D01*
X102563338Y-100307963D01*
X102450305Y-100446587D01*
X102356090Y-100626953D01*
X102309520Y-100789708D01*
X102272152Y-100848746D01*
X102214497Y-100877213D01*
X102116969Y-100896613D01*
X102116960Y-100896616D01*
X102002774Y-100943913D01*
X102002756Y-100943923D01*
X101899992Y-101012587D01*
X101899985Y-101012593D01*
X97337672Y-105574907D01*
X97276349Y-105608392D01*
X97274183Y-105608843D01*
X97166508Y-105630261D01*
X97166498Y-105630264D01*
X97020827Y-105690602D01*
X97020814Y-105690609D01*
X96889711Y-105778210D01*
X96889707Y-105778213D01*
X96778213Y-105889707D01*
X96778210Y-105889711D01*
X96690609Y-106020814D01*
X96690602Y-106020827D01*
X96630264Y-106166498D01*
X96630261Y-106166510D01*
X96599500Y-106321153D01*
X96599500Y-106478846D01*
X96630261Y-106633489D01*
X96630264Y-106633501D01*
X96690602Y-106779172D01*
X96690609Y-106779185D01*
X96778210Y-106910288D01*
X96778213Y-106910292D01*
X96889707Y-107021786D01*
X96889711Y-107021789D01*
X97020814Y-107109390D01*
X97020827Y-107109397D01*
X97166498Y-107169735D01*
X97166503Y-107169737D01*
X97278748Y-107192064D01*
X97321153Y-107200499D01*
X97321156Y-107200500D01*
X97321158Y-107200500D01*
X97478844Y-107200500D01*
X97478845Y-107200499D01*
X97633497Y-107169737D01*
X97779179Y-107109394D01*
X97910289Y-107021789D01*
X98021789Y-106910289D01*
X98109394Y-106779179D01*
X98169737Y-106633497D01*
X98191156Y-106525812D01*
X98223539Y-106463906D01*
X98225035Y-106462382D01*
X102222371Y-102465047D01*
X102283692Y-102431564D01*
X102353384Y-102436548D01*
X102409317Y-102478420D01*
X102419958Y-102495317D01*
X102450302Y-102553407D01*
X102563015Y-102691639D01*
X102590124Y-102756036D01*
X102578115Y-102824865D01*
X102563015Y-102848361D01*
X102450304Y-102986590D01*
X102356089Y-103166954D01*
X102318636Y-103297849D01*
X102303826Y-103349611D01*
X102300114Y-103362583D01*
X102300113Y-103362586D01*
X102289500Y-103481966D01*
X102289500Y-104598028D01*
X102289501Y-104598034D01*
X102300113Y-104717415D01*
X102356089Y-104913045D01*
X102356090Y-104913048D01*
X102356091Y-104913049D01*
X102450302Y-105093407D01*
X102489497Y-105141476D01*
X102563015Y-105231639D01*
X102590124Y-105296036D01*
X102578115Y-105364865D01*
X102563015Y-105388361D01*
X102450304Y-105526590D01*
X102356089Y-105706954D01*
X102318636Y-105837849D01*
X102303826Y-105889611D01*
X102300114Y-105902583D01*
X102300113Y-105902586D01*
X102289500Y-106021966D01*
X102289500Y-107138028D01*
X102289501Y-107138034D01*
X102300113Y-107257415D01*
X102356089Y-107453045D01*
X102356090Y-107453048D01*
X102356091Y-107453049D01*
X102450302Y-107633407D01*
X102489497Y-107681476D01*
X102563015Y-107771639D01*
X102590124Y-107836036D01*
X102578115Y-107904865D01*
X102563015Y-107928361D01*
X102450304Y-108066590D01*
X102356089Y-108246954D01*
X102318636Y-108377849D01*
X102303279Y-108431523D01*
X102300114Y-108442583D01*
X102300113Y-108442586D01*
X102289500Y-108561966D01*
X102289500Y-109678028D01*
X102289501Y-109678034D01*
X102300113Y-109797415D01*
X102356089Y-109993045D01*
X102356090Y-109993048D01*
X102356091Y-109993049D01*
X102450302Y-110173407D01*
X102489497Y-110221476D01*
X102563015Y-110311639D01*
X102590124Y-110376036D01*
X102578115Y-110444865D01*
X102563015Y-110468361D01*
X102450304Y-110606590D01*
X102356089Y-110786954D01*
X102318636Y-110917849D01*
X102303826Y-110969611D01*
X102300114Y-110982583D01*
X102300113Y-110982586D01*
X102289500Y-111101966D01*
X102289500Y-112218028D01*
X102289501Y-112218034D01*
X102300113Y-112337415D01*
X102356089Y-112533045D01*
X102356090Y-112533048D01*
X102356091Y-112533049D01*
X102450302Y-112713407D01*
X102450304Y-112713409D01*
X102578890Y-112871109D01*
X102672803Y-112947684D01*
X102736593Y-112999698D01*
X102916951Y-113093909D01*
X103112582Y-113149886D01*
X103231963Y-113160500D01*
X105098036Y-113160499D01*
X105217418Y-113149886D01*
X105413049Y-113093909D01*
X105593407Y-112999698D01*
X105751109Y-112871109D01*
X105879698Y-112713407D01*
X105973909Y-112533049D01*
X106029886Y-112337418D01*
X106040500Y-112218037D01*
X106040499Y-111101964D01*
X106029886Y-110982582D01*
X105981158Y-110812286D01*
X105973910Y-110786954D01*
X105973909Y-110786953D01*
X105973909Y-110786951D01*
X105879698Y-110606593D01*
X105766984Y-110468360D01*
X105754813Y-110439449D01*
X105740931Y-110411311D01*
X105741363Y-110407498D01*
X105739875Y-110403963D01*
X105745267Y-110373055D01*
X105748801Y-110341886D01*
X105751484Y-110337421D01*
X105751884Y-110335134D01*
X105766980Y-110311644D01*
X105793562Y-110279044D01*
X105851183Y-110239529D01*
X105921021Y-110237438D01*
X105951664Y-110250021D01*
X105968213Y-110259576D01*
X105968214Y-110259576D01*
X105968215Y-110259577D01*
X106120943Y-110300501D01*
X106120946Y-110300501D01*
X106286653Y-110300501D01*
X106286669Y-110300500D01*
X109010398Y-110300500D01*
X109077437Y-110320185D01*
X109120882Y-110368204D01*
X109123354Y-110373055D01*
X109127715Y-110381614D01*
X109248028Y-110547213D01*
X109392786Y-110691971D01*
X109558388Y-110812286D01*
X109631794Y-110849688D01*
X109682590Y-110897662D01*
X109699500Y-110960173D01*
X109699500Y-113643000D01*
X109679815Y-113710039D01*
X109627011Y-113755794D01*
X109575500Y-113767000D01*
X109252130Y-113767000D01*
X109252123Y-113767001D01*
X109192516Y-113773408D01*
X109057671Y-113823702D01*
X109057664Y-113823706D01*
X108942455Y-113909952D01*
X108942452Y-113909955D01*
X108856206Y-114025164D01*
X108856202Y-114025171D01*
X108805908Y-114160017D01*
X108799501Y-114219616D01*
X108799501Y-114219623D01*
X108799500Y-114219635D01*
X108799500Y-116220370D01*
X108799501Y-116220376D01*
X108805908Y-116279983D01*
X108856202Y-116414828D01*
X108856206Y-116414835D01*
X108942452Y-116530044D01*
X108942455Y-116530047D01*
X109057664Y-116616293D01*
X109057669Y-116616296D01*
X109085539Y-116626690D01*
X109141473Y-116668561D01*
X109165891Y-116734024D01*
X109151040Y-116802298D01*
X109142525Y-116815759D01*
X109009783Y-116998461D01*
X108962227Y-117091795D01*
X108914252Y-117142591D01*
X108851742Y-117159500D01*
X108019901Y-117159500D01*
X107952862Y-117139815D01*
X107951010Y-117138602D01*
X107879184Y-117090609D01*
X107879172Y-117090602D01*
X107733501Y-117030264D01*
X107733489Y-117030261D01*
X107578845Y-116999500D01*
X107578842Y-116999500D01*
X107421158Y-116999500D01*
X107421155Y-116999500D01*
X107266510Y-117030261D01*
X107266498Y-117030264D01*
X107120827Y-117090602D01*
X107120814Y-117090609D01*
X106989711Y-117178210D01*
X106989707Y-117178213D01*
X106878213Y-117289707D01*
X106878210Y-117289711D01*
X106790609Y-117420814D01*
X106790602Y-117420827D01*
X106730264Y-117566498D01*
X106730261Y-117566508D01*
X106721709Y-117609503D01*
X106689324Y-117671414D01*
X106628607Y-117705988D01*
X106558838Y-117702247D01*
X106512411Y-117672992D01*
X93289707Y-104450288D01*
X93256222Y-104388965D01*
X93261206Y-104319273D01*
X93272394Y-104296636D01*
X93288122Y-104271606D01*
X93345841Y-104106657D01*
X93360500Y-103976552D01*
X93360500Y-103339448D01*
X93345841Y-103209343D01*
X93288122Y-103044394D01*
X93195147Y-102896424D01*
X93091550Y-102792827D01*
X93058065Y-102731504D01*
X93063049Y-102661812D01*
X93091550Y-102617464D01*
X93194754Y-102514260D01*
X93287669Y-102366386D01*
X93345351Y-102201539D01*
X93359999Y-102071530D01*
X93360000Y-102071526D01*
X93360000Y-101434473D01*
X93359999Y-101434469D01*
X93345351Y-101304460D01*
X93287669Y-101139613D01*
X93194753Y-100991737D01*
X93071262Y-100868246D01*
X92934338Y-100782212D01*
X92010000Y-101706550D01*
X92010000Y-101700339D01*
X91982741Y-101598606D01*
X91930080Y-101507394D01*
X91855606Y-101432920D01*
X91764394Y-101380259D01*
X91662661Y-101353000D01*
X91656448Y-101353000D01*
X92306448Y-100703000D01*
X90913551Y-100703000D01*
X91563552Y-101353000D01*
X91557339Y-101353000D01*
X91455606Y-101380259D01*
X91364394Y-101432920D01*
X91289920Y-101507394D01*
X91237259Y-101598606D01*
X91210000Y-101700339D01*
X91210000Y-101706552D01*
X90285660Y-100782212D01*
X90148739Y-100868245D01*
X90079477Y-100937507D01*
X90018153Y-100970991D01*
X89948462Y-100966006D01*
X89892528Y-100924135D01*
X89868283Y-100860804D01*
X89864886Y-100822582D01*
X89808909Y-100626951D01*
X89714698Y-100446593D01*
X89601983Y-100308359D01*
X89574875Y-100243965D01*
X89586884Y-100175135D01*
X89601981Y-100151642D01*
X89714698Y-100013407D01*
X89808909Y-99833049D01*
X89864886Y-99637418D01*
X89875500Y-99518037D01*
X89875499Y-98401964D01*
X89864886Y-98282582D01*
X89808909Y-98086951D01*
X89714698Y-97906593D01*
X89601983Y-97768359D01*
X89574875Y-97703965D01*
X89586884Y-97635135D01*
X89601981Y-97611642D01*
X89714698Y-97473407D01*
X89808909Y-97293049D01*
X89825470Y-97235170D01*
X89862835Y-97176134D01*
X89926188Y-97146669D01*
X89995414Y-97156133D01*
X90032366Y-97181601D01*
X90265425Y-97414660D01*
X90298910Y-97475983D01*
X90299361Y-97478149D01*
X90330261Y-97633491D01*
X90330264Y-97633501D01*
X90390602Y-97779172D01*
X90390609Y-97779185D01*
X90478210Y-97910288D01*
X90478213Y-97910292D01*
X90589707Y-98021786D01*
X90589711Y-98021789D01*
X90720814Y-98109390D01*
X90720827Y-98109397D01*
X90866498Y-98169735D01*
X90866503Y-98169737D01*
X91021153Y-98200499D01*
X91021156Y-98200500D01*
X91021158Y-98200500D01*
X91178844Y-98200500D01*
X91178845Y-98200499D01*
X91333497Y-98169737D01*
X91479179Y-98109394D01*
X91610289Y-98021789D01*
X91721789Y-97910289D01*
X91809394Y-97779179D01*
X91869737Y-97633497D01*
X91900500Y-97478842D01*
X91900500Y-97321158D01*
X91900500Y-97321155D01*
X91900499Y-97321153D01*
X91881556Y-97225921D01*
X91869737Y-97166503D01*
X91842198Y-97100018D01*
X91809397Y-97020827D01*
X91809390Y-97020814D01*
X91721789Y-96889711D01*
X91721786Y-96889707D01*
X91610292Y-96778213D01*
X91610288Y-96778210D01*
X91479185Y-96690609D01*
X91479172Y-96690602D01*
X91333501Y-96630264D01*
X91333491Y-96630261D01*
X91178149Y-96599361D01*
X91116238Y-96566976D01*
X91114660Y-96565425D01*
X90607590Y-96058355D01*
X90607588Y-96058352D01*
X90488717Y-95939481D01*
X90488716Y-95939480D01*
X90401904Y-95889360D01*
X90401904Y-95889359D01*
X90401900Y-95889358D01*
X90351785Y-95860423D01*
X90199057Y-95819499D01*
X90040943Y-95819499D01*
X90033347Y-95819499D01*
X90033331Y-95819500D01*
X89980390Y-95819500D01*
X89913351Y-95799815D01*
X89867596Y-95747011D01*
X89861176Y-95729617D01*
X89808909Y-95546951D01*
X89714698Y-95366593D01*
X89656521Y-95295244D01*
X89586109Y-95208890D01*
X89428409Y-95080304D01*
X89428410Y-95080304D01*
X89428407Y-95080302D01*
X89248049Y-94986091D01*
X89248048Y-94986090D01*
X89248045Y-94986089D01*
X89130829Y-94952550D01*
X89052418Y-94930114D01*
X89052415Y-94930113D01*
X89052413Y-94930113D01*
X88986102Y-94924217D01*
X88933037Y-94919500D01*
X88933032Y-94919500D01*
X87066971Y-94919500D01*
X87066965Y-94919500D01*
X87066964Y-94919501D01*
X87055316Y-94920536D01*
X86947584Y-94930113D01*
X86751954Y-94986089D01*
X86661772Y-95033196D01*
X86571593Y-95080302D01*
X86571591Y-95080303D01*
X86571590Y-95080304D01*
X86413890Y-95208890D01*
X86292889Y-95357288D01*
X86285302Y-95366593D01*
X86257131Y-95420524D01*
X86191089Y-95546954D01*
X86146332Y-95703376D01*
X86138826Y-95729611D01*
X86135114Y-95742583D01*
X86135113Y-95742586D01*
X86124500Y-95861966D01*
X86124500Y-96978028D01*
X86124501Y-96978034D01*
X86135113Y-97097415D01*
X86191089Y-97293045D01*
X86191090Y-97293048D01*
X86191091Y-97293049D01*
X86285302Y-97473407D01*
X86289737Y-97478846D01*
X86398015Y-97611639D01*
X86425124Y-97676036D01*
X86413115Y-97744865D01*
X86398015Y-97768361D01*
X86302588Y-97885394D01*
X86285302Y-97906593D01*
X86238196Y-97996772D01*
X86191089Y-98086954D01*
X86155496Y-98211347D01*
X86138825Y-98269612D01*
X86101459Y-98328649D01*
X86038105Y-98358113D01*
X86019610Y-98359500D01*
X78046670Y-98359500D01*
X78046654Y-98359499D01*
X78039058Y-98359499D01*
X77880943Y-98359499D01*
X77728215Y-98400423D01*
X77594051Y-98477883D01*
X77591281Y-98479482D01*
X76984522Y-99086241D01*
X76923199Y-99119726D01*
X76858523Y-99116491D01*
X76816245Y-99102754D01*
X76604602Y-99069233D01*
X76541467Y-99039304D01*
X76504536Y-98979992D01*
X76500000Y-98946760D01*
X76500000Y-93623091D01*
X76519685Y-93556052D01*
X76572489Y-93510297D01*
X76623083Y-93499094D01*
X144375089Y-93000918D01*
X144442271Y-93020109D01*
G37*
G04 #@! TD.AperFunction*
G04 #@! TA.AperFunction,Conductor*
G36*
X108769333Y-100000597D02*
G01*
X108825267Y-100042469D01*
X108849684Y-100107933D01*
X108850000Y-100116779D01*
X108850000Y-100226246D01*
X108883242Y-100436127D01*
X108883242Y-100436130D01*
X108948904Y-100638217D01*
X109045375Y-100827550D01*
X109084728Y-100881716D01*
X109717037Y-100249408D01*
X109734075Y-100312993D01*
X109799901Y-100427007D01*
X109892993Y-100520099D01*
X110007007Y-100585925D01*
X110070590Y-100602962D01*
X109438282Y-101235269D01*
X109438282Y-101235270D01*
X109492452Y-101274626D01*
X109492451Y-101274626D01*
X109501495Y-101279234D01*
X109552292Y-101327208D01*
X109569087Y-101395029D01*
X109546550Y-101461164D01*
X109501499Y-101500202D01*
X109492182Y-101504949D01*
X109320213Y-101629890D01*
X109169890Y-101780213D01*
X109044951Y-101952179D01*
X108948444Y-102141585D01*
X108882753Y-102343760D01*
X108849500Y-102553713D01*
X108849500Y-102766286D01*
X108882754Y-102976244D01*
X108882754Y-102976247D01*
X108896491Y-103018523D01*
X108898486Y-103088364D01*
X108866241Y-103144522D01*
X108607582Y-103403182D01*
X108546262Y-103436666D01*
X108519903Y-103439500D01*
X106145390Y-103439500D01*
X106078351Y-103419815D01*
X106032596Y-103367011D01*
X106026176Y-103349617D01*
X105973909Y-103166951D01*
X105879698Y-102986593D01*
X105766983Y-102848359D01*
X105739875Y-102783965D01*
X105751884Y-102715135D01*
X105766981Y-102691642D01*
X105879698Y-102553407D01*
X105973909Y-102373049D01*
X106018449Y-102217387D01*
X106055817Y-102158350D01*
X106119170Y-102128887D01*
X106137665Y-102127500D01*
X106341804Y-102127500D01*
X106341805Y-102127499D01*
X106463035Y-102103386D01*
X106543784Y-102069937D01*
X106577233Y-102056083D01*
X106680008Y-101987411D01*
X106767411Y-101900008D01*
X108638322Y-100029096D01*
X108699642Y-99995613D01*
X108769333Y-100000597D01*
G37*
G04 #@! TD.AperFunction*
G04 #@! TD*
M02*
