G04 #@! TF.GenerationSoftware,KiCad,Pcbnew,9.0.4*
G04 #@! TF.CreationDate,2026-01-27T17:59:56-08:00*
G04 #@! TF.ProjectId,e-ink_PCB,652d696e-6b5f-4504-9342-2e6b69636164,rev?*
G04 #@! TF.SameCoordinates,Original*
G04 #@! TF.FileFunction,Copper,L2,Bot*
G04 #@! TF.FilePolarity,Positive*
%FSLAX46Y46*%
G04 Gerber Fmt 4.6, Leading zero omitted, Abs format (unit mm)*
G04 Created by KiCad (PCBNEW 9.0.4) date 2026-01-27 17:59:56*
%MOMM*%
%LPD*%
G01*
G04 APERTURE LIST*
G04 Aperture macros list*
%AMRoundRect*
0 Rectangle with rounded corners*
0 $1 Rounding radius*
0 $2 $3 $4 $5 $6 $7 $8 $9 X,Y pos of 4 corners*
0 Add a 4 corners polygon primitive as box body*
4,1,4,$2,$3,$4,$5,$6,$7,$8,$9,$2,$3,0*
0 Add four circle primitives for the rounded corners*
1,1,$1+$1,$2,$3*
1,1,$1+$1,$4,$5*
1,1,$1+$1,$6,$7*
1,1,$1+$1,$8,$9*
0 Add four rect primitives between the rounded corners*
20,1,$1+$1,$2,$3,$4,$5,0*
20,1,$1+$1,$4,$5,$6,$7,0*
20,1,$1+$1,$6,$7,$8,$9,0*
20,1,$1+$1,$8,$9,$2,$3,0*%
G04 Aperture macros list end*
G04 #@! TA.AperFunction,ComponentPad*
%ADD10RoundRect,0.500000X-0.875000X-0.500000X0.875000X-0.500000X0.875000X0.500000X-0.875000X0.500000X0*%
G04 #@! TD*
G04 #@! TA.AperFunction,ComponentPad*
%ADD11RoundRect,0.275000X0.975000X0.275000X-0.975000X0.275000X-0.975000X-0.275000X0.975000X-0.275000X0*%
G04 #@! TD*
G04 #@! TA.AperFunction,ComponentPad*
%ADD12C,1.700000*%
G04 #@! TD*
G04 #@! TA.AperFunction,ComponentPad*
%ADD13R,1.700000X1.700000*%
G04 #@! TD*
G04 #@! TA.AperFunction,ComponentPad*
%ADD14RoundRect,0.250000X0.550000X0.550000X-0.550000X0.550000X-0.550000X-0.550000X0.550000X-0.550000X0*%
G04 #@! TD*
G04 #@! TA.AperFunction,ComponentPad*
%ADD15C,1.600000*%
G04 #@! TD*
G04 #@! TA.AperFunction,ComponentPad*
%ADD16R,2.000000X1.905000*%
G04 #@! TD*
G04 #@! TA.AperFunction,ComponentPad*
%ADD17O,2.000000X1.905000*%
G04 #@! TD*
G04 #@! TA.AperFunction,ComponentPad*
%ADD18C,2.000000*%
G04 #@! TD*
G04 #@! TA.AperFunction,ComponentPad*
%ADD19R,1.350000X1.350000*%
G04 #@! TD*
G04 #@! TA.AperFunction,ComponentPad*
%ADD20C,1.350000*%
G04 #@! TD*
G04 #@! TA.AperFunction,ViaPad*
%ADD21C,0.600000*%
G04 #@! TD*
G04 #@! TA.AperFunction,Conductor*
%ADD22C,0.200000*%
G04 #@! TD*
G04 #@! TA.AperFunction,Conductor*
%ADD23C,0.254000*%
G04 #@! TD*
G04 APERTURE END LIST*
D10*
G04 #@! TO.P,J1,2,Pin_8*
G04 #@! TO.N,Net-(J1-Pin_8)*
X88000000Y-96420000D03*
G04 #@! TO.P,J1,3,Pin_7*
G04 #@! TO.N,Net-(J2-Pin_8)*
X88000000Y-98960000D03*
G04 #@! TO.P,J1,3.3V,Pin_3*
G04 #@! TO.N,Net-(J2-Pin_2)*
X104165000Y-101500000D03*
G04 #@! TO.P,J1,4,Pin_6*
G04 #@! TO.N,Net-(J2-Pin_7)*
X88000000Y-101500000D03*
G04 #@! TO.P,J1,5,Pin_5*
G04 #@! TO.N,Net-(J2-Pin_6)*
X88000000Y-104040000D03*
G04 #@! TO.P,J1,5V,Pin_1*
G04 #@! TO.N,unconnected-(J1-Pin_1-Pad5V)*
X104165000Y-96420000D03*
G04 #@! TO.P,J1,6,Pin_4*
G04 #@! TO.N,Net-(J2-Pin_5)*
X88000000Y-106580000D03*
G04 #@! TO.P,J1,7,Pin_3*
G04 #@! TO.N,Net-(J2-Pin_4)*
X88000000Y-109120000D03*
G04 #@! TO.P,J1,8,Pin_6*
G04 #@! TO.N,Net-(Q1-G)*
X104165000Y-109120000D03*
G04 #@! TO.P,J1,9,Pin_5*
G04 #@! TO.N,Net-(J3-Pin_4)*
X104165000Y-106580000D03*
G04 #@! TO.P,J1,10,Pin_4*
G04 #@! TO.N,Net-(J3-Pin_3)*
X104165000Y-104040000D03*
G04 #@! TO.P,J1,20,Pin_7*
G04 #@! TO.N,unconnected-(J1-Pin_7-Pad20)*
X104165000Y-111660000D03*
G04 #@! TO.P,J1,21,Pin_2*
G04 #@! TO.N,Net-(J2-Pin_3)*
X88000000Y-111660000D03*
D11*
G04 #@! TO.P,J1,BAT+,Pin_1*
G04 #@! TO.N,Net-(J4-Pin_2)*
X91610000Y-103658000D03*
G04 #@! TO.P,J1,BAT-,Pin_1*
G04 #@! TO.N,GND*
X91610000Y-101753000D03*
D10*
G04 #@! TO.P,J1,GND,Pin_2*
X104165000Y-98960000D03*
G04 #@! TD*
D12*
G04 #@! TO.P,J3,GND,Pin_2*
G04 #@! TO.N,GND*
X110200000Y-100120000D03*
G04 #@! TO.P,J3,SCL,Pin_3*
G04 #@! TO.N,Net-(J3-Pin_3)*
X110200000Y-102660000D03*
G04 #@! TO.P,J3,SDA,Pin_4*
G04 #@! TO.N,Net-(J3-Pin_4)*
X110200000Y-105200000D03*
D13*
G04 #@! TO.P,J3,VIN,Pin_1*
G04 #@! TO.N,Net-(J2-Pin_2)*
X110200000Y-97580000D03*
G04 #@! TD*
D14*
G04 #@! TO.P,J4,+,Pin_2*
G04 #@! TO.N,Net-(J4-Pin_2)*
X135902651Y-96500000D03*
D15*
G04 #@! TO.P,J4,-,Pin_1*
G04 #@! TO.N,GND*
X130902651Y-96500000D03*
G04 #@! TD*
D16*
G04 #@! TO.P,Q1,1,G*
G04 #@! TO.N,Net-(Q1-G)*
X110300000Y-115220000D03*
D17*
G04 #@! TO.P,Q1,2,D*
G04 #@! TO.N,Net-(Q1-D)*
X110300000Y-117760000D03*
G04 #@! TO.P,Q1,3,S*
G04 #@! TO.N,Net-(J4-Pin_2)*
X110300000Y-120300000D03*
G04 #@! TD*
D12*
G04 #@! TO.P,J2,BUSY,Pin_8*
G04 #@! TO.N,Net-(J2-Pin_8)*
X76500000Y-100420000D03*
G04 #@! TO.P,J2,CS,Pin_7*
G04 #@! TO.N,Net-(J2-Pin_7)*
X76500000Y-102960000D03*
G04 #@! TO.P,J2,DC,Pin_6*
G04 #@! TO.N,Net-(J2-Pin_6)*
X76500000Y-105500000D03*
D13*
G04 #@! TO.P,J2,GND,Pin_1*
G04 #@! TO.N,GND*
X76500000Y-118200000D03*
D12*
G04 #@! TO.P,J2,RES,Pin_5*
G04 #@! TO.N,Net-(J2-Pin_5)*
X76500000Y-108040000D03*
G04 #@! TO.P,J2,SCL,Pin_3*
G04 #@! TO.N,Net-(J2-Pin_3)*
X76500000Y-113120000D03*
G04 #@! TO.P,J2,SDA,Pin_4*
G04 #@! TO.N,Net-(J2-Pin_4)*
X76500000Y-110580000D03*
G04 #@! TO.P,J2,VCC,Pin_2*
G04 #@! TO.N,Net-(J2-Pin_2)*
X76500000Y-115660000D03*
G04 #@! TD*
D15*
G04 #@! TO.P,R3,1*
G04 #@! TO.N,Net-(Q1-G)*
X110240000Y-109700000D03*
G04 #@! TO.P,R3,2*
G04 #@! TO.N,Net-(J4-Pin_2)*
X120400000Y-109700000D03*
G04 #@! TD*
D18*
G04 #@! TO.P,C1,1*
G04 #@! TO.N,GND*
X83200000Y-120800000D03*
G04 #@! TO.P,C1,2*
G04 #@! TO.N,Net-(J2-Pin_2)*
X83200000Y-115800000D03*
G04 #@! TD*
D19*
G04 #@! TO.P,J5,1,Pin_1*
G04 #@! TO.N,GND*
X143000000Y-112500000D03*
D20*
G04 #@! TO.P,J5,2,Pin_2*
G04 #@! TO.N,Net-(J4-Pin_2)*
X143000000Y-110500000D03*
G04 #@! TD*
D15*
G04 #@! TO.P,R1,1*
G04 #@! TO.N,Net-(J1-Pin_8)*
X90920000Y-116300000D03*
G04 #@! TO.P,R1,2*
G04 #@! TO.N,Net-(Q1-D)*
X101080000Y-116300000D03*
G04 #@! TD*
G04 #@! TO.P,R2,1*
G04 #@! TO.N,GND*
X101200000Y-120900000D03*
G04 #@! TO.P,R2,2*
G04 #@! TO.N,Net-(J1-Pin_8)*
X91040000Y-120900000D03*
G04 #@! TD*
D21*
G04 #@! TO.N,Net-(J1-Pin_8)*
X91100000Y-97400000D03*
G04 #@! TO.N,Net-(J2-Pin_2)*
X94300000Y-109600000D03*
X97400000Y-106400000D03*
G04 #@! TO.N,Net-(Q1-D)*
X107500000Y-117800000D03*
X103700000Y-117900000D03*
G04 #@! TO.N,GND*
X126100000Y-96500000D03*
X80000000Y-95000000D03*
X79500000Y-119500000D03*
X120000000Y-96500000D03*
X143000000Y-114500000D03*
X140000000Y-120000000D03*
X130000000Y-120000000D03*
X120000000Y-120000000D03*
X140000000Y-95000000D03*
X88000000Y-121500000D03*
X120000000Y-95000000D03*
X141000000Y-112500000D03*
X120000000Y-105000000D03*
X130000000Y-105000000D03*
X110000000Y-95000000D03*
G04 #@! TD*
D22*
G04 #@! TO.N,Net-(J1-Pin_8)*
X90920000Y-110380000D02*
X96200000Y-105100000D01*
X96100000Y-102400000D02*
X91100000Y-97400000D01*
X90920000Y-116300000D02*
X90920000Y-110380000D01*
X96200000Y-105100000D02*
X96200000Y-102500000D01*
X96200000Y-102500000D02*
X96100000Y-102400000D01*
G04 #@! TO.N,Net-(J2-Pin_2)*
X97400000Y-106500000D02*
X97400000Y-106400000D01*
D23*
X94300000Y-109600000D02*
X97400000Y-106500000D01*
D22*
G04 #@! TO.N,Net-(Q1-D)*
X107400000Y-117900000D02*
X107500000Y-117800000D01*
X103700000Y-117900000D02*
X107400000Y-117900000D01*
G04 #@! TD*
G04 #@! TA.AperFunction,Conductor*
G04 #@! TO.N,GND*
G36*
X144442271Y-93020109D02*
G01*
X144488413Y-93072576D01*
X144500000Y-93124915D01*
X144500000Y-122876908D01*
X144480315Y-122943947D01*
X144427511Y-122989702D01*
X144376912Y-123000905D01*
X76624912Y-123499081D01*
X76557729Y-123479890D01*
X76511587Y-123427423D01*
X76500000Y-123375084D01*
X76500000Y-120681947D01*
X81700000Y-120681947D01*
X81700000Y-120918052D01*
X81736934Y-121151247D01*
X81809897Y-121375802D01*
X81917087Y-121586174D01*
X81977338Y-121669104D01*
X81977340Y-121669105D01*
X82717037Y-120929408D01*
X82734075Y-120992993D01*
X82799901Y-121107007D01*
X82892993Y-121200099D01*
X83007007Y-121265925D01*
X83070590Y-121282962D01*
X82330893Y-122022658D01*
X82413828Y-122082914D01*
X82624197Y-122190102D01*
X82848752Y-122263065D01*
X82848751Y-122263065D01*
X83081948Y-122300000D01*
X83318052Y-122300000D01*
X83551247Y-122263065D01*
X83775802Y-122190102D01*
X83986163Y-122082918D01*
X83986169Y-122082914D01*
X84069104Y-122022658D01*
X84069105Y-122022658D01*
X83329408Y-121282962D01*
X83392993Y-121265925D01*
X83507007Y-121200099D01*
X83600099Y-121107007D01*
X83665925Y-120992993D01*
X83682962Y-120929408D01*
X84422658Y-121669105D01*
X84422658Y-121669104D01*
X84482914Y-121586169D01*
X84482918Y-121586163D01*
X84590102Y-121375802D01*
X84663065Y-121151247D01*
X84700000Y-120918052D01*
X84700000Y-120797648D01*
X89739500Y-120797648D01*
X89739500Y-121002351D01*
X89771522Y-121204534D01*
X89834781Y-121399223D01*
X89898691Y-121524653D01*
X89927585Y-121581359D01*
X89927715Y-121581613D01*
X90048028Y-121747213D01*
X90192786Y-121891971D01*
X90313226Y-121979474D01*
X90358390Y-122012287D01*
X90474607Y-122071503D01*
X90540776Y-122105218D01*
X90540778Y-122105218D01*
X90540781Y-122105220D01*
X90645137Y-122139127D01*
X90735465Y-122168477D01*
X90836557Y-122184488D01*
X90937648Y-122200500D01*
X90937649Y-122200500D01*
X91142351Y-122200500D01*
X91142352Y-122200500D01*
X91344534Y-122168477D01*
X91539219Y-122105220D01*
X91721610Y-122012287D01*
X91814590Y-121944732D01*
X91887213Y-121891971D01*
X91887215Y-121891968D01*
X91887219Y-121891966D01*
X92031966Y-121747219D01*
X92031968Y-121747215D01*
X92031971Y-121747213D01*
X92105107Y-121646548D01*
X92152287Y-121581610D01*
X92245220Y-121399219D01*
X92308477Y-121204534D01*
X92340500Y-121002352D01*
X92340500Y-120797682D01*
X99900000Y-120797682D01*
X99900000Y-121002317D01*
X99932009Y-121204417D01*
X99995244Y-121399031D01*
X100088141Y-121581350D01*
X100088147Y-121581359D01*
X100120523Y-121625921D01*
X100120524Y-121625922D01*
X100800000Y-120946446D01*
X100800000Y-120952661D01*
X100827259Y-121054394D01*
X100879920Y-121145606D01*
X100954394Y-121220080D01*
X101045606Y-121272741D01*
X101147339Y-121300000D01*
X101153553Y-121300000D01*
X100474076Y-121979474D01*
X100518650Y-122011859D01*
X100700968Y-122104755D01*
X100895582Y-122167990D01*
X101097683Y-122200000D01*
X101302317Y-122200000D01*
X101504417Y-122167990D01*
X101699031Y-122104755D01*
X101881349Y-122011859D01*
X101925921Y-121979474D01*
X101246447Y-121300000D01*
X101252661Y-121300000D01*
X101354394Y-121272741D01*
X101445606Y-121220080D01*
X101520080Y-121145606D01*
X101572741Y-121054394D01*
X101600000Y-120952661D01*
X101600000Y-120946447D01*
X102279474Y-121625921D01*
X102311859Y-121581349D01*
X102404755Y-121399031D01*
X102467990Y-121204417D01*
X102500000Y-121002317D01*
X102500000Y-120797682D01*
X102467990Y-120595582D01*
X102404755Y-120400968D01*
X102311859Y-120218650D01*
X102279474Y-120174077D01*
X102279474Y-120174076D01*
X101600000Y-120853551D01*
X101600000Y-120847339D01*
X101572741Y-120745606D01*
X101520080Y-120654394D01*
X101445606Y-120579920D01*
X101354394Y-120527259D01*
X101252661Y-120500000D01*
X101246446Y-120500000D01*
X101925922Y-119820524D01*
X101925921Y-119820523D01*
X101881359Y-119788147D01*
X101881350Y-119788141D01*
X101699031Y-119695244D01*
X101504417Y-119632009D01*
X101302317Y-119600000D01*
X101097683Y-119600000D01*
X100895582Y-119632009D01*
X100700968Y-119695244D01*
X100518644Y-119788143D01*
X100474077Y-119820523D01*
X100474077Y-119820524D01*
X101153554Y-120500000D01*
X101147339Y-120500000D01*
X101045606Y-120527259D01*
X100954394Y-120579920D01*
X100879920Y-120654394D01*
X100827259Y-120745606D01*
X100800000Y-120847339D01*
X100800000Y-120853553D01*
X100120524Y-120174077D01*
X100120523Y-120174077D01*
X100088143Y-120218644D01*
X99995244Y-120400968D01*
X99932009Y-120595582D01*
X99900000Y-120797682D01*
X92340500Y-120797682D01*
X92340500Y-120797648D01*
X92330447Y-120734174D01*
X92308477Y-120595465D01*
X92249630Y-120414354D01*
X92245220Y-120400781D01*
X92245218Y-120400778D01*
X92245218Y-120400776D01*
X92193869Y-120300000D01*
X92152287Y-120218390D01*
X92120092Y-120174077D01*
X92031971Y-120052786D01*
X91887213Y-119908028D01*
X91721613Y-119787715D01*
X91721612Y-119787714D01*
X91721610Y-119787713D01*
X91664653Y-119758691D01*
X91539223Y-119694781D01*
X91344534Y-119631522D01*
X91169995Y-119603878D01*
X91142352Y-119599500D01*
X90937648Y-119599500D01*
X90913329Y-119603351D01*
X90735465Y-119631522D01*
X90540776Y-119694781D01*
X90358386Y-119787715D01*
X90192786Y-119908028D01*
X90048028Y-120052786D01*
X89927715Y-120218386D01*
X89834781Y-120400776D01*
X89771522Y-120595465D01*
X89739500Y-120797648D01*
X84700000Y-120797648D01*
X84700000Y-120681947D01*
X84663065Y-120448752D01*
X84590102Y-120224197D01*
X84482914Y-120013828D01*
X84422658Y-119930894D01*
X84422658Y-119930893D01*
X83682962Y-120670590D01*
X83665925Y-120607007D01*
X83600099Y-120492993D01*
X83507007Y-120399901D01*
X83392993Y-120334075D01*
X83329409Y-120317037D01*
X84069105Y-119577340D01*
X84069104Y-119577338D01*
X83986174Y-119517087D01*
X83775802Y-119409897D01*
X83551247Y-119336934D01*
X83551248Y-119336934D01*
X83318052Y-119300000D01*
X83081948Y-119300000D01*
X82848752Y-119336934D01*
X82624197Y-119409897D01*
X82413830Y-119517084D01*
X82330894Y-119577340D01*
X83070591Y-120317037D01*
X83007007Y-120334075D01*
X82892993Y-120399901D01*
X82799901Y-120492993D01*
X82734075Y-120607007D01*
X82717037Y-120670591D01*
X81977340Y-119930894D01*
X81917084Y-120013830D01*
X81809897Y-120224197D01*
X81736934Y-120448752D01*
X81700000Y-120681947D01*
X76500000Y-120681947D01*
X76500000Y-119680000D01*
X76500000Y-118700000D01*
X76565826Y-118700000D01*
X76692993Y-118665925D01*
X76750000Y-118633012D01*
X76750000Y-119550000D01*
X77397828Y-119550000D01*
X77397844Y-119549999D01*
X77457372Y-119543598D01*
X77457379Y-119543596D01*
X77551702Y-119508417D01*
X77592086Y-119493354D01*
X77592093Y-119493350D01*
X77707187Y-119407190D01*
X77707190Y-119407187D01*
X77793350Y-119292093D01*
X77793354Y-119292086D01*
X77843596Y-119157379D01*
X77843598Y-119157372D01*
X77849999Y-119097844D01*
X77850000Y-119097827D01*
X77850000Y-118450000D01*
X76933012Y-118450000D01*
X76965925Y-118392993D01*
X77000000Y-118265826D01*
X77000000Y-118134174D01*
X76965925Y-118007007D01*
X76933012Y-117950000D01*
X77850000Y-117950000D01*
X77850000Y-117821153D01*
X102899500Y-117821153D01*
X102899500Y-117978846D01*
X102930261Y-118133489D01*
X102930264Y-118133501D01*
X102990602Y-118279172D01*
X102990609Y-118279185D01*
X103078210Y-118410288D01*
X103078213Y-118410292D01*
X103189707Y-118521786D01*
X103189711Y-118521789D01*
X103320814Y-118609390D01*
X103320827Y-118609397D01*
X103457300Y-118665925D01*
X103466503Y-118669737D01*
X103618644Y-118700000D01*
X103621153Y-118700499D01*
X103621156Y-118700500D01*
X103621158Y-118700500D01*
X103778844Y-118700500D01*
X103778845Y-118700499D01*
X103933497Y-118669737D01*
X104079179Y-118609394D01*
X104093090Y-118600099D01*
X104210875Y-118521398D01*
X104277553Y-118500520D01*
X104279766Y-118500500D01*
X107074684Y-118500500D01*
X107122136Y-118509939D01*
X107149801Y-118521398D01*
X107266503Y-118569737D01*
X107419142Y-118600099D01*
X107421153Y-118600499D01*
X107421156Y-118600500D01*
X107421158Y-118600500D01*
X107578844Y-118600500D01*
X107578845Y-118600499D01*
X107733497Y-118569737D01*
X107879179Y-118509394D01*
X108010289Y-118421789D01*
X108121789Y-118310289D01*
X108209394Y-118179179D01*
X108269737Y-118033497D01*
X108300500Y-117878842D01*
X108300500Y-117721158D01*
X108300500Y-117721155D01*
X108300499Y-117721153D01*
X108289627Y-117666498D01*
X108269737Y-117566503D01*
X108244352Y-117505218D01*
X108209397Y-117420827D01*
X108209390Y-117420814D01*
X108121789Y-117289711D01*
X108121786Y-117289707D01*
X108010292Y-117178213D01*
X108010288Y-117178210D01*
X107879185Y-117090609D01*
X107879172Y-117090602D01*
X107733501Y-117030264D01*
X107733489Y-117030261D01*
X107578845Y-116999500D01*
X107578842Y-116999500D01*
X107421158Y-116999500D01*
X107421155Y-116999500D01*
X107266510Y-117030261D01*
X107266498Y-117030264D01*
X107120827Y-117090602D01*
X107120814Y-117090609D01*
X106989712Y-117178209D01*
X106965680Y-117202242D01*
X106904739Y-117263182D01*
X106843419Y-117296666D01*
X106817060Y-117299500D01*
X104279766Y-117299500D01*
X104212727Y-117279815D01*
X104210875Y-117278602D01*
X104079185Y-117190609D01*
X104079172Y-117190602D01*
X103933501Y-117130264D01*
X103933489Y-117130261D01*
X103778845Y-117099500D01*
X103778842Y-117099500D01*
X103621158Y-117099500D01*
X103621155Y-117099500D01*
X103466510Y-117130261D01*
X103466498Y-117130264D01*
X103320827Y-117190602D01*
X103320814Y-117190609D01*
X103189711Y-117278210D01*
X103189707Y-117278213D01*
X103078213Y-117389707D01*
X103078210Y-117389711D01*
X102990609Y-117520814D01*
X102990602Y-117520827D01*
X102930264Y-117666498D01*
X102930261Y-117666510D01*
X102899500Y-117821153D01*
X77850000Y-117821153D01*
X77850000Y-117302172D01*
X77849999Y-117302155D01*
X77843598Y-117242627D01*
X77843596Y-117242620D01*
X77793354Y-117107913D01*
X77793350Y-117107906D01*
X77707190Y-116992812D01*
X77707187Y-116992809D01*
X77592093Y-116906649D01*
X77592088Y-116906646D01*
X77460528Y-116857577D01*
X77404595Y-116815705D01*
X77380178Y-116750241D01*
X77395030Y-116681968D01*
X77416175Y-116653720D01*
X77530104Y-116539792D01*
X77655051Y-116367816D01*
X77751557Y-116178412D01*
X77817246Y-115976243D01*
X77850500Y-115766287D01*
X77850500Y-115681902D01*
X81699500Y-115681902D01*
X81699500Y-115918097D01*
X81736446Y-116151368D01*
X81809433Y-116375996D01*
X81829221Y-116414831D01*
X81916657Y-116586433D01*
X82055483Y-116777510D01*
X82222490Y-116944517D01*
X82413567Y-117083343D01*
X82505649Y-117130261D01*
X82624003Y-117190566D01*
X82624005Y-117190566D01*
X82624008Y-117190568D01*
X82744412Y-117229689D01*
X82848631Y-117263553D01*
X83081903Y-117300500D01*
X83081908Y-117300500D01*
X83318097Y-117300500D01*
X83551368Y-117263553D01*
X83615771Y-117242627D01*
X83775992Y-117190568D01*
X83986433Y-117083343D01*
X84177510Y-116944517D01*
X84344517Y-116777510D01*
X84483343Y-116586433D01*
X84590568Y-116375992D01*
X84648516Y-116197648D01*
X89619500Y-116197648D01*
X89619500Y-116402351D01*
X89651522Y-116604534D01*
X89714781Y-116799223D01*
X89769517Y-116906646D01*
X89805489Y-116977246D01*
X89807715Y-116981613D01*
X89928028Y-117147213D01*
X90072786Y-117291971D01*
X90227749Y-117404556D01*
X90238390Y-117412287D01*
X90354607Y-117471503D01*
X90420776Y-117505218D01*
X90420778Y-117505218D01*
X90420781Y-117505220D01*
X90525137Y-117539127D01*
X90615465Y-117568477D01*
X90716557Y-117584488D01*
X90817648Y-117600500D01*
X90817649Y-117600500D01*
X91022351Y-117600500D01*
X91022352Y-117600500D01*
X91224534Y-117568477D01*
X91419219Y-117505220D01*
X91601610Y-117412287D01*
X91753172Y-117302172D01*
X91767213Y-117291971D01*
X91767215Y-117291968D01*
X91767219Y-117291966D01*
X91911966Y-117147219D01*
X91911968Y-117147215D01*
X91911971Y-117147213D01*
X91996938Y-117030264D01*
X92032287Y-116981610D01*
X92125220Y-116799219D01*
X92188477Y-116604534D01*
X92220500Y-116402352D01*
X92220500Y-116197648D01*
X99779500Y-116197648D01*
X99779500Y-116402351D01*
X99811522Y-116604534D01*
X99874781Y-116799223D01*
X99929517Y-116906646D01*
X99965489Y-116977246D01*
X99967715Y-116981613D01*
X100088028Y-117147213D01*
X100232786Y-117291971D01*
X100387749Y-117404556D01*
X100398390Y-117412287D01*
X100514607Y-117471503D01*
X100580776Y-117505218D01*
X100580778Y-117505218D01*
X100580781Y-117505220D01*
X100685137Y-117539127D01*
X100775465Y-117568477D01*
X100876557Y-117584488D01*
X100977648Y-117600500D01*
X100977649Y-117600500D01*
X101182351Y-117600500D01*
X101182352Y-117600500D01*
X101384534Y-117568477D01*
X101579219Y-117505220D01*
X101761610Y-117412287D01*
X101913172Y-117302172D01*
X101927213Y-117291971D01*
X101927215Y-117291968D01*
X101927219Y-117291966D01*
X102071966Y-117147219D01*
X102071968Y-117147215D01*
X102071971Y-117147213D01*
X102156938Y-117030264D01*
X102192287Y-116981610D01*
X102285220Y-116799219D01*
X102348477Y-116604534D01*
X102380500Y-116402352D01*
X102380500Y-116197648D01*
X102348477Y-115995466D01*
X102285220Y-115800781D01*
X102285218Y-115800778D01*
X102285218Y-115800776D01*
X102224648Y-115681902D01*
X102192287Y-115618390D01*
X102145297Y-115553713D01*
X102071971Y-115452786D01*
X101927213Y-115308028D01*
X101761613Y-115187715D01*
X101761612Y-115187714D01*
X101761610Y-115187713D01*
X101704653Y-115158691D01*
X101579223Y-115094781D01*
X101384534Y-115031522D01*
X101209995Y-115003878D01*
X101182352Y-114999500D01*
X100977648Y-114999500D01*
X100953329Y-115003351D01*
X100775465Y-115031522D01*
X100580776Y-115094781D01*
X100398386Y-115187715D01*
X100232786Y-115308028D01*
X100088028Y-115452786D01*
X99967715Y-115618386D01*
X99874781Y-115800776D01*
X99811522Y-115995465D01*
X99779500Y-116197648D01*
X92220500Y-116197648D01*
X92188477Y-115995466D01*
X92125220Y-115800781D01*
X92125218Y-115800778D01*
X92125218Y-115800776D01*
X92064648Y-115681902D01*
X92032287Y-115618390D01*
X91985297Y-115553713D01*
X91911971Y-115452786D01*
X91767213Y-115308028D01*
X91601610Y-115187712D01*
X91588200Y-115180879D01*
X91537406Y-115132903D01*
X91520500Y-115070397D01*
X91520500Y-114219635D01*
X108799500Y-114219635D01*
X108799500Y-116220370D01*
X108799501Y-116220376D01*
X108805908Y-116279983D01*
X108856202Y-116414828D01*
X108856206Y-116414835D01*
X108942452Y-116530044D01*
X108942455Y-116530047D01*
X109057664Y-116616293D01*
X109057669Y-116616296D01*
X109085539Y-116626690D01*
X109141473Y-116668561D01*
X109165891Y-116734024D01*
X109151040Y-116802298D01*
X109142525Y-116815759D01*
X109009783Y-116998461D01*
X108905950Y-117202244D01*
X108835278Y-117419750D01*
X108835278Y-117419753D01*
X108812036Y-117566498D01*
X108799500Y-117645646D01*
X108799500Y-117874354D01*
X108802452Y-117892993D01*
X108835278Y-118100246D01*
X108835278Y-118100249D01*
X108905950Y-118317755D01*
X108999064Y-118500500D01*
X109009783Y-118521538D01*
X109144214Y-118706566D01*
X109305934Y-118868286D01*
X109375423Y-118918773D01*
X109390438Y-118929682D01*
X109433103Y-118985013D01*
X109439082Y-119054626D01*
X109406476Y-119116421D01*
X109390438Y-119130318D01*
X109305932Y-119191715D01*
X109144216Y-119353431D01*
X109144216Y-119353432D01*
X109144214Y-119353434D01*
X109105160Y-119407187D01*
X109009783Y-119538461D01*
X108905950Y-119742244D01*
X108835278Y-119959750D01*
X108835278Y-119959753D01*
X108799500Y-120185646D01*
X108799500Y-120414353D01*
X108835278Y-120640246D01*
X108835278Y-120640249D01*
X108905950Y-120857755D01*
X108979608Y-121002317D01*
X109009783Y-121061538D01*
X109144214Y-121246566D01*
X109305934Y-121408286D01*
X109490962Y-121542717D01*
X109654259Y-121625921D01*
X109694744Y-121646549D01*
X109912251Y-121717221D01*
X109912252Y-121717221D01*
X109912255Y-121717222D01*
X110138146Y-121753000D01*
X110138147Y-121753000D01*
X110461853Y-121753000D01*
X110461854Y-121753000D01*
X110687745Y-121717222D01*
X110687748Y-121717221D01*
X110687749Y-121717221D01*
X110905255Y-121646549D01*
X110905255Y-121646548D01*
X110905258Y-121646548D01*
X111109038Y-121542717D01*
X111294066Y-121408286D01*
X111455786Y-121246566D01*
X111590217Y-121061538D01*
X111694048Y-120857758D01*
X111764722Y-120640245D01*
X111800500Y-120414354D01*
X111800500Y-120185646D01*
X111764722Y-119959755D01*
X111764721Y-119959751D01*
X111764721Y-119959750D01*
X111694049Y-119742244D01*
X111662334Y-119680000D01*
X111590217Y-119538462D01*
X111455786Y-119353434D01*
X111294066Y-119191714D01*
X111209559Y-119130316D01*
X111166896Y-119074988D01*
X111160917Y-119005375D01*
X111193523Y-118943580D01*
X111209556Y-118929685D01*
X111294066Y-118868286D01*
X111455786Y-118706566D01*
X111590217Y-118521538D01*
X111694048Y-118317758D01*
X111753918Y-118133497D01*
X111764721Y-118100249D01*
X111764721Y-118100248D01*
X111764722Y-118100245D01*
X111800500Y-117874354D01*
X111800500Y-117645646D01*
X111764722Y-117419755D01*
X111764721Y-117419751D01*
X111764721Y-117419750D01*
X111694049Y-117202244D01*
X111637168Y-117090609D01*
X111590217Y-116998462D01*
X111457472Y-116815755D01*
X111433994Y-116749953D01*
X111449819Y-116681899D01*
X111499925Y-116633204D01*
X111514455Y-116626692D01*
X111542331Y-116616296D01*
X111657546Y-116530046D01*
X111743796Y-116414831D01*
X111794091Y-116279983D01*
X111800500Y-116220373D01*
X111800499Y-114219628D01*
X111794091Y-114160017D01*
X111743796Y-114025169D01*
X111743795Y-114025168D01*
X111743793Y-114025164D01*
X111657547Y-113909955D01*
X111657544Y-113909952D01*
X111542335Y-113823706D01*
X111542328Y-113823702D01*
X111407482Y-113773408D01*
X111407483Y-113773408D01*
X111347883Y-113767001D01*
X111347881Y-113767000D01*
X111347873Y-113767000D01*
X111347864Y-113767000D01*
X109252129Y-113767000D01*
X109252123Y-113767001D01*
X109192516Y-113773408D01*
X109057671Y-113823702D01*
X109057664Y-113823706D01*
X108942455Y-113909952D01*
X108942452Y-113909955D01*
X108856206Y-114025164D01*
X108856202Y-114025171D01*
X108805908Y-114160017D01*
X108799501Y-114219616D01*
X108799501Y-114219623D01*
X108799500Y-114219635D01*
X91520500Y-114219635D01*
X91520500Y-110680097D01*
X91540185Y-110613058D01*
X91556819Y-110592416D01*
X92628082Y-109521153D01*
X93499500Y-109521153D01*
X93499500Y-109678846D01*
X93530261Y-109833489D01*
X93530264Y-109833501D01*
X93590602Y-109979172D01*
X93590609Y-109979185D01*
X93678210Y-110110288D01*
X93678213Y-110110292D01*
X93789707Y-110221786D01*
X93789711Y-110221789D01*
X93920814Y-110309390D01*
X93920827Y-110309397D01*
X94009964Y-110346318D01*
X94066503Y-110369737D01*
X94221153Y-110400499D01*
X94221156Y-110400500D01*
X94221158Y-110400500D01*
X94378844Y-110400500D01*
X94378845Y-110400499D01*
X94533497Y-110369737D01*
X94679179Y-110309394D01*
X94810289Y-110221789D01*
X94921789Y-110110289D01*
X95009394Y-109979179D01*
X95069737Y-109833497D01*
X95091156Y-109725812D01*
X95123539Y-109663906D01*
X95125035Y-109662382D01*
X97589058Y-107198359D01*
X97629284Y-107171482D01*
X97779172Y-107109397D01*
X97779172Y-107109396D01*
X97779179Y-107109394D01*
X97910289Y-107021789D01*
X98021789Y-106910289D01*
X98109394Y-106779179D01*
X98169737Y-106633497D01*
X98200500Y-106478842D01*
X98200500Y-106321158D01*
X98200500Y-106321155D01*
X98200499Y-106321153D01*
X98182388Y-106230104D01*
X98169737Y-106166503D01*
X98169735Y-106166498D01*
X98109397Y-106020827D01*
X98109390Y-106020814D01*
X98021789Y-105889711D01*
X98021786Y-105889707D01*
X97910292Y-105778213D01*
X97910288Y-105778210D01*
X97779185Y-105690609D01*
X97779172Y-105690602D01*
X97633501Y-105630264D01*
X97633489Y-105630261D01*
X97478845Y-105599500D01*
X97478842Y-105599500D01*
X97321158Y-105599500D01*
X97321155Y-105599500D01*
X97166510Y-105630261D01*
X97166498Y-105630264D01*
X97020827Y-105690602D01*
X97020814Y-105690609D01*
X96889711Y-105778210D01*
X96889707Y-105778213D01*
X96778213Y-105889707D01*
X96778210Y-105889711D01*
X96690609Y-106020814D01*
X96690602Y-106020827D01*
X96630264Y-106166498D01*
X96630261Y-106166510D01*
X96599500Y-106321153D01*
X96599500Y-106361718D01*
X96579815Y-106428757D01*
X96563181Y-106449399D01*
X94237672Y-108774907D01*
X94176349Y-108808392D01*
X94174183Y-108808843D01*
X94066508Y-108830261D01*
X94066498Y-108830264D01*
X93920827Y-108890602D01*
X93920814Y-108890609D01*
X93789711Y-108978210D01*
X93789707Y-108978213D01*
X93678213Y-109089707D01*
X93678210Y-109089711D01*
X93590609Y-109220814D01*
X93590602Y-109220827D01*
X93530264Y-109366498D01*
X93530261Y-109366510D01*
X93499500Y-109521153D01*
X92628082Y-109521153D01*
X94082645Y-108066590D01*
X96680520Y-105468716D01*
X96759577Y-105331784D01*
X96800501Y-105179057D01*
X96800501Y-105020942D01*
X96800501Y-105013347D01*
X96800500Y-105013329D01*
X96800500Y-102420945D01*
X96800500Y-102420943D01*
X96759577Y-102268216D01*
X96750318Y-102252179D01*
X96680524Y-102131290D01*
X96680521Y-102131286D01*
X96680520Y-102131284D01*
X96568716Y-102019480D01*
X96568715Y-102019479D01*
X96564385Y-102015149D01*
X96564374Y-102015139D01*
X91934574Y-97385339D01*
X91901089Y-97324016D01*
X91900638Y-97321849D01*
X91869738Y-97166510D01*
X91869737Y-97166503D01*
X91842198Y-97100018D01*
X91809397Y-97020827D01*
X91809390Y-97020814D01*
X91721789Y-96889711D01*
X91721786Y-96889707D01*
X91610292Y-96778213D01*
X91610288Y-96778210D01*
X91479185Y-96690609D01*
X91479172Y-96690602D01*
X91333501Y-96630264D01*
X91333489Y-96630261D01*
X91178845Y-96599500D01*
X91178842Y-96599500D01*
X91021158Y-96599500D01*
X91021155Y-96599500D01*
X90866510Y-96630261D01*
X90866498Y-96630264D01*
X90720827Y-96690602D01*
X90720814Y-96690609D01*
X90589711Y-96778210D01*
X90589707Y-96778213D01*
X90478213Y-96889707D01*
X90478210Y-96889711D01*
X90390609Y-97020814D01*
X90390602Y-97020827D01*
X90330264Y-97166498D01*
X90330261Y-97166510D01*
X90299500Y-97321153D01*
X90299500Y-97478846D01*
X90330261Y-97633489D01*
X90330264Y-97633501D01*
X90390602Y-97779172D01*
X90390609Y-97779185D01*
X90478210Y-97910288D01*
X90478213Y-97910292D01*
X90589707Y-98021786D01*
X90589711Y-98021789D01*
X90720814Y-98109390D01*
X90720827Y-98109397D01*
X90866498Y-98169735D01*
X90866503Y-98169737D01*
X90931147Y-98182595D01*
X91021849Y-98200638D01*
X91083760Y-98233023D01*
X91085339Y-98234574D01*
X95563181Y-102712416D01*
X95596666Y-102773739D01*
X95599500Y-102800097D01*
X95599500Y-104799902D01*
X95579815Y-104866941D01*
X95563181Y-104887583D01*
X90439481Y-110011282D01*
X90439479Y-110011285D01*
X90389361Y-110098094D01*
X90389359Y-110098096D01*
X90360425Y-110148209D01*
X90360424Y-110148210D01*
X90360423Y-110148215D01*
X90319499Y-110300943D01*
X90319499Y-110300945D01*
X90319499Y-110469046D01*
X90319500Y-110469059D01*
X90319500Y-115070397D01*
X90299815Y-115137436D01*
X90251800Y-115180879D01*
X90238389Y-115187712D01*
X90072786Y-115308028D01*
X89928028Y-115452786D01*
X89807715Y-115618386D01*
X89714781Y-115800776D01*
X89651522Y-115995465D01*
X89619500Y-116197648D01*
X84648516Y-116197648D01*
X84662550Y-116154457D01*
X84663552Y-116151370D01*
X84663553Y-116151368D01*
X84682640Y-116030859D01*
X84700500Y-115918097D01*
X84700500Y-115681902D01*
X84663553Y-115448631D01*
X84590566Y-115224003D01*
X84534002Y-115112991D01*
X84483343Y-115013567D01*
X84344517Y-114822490D01*
X84177510Y-114655483D01*
X83986433Y-114516657D01*
X83954696Y-114500486D01*
X83775996Y-114409433D01*
X83551368Y-114336446D01*
X83318097Y-114299500D01*
X83318092Y-114299500D01*
X83081908Y-114299500D01*
X83081903Y-114299500D01*
X82848631Y-114336446D01*
X82624003Y-114409433D01*
X82413566Y-114516657D01*
X82304550Y-114595862D01*
X82222490Y-114655483D01*
X82222488Y-114655485D01*
X82222487Y-114655485D01*
X82055485Y-114822487D01*
X82055485Y-114822488D01*
X82055483Y-114822490D01*
X81995862Y-114904550D01*
X81916657Y-115013566D01*
X81809433Y-115224003D01*
X81736446Y-115448631D01*
X81699500Y-115681902D01*
X77850500Y-115681902D01*
X77850500Y-115553713D01*
X77817246Y-115343757D01*
X77751557Y-115141588D01*
X77655051Y-114952184D01*
X77655049Y-114952181D01*
X77655048Y-114952179D01*
X77530109Y-114780213D01*
X77379786Y-114629890D01*
X77207820Y-114504951D01*
X77207115Y-114504591D01*
X77199054Y-114500485D01*
X77148259Y-114452512D01*
X77131463Y-114384692D01*
X77153999Y-114318556D01*
X77199054Y-114279515D01*
X77207816Y-114275051D01*
X77284090Y-114219635D01*
X77379786Y-114150109D01*
X77379788Y-114150106D01*
X77379792Y-114150104D01*
X77530104Y-113999792D01*
X77530106Y-113999788D01*
X77530109Y-113999786D01*
X77655048Y-113827820D01*
X77655047Y-113827820D01*
X77655051Y-113827816D01*
X77751557Y-113638412D01*
X77817246Y-113436243D01*
X77850500Y-113226287D01*
X77850500Y-113013713D01*
X77817246Y-112803757D01*
X77751557Y-112601588D01*
X77655051Y-112412184D01*
X77655049Y-112412181D01*
X77655048Y-112412179D01*
X77530109Y-112240213D01*
X77379786Y-112089890D01*
X77207820Y-111964951D01*
X77207115Y-111964591D01*
X77199054Y-111960485D01*
X77148259Y-111912512D01*
X77131463Y-111844692D01*
X77153999Y-111778556D01*
X77199054Y-111739515D01*
X77207816Y-111735051D01*
X77231808Y-111717620D01*
X77379786Y-111610109D01*
X77379788Y-111610106D01*
X77379792Y-111610104D01*
X77530104Y-111459792D01*
X77530106Y-111459788D01*
X77530109Y-111459786D01*
X77655048Y-111287820D01*
X77655047Y-111287820D01*
X77655051Y-111287816D01*
X77751557Y-111098412D01*
X77817246Y-110896243D01*
X77850500Y-110686287D01*
X77850500Y-110473713D01*
X77817246Y-110263757D01*
X77751557Y-110061588D01*
X77655051Y-109872184D01*
X77655049Y-109872181D01*
X77655048Y-109872179D01*
X77530109Y-109700213D01*
X77379786Y-109549890D01*
X77207820Y-109424951D01*
X77207115Y-109424591D01*
X77199054Y-109420485D01*
X77148259Y-109372512D01*
X77131463Y-109304692D01*
X77153999Y-109238556D01*
X77199054Y-109199515D01*
X77207816Y-109195051D01*
X77229789Y-109179086D01*
X77379786Y-109070109D01*
X77379788Y-109070106D01*
X77379792Y-109070104D01*
X77530104Y-108919792D01*
X77530106Y-108919788D01*
X77530109Y-108919786D01*
X77655048Y-108747820D01*
X77655047Y-108747820D01*
X77655051Y-108747816D01*
X77751557Y-108558412D01*
X77817246Y-108356243D01*
X77850500Y-108146287D01*
X77850500Y-107933713D01*
X77817246Y-107723757D01*
X77751557Y-107521588D01*
X77655051Y-107332184D01*
X77655049Y-107332181D01*
X77655048Y-107332179D01*
X77530109Y-107160213D01*
X77379786Y-107009890D01*
X77207820Y-106884951D01*
X77207115Y-106884591D01*
X77199054Y-106880485D01*
X77148259Y-106832512D01*
X77131463Y-106764692D01*
X77153999Y-106698556D01*
X77199054Y-106659515D01*
X77207816Y-106655051D01*
X77237494Y-106633489D01*
X77379786Y-106530109D01*
X77379788Y-106530106D01*
X77379792Y-106530104D01*
X77530104Y-106379792D01*
X77530106Y-106379788D01*
X77530109Y-106379786D01*
X77655048Y-106207820D01*
X77655047Y-106207820D01*
X77655051Y-106207816D01*
X77751557Y-106018412D01*
X77817246Y-105816243D01*
X77850500Y-105606287D01*
X77850500Y-105393713D01*
X77817246Y-105183757D01*
X77751557Y-104981588D01*
X77655051Y-104792184D01*
X77655049Y-104792181D01*
X77655048Y-104792179D01*
X77530109Y-104620213D01*
X77379786Y-104469890D01*
X77207820Y-104344951D01*
X77207115Y-104344591D01*
X77199054Y-104340485D01*
X77148259Y-104292512D01*
X77131463Y-104224692D01*
X77153999Y-104158556D01*
X77199054Y-104119515D01*
X77207816Y-104115051D01*
X77310447Y-104040486D01*
X77379786Y-103990109D01*
X77379788Y-103990106D01*
X77379792Y-103990104D01*
X77530104Y-103839792D01*
X77530106Y-103839788D01*
X77530109Y-103839786D01*
X77655048Y-103667820D01*
X77655047Y-103667820D01*
X77655051Y-103667816D01*
X77751557Y-103478412D01*
X77817246Y-103276243D01*
X77850500Y-103066287D01*
X77850500Y-102853713D01*
X77817246Y-102643757D01*
X77751557Y-102441588D01*
X77655051Y-102252184D01*
X77655049Y-102252181D01*
X77655048Y-102252179D01*
X77530109Y-102080213D01*
X77379786Y-101929890D01*
X77207820Y-101804951D01*
X77207115Y-101804591D01*
X77199054Y-101800485D01*
X77148259Y-101752512D01*
X77131463Y-101684692D01*
X77153999Y-101618556D01*
X77199054Y-101579515D01*
X77207816Y-101575051D01*
X77310838Y-101500202D01*
X77379786Y-101450109D01*
X77379788Y-101450106D01*
X77379792Y-101450104D01*
X77530104Y-101299792D01*
X77530106Y-101299788D01*
X77530109Y-101299786D01*
X77655048Y-101127820D01*
X77655047Y-101127820D01*
X77655051Y-101127816D01*
X77751557Y-100938412D01*
X77817246Y-100736243D01*
X77850500Y-100526287D01*
X77850500Y-100313713D01*
X77817246Y-100103757D01*
X77751557Y-99901588D01*
X77655051Y-99712184D01*
X77655049Y-99712181D01*
X77655048Y-99712179D01*
X77530109Y-99540213D01*
X77379786Y-99389890D01*
X77207820Y-99264951D01*
X77018414Y-99168444D01*
X77018413Y-99168443D01*
X77018412Y-99168443D01*
X76816243Y-99102754D01*
X76816241Y-99102753D01*
X76816239Y-99102753D01*
X76604602Y-99069233D01*
X76541467Y-99039304D01*
X76504536Y-98979992D01*
X76500000Y-98946760D01*
X76500000Y-95861966D01*
X86124500Y-95861966D01*
X86124500Y-96978028D01*
X86124501Y-96978034D01*
X86135113Y-97097415D01*
X86191089Y-97293045D01*
X86191090Y-97293048D01*
X86191091Y-97293049D01*
X86285302Y-97473407D01*
X86285304Y-97473409D01*
X86398015Y-97611639D01*
X86425124Y-97676036D01*
X86413115Y-97744865D01*
X86398015Y-97768361D01*
X86380373Y-97789998D01*
X86285302Y-97906593D01*
X86283370Y-97910292D01*
X86191089Y-98086954D01*
X86135114Y-98282583D01*
X86135113Y-98282586D01*
X86124500Y-98401966D01*
X86124500Y-99518028D01*
X86124501Y-99518034D01*
X86135113Y-99637415D01*
X86191089Y-99833045D01*
X86191090Y-99833048D01*
X86191091Y-99833049D01*
X86285302Y-100013407D01*
X86318543Y-100054174D01*
X86398015Y-100151639D01*
X86425124Y-100216036D01*
X86413115Y-100284865D01*
X86398015Y-100308361D01*
X86285304Y-100446590D01*
X86191089Y-100626954D01*
X86135114Y-100822583D01*
X86135113Y-100822586D01*
X86124500Y-100941966D01*
X86124500Y-102058028D01*
X86124501Y-102058034D01*
X86135113Y-102177415D01*
X86191089Y-102373045D01*
X86191090Y-102373047D01*
X86191091Y-102373049D01*
X86285302Y-102553407D01*
X86329409Y-102607500D01*
X86398015Y-102691639D01*
X86425124Y-102756036D01*
X86413115Y-102824865D01*
X86398015Y-102848361D01*
X86285304Y-102986590D01*
X86191089Y-103166954D01*
X86146332Y-103323376D01*
X86141734Y-103339448D01*
X86135114Y-103362583D01*
X86135113Y-103362586D01*
X86124500Y-103481966D01*
X86124500Y-104598028D01*
X86124501Y-104598034D01*
X86135113Y-104717415D01*
X86191089Y-104913045D01*
X86191090Y-104913048D01*
X86191091Y-104913049D01*
X86285302Y-105093407D01*
X86346438Y-105168385D01*
X86398015Y-105231639D01*
X86425124Y-105296036D01*
X86413115Y-105364865D01*
X86398015Y-105388361D01*
X86285304Y-105526590D01*
X86191089Y-105706954D01*
X86135114Y-105902583D01*
X86135113Y-105902586D01*
X86124500Y-106021966D01*
X86124500Y-107138028D01*
X86124501Y-107138034D01*
X86135113Y-107257415D01*
X86191089Y-107453045D01*
X86191090Y-107453048D01*
X86191091Y-107453049D01*
X86285302Y-107633407D01*
X86346438Y-107708385D01*
X86398015Y-107771639D01*
X86425124Y-107836036D01*
X86413115Y-107904865D01*
X86398015Y-107928361D01*
X86285304Y-108066590D01*
X86191089Y-108246954D01*
X86147441Y-108399500D01*
X86138279Y-108431523D01*
X86135114Y-108442583D01*
X86135113Y-108442586D01*
X86124500Y-108561966D01*
X86124500Y-109678028D01*
X86124501Y-109678034D01*
X86135113Y-109797415D01*
X86191089Y-109993045D01*
X86191090Y-109993048D01*
X86191091Y-109993049D01*
X86285302Y-110173407D01*
X86324750Y-110221786D01*
X86398015Y-110311639D01*
X86425124Y-110376036D01*
X86413115Y-110444865D01*
X86398015Y-110468361D01*
X86285304Y-110606590D01*
X86191089Y-110786954D01*
X86157250Y-110905220D01*
X86144084Y-110951235D01*
X86135114Y-110982583D01*
X86135113Y-110982586D01*
X86124500Y-111101966D01*
X86124500Y-112218028D01*
X86124501Y-112218034D01*
X86135113Y-112337415D01*
X86191089Y-112533045D01*
X86191090Y-112533048D01*
X86191091Y-112533049D01*
X86285302Y-112713407D01*
X86285304Y-112713409D01*
X86413890Y-112871109D01*
X86507803Y-112947684D01*
X86571593Y-112999698D01*
X86751951Y-113093909D01*
X86947582Y-113149886D01*
X87066963Y-113160500D01*
X88933036Y-113160499D01*
X89052418Y-113149886D01*
X89248049Y-113093909D01*
X89428407Y-112999698D01*
X89586109Y-112871109D01*
X89714698Y-112713407D01*
X89808909Y-112533049D01*
X89864886Y-112337418D01*
X89875500Y-112218037D01*
X89875499Y-111101964D01*
X89864886Y-110982582D01*
X89808909Y-110786951D01*
X89714698Y-110606593D01*
X89601983Y-110468359D01*
X89574875Y-110403965D01*
X89586884Y-110335135D01*
X89601981Y-110311642D01*
X89714698Y-110173407D01*
X89808909Y-109993049D01*
X89864886Y-109797418D01*
X89875500Y-109678037D01*
X89875499Y-108561964D01*
X89864886Y-108442582D01*
X89808909Y-108246951D01*
X89714698Y-108066593D01*
X89601983Y-107928359D01*
X89574875Y-107863965D01*
X89586884Y-107795135D01*
X89601981Y-107771642D01*
X89714698Y-107633407D01*
X89808909Y-107453049D01*
X89864886Y-107257418D01*
X89875500Y-107138037D01*
X89875499Y-106021964D01*
X89864886Y-105902582D01*
X89812189Y-105718414D01*
X89808910Y-105706954D01*
X89808909Y-105706953D01*
X89808909Y-105706951D01*
X89714698Y-105526593D01*
X89601983Y-105388359D01*
X89574875Y-105323965D01*
X89586884Y-105255135D01*
X89601981Y-105231642D01*
X89714698Y-105093407D01*
X89808909Y-104913049D01*
X89864886Y-104717418D01*
X89875500Y-104598037D01*
X89875499Y-104569584D01*
X89895181Y-104502548D01*
X89947984Y-104456791D01*
X90017142Y-104446846D01*
X90080699Y-104475868D01*
X90087180Y-104481903D01*
X90148424Y-104543147D01*
X90296394Y-104636122D01*
X90461343Y-104693841D01*
X90461349Y-104693841D01*
X90461351Y-104693842D01*
X90502750Y-104698506D01*
X90591442Y-104708499D01*
X90591445Y-104708500D01*
X90591448Y-104708500D01*
X92628555Y-104708500D01*
X92628556Y-104708499D01*
X92758657Y-104693841D01*
X92923606Y-104636122D01*
X93071576Y-104543147D01*
X93195147Y-104419576D01*
X93288122Y-104271606D01*
X93345841Y-104106657D01*
X93360500Y-103976552D01*
X93360500Y-103339448D01*
X93345841Y-103209343D01*
X93288122Y-103044394D01*
X93195147Y-102896424D01*
X93091550Y-102792827D01*
X93058065Y-102731504D01*
X93063049Y-102661812D01*
X93091550Y-102617464D01*
X93194754Y-102514260D01*
X93287669Y-102366386D01*
X93345351Y-102201539D01*
X93359999Y-102071530D01*
X93360000Y-102071526D01*
X93360000Y-101434473D01*
X93359999Y-101434469D01*
X93345351Y-101304460D01*
X93287669Y-101139613D01*
X93194753Y-100991737D01*
X93071262Y-100868246D01*
X92934338Y-100782212D01*
X92010000Y-101706550D01*
X92010000Y-101700339D01*
X91982741Y-101598606D01*
X91930080Y-101507394D01*
X91855606Y-101432920D01*
X91764394Y-101380259D01*
X91662661Y-101353000D01*
X91656448Y-101353000D01*
X92306448Y-100703000D01*
X90913551Y-100703000D01*
X91563552Y-101353000D01*
X91557339Y-101353000D01*
X91455606Y-101380259D01*
X91364394Y-101432920D01*
X91289920Y-101507394D01*
X91237259Y-101598606D01*
X91210000Y-101700339D01*
X91210000Y-101706552D01*
X90285660Y-100782212D01*
X90148739Y-100868245D01*
X90079477Y-100937507D01*
X90018153Y-100970991D01*
X89948462Y-100966006D01*
X89892528Y-100924135D01*
X89868283Y-100860804D01*
X89864886Y-100822582D01*
X89808909Y-100626951D01*
X89714698Y-100446593D01*
X89601983Y-100308359D01*
X89574875Y-100243965D01*
X89586884Y-100175135D01*
X89601981Y-100151642D01*
X89714698Y-100013407D01*
X89808909Y-99833049D01*
X89864886Y-99637418D01*
X89875500Y-99518037D01*
X89875499Y-98401964D01*
X89864886Y-98282582D01*
X89808909Y-98086951D01*
X89714698Y-97906593D01*
X89601983Y-97768359D01*
X89574875Y-97703965D01*
X89586884Y-97635135D01*
X89601981Y-97611642D01*
X89714698Y-97473407D01*
X89808909Y-97293049D01*
X89864886Y-97097418D01*
X89875500Y-96978037D01*
X89875499Y-95861966D01*
X102289500Y-95861966D01*
X102289500Y-96978028D01*
X102289501Y-96978034D01*
X102300113Y-97097415D01*
X102356089Y-97293045D01*
X102356090Y-97293048D01*
X102356091Y-97293049D01*
X102450302Y-97473407D01*
X102450304Y-97473409D01*
X102563338Y-97612035D01*
X102590447Y-97676432D01*
X102578438Y-97745261D01*
X102563338Y-97768757D01*
X102450721Y-97906870D01*
X102356557Y-98087138D01*
X102300609Y-98282671D01*
X102300608Y-98282674D01*
X102290000Y-98401999D01*
X102290000Y-99518000D01*
X102300608Y-99637325D01*
X102300609Y-99637328D01*
X102356557Y-99832861D01*
X102450721Y-100013129D01*
X102563338Y-100151242D01*
X102590447Y-100215638D01*
X102578438Y-100284468D01*
X102563338Y-100307963D01*
X102450305Y-100446587D01*
X102356089Y-100626954D01*
X102300114Y-100822583D01*
X102300113Y-100822586D01*
X102289500Y-100941966D01*
X102289500Y-102058028D01*
X102289501Y-102058034D01*
X102300113Y-102177415D01*
X102356089Y-102373045D01*
X102356090Y-102373047D01*
X102356091Y-102373049D01*
X102450302Y-102553407D01*
X102494409Y-102607500D01*
X102563015Y-102691639D01*
X102590124Y-102756036D01*
X102578115Y-102824865D01*
X102563015Y-102848361D01*
X102450304Y-102986590D01*
X102356089Y-103166954D01*
X102311332Y-103323376D01*
X102306734Y-103339448D01*
X102300114Y-103362583D01*
X102300113Y-103362586D01*
X102289500Y-103481966D01*
X102289500Y-104598028D01*
X102289501Y-104598034D01*
X102300113Y-104717415D01*
X102356089Y-104913045D01*
X102356090Y-104913048D01*
X102356091Y-104913049D01*
X102450302Y-105093407D01*
X102511438Y-105168385D01*
X102563015Y-105231639D01*
X102590124Y-105296036D01*
X102578115Y-105364865D01*
X102563015Y-105388361D01*
X102450304Y-105526590D01*
X102356089Y-105706954D01*
X102300114Y-105902583D01*
X102300113Y-105902586D01*
X102289500Y-106021966D01*
X102289500Y-107138028D01*
X102289501Y-107138034D01*
X102300113Y-107257415D01*
X102356089Y-107453045D01*
X102356090Y-107453048D01*
X102356091Y-107453049D01*
X102450302Y-107633407D01*
X102511438Y-107708385D01*
X102563015Y-107771639D01*
X102590124Y-107836036D01*
X102578115Y-107904865D01*
X102563015Y-107928361D01*
X102450304Y-108066590D01*
X102356089Y-108246954D01*
X102312441Y-108399500D01*
X102303279Y-108431523D01*
X102300114Y-108442583D01*
X102300113Y-108442586D01*
X102289500Y-108561966D01*
X102289500Y-109678028D01*
X102289501Y-109678034D01*
X102300113Y-109797415D01*
X102356089Y-109993045D01*
X102356090Y-109993048D01*
X102356091Y-109993049D01*
X102450302Y-110173407D01*
X102489750Y-110221786D01*
X102563015Y-110311639D01*
X102590124Y-110376036D01*
X102578115Y-110444865D01*
X102563015Y-110468361D01*
X102450304Y-110606590D01*
X102356089Y-110786954D01*
X102322250Y-110905220D01*
X102309084Y-110951235D01*
X102300114Y-110982583D01*
X102300113Y-110982586D01*
X102289500Y-111101966D01*
X102289500Y-112218028D01*
X102289501Y-112218034D01*
X102300113Y-112337415D01*
X102356089Y-112533045D01*
X102356090Y-112533048D01*
X102356091Y-112533049D01*
X102450302Y-112713407D01*
X102450304Y-112713409D01*
X102578890Y-112871109D01*
X102672803Y-112947684D01*
X102736593Y-112999698D01*
X102916951Y-113093909D01*
X103112582Y-113149886D01*
X103231963Y-113160500D01*
X105098036Y-113160499D01*
X105217418Y-113149886D01*
X105413049Y-113093909D01*
X105593407Y-112999698D01*
X105751109Y-112871109D01*
X105879698Y-112713407D01*
X105973909Y-112533049D01*
X106029886Y-112337418D01*
X106040500Y-112218037D01*
X106040499Y-111101964D01*
X106029886Y-110982582D01*
X105973909Y-110786951D01*
X105879698Y-110606593D01*
X105766983Y-110468359D01*
X105739875Y-110403965D01*
X105751884Y-110335135D01*
X105766981Y-110311642D01*
X105879698Y-110173407D01*
X105973909Y-109993049D01*
X106029886Y-109797418D01*
X106040500Y-109678037D01*
X106040500Y-109597648D01*
X108939500Y-109597648D01*
X108939500Y-109802351D01*
X108971522Y-110004534D01*
X109034781Y-110199223D01*
X109092061Y-110311639D01*
X109121663Y-110369737D01*
X109127715Y-110381613D01*
X109248028Y-110547213D01*
X109392786Y-110691971D01*
X109523522Y-110786954D01*
X109558390Y-110812287D01*
X109674607Y-110871503D01*
X109740776Y-110905218D01*
X109740778Y-110905218D01*
X109740781Y-110905220D01*
X109845137Y-110939127D01*
X109935465Y-110968477D01*
X110024520Y-110982582D01*
X110137648Y-111000500D01*
X110137649Y-111000500D01*
X110342351Y-111000500D01*
X110342352Y-111000500D01*
X110544534Y-110968477D01*
X110739219Y-110905220D01*
X110921610Y-110812287D01*
X111014590Y-110744732D01*
X111087213Y-110691971D01*
X111087215Y-110691968D01*
X111087219Y-110691966D01*
X111231966Y-110547219D01*
X111231968Y-110547215D01*
X111231971Y-110547213D01*
X111288752Y-110469059D01*
X111352287Y-110381610D01*
X111445220Y-110199219D01*
X111508477Y-110004534D01*
X111540500Y-109802352D01*
X111540500Y-109597648D01*
X119099500Y-109597648D01*
X119099500Y-109802351D01*
X119131522Y-110004534D01*
X119194781Y-110199223D01*
X119252061Y-110311639D01*
X119281663Y-110369737D01*
X119287715Y-110381613D01*
X119408028Y-110547213D01*
X119552786Y-110691971D01*
X119683522Y-110786954D01*
X119718390Y-110812287D01*
X119834607Y-110871503D01*
X119900776Y-110905218D01*
X119900778Y-110905218D01*
X119900781Y-110905220D01*
X120005137Y-110939127D01*
X120095465Y-110968477D01*
X120184520Y-110982582D01*
X120297648Y-111000500D01*
X120297649Y-111000500D01*
X120502351Y-111000500D01*
X120502352Y-111000500D01*
X120704534Y-110968477D01*
X120899219Y-110905220D01*
X121081610Y-110812287D01*
X121174590Y-110744732D01*
X121247213Y-110691971D01*
X121247215Y-110691968D01*
X121247219Y-110691966D01*
X121391966Y-110547219D01*
X121391968Y-110547215D01*
X121391971Y-110547213D01*
X121493487Y-110407486D01*
X141824500Y-110407486D01*
X141824500Y-110592514D01*
X141826730Y-110606593D01*
X141853445Y-110775265D01*
X141910619Y-110951232D01*
X141910620Y-110951235D01*
X141987421Y-111101963D01*
X141994622Y-111116096D01*
X142078840Y-111232012D01*
X142102320Y-111297817D01*
X142086495Y-111365871D01*
X142052833Y-111404164D01*
X141967809Y-111467813D01*
X141881649Y-111582906D01*
X141881645Y-111582913D01*
X141831403Y-111717620D01*
X141831401Y-111717627D01*
X141825000Y-111777155D01*
X141825000Y-112250000D01*
X142684314Y-112250000D01*
X142679920Y-112254394D01*
X142627259Y-112345606D01*
X142600000Y-112447339D01*
X142600000Y-112552661D01*
X142627259Y-112654394D01*
X142679920Y-112745606D01*
X142684314Y-112750000D01*
X141825000Y-112750000D01*
X141825000Y-113222844D01*
X141831401Y-113282372D01*
X141831403Y-113282379D01*
X141881645Y-113417086D01*
X141881649Y-113417093D01*
X141967809Y-113532187D01*
X141967812Y-113532190D01*
X142082906Y-113618350D01*
X142082913Y-113618354D01*
X142217620Y-113668596D01*
X142217627Y-113668598D01*
X142277155Y-113674999D01*
X142277172Y-113675000D01*
X142750000Y-113675000D01*
X142750000Y-112815686D01*
X142754394Y-112820080D01*
X142845606Y-112872741D01*
X142947339Y-112900000D01*
X143052661Y-112900000D01*
X143154394Y-112872741D01*
X143245606Y-112820080D01*
X143250000Y-112815686D01*
X143250000Y-113675000D01*
X143722828Y-113675000D01*
X143722844Y-113674999D01*
X143782372Y-113668598D01*
X143782379Y-113668596D01*
X143917086Y-113618354D01*
X143917093Y-113618350D01*
X144032187Y-113532190D01*
X144032190Y-113532187D01*
X144118350Y-113417093D01*
X144118354Y-113417086D01*
X144168596Y-113282379D01*
X144168598Y-113282372D01*
X144174999Y-113222844D01*
X144175000Y-113222827D01*
X144175000Y-112750000D01*
X143315686Y-112750000D01*
X143320080Y-112745606D01*
X143372741Y-112654394D01*
X143400000Y-112552661D01*
X143400000Y-112447339D01*
X143372741Y-112345606D01*
X143320080Y-112254394D01*
X143315686Y-112250000D01*
X144175000Y-112250000D01*
X144175000Y-111777172D01*
X144174999Y-111777155D01*
X144168598Y-111717627D01*
X144168596Y-111717620D01*
X144118354Y-111582913D01*
X144118350Y-111582906D01*
X144032190Y-111467812D01*
X143947166Y-111404162D01*
X143905296Y-111348228D01*
X143900312Y-111278536D01*
X143921157Y-111232015D01*
X144005378Y-111116096D01*
X144089379Y-110951235D01*
X144146555Y-110775264D01*
X144175500Y-110592514D01*
X144175500Y-110407486D01*
X144146555Y-110224736D01*
X144109369Y-110110288D01*
X144089380Y-110048767D01*
X144089379Y-110048764D01*
X144005377Y-109883903D01*
X143996859Y-109872179D01*
X143896621Y-109734213D01*
X143765787Y-109603379D01*
X143616096Y-109494622D01*
X143451235Y-109410620D01*
X143451232Y-109410619D01*
X143275265Y-109353445D01*
X143183889Y-109338972D01*
X143092514Y-109324500D01*
X142907486Y-109324500D01*
X142846569Y-109334148D01*
X142724734Y-109353445D01*
X142548767Y-109410619D01*
X142548764Y-109410620D01*
X142383903Y-109494622D01*
X142347387Y-109521153D01*
X142234213Y-109603379D01*
X142234211Y-109603381D01*
X142234210Y-109603381D01*
X142103381Y-109734210D01*
X142103381Y-109734211D01*
X142103379Y-109734213D01*
X142057461Y-109797413D01*
X141994622Y-109883903D01*
X141910620Y-110048764D01*
X141910619Y-110048767D01*
X141853445Y-110224734D01*
X141840037Y-110309390D01*
X141824500Y-110407486D01*
X121493487Y-110407486D01*
X121512286Y-110381611D01*
X121530270Y-110346318D01*
X121605218Y-110199223D01*
X121605218Y-110199222D01*
X121605220Y-110199219D01*
X121668477Y-110004534D01*
X121700500Y-109802352D01*
X121700500Y-109597648D01*
X121672440Y-109420486D01*
X121668477Y-109395465D01*
X121605218Y-109200776D01*
X121538639Y-109070109D01*
X121512287Y-109018390D01*
X121483097Y-108978213D01*
X121391971Y-108852786D01*
X121247213Y-108708028D01*
X121081613Y-108587715D01*
X121081612Y-108587714D01*
X121081610Y-108587713D01*
X121024104Y-108558412D01*
X120899223Y-108494781D01*
X120704534Y-108431522D01*
X120529995Y-108403878D01*
X120502352Y-108399500D01*
X120297648Y-108399500D01*
X120273329Y-108403351D01*
X120095465Y-108431522D01*
X119900776Y-108494781D01*
X119718386Y-108587715D01*
X119552786Y-108708028D01*
X119408028Y-108852786D01*
X119287715Y-109018386D01*
X119194781Y-109200776D01*
X119131522Y-109395465D01*
X119099500Y-109597648D01*
X111540500Y-109597648D01*
X111512440Y-109420486D01*
X111508477Y-109395465D01*
X111445218Y-109200776D01*
X111378639Y-109070109D01*
X111352287Y-109018390D01*
X111323097Y-108978213D01*
X111231971Y-108852786D01*
X111087213Y-108708028D01*
X110921613Y-108587715D01*
X110921612Y-108587714D01*
X110921610Y-108587713D01*
X110864104Y-108558412D01*
X110739223Y-108494781D01*
X110544534Y-108431522D01*
X110369995Y-108403878D01*
X110342352Y-108399500D01*
X110137648Y-108399500D01*
X110113329Y-108403351D01*
X109935465Y-108431522D01*
X109740776Y-108494781D01*
X109558386Y-108587715D01*
X109392786Y-108708028D01*
X109248028Y-108852786D01*
X109127715Y-109018386D01*
X109034781Y-109200776D01*
X108971522Y-109395465D01*
X108939500Y-109597648D01*
X106040500Y-109597648D01*
X106040499Y-109089711D01*
X106040499Y-108561971D01*
X106040499Y-108561964D01*
X106029886Y-108442582D01*
X105973909Y-108246951D01*
X105879698Y-108066593D01*
X105766983Y-107928359D01*
X105739875Y-107863965D01*
X105751884Y-107795135D01*
X105766981Y-107771642D01*
X105879698Y-107633407D01*
X105973909Y-107453049D01*
X106029886Y-107257418D01*
X106040500Y-107138037D01*
X106040499Y-106021964D01*
X106029886Y-105902582D01*
X105977189Y-105718414D01*
X105973910Y-105706954D01*
X105973909Y-105706953D01*
X105973909Y-105706951D01*
X105879698Y-105526593D01*
X105766983Y-105388359D01*
X105739875Y-105323965D01*
X105751884Y-105255135D01*
X105766981Y-105231642D01*
X105879698Y-105093407D01*
X105973909Y-104913049D01*
X106029886Y-104717418D01*
X106040500Y-104598037D01*
X106040499Y-103481964D01*
X106029886Y-103362582D01*
X105977189Y-103178414D01*
X105973910Y-103166954D01*
X105973909Y-103166953D01*
X105973909Y-103166951D01*
X105879698Y-102986593D01*
X105766983Y-102848359D01*
X105739875Y-102783965D01*
X105751884Y-102715135D01*
X105766981Y-102691642D01*
X105879698Y-102553407D01*
X105973909Y-102373049D01*
X106029886Y-102177418D01*
X106040500Y-102058037D01*
X106040499Y-100941964D01*
X106029886Y-100822582D01*
X105973909Y-100626951D01*
X105879698Y-100446593D01*
X105766661Y-100307964D01*
X105739552Y-100243568D01*
X105751561Y-100174738D01*
X105766662Y-100151241D01*
X105879278Y-100013130D01*
X105911487Y-99951470D01*
X105973442Y-99832861D01*
X106029390Y-99637328D01*
X106029391Y-99637325D01*
X106039999Y-99518000D01*
X106040000Y-99517998D01*
X106040000Y-98402002D01*
X106039999Y-98401999D01*
X106029391Y-98282674D01*
X106029390Y-98282671D01*
X105973442Y-98087138D01*
X105879278Y-97906870D01*
X105766661Y-97768757D01*
X105739552Y-97704361D01*
X105751561Y-97635531D01*
X105766658Y-97612039D01*
X105879698Y-97473407D01*
X105973909Y-97293049D01*
X106029886Y-97097418D01*
X106040500Y-96978037D01*
X106040499Y-96682135D01*
X108849500Y-96682135D01*
X108849500Y-98477870D01*
X108849501Y-98477876D01*
X108855908Y-98537483D01*
X108906202Y-98672328D01*
X108906206Y-98672335D01*
X108992452Y-98787544D01*
X108992455Y-98787547D01*
X109107664Y-98873793D01*
X109107671Y-98873797D01*
X109152618Y-98890561D01*
X109242517Y-98924091D01*
X109302127Y-98930500D01*
X109312685Y-98930499D01*
X109379723Y-98950179D01*
X109400372Y-98966818D01*
X110070591Y-99637037D01*
X110007007Y-99654075D01*
X109892993Y-99719901D01*
X109799901Y-99812993D01*
X109734075Y-99927007D01*
X109717037Y-99990591D01*
X109084728Y-99358282D01*
X109084727Y-99358282D01*
X109045380Y-99412439D01*
X108948904Y-99601782D01*
X108883242Y-99803869D01*
X108883242Y-99803872D01*
X108850000Y-100013753D01*
X108850000Y-100226246D01*
X108883242Y-100436127D01*
X108883242Y-100436130D01*
X108948904Y-100638217D01*
X109045375Y-100827550D01*
X109084728Y-100881716D01*
X109717037Y-100249408D01*
X109734075Y-100312993D01*
X109799901Y-100427007D01*
X109892993Y-100520099D01*
X110007007Y-100585925D01*
X110070590Y-100602962D01*
X109438282Y-101235269D01*
X109438282Y-101235270D01*
X109492452Y-101274626D01*
X109492451Y-101274626D01*
X109501495Y-101279234D01*
X109552292Y-101327208D01*
X109569087Y-101395029D01*
X109546550Y-101461164D01*
X109501499Y-101500202D01*
X109492182Y-101504949D01*
X109320213Y-101629890D01*
X109169890Y-101780213D01*
X109044951Y-101952179D01*
X108948444Y-102141585D01*
X108882753Y-102343760D01*
X108849500Y-102553713D01*
X108849500Y-102766286D01*
X108870111Y-102896423D01*
X108882754Y-102976243D01*
X108916778Y-103080959D01*
X108948444Y-103178414D01*
X109044951Y-103367820D01*
X109169890Y-103539786D01*
X109320213Y-103690109D01*
X109492182Y-103815050D01*
X109500946Y-103819516D01*
X109551742Y-103867491D01*
X109568536Y-103935312D01*
X109545998Y-104001447D01*
X109500946Y-104040484D01*
X109492182Y-104044949D01*
X109320213Y-104169890D01*
X109169890Y-104320213D01*
X109044951Y-104492179D01*
X108948444Y-104681585D01*
X108882753Y-104883760D01*
X108849500Y-105093713D01*
X108849500Y-105306286D01*
X108875226Y-105468717D01*
X108882754Y-105516243D01*
X108939409Y-105690609D01*
X108948444Y-105718414D01*
X109044951Y-105907820D01*
X109169890Y-106079786D01*
X109320213Y-106230109D01*
X109492179Y-106355048D01*
X109492181Y-106355049D01*
X109492184Y-106355051D01*
X109681588Y-106451557D01*
X109883757Y-106517246D01*
X110093713Y-106550500D01*
X110093714Y-106550500D01*
X110306286Y-106550500D01*
X110306287Y-106550500D01*
X110516243Y-106517246D01*
X110718412Y-106451557D01*
X110907816Y-106355051D01*
X110954473Y-106321153D01*
X111079786Y-106230109D01*
X111079788Y-106230106D01*
X111079792Y-106230104D01*
X111230104Y-106079792D01*
X111230106Y-106079788D01*
X111230109Y-106079786D01*
X111355048Y-105907820D01*
X111355047Y-105907820D01*
X111355051Y-105907816D01*
X111451557Y-105718412D01*
X111517246Y-105516243D01*
X111550500Y-105306287D01*
X111550500Y-105093713D01*
X111517246Y-104883757D01*
X111451557Y-104681588D01*
X111355051Y-104492184D01*
X111355049Y-104492181D01*
X111355048Y-104492179D01*
X111230109Y-104320213D01*
X111079786Y-104169890D01*
X110907820Y-104044951D01*
X110907115Y-104044591D01*
X110899054Y-104040485D01*
X110848259Y-103992512D01*
X110831463Y-103924692D01*
X110853999Y-103858556D01*
X110899054Y-103819515D01*
X110907816Y-103815051D01*
X110929789Y-103799086D01*
X111079786Y-103690109D01*
X111079788Y-103690106D01*
X111079792Y-103690104D01*
X111230104Y-103539792D01*
X111230106Y-103539788D01*
X111230109Y-103539786D01*
X111355048Y-103367820D01*
X111355047Y-103367820D01*
X111355051Y-103367816D01*
X111451557Y-103178412D01*
X111517246Y-102976243D01*
X111550500Y-102766287D01*
X111550500Y-102553713D01*
X111517246Y-102343757D01*
X111451557Y-102141588D01*
X111355051Y-101952184D01*
X111355049Y-101952181D01*
X111355048Y-101952179D01*
X111230109Y-101780213D01*
X111079786Y-101629890D01*
X110907817Y-101504949D01*
X110898504Y-101500204D01*
X110847707Y-101452230D01*
X110830912Y-101384409D01*
X110853449Y-101318274D01*
X110898507Y-101279232D01*
X110907555Y-101274622D01*
X110961716Y-101235270D01*
X110961717Y-101235270D01*
X110329408Y-100602962D01*
X110392993Y-100585925D01*
X110507007Y-100520099D01*
X110600099Y-100427007D01*
X110665925Y-100312993D01*
X110682962Y-100249408D01*
X111315270Y-100881717D01*
X111315270Y-100881716D01*
X111354622Y-100827554D01*
X111451095Y-100638217D01*
X111516757Y-100436130D01*
X111516757Y-100436127D01*
X111550000Y-100226246D01*
X111550000Y-100013753D01*
X111516757Y-99803872D01*
X111516757Y-99803869D01*
X111451095Y-99601782D01*
X111354624Y-99412449D01*
X111315270Y-99358282D01*
X111315269Y-99358282D01*
X110682962Y-99990590D01*
X110665925Y-99927007D01*
X110600099Y-99812993D01*
X110507007Y-99719901D01*
X110392993Y-99654075D01*
X110329409Y-99637037D01*
X110999627Y-98966818D01*
X111060950Y-98933333D01*
X111087307Y-98930499D01*
X111097872Y-98930499D01*
X111157483Y-98924091D01*
X111292331Y-98873796D01*
X111407546Y-98787546D01*
X111493796Y-98672331D01*
X111544091Y-98537483D01*
X111550500Y-98477873D01*
X111550499Y-96682128D01*
X111544091Y-96622517D01*
X111535506Y-96599500D01*
X111493797Y-96487671D01*
X111493793Y-96487664D01*
X111478419Y-96467127D01*
X111426432Y-96397682D01*
X129602651Y-96397682D01*
X129602651Y-96602317D01*
X129634660Y-96804417D01*
X129697895Y-96999031D01*
X129790792Y-97181350D01*
X129790798Y-97181359D01*
X129823174Y-97225921D01*
X129823175Y-97225922D01*
X130502651Y-96546446D01*
X130502651Y-96552661D01*
X130529910Y-96654394D01*
X130582571Y-96745606D01*
X130657045Y-96820080D01*
X130748257Y-96872741D01*
X130849990Y-96900000D01*
X130856204Y-96900000D01*
X130176727Y-97579474D01*
X130221301Y-97611859D01*
X130403619Y-97704755D01*
X130598233Y-97767990D01*
X130800334Y-97800000D01*
X131004968Y-97800000D01*
X131207068Y-97767990D01*
X131401682Y-97704755D01*
X131584000Y-97611859D01*
X131628572Y-97579474D01*
X130949098Y-96900000D01*
X130955312Y-96900000D01*
X131057045Y-96872741D01*
X131148257Y-96820080D01*
X131222731Y-96745606D01*
X131275392Y-96654394D01*
X131302651Y-96552661D01*
X131302651Y-96546447D01*
X131982125Y-97225921D01*
X132014510Y-97181349D01*
X132107406Y-96999031D01*
X132170641Y-96804417D01*
X132202651Y-96602317D01*
X132202651Y-96397682D01*
X132170641Y-96195582D01*
X132107405Y-96000965D01*
X132083032Y-95953130D01*
X132083031Y-95953129D01*
X132055952Y-95899983D01*
X134602151Y-95899983D01*
X134602151Y-97100001D01*
X134602152Y-97100018D01*
X134612651Y-97202796D01*
X134612652Y-97202799D01*
X134667836Y-97369331D01*
X134667837Y-97369334D01*
X134759939Y-97518656D01*
X134883995Y-97642712D01*
X135033317Y-97734814D01*
X135199854Y-97789999D01*
X135302642Y-97800500D01*
X136502659Y-97800499D01*
X136605448Y-97789999D01*
X136771985Y-97734814D01*
X136921307Y-97642712D01*
X137045363Y-97518656D01*
X137137465Y-97369334D01*
X137192650Y-97202797D01*
X137203151Y-97100009D01*
X137203150Y-95899992D01*
X137192650Y-95797203D01*
X137137465Y-95630666D01*
X137045363Y-95481344D01*
X136921307Y-95357288D01*
X136771985Y-95265186D01*
X136605448Y-95210001D01*
X136605446Y-95210000D01*
X136502661Y-95199500D01*
X135302649Y-95199500D01*
X135302632Y-95199501D01*
X135199854Y-95210000D01*
X135199851Y-95210001D01*
X135033319Y-95265185D01*
X135033314Y-95265187D01*
X134883993Y-95357289D01*
X134759940Y-95481342D01*
X134667838Y-95630663D01*
X134667837Y-95630666D01*
X134612652Y-95797203D01*
X134612652Y-95797204D01*
X134612651Y-95797204D01*
X134602151Y-95899983D01*
X132055952Y-95899983D01*
X132014510Y-95818650D01*
X131982125Y-95774077D01*
X131982125Y-95774076D01*
X131302651Y-96453551D01*
X131302651Y-96447339D01*
X131275392Y-96345606D01*
X131222731Y-96254394D01*
X131148257Y-96179920D01*
X131057045Y-96127259D01*
X130955312Y-96100000D01*
X130949097Y-96100000D01*
X131628573Y-95420524D01*
X131628572Y-95420523D01*
X131584010Y-95388147D01*
X131584001Y-95388141D01*
X131401682Y-95295244D01*
X131207068Y-95232009D01*
X131004968Y-95200000D01*
X130800334Y-95200000D01*
X130598233Y-95232009D01*
X130403619Y-95295244D01*
X130221295Y-95388143D01*
X130176728Y-95420523D01*
X130176728Y-95420524D01*
X130856205Y-96100000D01*
X130849990Y-96100000D01*
X130748257Y-96127259D01*
X130657045Y-96179920D01*
X130582571Y-96254394D01*
X130529910Y-96345606D01*
X130502651Y-96447339D01*
X130502651Y-96453553D01*
X129823175Y-95774077D01*
X129823174Y-95774077D01*
X129790794Y-95818644D01*
X129697895Y-96000968D01*
X129634660Y-96195582D01*
X129602651Y-96397682D01*
X111426432Y-96397682D01*
X111407547Y-96372455D01*
X111407544Y-96372452D01*
X111292335Y-96286206D01*
X111292328Y-96286202D01*
X111157482Y-96235908D01*
X111157483Y-96235908D01*
X111097883Y-96229501D01*
X111097881Y-96229500D01*
X111097873Y-96229500D01*
X111097864Y-96229500D01*
X109302129Y-96229500D01*
X109302123Y-96229501D01*
X109242516Y-96235908D01*
X109107671Y-96286202D01*
X109107664Y-96286206D01*
X108992455Y-96372452D01*
X108992452Y-96372455D01*
X108906206Y-96487664D01*
X108906202Y-96487671D01*
X108855908Y-96622517D01*
X108849857Y-96678805D01*
X108849501Y-96682123D01*
X108849500Y-96682135D01*
X106040499Y-96682135D01*
X106040499Y-96397682D01*
X106040499Y-95861971D01*
X106040499Y-95861964D01*
X106029886Y-95742582D01*
X105973909Y-95546951D01*
X105879698Y-95366593D01*
X105821521Y-95295244D01*
X105751109Y-95208890D01*
X105593409Y-95080304D01*
X105593410Y-95080304D01*
X105593407Y-95080302D01*
X105413049Y-94986091D01*
X105413048Y-94986090D01*
X105413045Y-94986089D01*
X105295829Y-94952550D01*
X105217418Y-94930114D01*
X105217415Y-94930113D01*
X105217413Y-94930113D01*
X105151102Y-94924217D01*
X105098037Y-94919500D01*
X105098032Y-94919500D01*
X103231971Y-94919500D01*
X103231965Y-94919500D01*
X103231964Y-94919501D01*
X103220316Y-94920536D01*
X103112584Y-94930113D01*
X102916954Y-94986089D01*
X102826772Y-95033196D01*
X102736593Y-95080302D01*
X102736591Y-95080303D01*
X102736590Y-95080304D01*
X102578890Y-95208890D01*
X102457889Y-95357288D01*
X102450302Y-95366593D01*
X102422131Y-95420524D01*
X102356089Y-95546954D01*
X102300114Y-95742583D01*
X102300113Y-95742586D01*
X102289500Y-95861966D01*
X89875499Y-95861966D01*
X89875499Y-95861964D01*
X89864886Y-95742582D01*
X89808909Y-95546951D01*
X89714698Y-95366593D01*
X89656521Y-95295244D01*
X89586109Y-95208890D01*
X89428409Y-95080304D01*
X89428410Y-95080304D01*
X89428407Y-95080302D01*
X89248049Y-94986091D01*
X89248048Y-94986090D01*
X89248045Y-94986089D01*
X89130829Y-94952550D01*
X89052418Y-94930114D01*
X89052415Y-94930113D01*
X89052413Y-94930113D01*
X88986102Y-94924217D01*
X88933037Y-94919500D01*
X88933032Y-94919500D01*
X87066971Y-94919500D01*
X87066965Y-94919500D01*
X87066964Y-94919501D01*
X87055316Y-94920536D01*
X86947584Y-94930113D01*
X86751954Y-94986089D01*
X86661772Y-95033196D01*
X86571593Y-95080302D01*
X86571591Y-95080303D01*
X86571590Y-95080304D01*
X86413890Y-95208890D01*
X86292889Y-95357288D01*
X86285302Y-95366593D01*
X86257131Y-95420524D01*
X86191089Y-95546954D01*
X86135114Y-95742583D01*
X86135113Y-95742586D01*
X86124500Y-95861966D01*
X76500000Y-95861966D01*
X76500000Y-93623091D01*
X76519685Y-93556052D01*
X76572489Y-93510297D01*
X76623083Y-93499094D01*
X144375089Y-93000918D01*
X144442271Y-93020109D01*
G37*
G04 #@! TD.AperFunction*
G04 #@! TD*
M02*
