M48
; DRILL file {KiCad 9.0.4} date 2026-02-17T10:59:02-0800
; FORMAT={-:-/ absolute / metric / decimal}
; #@! TF.CreationDate,2026-02-17T10:59:02-08:00
; #@! TF.GenerationSoftware,Kicad,Pcbnew,9.0.4
; #@! TF.FileFunction,MixedPlating,1,2
FMAT,2
METRIC
; #@! TA.AperFunction,Plated,PTH,ViaDrill
T1C0.300
; #@! TA.AperFunction,Plated,PTH,ComponentDrill
T2C0.800
; #@! TA.AperFunction,Plated,PTH,ComponentDrill
T3C1.000
; #@! TA.AperFunction,Plated,PTH,ComponentDrill
T4C1.100
; #@! TA.AperFunction,Plated,PTH,ComponentDrill
T5C1.500
%
G90
G05
T1
X101.25Y-109.35
X103.42Y-107.24
X111.06Y-119.46
X113.53Y-117.64
X121.94Y-104.95
X130.0Y-105.0
X130.0Y-120.0
X140.0Y-120.0
X144.32Y-119.46
X146.32Y-121.46
T2
X97.93Y-117.51
X98.05Y-121.81
X98.99Y-98.81
X98.99Y-106.51
X108.09Y-117.51
X108.21Y-121.81
X117.72Y-109.92
X127.88Y-109.92
X136.733Y-98.75
X141.733Y-98.75
T3
X76.5Y-102.0
X76.5Y-104.54
X76.5Y-107.08
X76.5Y-109.62
X76.5Y-112.16
X76.5Y-114.7
X76.5Y-117.24
X76.5Y-119.78
X83.87Y-95.79
X83.87Y-100.79
X95.09Y-96.33
X95.09Y-98.87
X95.19Y-101.41
X95.19Y-103.95
X95.19Y-106.49
X95.19Y-109.01
X95.19Y-111.57
X110.09Y-96.33
X110.09Y-98.87
X110.09Y-101.41
X110.09Y-103.95
X110.09Y-106.49
X110.09Y-109.03
X110.09Y-111.57
X118.055Y-97.33
X118.055Y-99.87
X118.055Y-102.41
X118.055Y-104.95
T4
X117.77Y-115.21
X117.77Y-117.75
X117.77Y-120.29
T5
X146.32Y-117.16
X146.32Y-119.66
M30
