G04 #@! TF.GenerationSoftware,KiCad,Pcbnew,9.0.4*
G04 #@! TF.CreationDate,2026-02-17T10:58:58-08:00*
G04 #@! TF.ProjectId,e-ink_PCB,652d696e-6b5f-4504-9342-2e6b69636164,rev?*
G04 #@! TF.SameCoordinates,Original*
G04 #@! TF.FileFunction,Copper,L2,Bot*
G04 #@! TF.FilePolarity,Positive*
%FSLAX46Y46*%
G04 Gerber Fmt 4.6, Leading zero omitted, Abs format (unit mm)*
G04 Created by KiCad (PCBNEW 9.0.4) date 2026-02-17 10:58:58*
%MOMM*%
%LPD*%
G01*
G04 APERTURE LIST*
G04 Aperture macros list*
%AMRoundRect*
0 Rectangle with rounded corners*
0 $1 Rounding radius*
0 $2 $3 $4 $5 $6 $7 $8 $9 X,Y pos of 4 corners*
0 Add a 4 corners polygon primitive as box body*
4,1,4,$2,$3,$4,$5,$6,$7,$8,$9,$2,$3,0*
0 Add four circle primitives for the rounded corners*
1,1,$1+$1,$2,$3*
1,1,$1+$1,$4,$5*
1,1,$1+$1,$6,$7*
1,1,$1+$1,$8,$9*
0 Add four rect primitives between the rounded corners*
20,1,$1+$1,$2,$3,$4,$5,0*
20,1,$1+$1,$4,$5,$6,$7,0*
20,1,$1+$1,$6,$7,$8,$9,0*
20,1,$1+$1,$8,$9,$2,$3,0*%
G04 Aperture macros list end*
G04 #@! TA.AperFunction,ComponentPad*
%ADD10C,2.000000*%
G04 #@! TD*
G04 #@! TA.AperFunction,ComponentPad*
%ADD11R,2.000000X2.000000*%
G04 #@! TD*
G04 #@! TA.AperFunction,ComponentPad*
%ADD12RoundRect,0.275000X0.975000X0.275000X-0.975000X0.275000X-0.975000X-0.275000X0.975000X-0.275000X0*%
G04 #@! TD*
G04 #@! TA.AperFunction,ComponentPad*
%ADD13C,1.700000*%
G04 #@! TD*
G04 #@! TA.AperFunction,ComponentPad*
%ADD14R,1.700000X1.700000*%
G04 #@! TD*
G04 #@! TA.AperFunction,ComponentPad*
%ADD15RoundRect,0.250000X0.550000X0.550000X-0.550000X0.550000X-0.550000X-0.550000X0.550000X-0.550000X0*%
G04 #@! TD*
G04 #@! TA.AperFunction,ComponentPad*
%ADD16C,1.600000*%
G04 #@! TD*
G04 #@! TA.AperFunction,ComponentPad*
%ADD17R,2.000000X1.905000*%
G04 #@! TD*
G04 #@! TA.AperFunction,ComponentPad*
%ADD18O,2.000000X1.905000*%
G04 #@! TD*
G04 #@! TA.AperFunction,ViaPad*
%ADD19C,0.600000*%
G04 #@! TD*
G04 #@! TA.AperFunction,Conductor*
%ADD20C,0.200000*%
G04 #@! TD*
G04 APERTURE END LIST*
D10*
G04 #@! TO.P,J5,2,Pin_2*
G04 #@! TO.N,Net-(J4-Pin_2)*
X146320000Y-117160000D03*
D11*
G04 #@! TO.P,J5,1,Pin_1*
G04 #@! TO.N,GND*
X146320000Y-119660000D03*
G04 #@! TD*
D10*
G04 #@! TO.P,J1,2,Pin_8*
G04 #@! TO.N,Net-(J1-Pin_8)*
X95090000Y-96330000D03*
G04 #@! TO.P,J1,3,Pin_7*
G04 #@! TO.N,Net-(J2-Pin_3)*
X95090000Y-98870000D03*
G04 #@! TO.P,J1,3.3V,Pin_3*
G04 #@! TO.N,Net-(J2-Pin_2)*
X110090000Y-101410000D03*
G04 #@! TO.P,J1,4,Pin_6*
G04 #@! TO.N,Net-(J2-Pin_4)*
X95190000Y-101410000D03*
G04 #@! TO.P,J1,5,Pin_5*
G04 #@! TO.N,Net-(J2-Pin_5)*
X95190000Y-103950000D03*
G04 #@! TO.P,J1,5V,Pin_1*
G04 #@! TO.N,unconnected-(J1-Pin_1-Pad5V)*
X110090000Y-96330000D03*
G04 #@! TO.P,J1,6,Pin_4*
G04 #@! TO.N,Net-(J2-Pin_6)*
X95190000Y-106490000D03*
G04 #@! TO.P,J1,7,Pin_3*
G04 #@! TO.N,Net-(J2-Pin_7)*
X95190000Y-109010000D03*
G04 #@! TO.P,J1,8,Pin_6*
G04 #@! TO.N,Net-(Q1-G)*
X110090000Y-109030000D03*
G04 #@! TO.P,J1,9,Pin_5*
G04 #@! TO.N,Net-(J3-Pin_4)*
X110090000Y-106490000D03*
G04 #@! TO.P,J1,10,Pin_4*
G04 #@! TO.N,Net-(J3-Pin_3)*
X110090000Y-103950000D03*
G04 #@! TO.P,J1,20,Pin_7*
G04 #@! TO.N,unconnected-(J1-Pin_7-Pad20)*
X110090000Y-111570000D03*
G04 #@! TO.P,J1,21,Pin_2*
G04 #@! TO.N,Net-(J2-Pin_8)*
X95190000Y-111570000D03*
D12*
G04 #@! TO.P,J1,BAT+,Pin_1*
G04 #@! TO.N,Net-(J4-Pin_2)*
X98990000Y-106510000D03*
G04 #@! TO.P,J1,BAT-,Pin_1*
G04 #@! TO.N,GND*
X98990000Y-98810000D03*
D10*
G04 #@! TO.P,J1,GND,Pin_2*
X110090000Y-98870000D03*
G04 #@! TD*
D13*
G04 #@! TO.P,J3,GND,Pin_2*
G04 #@! TO.N,GND*
X118055000Y-99870000D03*
G04 #@! TO.P,J3,SCL,Pin_3*
G04 #@! TO.N,Net-(J3-Pin_3)*
X118055000Y-102410000D03*
G04 #@! TO.P,J3,SDA,Pin_4*
G04 #@! TO.N,Net-(J3-Pin_4)*
X118055000Y-104950000D03*
D14*
G04 #@! TO.P,J3,VIN,Pin_1*
G04 #@! TO.N,Net-(J2-Pin_2)*
X118055000Y-97330000D03*
G04 #@! TD*
D15*
G04 #@! TO.P,J4,+,Pin_2*
G04 #@! TO.N,Net-(J4-Pin_2)*
X141732651Y-98750000D03*
D16*
G04 #@! TO.P,J4,-,Pin_1*
G04 #@! TO.N,GND*
X136732651Y-98750000D03*
G04 #@! TD*
D17*
G04 #@! TO.P,Q1,1,G*
G04 #@! TO.N,Net-(Q1-G)*
X117770000Y-115210000D03*
D18*
G04 #@! TO.P,Q1,2,D*
G04 #@! TO.N,Net-(Q1-D)*
X117770000Y-117750000D03*
G04 #@! TO.P,Q1,3,S*
G04 #@! TO.N,Net-(J4-Pin_2)*
X117770000Y-120290000D03*
G04 #@! TD*
D13*
G04 #@! TO.P,J2,BUSY,Pin_8*
G04 #@! TO.N,Net-(J2-Pin_8)*
X76500000Y-119780000D03*
G04 #@! TO.P,J2,CS,Pin_7*
G04 #@! TO.N,Net-(J2-Pin_7)*
X76500000Y-117240000D03*
G04 #@! TO.P,J2,DC,Pin_6*
G04 #@! TO.N,Net-(J2-Pin_6)*
X76500000Y-114700000D03*
D14*
G04 #@! TO.P,J2,GND,Pin_1*
G04 #@! TO.N,GND*
X76500000Y-102000000D03*
D13*
G04 #@! TO.P,J2,RES,Pin_5*
G04 #@! TO.N,Net-(J2-Pin_5)*
X76500000Y-112160000D03*
G04 #@! TO.P,J2,SCL,Pin_3*
G04 #@! TO.N,Net-(J2-Pin_3)*
X76500000Y-107080000D03*
G04 #@! TO.P,J2,SDA,Pin_4*
G04 #@! TO.N,Net-(J2-Pin_4)*
X76500000Y-109620000D03*
G04 #@! TO.P,J2,VCC,Pin_2*
G04 #@! TO.N,Net-(J2-Pin_2)*
X76500000Y-104540000D03*
G04 #@! TD*
D16*
G04 #@! TO.P,R3,1*
G04 #@! TO.N,Net-(Q1-G)*
X117720000Y-109920000D03*
G04 #@! TO.P,R3,2*
G04 #@! TO.N,Net-(J4-Pin_2)*
X127880000Y-109920000D03*
G04 #@! TD*
D10*
G04 #@! TO.P,C1,1*
G04 #@! TO.N,GND*
X83870000Y-95790000D03*
G04 #@! TO.P,C1,2*
G04 #@! TO.N,Net-(J2-Pin_2)*
X83870000Y-100790000D03*
G04 #@! TD*
D16*
G04 #@! TO.P,R1,1*
G04 #@! TO.N,Net-(J1-Pin_8)*
X97930000Y-117510000D03*
G04 #@! TO.P,R1,2*
G04 #@! TO.N,Net-(Q1-D)*
X108090000Y-117510000D03*
G04 #@! TD*
G04 #@! TO.P,R2,1*
G04 #@! TO.N,GND*
X108210000Y-121810000D03*
G04 #@! TO.P,R2,2*
G04 #@! TO.N,Net-(J1-Pin_8)*
X98050000Y-121810000D03*
G04 #@! TD*
D19*
G04 #@! TO.N,Net-(J1-Pin_8)*
X101250000Y-109350000D03*
X103420000Y-107240000D03*
G04 #@! TO.N,Net-(Q1-D)*
X113530000Y-117640000D03*
X111060000Y-119460000D03*
G04 #@! TO.N,GND*
X146320000Y-121460000D03*
X140000000Y-120000000D03*
X130000000Y-120000000D03*
X144320000Y-119460000D03*
X121940000Y-104950000D03*
X130000000Y-105000000D03*
G04 #@! TD*
D20*
G04 #@! TO.N,Net-(J1-Pin_8)*
X101310000Y-109350000D02*
X103420000Y-107240000D01*
X101250000Y-109350000D02*
X101310000Y-109350000D01*
G04 #@! TO.N,Net-(Q1-D)*
X111060000Y-119460000D02*
X111710000Y-119460000D01*
X111710000Y-119460000D02*
X113530000Y-117640000D01*
G04 #@! TD*
G04 #@! TA.AperFunction,Conductor*
G04 #@! TO.N,GND*
G36*
X148892271Y-92780550D02*
G01*
X148938413Y-92833017D01*
X148950000Y-92885356D01*
X148950000Y-123424773D01*
X148930315Y-123491812D01*
X148877511Y-123537567D01*
X148826912Y-123548770D01*
X75414912Y-124088563D01*
X75347729Y-124069372D01*
X75301587Y-124016905D01*
X75290000Y-123964566D01*
X75290000Y-121707648D01*
X96749500Y-121707648D01*
X96749500Y-121912351D01*
X96781522Y-122114534D01*
X96844781Y-122309223D01*
X96908691Y-122434653D01*
X96937585Y-122491359D01*
X96937715Y-122491613D01*
X97058028Y-122657213D01*
X97202786Y-122801971D01*
X97323226Y-122889474D01*
X97368390Y-122922287D01*
X97484607Y-122981503D01*
X97550776Y-123015218D01*
X97550778Y-123015218D01*
X97550781Y-123015220D01*
X97655137Y-123049127D01*
X97745465Y-123078477D01*
X97846557Y-123094488D01*
X97947648Y-123110500D01*
X97947649Y-123110500D01*
X98152351Y-123110500D01*
X98152352Y-123110500D01*
X98354534Y-123078477D01*
X98549219Y-123015220D01*
X98731610Y-122922287D01*
X98824590Y-122854732D01*
X98897213Y-122801971D01*
X98897215Y-122801968D01*
X98897219Y-122801966D01*
X99041966Y-122657219D01*
X99041968Y-122657215D01*
X99041971Y-122657213D01*
X99094732Y-122584590D01*
X99162287Y-122491610D01*
X99255220Y-122309219D01*
X99318477Y-122114534D01*
X99350500Y-121912352D01*
X99350500Y-121707682D01*
X106910000Y-121707682D01*
X106910000Y-121912317D01*
X106942009Y-122114417D01*
X107005244Y-122309031D01*
X107098141Y-122491350D01*
X107098147Y-122491359D01*
X107130523Y-122535921D01*
X107130524Y-122535922D01*
X107810000Y-121856446D01*
X107810000Y-121862661D01*
X107837259Y-121964394D01*
X107889920Y-122055606D01*
X107964394Y-122130080D01*
X108055606Y-122182741D01*
X108157339Y-122210000D01*
X108163553Y-122210000D01*
X107484076Y-122889474D01*
X107528650Y-122921859D01*
X107710968Y-123014755D01*
X107905582Y-123077990D01*
X108107683Y-123110000D01*
X108312317Y-123110000D01*
X108514417Y-123077990D01*
X108709031Y-123014755D01*
X108891349Y-122921859D01*
X108935921Y-122889474D01*
X108256447Y-122210000D01*
X108262661Y-122210000D01*
X108364394Y-122182741D01*
X108455606Y-122130080D01*
X108530080Y-122055606D01*
X108582741Y-121964394D01*
X108610000Y-121862661D01*
X108610000Y-121856448D01*
X109289474Y-122535922D01*
X109289474Y-122535921D01*
X109321859Y-122491349D01*
X109414755Y-122309031D01*
X109477990Y-122114417D01*
X109510000Y-121912317D01*
X109510000Y-121707682D01*
X109477990Y-121505582D01*
X109414755Y-121310968D01*
X109321859Y-121128650D01*
X109289474Y-121084077D01*
X109289474Y-121084076D01*
X108610000Y-121763551D01*
X108610000Y-121757339D01*
X108582741Y-121655606D01*
X108530080Y-121564394D01*
X108455606Y-121489920D01*
X108364394Y-121437259D01*
X108262661Y-121410000D01*
X108256446Y-121410000D01*
X108935922Y-120730524D01*
X108935921Y-120730523D01*
X108891359Y-120698147D01*
X108891350Y-120698141D01*
X108709031Y-120605244D01*
X108514417Y-120542009D01*
X108312317Y-120510000D01*
X108107683Y-120510000D01*
X107905582Y-120542009D01*
X107710968Y-120605244D01*
X107528644Y-120698143D01*
X107484077Y-120730523D01*
X107484077Y-120730524D01*
X108163554Y-121410000D01*
X108157339Y-121410000D01*
X108055606Y-121437259D01*
X107964394Y-121489920D01*
X107889920Y-121564394D01*
X107837259Y-121655606D01*
X107810000Y-121757339D01*
X107810000Y-121763553D01*
X107130524Y-121084077D01*
X107130523Y-121084077D01*
X107098143Y-121128644D01*
X107005244Y-121310968D01*
X106942009Y-121505582D01*
X106910000Y-121707682D01*
X99350500Y-121707682D01*
X99350500Y-121707648D01*
X99339239Y-121636548D01*
X99318477Y-121505465D01*
X99283651Y-121398283D01*
X99255220Y-121310781D01*
X99255218Y-121310778D01*
X99255218Y-121310776D01*
X99221503Y-121244607D01*
X99162287Y-121128390D01*
X99154556Y-121117749D01*
X99041971Y-120962786D01*
X98897213Y-120818028D01*
X98731613Y-120697715D01*
X98731612Y-120697714D01*
X98731610Y-120697713D01*
X98674653Y-120668691D01*
X98549223Y-120604781D01*
X98354534Y-120541522D01*
X98179995Y-120513878D01*
X98152352Y-120509500D01*
X97947648Y-120509500D01*
X97923329Y-120513351D01*
X97745465Y-120541522D01*
X97550776Y-120604781D01*
X97368386Y-120697715D01*
X97202786Y-120818028D01*
X97058028Y-120962786D01*
X96937715Y-121128386D01*
X96844781Y-121310776D01*
X96781522Y-121505465D01*
X96749500Y-121707648D01*
X75290000Y-121707648D01*
X75290000Y-120779258D01*
X75309685Y-120712219D01*
X75362489Y-120666464D01*
X75431647Y-120656520D01*
X75495203Y-120685545D01*
X75501681Y-120691577D01*
X75620213Y-120810109D01*
X75792179Y-120935048D01*
X75792181Y-120935049D01*
X75792184Y-120935051D01*
X75981588Y-121031557D01*
X76183757Y-121097246D01*
X76393713Y-121130500D01*
X76393714Y-121130500D01*
X76606286Y-121130500D01*
X76606287Y-121130500D01*
X76816243Y-121097246D01*
X77018412Y-121031557D01*
X77207816Y-120935051D01*
X77253189Y-120902086D01*
X77379786Y-120810109D01*
X77379788Y-120810106D01*
X77379792Y-120810104D01*
X77530104Y-120659792D01*
X77530106Y-120659788D01*
X77530109Y-120659786D01*
X77655048Y-120487820D01*
X77655047Y-120487820D01*
X77655051Y-120487816D01*
X77751557Y-120298412D01*
X77817246Y-120096243D01*
X77850500Y-119886287D01*
X77850500Y-119673713D01*
X77817246Y-119463757D01*
X77790406Y-119381153D01*
X110259500Y-119381153D01*
X110259500Y-119538846D01*
X110290261Y-119693489D01*
X110290264Y-119693501D01*
X110350602Y-119839172D01*
X110350609Y-119839185D01*
X110438210Y-119970288D01*
X110438213Y-119970292D01*
X110549707Y-120081786D01*
X110549711Y-120081789D01*
X110680814Y-120169390D01*
X110680827Y-120169397D01*
X110826498Y-120229735D01*
X110826503Y-120229737D01*
X110981153Y-120260499D01*
X110981156Y-120260500D01*
X110981158Y-120260500D01*
X111138844Y-120260500D01*
X111138845Y-120260499D01*
X111293497Y-120229737D01*
X111439179Y-120169394D01*
X111570289Y-120081789D01*
X111570288Y-120081789D01*
X111570873Y-120081399D01*
X111637550Y-120060521D01*
X111639764Y-120060501D01*
X111789054Y-120060501D01*
X111789057Y-120060501D01*
X111941785Y-120019577D01*
X112004133Y-119983580D01*
X112078716Y-119940520D01*
X112190520Y-119828716D01*
X112190520Y-119828714D01*
X112200724Y-119818511D01*
X112200727Y-119818506D01*
X113544664Y-118474571D01*
X113605985Y-118441088D01*
X113608152Y-118440637D01*
X113608841Y-118440500D01*
X113608842Y-118440500D01*
X113763497Y-118409737D01*
X113909179Y-118349394D01*
X114040289Y-118261789D01*
X114151789Y-118150289D01*
X114239394Y-118019179D01*
X114299737Y-117873497D01*
X114330500Y-117718842D01*
X114330500Y-117561158D01*
X114330500Y-117561155D01*
X114330499Y-117561153D01*
X114320596Y-117511368D01*
X114299737Y-117406503D01*
X114299735Y-117406498D01*
X114239397Y-117260827D01*
X114239390Y-117260814D01*
X114151789Y-117129711D01*
X114151786Y-117129707D01*
X114040292Y-117018213D01*
X114040288Y-117018210D01*
X113909185Y-116930609D01*
X113909172Y-116930602D01*
X113763501Y-116870264D01*
X113763489Y-116870261D01*
X113608845Y-116839500D01*
X113608842Y-116839500D01*
X113451158Y-116839500D01*
X113451155Y-116839500D01*
X113296510Y-116870261D01*
X113296498Y-116870264D01*
X113150827Y-116930602D01*
X113150814Y-116930609D01*
X113019711Y-117018210D01*
X113019707Y-117018213D01*
X112908213Y-117129707D01*
X112908210Y-117129711D01*
X112820609Y-117260814D01*
X112820602Y-117260827D01*
X112760264Y-117406498D01*
X112760261Y-117406508D01*
X112729362Y-117561848D01*
X112696977Y-117623759D01*
X112695426Y-117625337D01*
X111589563Y-118731200D01*
X111528240Y-118764685D01*
X111458548Y-118759701D01*
X111443429Y-118752878D01*
X111439181Y-118750607D01*
X111439179Y-118750606D01*
X111439176Y-118750605D01*
X111439171Y-118750602D01*
X111293501Y-118690264D01*
X111293489Y-118690261D01*
X111138845Y-118659500D01*
X111138842Y-118659500D01*
X110981158Y-118659500D01*
X110981155Y-118659500D01*
X110826510Y-118690261D01*
X110826498Y-118690264D01*
X110680827Y-118750602D01*
X110680814Y-118750609D01*
X110549711Y-118838210D01*
X110549707Y-118838213D01*
X110438213Y-118949707D01*
X110438210Y-118949711D01*
X110350609Y-119080814D01*
X110350602Y-119080827D01*
X110290264Y-119226498D01*
X110290261Y-119226510D01*
X110259500Y-119381153D01*
X77790406Y-119381153D01*
X77751557Y-119261588D01*
X77655051Y-119072184D01*
X77655049Y-119072181D01*
X77655048Y-119072179D01*
X77530109Y-118900213D01*
X77379786Y-118749890D01*
X77207820Y-118624951D01*
X77205076Y-118623553D01*
X77199054Y-118620485D01*
X77148259Y-118572512D01*
X77131463Y-118504692D01*
X77153999Y-118438556D01*
X77199054Y-118399515D01*
X77207816Y-118395051D01*
X77270658Y-118349394D01*
X77379786Y-118270109D01*
X77379788Y-118270106D01*
X77379792Y-118270104D01*
X77530104Y-118119792D01*
X77530106Y-118119788D01*
X77530109Y-118119786D01*
X77655048Y-117947820D01*
X77655047Y-117947820D01*
X77655051Y-117947816D01*
X77751557Y-117758412D01*
X77817246Y-117556243D01*
X77840781Y-117407648D01*
X96629500Y-117407648D01*
X96629500Y-117612351D01*
X96661522Y-117814534D01*
X96724781Y-118009223D01*
X96779453Y-118116520D01*
X96796660Y-118150292D01*
X96817715Y-118191613D01*
X96938028Y-118357213D01*
X97082786Y-118501971D01*
X97192178Y-118581447D01*
X97248390Y-118622287D01*
X97364607Y-118681503D01*
X97430776Y-118715218D01*
X97430778Y-118715218D01*
X97430781Y-118715220D01*
X97535137Y-118749127D01*
X97625465Y-118778477D01*
X97639766Y-118780742D01*
X97827648Y-118810500D01*
X97827649Y-118810500D01*
X98032351Y-118810500D01*
X98032352Y-118810500D01*
X98234534Y-118778477D01*
X98429219Y-118715220D01*
X98611610Y-118622287D01*
X98710324Y-118550568D01*
X98777213Y-118501971D01*
X98777215Y-118501968D01*
X98777219Y-118501966D01*
X98921966Y-118357219D01*
X98921968Y-118357215D01*
X98921971Y-118357213D01*
X98974732Y-118284590D01*
X99042287Y-118191610D01*
X99135220Y-118009219D01*
X99198477Y-117814534D01*
X99230500Y-117612352D01*
X99230500Y-117407648D01*
X106789500Y-117407648D01*
X106789500Y-117612351D01*
X106821522Y-117814534D01*
X106884781Y-118009223D01*
X106939453Y-118116520D01*
X106956660Y-118150292D01*
X106977715Y-118191613D01*
X107098028Y-118357213D01*
X107242786Y-118501971D01*
X107352178Y-118581447D01*
X107408390Y-118622287D01*
X107524607Y-118681503D01*
X107590776Y-118715218D01*
X107590778Y-118715218D01*
X107590781Y-118715220D01*
X107695137Y-118749127D01*
X107785465Y-118778477D01*
X107799766Y-118780742D01*
X107987648Y-118810500D01*
X107987649Y-118810500D01*
X108192351Y-118810500D01*
X108192352Y-118810500D01*
X108394534Y-118778477D01*
X108589219Y-118715220D01*
X108771610Y-118622287D01*
X108870324Y-118550568D01*
X108937213Y-118501971D01*
X108937215Y-118501968D01*
X108937219Y-118501966D01*
X109081966Y-118357219D01*
X109081968Y-118357215D01*
X109081971Y-118357213D01*
X109134732Y-118284590D01*
X109202287Y-118191610D01*
X109295220Y-118009219D01*
X109358477Y-117814534D01*
X109390500Y-117612352D01*
X109390500Y-117407648D01*
X109369980Y-117278092D01*
X109358477Y-117205465D01*
X109305332Y-117041902D01*
X109295220Y-117010781D01*
X109295218Y-117010778D01*
X109295218Y-117010776D01*
X109254367Y-116930602D01*
X109202287Y-116828390D01*
X109176065Y-116792298D01*
X109081971Y-116662786D01*
X108937213Y-116518028D01*
X108771613Y-116397715D01*
X108771612Y-116397714D01*
X108771610Y-116397713D01*
X108698012Y-116360213D01*
X108589223Y-116304781D01*
X108394534Y-116241522D01*
X108219995Y-116213878D01*
X108192352Y-116209500D01*
X107987648Y-116209500D01*
X107963329Y-116213351D01*
X107785465Y-116241522D01*
X107590776Y-116304781D01*
X107408386Y-116397715D01*
X107242786Y-116518028D01*
X107098028Y-116662786D01*
X106977715Y-116828386D01*
X106884781Y-117010776D01*
X106821522Y-117205465D01*
X106789500Y-117407648D01*
X99230500Y-117407648D01*
X99209980Y-117278092D01*
X99198477Y-117205465D01*
X99145332Y-117041902D01*
X99135220Y-117010781D01*
X99135218Y-117010778D01*
X99135218Y-117010776D01*
X99094367Y-116930602D01*
X99042287Y-116828390D01*
X99016065Y-116792298D01*
X98921971Y-116662786D01*
X98777213Y-116518028D01*
X98611613Y-116397715D01*
X98611612Y-116397714D01*
X98611610Y-116397713D01*
X98538012Y-116360213D01*
X98429223Y-116304781D01*
X98234534Y-116241522D01*
X98059995Y-116213878D01*
X98032352Y-116209500D01*
X97827648Y-116209500D01*
X97803329Y-116213351D01*
X97625465Y-116241522D01*
X97430776Y-116304781D01*
X97248386Y-116397715D01*
X97082786Y-116518028D01*
X96938028Y-116662786D01*
X96817715Y-116828386D01*
X96724781Y-117010776D01*
X96661522Y-117205465D01*
X96629500Y-117407648D01*
X77840781Y-117407648D01*
X77850500Y-117346287D01*
X77850500Y-117133713D01*
X77817246Y-116923757D01*
X77751557Y-116721588D01*
X77655051Y-116532184D01*
X77655049Y-116532181D01*
X77655048Y-116532179D01*
X77530109Y-116360213D01*
X77379786Y-116209890D01*
X77207820Y-116084951D01*
X77207115Y-116084591D01*
X77199054Y-116080485D01*
X77148259Y-116032512D01*
X77131463Y-115964692D01*
X77153999Y-115898556D01*
X77199054Y-115859515D01*
X77207816Y-115855051D01*
X77325660Y-115769433D01*
X77379786Y-115730109D01*
X77379788Y-115730106D01*
X77379792Y-115730104D01*
X77530104Y-115579792D01*
X77530106Y-115579788D01*
X77530109Y-115579786D01*
X77655048Y-115407820D01*
X77655047Y-115407820D01*
X77655051Y-115407816D01*
X77751557Y-115218412D01*
X77817246Y-115016243D01*
X77850500Y-114806287D01*
X77850500Y-114593713D01*
X77817246Y-114383757D01*
X77760670Y-114209635D01*
X116269500Y-114209635D01*
X116269500Y-116210370D01*
X116269501Y-116210376D01*
X116275908Y-116269983D01*
X116326202Y-116404828D01*
X116326206Y-116404835D01*
X116412452Y-116520044D01*
X116412455Y-116520047D01*
X116527664Y-116606293D01*
X116527669Y-116606296D01*
X116555539Y-116616690D01*
X116611473Y-116658561D01*
X116635891Y-116724024D01*
X116621040Y-116792298D01*
X116612526Y-116805756D01*
X116582212Y-116847480D01*
X116479783Y-116988461D01*
X116375950Y-117192244D01*
X116305278Y-117409750D01*
X116305278Y-117409753D01*
X116269500Y-117635646D01*
X116269500Y-117864353D01*
X116305278Y-118090246D01*
X116305278Y-118090249D01*
X116375950Y-118307755D01*
X116420428Y-118395048D01*
X116479783Y-118511538D01*
X116614214Y-118696566D01*
X116775934Y-118858286D01*
X116845423Y-118908773D01*
X116860438Y-118919682D01*
X116903103Y-118975013D01*
X116909082Y-119044626D01*
X116876476Y-119106421D01*
X116860438Y-119120318D01*
X116775932Y-119181715D01*
X116614216Y-119343431D01*
X116614216Y-119343432D01*
X116614214Y-119343434D01*
X116586806Y-119381158D01*
X116479783Y-119528461D01*
X116375950Y-119732244D01*
X116305278Y-119949750D01*
X116305278Y-119949753D01*
X116269500Y-120175646D01*
X116269500Y-120404353D01*
X116305278Y-120630246D01*
X116305278Y-120630249D01*
X116375950Y-120847755D01*
X116462280Y-121017187D01*
X116479783Y-121051538D01*
X116614214Y-121236566D01*
X116775934Y-121398286D01*
X116960962Y-121532717D01*
X117023132Y-121564394D01*
X117164744Y-121636549D01*
X117382251Y-121707221D01*
X117382252Y-121707221D01*
X117382255Y-121707222D01*
X117608146Y-121743000D01*
X117608147Y-121743000D01*
X117931853Y-121743000D01*
X117931854Y-121743000D01*
X118157745Y-121707222D01*
X118157748Y-121707221D01*
X118157749Y-121707221D01*
X118375255Y-121636549D01*
X118375255Y-121636548D01*
X118375258Y-121636548D01*
X118579038Y-121532717D01*
X118764066Y-121398286D01*
X118925786Y-121236566D01*
X119060217Y-121051538D01*
X119164048Y-120847758D01*
X119176281Y-120810109D01*
X119234721Y-120630249D01*
X119234721Y-120630248D01*
X119234722Y-120630245D01*
X119270500Y-120404354D01*
X119270500Y-120175646D01*
X119234722Y-119949755D01*
X119164048Y-119732242D01*
X119060217Y-119528462D01*
X118925786Y-119343434D01*
X118764066Y-119181714D01*
X118679559Y-119120316D01*
X118636896Y-119064988D01*
X118630917Y-118995375D01*
X118663523Y-118933580D01*
X118679556Y-118919685D01*
X118764066Y-118858286D01*
X118925786Y-118696566D01*
X119060217Y-118511538D01*
X119164048Y-118307758D01*
X119176281Y-118270109D01*
X119234721Y-118090249D01*
X119234721Y-118090248D01*
X119234722Y-118090245D01*
X119270500Y-117864354D01*
X119270500Y-117635646D01*
X119234722Y-117409755D01*
X119234721Y-117409751D01*
X119234721Y-117409750D01*
X119164049Y-117192244D01*
X119113650Y-117093331D01*
X119087446Y-117041902D01*
X144819500Y-117041902D01*
X144819500Y-117278097D01*
X144856446Y-117511368D01*
X144929433Y-117735996D01*
X145036659Y-117946436D01*
X145106499Y-118042563D01*
X145129979Y-118108369D01*
X145114154Y-118176423D01*
X145080492Y-118214714D01*
X144962812Y-118302809D01*
X144962809Y-118302812D01*
X144876649Y-118417906D01*
X144876645Y-118417913D01*
X144826403Y-118552620D01*
X144826401Y-118552627D01*
X144820000Y-118612155D01*
X144820000Y-119410000D01*
X145611759Y-119410000D01*
X145598822Y-119441233D01*
X145570000Y-119586131D01*
X145570000Y-119733869D01*
X145598822Y-119878767D01*
X145611759Y-119910000D01*
X144820000Y-119910000D01*
X144820000Y-120707844D01*
X144826401Y-120767372D01*
X144826403Y-120767379D01*
X144876645Y-120902086D01*
X144876649Y-120902093D01*
X144962809Y-121017187D01*
X144962812Y-121017190D01*
X145077906Y-121103350D01*
X145077913Y-121103354D01*
X145212620Y-121153596D01*
X145212627Y-121153598D01*
X145272155Y-121159999D01*
X145272172Y-121160000D01*
X146070000Y-121160000D01*
X146070000Y-120368240D01*
X146101233Y-120381178D01*
X146246131Y-120410000D01*
X146393869Y-120410000D01*
X146538767Y-120381178D01*
X146570000Y-120368240D01*
X146570000Y-121160000D01*
X147367828Y-121160000D01*
X147367844Y-121159999D01*
X147427372Y-121153598D01*
X147427379Y-121153596D01*
X147562086Y-121103354D01*
X147562093Y-121103350D01*
X147677187Y-121017190D01*
X147677190Y-121017187D01*
X147763350Y-120902093D01*
X147763354Y-120902086D01*
X147813596Y-120767379D01*
X147813598Y-120767372D01*
X147819999Y-120707844D01*
X147820000Y-120707827D01*
X147820000Y-119910000D01*
X147028241Y-119910000D01*
X147041178Y-119878767D01*
X147070000Y-119733869D01*
X147070000Y-119586131D01*
X147041178Y-119441233D01*
X147028241Y-119410000D01*
X147820000Y-119410000D01*
X147820000Y-118612172D01*
X147819999Y-118612155D01*
X147813598Y-118552627D01*
X147813596Y-118552620D01*
X147763354Y-118417913D01*
X147763350Y-118417906D01*
X147677190Y-118302812D01*
X147559506Y-118214713D01*
X147517636Y-118158779D01*
X147512652Y-118089088D01*
X147533500Y-118042563D01*
X147603343Y-117946433D01*
X147710568Y-117735992D01*
X147783553Y-117511368D01*
X147800163Y-117406498D01*
X147820500Y-117278097D01*
X147820500Y-117041902D01*
X147783553Y-116808631D01*
X147736234Y-116662999D01*
X147710568Y-116584008D01*
X147710566Y-116584005D01*
X147710566Y-116584003D01*
X147654002Y-116472991D01*
X147603343Y-116373567D01*
X147464517Y-116182490D01*
X147297510Y-116015483D01*
X147106433Y-115876657D01*
X147064023Y-115855048D01*
X146895996Y-115769433D01*
X146671368Y-115696446D01*
X146438097Y-115659500D01*
X146438092Y-115659500D01*
X146201908Y-115659500D01*
X146201903Y-115659500D01*
X145968631Y-115696446D01*
X145744003Y-115769433D01*
X145533566Y-115876657D01*
X145430476Y-115951557D01*
X145342490Y-116015483D01*
X145342488Y-116015485D01*
X145342487Y-116015485D01*
X145175485Y-116182487D01*
X145175485Y-116182488D01*
X145175483Y-116182490D01*
X145133160Y-116240742D01*
X145036657Y-116373566D01*
X144929433Y-116584003D01*
X144856446Y-116808631D01*
X144819500Y-117041902D01*
X119087446Y-117041902D01*
X119060217Y-116988462D01*
X118927472Y-116805755D01*
X118903994Y-116739953D01*
X118919819Y-116671899D01*
X118969925Y-116623204D01*
X118984455Y-116616692D01*
X119012331Y-116606296D01*
X119127546Y-116520046D01*
X119213796Y-116404831D01*
X119264091Y-116269983D01*
X119270500Y-116210373D01*
X119270499Y-114209628D01*
X119264091Y-114150017D01*
X119213796Y-114015169D01*
X119213795Y-114015168D01*
X119213793Y-114015164D01*
X119127547Y-113899955D01*
X119127544Y-113899952D01*
X119012335Y-113813706D01*
X119012328Y-113813702D01*
X118877482Y-113763408D01*
X118877483Y-113763408D01*
X118817883Y-113757001D01*
X118817881Y-113757000D01*
X118817873Y-113757000D01*
X118817864Y-113757000D01*
X116722129Y-113757000D01*
X116722123Y-113757001D01*
X116662516Y-113763408D01*
X116527671Y-113813702D01*
X116527664Y-113813706D01*
X116412455Y-113899952D01*
X116412452Y-113899955D01*
X116326206Y-114015164D01*
X116326202Y-114015171D01*
X116275908Y-114150017D01*
X116269501Y-114209616D01*
X116269501Y-114209623D01*
X116269500Y-114209635D01*
X77760670Y-114209635D01*
X77751557Y-114181588D01*
X77655051Y-113992184D01*
X77655049Y-113992181D01*
X77655048Y-113992179D01*
X77530109Y-113820213D01*
X77379786Y-113669890D01*
X77207820Y-113544951D01*
X77207115Y-113544591D01*
X77199054Y-113540485D01*
X77148259Y-113492512D01*
X77131463Y-113424692D01*
X77153999Y-113358556D01*
X77199054Y-113319515D01*
X77207816Y-113315051D01*
X77229789Y-113299086D01*
X77379786Y-113190109D01*
X77379788Y-113190106D01*
X77379792Y-113190104D01*
X77530104Y-113039792D01*
X77530106Y-113039788D01*
X77530109Y-113039786D01*
X77655048Y-112867820D01*
X77655047Y-112867820D01*
X77655051Y-112867816D01*
X77751557Y-112678412D01*
X77817246Y-112476243D01*
X77850500Y-112266287D01*
X77850500Y-112053713D01*
X77817246Y-111843757D01*
X77751557Y-111641588D01*
X77655051Y-111452184D01*
X77655049Y-111452181D01*
X77655048Y-111452179D01*
X77530109Y-111280213D01*
X77379786Y-111129890D01*
X77207820Y-111004951D01*
X77207115Y-111004591D01*
X77199054Y-111000485D01*
X77148259Y-110952512D01*
X77131463Y-110884692D01*
X77153999Y-110818556D01*
X77199054Y-110779515D01*
X77207816Y-110775051D01*
X77229789Y-110759086D01*
X77379786Y-110650109D01*
X77379788Y-110650106D01*
X77379792Y-110650104D01*
X77530104Y-110499792D01*
X77530106Y-110499788D01*
X77530109Y-110499786D01*
X77642574Y-110344989D01*
X77655051Y-110327816D01*
X77751557Y-110138412D01*
X77817246Y-109936243D01*
X77850500Y-109726287D01*
X77850500Y-109513713D01*
X77817246Y-109303757D01*
X77751557Y-109101588D01*
X77655051Y-108912184D01*
X77655049Y-108912181D01*
X77655048Y-108912179D01*
X77530109Y-108740213D01*
X77379786Y-108589890D01*
X77207820Y-108464951D01*
X77207115Y-108464591D01*
X77199054Y-108460485D01*
X77148259Y-108412512D01*
X77131463Y-108344692D01*
X77153999Y-108278556D01*
X77199054Y-108239515D01*
X77207816Y-108235051D01*
X77229789Y-108219086D01*
X77379786Y-108110109D01*
X77379788Y-108110106D01*
X77379792Y-108110104D01*
X77530104Y-107959792D01*
X77530106Y-107959788D01*
X77530109Y-107959786D01*
X77642574Y-107804989D01*
X77655051Y-107787816D01*
X77751557Y-107598412D01*
X77817246Y-107396243D01*
X77850500Y-107186287D01*
X77850500Y-106973713D01*
X77817246Y-106763757D01*
X77751557Y-106561588D01*
X77655051Y-106372184D01*
X77655049Y-106372181D01*
X77655048Y-106372179D01*
X77530109Y-106200213D01*
X77379786Y-106049890D01*
X77207820Y-105924951D01*
X77207115Y-105924591D01*
X77199054Y-105920485D01*
X77148259Y-105872512D01*
X77131463Y-105804692D01*
X77153999Y-105738556D01*
X77199054Y-105699515D01*
X77207816Y-105695051D01*
X77229789Y-105679086D01*
X77379786Y-105570109D01*
X77379788Y-105570106D01*
X77379792Y-105570104D01*
X77530104Y-105419792D01*
X77530106Y-105419788D01*
X77530109Y-105419786D01*
X77655048Y-105247820D01*
X77655047Y-105247820D01*
X77655051Y-105247816D01*
X77751557Y-105058412D01*
X77817246Y-104856243D01*
X77850500Y-104646287D01*
X77850500Y-104433713D01*
X77817246Y-104223757D01*
X77751557Y-104021588D01*
X77655051Y-103832184D01*
X77655049Y-103832181D01*
X77655048Y-103832179D01*
X77530109Y-103660213D01*
X77416181Y-103546285D01*
X77382696Y-103484962D01*
X77387680Y-103415270D01*
X77429552Y-103359337D01*
X77460529Y-103342422D01*
X77592086Y-103293354D01*
X77592093Y-103293350D01*
X77707187Y-103207190D01*
X77707190Y-103207187D01*
X77793350Y-103092093D01*
X77793354Y-103092086D01*
X77843596Y-102957379D01*
X77843598Y-102957372D01*
X77849999Y-102897844D01*
X77850000Y-102897827D01*
X77850000Y-102250000D01*
X76933012Y-102250000D01*
X76965925Y-102192993D01*
X77000000Y-102065826D01*
X77000000Y-101934174D01*
X76965925Y-101807007D01*
X76933012Y-101750000D01*
X77850000Y-101750000D01*
X77850000Y-101102172D01*
X77849999Y-101102155D01*
X77843598Y-101042627D01*
X77843596Y-101042620D01*
X77793354Y-100907913D01*
X77793350Y-100907906D01*
X77707190Y-100792813D01*
X77671778Y-100766303D01*
X77671777Y-100766302D01*
X77592089Y-100706647D01*
X77592086Y-100706645D01*
X77498934Y-100671902D01*
X82369500Y-100671902D01*
X82369500Y-100908097D01*
X82406446Y-101141368D01*
X82479433Y-101365996D01*
X82586657Y-101576433D01*
X82725483Y-101767510D01*
X82892490Y-101934517D01*
X83083567Y-102073343D01*
X83123632Y-102093757D01*
X83294003Y-102180566D01*
X83294005Y-102180566D01*
X83294008Y-102180568D01*
X83342845Y-102196436D01*
X83518631Y-102253553D01*
X83751903Y-102290500D01*
X83751908Y-102290500D01*
X83988097Y-102290500D01*
X84221368Y-102253553D01*
X84232303Y-102250000D01*
X84445992Y-102180568D01*
X84656433Y-102073343D01*
X84847510Y-101934517D01*
X85014517Y-101767510D01*
X85153343Y-101576433D01*
X85260568Y-101365992D01*
X85333553Y-101141368D01*
X85349193Y-101042620D01*
X85370500Y-100908097D01*
X85370500Y-100671902D01*
X85333553Y-100438631D01*
X85276683Y-100263606D01*
X85260568Y-100214008D01*
X85260566Y-100214005D01*
X85260566Y-100214003D01*
X85183622Y-100062993D01*
X85153343Y-100003567D01*
X85014517Y-99812490D01*
X84847510Y-99645483D01*
X84656433Y-99506657D01*
X84445996Y-99399433D01*
X84221368Y-99326446D01*
X83988097Y-99289500D01*
X83988092Y-99289500D01*
X83751908Y-99289500D01*
X83751903Y-99289500D01*
X83518631Y-99326446D01*
X83294003Y-99399433D01*
X83083566Y-99506657D01*
X83018585Y-99553869D01*
X82892490Y-99645483D01*
X82892488Y-99645485D01*
X82892487Y-99645485D01*
X82725485Y-99812487D01*
X82725485Y-99812488D01*
X82725483Y-99812490D01*
X82667200Y-99892710D01*
X82586657Y-100003566D01*
X82479433Y-100214003D01*
X82406446Y-100438631D01*
X82369500Y-100671902D01*
X77498934Y-100671902D01*
X77457379Y-100656403D01*
X77457372Y-100656401D01*
X77397844Y-100650000D01*
X76750000Y-100650000D01*
X76750000Y-101566988D01*
X76692993Y-101534075D01*
X76565826Y-101500000D01*
X76434174Y-101500000D01*
X76307007Y-101534075D01*
X76250000Y-101566988D01*
X76250000Y-100650000D01*
X75602155Y-100650000D01*
X75542627Y-100656401D01*
X75542619Y-100656403D01*
X75457333Y-100688213D01*
X75387641Y-100693197D01*
X75326318Y-100659712D01*
X75292834Y-100598388D01*
X75290000Y-100572031D01*
X75290000Y-95671947D01*
X82370000Y-95671947D01*
X82370000Y-95908052D01*
X82406934Y-96141247D01*
X82479897Y-96365802D01*
X82587087Y-96576174D01*
X82647338Y-96659104D01*
X82647340Y-96659105D01*
X83387037Y-95919408D01*
X83404075Y-95982993D01*
X83469901Y-96097007D01*
X83562993Y-96190099D01*
X83677007Y-96255925D01*
X83740590Y-96272962D01*
X83000893Y-97012658D01*
X83083828Y-97072914D01*
X83294197Y-97180102D01*
X83518752Y-97253065D01*
X83518751Y-97253065D01*
X83751948Y-97290000D01*
X83988052Y-97290000D01*
X84221247Y-97253065D01*
X84445802Y-97180102D01*
X84656163Y-97072918D01*
X84656169Y-97072914D01*
X84739104Y-97012658D01*
X84739105Y-97012658D01*
X83999408Y-96272962D01*
X84062993Y-96255925D01*
X84177007Y-96190099D01*
X84270099Y-96097007D01*
X84335925Y-95982993D01*
X84352962Y-95919409D01*
X85092658Y-96659105D01*
X85092658Y-96659104D01*
X85152914Y-96576169D01*
X85152918Y-96576163D01*
X85260102Y-96365802D01*
X85310108Y-96211902D01*
X93589500Y-96211902D01*
X93589500Y-96448097D01*
X93626446Y-96681368D01*
X93699433Y-96905996D01*
X93753781Y-97012658D01*
X93806657Y-97116433D01*
X93945483Y-97307510D01*
X94112490Y-97474517D01*
X94147127Y-97499683D01*
X94189792Y-97555013D01*
X94195771Y-97624626D01*
X94163165Y-97686421D01*
X94147130Y-97700315D01*
X94129365Y-97713222D01*
X94112488Y-97725484D01*
X93945485Y-97892487D01*
X93945485Y-97892488D01*
X93945483Y-97892490D01*
X93885862Y-97974550D01*
X93806657Y-98083566D01*
X93699433Y-98294003D01*
X93626446Y-98518631D01*
X93589500Y-98751902D01*
X93589500Y-98988097D01*
X93626446Y-99221368D01*
X93699433Y-99445996D01*
X93787754Y-99619334D01*
X93806657Y-99656433D01*
X93945483Y-99847510D01*
X94112490Y-100014517D01*
X94179211Y-100062993D01*
X94198309Y-100076868D01*
X94240975Y-100132198D01*
X94246954Y-100201811D01*
X94214348Y-100263606D01*
X94213105Y-100264867D01*
X94045486Y-100432486D01*
X94045485Y-100432488D01*
X94045483Y-100432490D01*
X94041021Y-100438632D01*
X93906657Y-100623566D01*
X93799433Y-100834003D01*
X93726446Y-101058631D01*
X93689500Y-101291902D01*
X93689500Y-101528097D01*
X93726446Y-101761368D01*
X93799433Y-101985996D01*
X93897016Y-102177511D01*
X93906657Y-102196433D01*
X94045483Y-102387510D01*
X94212490Y-102554517D01*
X94247127Y-102579683D01*
X94289792Y-102635013D01*
X94295771Y-102704626D01*
X94263165Y-102766421D01*
X94247130Y-102780315D01*
X94229365Y-102793222D01*
X94212488Y-102805484D01*
X94045485Y-102972487D01*
X94045485Y-102972488D01*
X94045483Y-102972490D01*
X93985862Y-103054550D01*
X93906657Y-103163566D01*
X93799433Y-103374003D01*
X93726446Y-103598631D01*
X93689500Y-103831902D01*
X93689500Y-104068097D01*
X93726446Y-104301368D01*
X93799433Y-104525996D01*
X93860725Y-104646287D01*
X93906657Y-104736433D01*
X94045483Y-104927510D01*
X94212490Y-105094517D01*
X94247127Y-105119683D01*
X94289792Y-105175013D01*
X94295771Y-105244626D01*
X94263165Y-105306421D01*
X94247130Y-105320315D01*
X94229365Y-105333222D01*
X94212488Y-105345484D01*
X94045485Y-105512487D01*
X94045485Y-105512488D01*
X94045483Y-105512490D01*
X94031397Y-105531878D01*
X93906657Y-105703566D01*
X93799433Y-105914003D01*
X93726446Y-106138631D01*
X93689500Y-106371902D01*
X93689500Y-106608097D01*
X93726446Y-106841368D01*
X93799433Y-107065996D01*
X93860725Y-107186287D01*
X93906657Y-107276433D01*
X94045483Y-107467510D01*
X94045485Y-107467512D01*
X94212490Y-107634517D01*
X94233364Y-107649683D01*
X94276029Y-107705014D01*
X94282007Y-107774627D01*
X94249400Y-107836422D01*
X94233364Y-107850317D01*
X94212490Y-107865482D01*
X94045485Y-108032487D01*
X94045485Y-108032488D01*
X94045483Y-108032490D01*
X94014908Y-108074573D01*
X93906657Y-108223566D01*
X93799433Y-108434003D01*
X93726446Y-108658631D01*
X93689500Y-108891902D01*
X93689500Y-109128097D01*
X93726446Y-109361368D01*
X93799433Y-109585996D01*
X93872389Y-109729179D01*
X93906657Y-109796433D01*
X94045483Y-109987510D01*
X94045485Y-109987512D01*
X94212490Y-110154517D01*
X94260891Y-110189683D01*
X94303556Y-110245013D01*
X94309534Y-110314627D01*
X94276927Y-110376421D01*
X94260891Y-110390317D01*
X94212490Y-110425482D01*
X94045485Y-110592487D01*
X94045485Y-110592488D01*
X94045483Y-110592490D01*
X94038857Y-110601610D01*
X93906657Y-110783566D01*
X93799433Y-110994003D01*
X93726446Y-111218631D01*
X93689500Y-111451902D01*
X93689500Y-111688097D01*
X93726446Y-111921368D01*
X93799433Y-112145996D01*
X93860725Y-112266287D01*
X93906657Y-112356433D01*
X94045483Y-112547510D01*
X94212490Y-112714517D01*
X94403567Y-112853343D01*
X94431980Y-112867820D01*
X94614003Y-112960566D01*
X94614005Y-112960566D01*
X94614008Y-112960568D01*
X94734412Y-112999689D01*
X94838631Y-113033553D01*
X95071903Y-113070500D01*
X95071908Y-113070500D01*
X95308097Y-113070500D01*
X95541368Y-113033553D01*
X95765992Y-112960568D01*
X95976433Y-112853343D01*
X96167510Y-112714517D01*
X96334517Y-112547510D01*
X96473343Y-112356433D01*
X96580568Y-112145992D01*
X96653553Y-111921368D01*
X96665845Y-111843760D01*
X96690500Y-111688097D01*
X96690500Y-111451902D01*
X96653553Y-111218631D01*
X96619689Y-111114412D01*
X96580568Y-110994008D01*
X96580566Y-110994005D01*
X96580566Y-110994003D01*
X96495723Y-110827491D01*
X96473343Y-110783567D01*
X96334517Y-110592490D01*
X96167510Y-110425483D01*
X96119108Y-110390316D01*
X96076443Y-110334989D01*
X96070464Y-110265375D01*
X96103069Y-110203580D01*
X96119108Y-110189683D01*
X96167510Y-110154517D01*
X96334517Y-109987510D01*
X96473343Y-109796433D01*
X96580568Y-109585992D01*
X96653553Y-109361368D01*
X96667842Y-109271153D01*
X100449500Y-109271153D01*
X100449500Y-109428846D01*
X100480261Y-109583489D01*
X100480264Y-109583501D01*
X100540602Y-109729172D01*
X100540609Y-109729185D01*
X100628210Y-109860288D01*
X100628213Y-109860292D01*
X100739707Y-109971786D01*
X100739711Y-109971789D01*
X100870814Y-110059390D01*
X100870827Y-110059397D01*
X101016498Y-110119735D01*
X101016503Y-110119737D01*
X101171153Y-110150499D01*
X101171156Y-110150500D01*
X101171158Y-110150500D01*
X101328844Y-110150500D01*
X101328845Y-110150499D01*
X101483497Y-110119737D01*
X101629179Y-110059394D01*
X101760289Y-109971789D01*
X101871789Y-109860289D01*
X101959394Y-109729179D01*
X102019737Y-109583497D01*
X102035739Y-109503046D01*
X102068121Y-109441139D01*
X102069614Y-109439619D01*
X103434664Y-108074571D01*
X103495985Y-108041088D01*
X103498152Y-108040637D01*
X103498841Y-108040500D01*
X103498842Y-108040500D01*
X103653497Y-108009737D01*
X103799179Y-107949394D01*
X103930289Y-107861789D01*
X104041789Y-107750289D01*
X104129394Y-107619179D01*
X104189737Y-107473497D01*
X104220500Y-107318842D01*
X104220500Y-107161158D01*
X104220500Y-107161155D01*
X104220499Y-107161153D01*
X104189738Y-107006510D01*
X104189738Y-107006508D01*
X104189737Y-107006503D01*
X104169915Y-106958648D01*
X104129397Y-106860827D01*
X104129390Y-106860814D01*
X104041789Y-106729711D01*
X104041786Y-106729707D01*
X103930292Y-106618213D01*
X103930288Y-106618210D01*
X103799185Y-106530609D01*
X103799172Y-106530602D01*
X103653501Y-106470264D01*
X103653489Y-106470261D01*
X103498845Y-106439500D01*
X103498842Y-106439500D01*
X103341158Y-106439500D01*
X103341155Y-106439500D01*
X103186510Y-106470261D01*
X103186498Y-106470264D01*
X103040827Y-106530602D01*
X103040814Y-106530609D01*
X102909711Y-106618210D01*
X102909707Y-106618213D01*
X102798213Y-106729707D01*
X102798210Y-106729711D01*
X102710609Y-106860814D01*
X102710602Y-106860827D01*
X102650264Y-107006498D01*
X102650261Y-107006508D01*
X102619362Y-107161848D01*
X102586977Y-107223759D01*
X102585426Y-107225337D01*
X101297584Y-108513181D01*
X101236261Y-108546666D01*
X101209903Y-108549500D01*
X101171155Y-108549500D01*
X101016510Y-108580261D01*
X101016498Y-108580264D01*
X100870827Y-108640602D01*
X100870814Y-108640609D01*
X100739711Y-108728210D01*
X100739707Y-108728213D01*
X100628213Y-108839707D01*
X100628210Y-108839711D01*
X100540609Y-108970814D01*
X100540602Y-108970827D01*
X100480264Y-109116498D01*
X100480261Y-109116510D01*
X100449500Y-109271153D01*
X96667842Y-109271153D01*
X96687332Y-109148097D01*
X96690500Y-109128096D01*
X96690500Y-108891902D01*
X96653553Y-108658631D01*
X96589171Y-108460486D01*
X96580568Y-108434008D01*
X96580566Y-108434005D01*
X96580566Y-108434003D01*
X96501361Y-108278556D01*
X96473343Y-108223567D01*
X96334517Y-108032490D01*
X96167510Y-107865483D01*
X96146636Y-107850317D01*
X96103971Y-107794989D01*
X96097992Y-107725375D01*
X96130597Y-107663580D01*
X96146637Y-107649682D01*
X96167510Y-107634517D01*
X96334517Y-107467510D01*
X96473343Y-107276433D01*
X96580568Y-107065992D01*
X96653553Y-106841368D01*
X96665845Y-106763760D01*
X96690500Y-106608097D01*
X96690500Y-106371902D01*
X96664440Y-106207367D01*
X96661918Y-106191441D01*
X97239500Y-106191441D01*
X97239500Y-106828558D01*
X97254157Y-106958648D01*
X97254159Y-106958658D01*
X97291719Y-107065996D01*
X97311878Y-107123606D01*
X97404853Y-107271576D01*
X97528424Y-107395147D01*
X97676394Y-107488122D01*
X97841343Y-107545841D01*
X97841349Y-107545841D01*
X97841351Y-107545842D01*
X97882750Y-107550506D01*
X97971442Y-107560499D01*
X97971445Y-107560500D01*
X97971448Y-107560500D01*
X100008555Y-107560500D01*
X100008556Y-107560499D01*
X100138657Y-107545841D01*
X100303606Y-107488122D01*
X100451576Y-107395147D01*
X100575147Y-107271576D01*
X100668122Y-107123606D01*
X100725841Y-106958657D01*
X100740500Y-106828552D01*
X100740500Y-106191448D01*
X100725841Y-106061343D01*
X100668122Y-105896394D01*
X100575147Y-105748424D01*
X100451576Y-105624853D01*
X100303606Y-105531878D01*
X100303605Y-105531877D01*
X100303604Y-105531877D01*
X100138658Y-105474159D01*
X100138648Y-105474157D01*
X100008558Y-105459500D01*
X100008552Y-105459500D01*
X97971448Y-105459500D01*
X97971441Y-105459500D01*
X97841351Y-105474157D01*
X97841341Y-105474159D01*
X97676395Y-105531877D01*
X97528423Y-105624853D01*
X97404853Y-105748423D01*
X97311877Y-105896395D01*
X97254159Y-106061341D01*
X97254157Y-106061351D01*
X97239500Y-106191441D01*
X96661918Y-106191441D01*
X96653553Y-106138631D01*
X96619689Y-106034412D01*
X96580568Y-105914008D01*
X96580566Y-105914005D01*
X96580566Y-105914003D01*
X96495723Y-105747491D01*
X96473343Y-105703567D01*
X96334517Y-105512490D01*
X96167510Y-105345483D01*
X96132872Y-105320317D01*
X96090207Y-105264989D01*
X96084228Y-105195375D01*
X96116833Y-105133580D01*
X96132873Y-105119682D01*
X96167510Y-105094517D01*
X96334517Y-104927510D01*
X96473343Y-104736433D01*
X96580568Y-104525992D01*
X96653553Y-104301368D01*
X96665845Y-104223760D01*
X96690500Y-104068097D01*
X96690500Y-103831902D01*
X96653553Y-103598631D01*
X96616619Y-103484962D01*
X96580568Y-103374008D01*
X96580566Y-103374005D01*
X96580566Y-103374003D01*
X96495568Y-103207187D01*
X96473343Y-103163567D01*
X96334517Y-102972490D01*
X96167510Y-102805483D01*
X96132872Y-102780317D01*
X96090207Y-102724989D01*
X96084228Y-102655375D01*
X96116833Y-102593580D01*
X96132873Y-102579682D01*
X96167510Y-102554517D01*
X96334517Y-102387510D01*
X96473343Y-102196433D01*
X96580568Y-101985992D01*
X96653553Y-101761368D01*
X96662928Y-101702179D01*
X96690500Y-101528097D01*
X96690500Y-101291902D01*
X96653553Y-101058631D01*
X96580566Y-100834003D01*
X96497971Y-100671902D01*
X96473343Y-100623567D01*
X96334517Y-100432490D01*
X96167510Y-100265483D01*
X96081689Y-100203130D01*
X96039024Y-100147801D01*
X96033045Y-100078188D01*
X96065651Y-100016393D01*
X96066894Y-100015132D01*
X96067506Y-100014519D01*
X96067510Y-100014517D01*
X96234517Y-99847510D01*
X96373343Y-99656433D01*
X96480568Y-99445992D01*
X96553553Y-99221368D01*
X96562885Y-99162449D01*
X96590500Y-98988097D01*
X96590500Y-98751902D01*
X96553553Y-98518631D01*
X96544727Y-98491469D01*
X97240000Y-98491469D01*
X97240000Y-99128530D01*
X97254648Y-99258539D01*
X97312330Y-99423386D01*
X97405246Y-99571262D01*
X97528740Y-99694756D01*
X97665659Y-99780787D01*
X97703223Y-99743224D01*
X98590000Y-98856447D01*
X98590000Y-98862661D01*
X98617259Y-98964394D01*
X98669920Y-99055606D01*
X98744394Y-99130080D01*
X98835606Y-99182741D01*
X98937339Y-99210000D01*
X98943552Y-99210000D01*
X98293551Y-99859999D01*
X98293552Y-99860000D01*
X99686448Y-99860000D01*
X99686448Y-99859999D01*
X99036448Y-99210000D01*
X99042661Y-99210000D01*
X99144394Y-99182741D01*
X99235606Y-99130080D01*
X99310080Y-99055606D01*
X99362741Y-98964394D01*
X99390000Y-98862661D01*
X99390000Y-98856448D01*
X100314338Y-99780786D01*
X100451259Y-99694755D01*
X100451262Y-99694753D01*
X100574753Y-99571262D01*
X100667669Y-99423386D01*
X100725351Y-99258539D01*
X100739999Y-99128530D01*
X100740000Y-99128526D01*
X100740000Y-98491473D01*
X100739999Y-98491469D01*
X100725351Y-98361460D01*
X100667669Y-98196613D01*
X100574753Y-98048737D01*
X100451262Y-97925246D01*
X100314338Y-97839212D01*
X99390000Y-98763550D01*
X99390000Y-98757339D01*
X99362741Y-98655606D01*
X99310080Y-98564394D01*
X99235606Y-98489920D01*
X99144394Y-98437259D01*
X99042661Y-98410000D01*
X99036448Y-98410000D01*
X99686448Y-97760000D01*
X98293551Y-97760000D01*
X98943552Y-98410000D01*
X98937339Y-98410000D01*
X98835606Y-98437259D01*
X98744394Y-98489920D01*
X98669920Y-98564394D01*
X98617259Y-98655606D01*
X98590000Y-98757339D01*
X98590000Y-98763552D01*
X97665660Y-97839212D01*
X97528737Y-97925246D01*
X97405246Y-98048737D01*
X97312330Y-98196613D01*
X97254648Y-98361460D01*
X97240000Y-98491469D01*
X96544727Y-98491469D01*
X96505259Y-98370000D01*
X96480568Y-98294008D01*
X96480566Y-98294005D01*
X96480566Y-98294003D01*
X96407188Y-98149991D01*
X96373343Y-98083567D01*
X96234517Y-97892490D01*
X96067510Y-97725483D01*
X96032872Y-97700317D01*
X95990207Y-97644989D01*
X95984228Y-97575375D01*
X96016833Y-97513580D01*
X96032873Y-97499682D01*
X96067510Y-97474517D01*
X96234517Y-97307510D01*
X96373343Y-97116433D01*
X96480568Y-96905992D01*
X96553553Y-96681368D01*
X96570216Y-96576163D01*
X96590500Y-96448097D01*
X96590500Y-96211902D01*
X108589500Y-96211902D01*
X108589500Y-96448097D01*
X108626446Y-96681368D01*
X108699433Y-96905996D01*
X108753781Y-97012658D01*
X108806657Y-97116433D01*
X108945483Y-97307510D01*
X109112490Y-97474517D01*
X109171716Y-97517547D01*
X109214381Y-97572875D01*
X109222448Y-97627593D01*
X109220893Y-97647340D01*
X109960591Y-98387037D01*
X109897007Y-98404075D01*
X109782993Y-98469901D01*
X109689901Y-98562993D01*
X109624075Y-98677007D01*
X109607037Y-98740591D01*
X108867340Y-98000894D01*
X108807084Y-98083830D01*
X108699897Y-98294197D01*
X108626934Y-98518752D01*
X108590000Y-98751947D01*
X108590000Y-98988052D01*
X108626934Y-99221247D01*
X108699897Y-99445802D01*
X108807087Y-99656174D01*
X108867338Y-99739104D01*
X108867340Y-99739105D01*
X109607037Y-98999408D01*
X109624075Y-99062993D01*
X109689901Y-99177007D01*
X109782993Y-99270099D01*
X109897007Y-99335925D01*
X109960590Y-99352962D01*
X109220893Y-100092658D01*
X109222448Y-100112405D01*
X109208084Y-100180783D01*
X109171717Y-100222451D01*
X109112490Y-100265482D01*
X108945485Y-100432487D01*
X108945485Y-100432488D01*
X108945483Y-100432490D01*
X108941021Y-100438632D01*
X108806657Y-100623566D01*
X108699433Y-100834003D01*
X108626446Y-101058631D01*
X108589500Y-101291902D01*
X108589500Y-101528097D01*
X108626446Y-101761368D01*
X108699433Y-101985996D01*
X108797016Y-102177511D01*
X108806657Y-102196433D01*
X108945483Y-102387510D01*
X109112490Y-102554517D01*
X109147127Y-102579683D01*
X109189792Y-102635013D01*
X109195771Y-102704626D01*
X109163165Y-102766421D01*
X109147130Y-102780315D01*
X109129365Y-102793222D01*
X109112488Y-102805484D01*
X108945485Y-102972487D01*
X108945485Y-102972488D01*
X108945483Y-102972490D01*
X108885862Y-103054550D01*
X108806657Y-103163566D01*
X108699433Y-103374003D01*
X108626446Y-103598631D01*
X108589500Y-103831902D01*
X108589500Y-104068097D01*
X108626446Y-104301368D01*
X108699433Y-104525996D01*
X108760725Y-104646287D01*
X108806657Y-104736433D01*
X108945483Y-104927510D01*
X109112490Y-105094517D01*
X109147127Y-105119683D01*
X109189792Y-105175013D01*
X109195771Y-105244626D01*
X109163165Y-105306421D01*
X109147130Y-105320315D01*
X109129365Y-105333222D01*
X109112488Y-105345484D01*
X108945485Y-105512487D01*
X108945485Y-105512488D01*
X108945483Y-105512490D01*
X108931397Y-105531878D01*
X108806657Y-105703566D01*
X108699433Y-105914003D01*
X108626446Y-106138631D01*
X108589500Y-106371902D01*
X108589500Y-106608097D01*
X108626446Y-106841368D01*
X108699433Y-107065996D01*
X108760725Y-107186287D01*
X108806657Y-107276433D01*
X108945483Y-107467510D01*
X109112490Y-107634517D01*
X109147127Y-107659683D01*
X109189792Y-107715013D01*
X109195771Y-107784626D01*
X109163165Y-107846421D01*
X109147130Y-107860315D01*
X109140015Y-107865485D01*
X109112488Y-107885484D01*
X108945485Y-108052487D01*
X108945485Y-108052488D01*
X108945483Y-108052490D01*
X108929439Y-108074573D01*
X108806657Y-108243566D01*
X108699433Y-108454003D01*
X108626446Y-108678631D01*
X108589500Y-108911902D01*
X108589500Y-109148097D01*
X108626446Y-109381368D01*
X108699433Y-109605996D01*
X108762202Y-109729185D01*
X108806657Y-109816433D01*
X108945483Y-110007510D01*
X109112490Y-110174517D01*
X109147127Y-110199683D01*
X109189792Y-110255013D01*
X109195771Y-110324626D01*
X109163165Y-110386421D01*
X109147130Y-110400315D01*
X109129365Y-110413222D01*
X109112488Y-110425484D01*
X108945485Y-110592487D01*
X108945485Y-110592488D01*
X108945483Y-110592490D01*
X108938857Y-110601610D01*
X108806657Y-110783566D01*
X108699433Y-110994003D01*
X108626446Y-111218631D01*
X108589500Y-111451902D01*
X108589500Y-111688097D01*
X108626446Y-111921368D01*
X108699433Y-112145996D01*
X108760725Y-112266287D01*
X108806657Y-112356433D01*
X108945483Y-112547510D01*
X109112490Y-112714517D01*
X109303567Y-112853343D01*
X109331980Y-112867820D01*
X109514003Y-112960566D01*
X109514005Y-112960566D01*
X109514008Y-112960568D01*
X109634412Y-112999689D01*
X109738631Y-113033553D01*
X109971903Y-113070500D01*
X109971908Y-113070500D01*
X110208097Y-113070500D01*
X110441368Y-113033553D01*
X110665992Y-112960568D01*
X110876433Y-112853343D01*
X111067510Y-112714517D01*
X111234517Y-112547510D01*
X111373343Y-112356433D01*
X111480568Y-112145992D01*
X111553553Y-111921368D01*
X111565845Y-111843760D01*
X111590500Y-111688097D01*
X111590500Y-111451902D01*
X111553553Y-111218631D01*
X111519689Y-111114412D01*
X111480568Y-110994008D01*
X111480566Y-110994005D01*
X111480566Y-110994003D01*
X111395723Y-110827491D01*
X111373343Y-110783567D01*
X111234517Y-110592490D01*
X111067510Y-110425483D01*
X111032872Y-110400317D01*
X110990207Y-110344989D01*
X110984228Y-110275375D01*
X111016833Y-110213580D01*
X111032873Y-110199682D01*
X111067510Y-110174517D01*
X111234517Y-110007510D01*
X111372460Y-109817648D01*
X116419500Y-109817648D01*
X116419500Y-110022351D01*
X116451522Y-110224534D01*
X116514781Y-110419223D01*
X116561252Y-110510426D01*
X116603066Y-110592490D01*
X116607715Y-110601613D01*
X116728028Y-110767213D01*
X116872786Y-110911971D01*
X116994619Y-111000486D01*
X117038390Y-111032287D01*
X117154607Y-111091503D01*
X117220776Y-111125218D01*
X117220778Y-111125218D01*
X117220781Y-111125220D01*
X117325137Y-111159127D01*
X117415465Y-111188477D01*
X117516557Y-111204488D01*
X117617648Y-111220500D01*
X117617649Y-111220500D01*
X117822351Y-111220500D01*
X117822352Y-111220500D01*
X118024534Y-111188477D01*
X118219219Y-111125220D01*
X118401610Y-111032287D01*
X118511412Y-110952512D01*
X118567213Y-110911971D01*
X118567215Y-110911968D01*
X118567219Y-110911966D01*
X118711966Y-110767219D01*
X118711968Y-110767215D01*
X118711971Y-110767213D01*
X118764732Y-110694590D01*
X118832287Y-110601610D01*
X118925220Y-110419219D01*
X118988477Y-110224534D01*
X119020500Y-110022352D01*
X119020500Y-109817648D01*
X126579500Y-109817648D01*
X126579500Y-110022351D01*
X126611522Y-110224534D01*
X126674781Y-110419223D01*
X126721252Y-110510426D01*
X126763066Y-110592490D01*
X126767715Y-110601613D01*
X126888028Y-110767213D01*
X127032786Y-110911971D01*
X127154619Y-111000486D01*
X127198390Y-111032287D01*
X127314607Y-111091503D01*
X127380776Y-111125218D01*
X127380778Y-111125218D01*
X127380781Y-111125220D01*
X127485137Y-111159127D01*
X127575465Y-111188477D01*
X127676557Y-111204488D01*
X127777648Y-111220500D01*
X127777649Y-111220500D01*
X127982351Y-111220500D01*
X127982352Y-111220500D01*
X128184534Y-111188477D01*
X128379219Y-111125220D01*
X128561610Y-111032287D01*
X128671412Y-110952512D01*
X128727213Y-110911971D01*
X128727215Y-110911968D01*
X128727219Y-110911966D01*
X128871966Y-110767219D01*
X128871968Y-110767215D01*
X128871971Y-110767213D01*
X128924732Y-110694590D01*
X128992287Y-110601610D01*
X129085220Y-110419219D01*
X129148477Y-110224534D01*
X129180500Y-110022352D01*
X129180500Y-109817648D01*
X129166030Y-109726287D01*
X129148477Y-109615465D01*
X129111951Y-109503051D01*
X129085220Y-109420781D01*
X129085218Y-109420778D01*
X129085218Y-109420776D01*
X129051503Y-109354607D01*
X128992287Y-109238390D01*
X128984556Y-109227749D01*
X128871971Y-109072786D01*
X128727213Y-108928028D01*
X128561613Y-108807715D01*
X128561612Y-108807714D01*
X128561610Y-108807713D01*
X128504653Y-108778691D01*
X128379223Y-108714781D01*
X128184534Y-108651522D01*
X128009995Y-108623878D01*
X127982352Y-108619500D01*
X127777648Y-108619500D01*
X127753329Y-108623351D01*
X127575465Y-108651522D01*
X127380776Y-108714781D01*
X127198386Y-108807715D01*
X127032786Y-108928028D01*
X126888028Y-109072786D01*
X126767715Y-109238386D01*
X126674781Y-109420776D01*
X126611522Y-109615465D01*
X126579500Y-109817648D01*
X119020500Y-109817648D01*
X119006030Y-109726287D01*
X118988477Y-109615465D01*
X118951951Y-109503051D01*
X118925220Y-109420781D01*
X118925218Y-109420778D01*
X118925218Y-109420776D01*
X118891503Y-109354607D01*
X118832287Y-109238390D01*
X118824556Y-109227749D01*
X118711971Y-109072786D01*
X118567213Y-108928028D01*
X118401613Y-108807715D01*
X118401612Y-108807714D01*
X118401610Y-108807713D01*
X118344653Y-108778691D01*
X118219223Y-108714781D01*
X118024534Y-108651522D01*
X117849995Y-108623878D01*
X117822352Y-108619500D01*
X117617648Y-108619500D01*
X117593329Y-108623351D01*
X117415465Y-108651522D01*
X117220776Y-108714781D01*
X117038386Y-108807715D01*
X116872786Y-108928028D01*
X116728028Y-109072786D01*
X116607715Y-109238386D01*
X116514781Y-109420776D01*
X116451522Y-109615465D01*
X116419500Y-109817648D01*
X111372460Y-109817648D01*
X111373343Y-109816433D01*
X111480568Y-109605992D01*
X111553553Y-109381368D01*
X111565845Y-109303760D01*
X111590500Y-109148097D01*
X111590500Y-108911902D01*
X111553553Y-108678631D01*
X111511595Y-108549500D01*
X111480568Y-108454008D01*
X111480566Y-108454005D01*
X111480566Y-108454003D01*
X111395723Y-108287491D01*
X111373343Y-108243567D01*
X111234517Y-108052490D01*
X111067510Y-107885483D01*
X111032872Y-107860317D01*
X110990207Y-107804989D01*
X110984228Y-107735375D01*
X111016833Y-107673580D01*
X111032873Y-107659682D01*
X111067510Y-107634517D01*
X111234517Y-107467510D01*
X111373343Y-107276433D01*
X111480568Y-107065992D01*
X111553553Y-106841368D01*
X111565845Y-106763760D01*
X111590500Y-106608097D01*
X111590500Y-106371902D01*
X111553553Y-106138631D01*
X111519689Y-106034412D01*
X111480568Y-105914008D01*
X111480566Y-105914005D01*
X111480566Y-105914003D01*
X111395723Y-105747491D01*
X111373343Y-105703567D01*
X111234517Y-105512490D01*
X111067510Y-105345483D01*
X111032872Y-105320317D01*
X110990207Y-105264989D01*
X110984228Y-105195375D01*
X111016833Y-105133580D01*
X111032873Y-105119682D01*
X111067510Y-105094517D01*
X111234517Y-104927510D01*
X111373343Y-104736433D01*
X111480568Y-104525992D01*
X111553553Y-104301368D01*
X111565845Y-104223760D01*
X111590500Y-104068097D01*
X111590500Y-103831902D01*
X111553553Y-103598631D01*
X111516619Y-103484962D01*
X111480568Y-103374008D01*
X111480566Y-103374005D01*
X111480566Y-103374003D01*
X111395568Y-103207187D01*
X111373343Y-103163567D01*
X111234517Y-102972490D01*
X111067510Y-102805483D01*
X111032872Y-102780317D01*
X110990207Y-102724989D01*
X110984228Y-102655375D01*
X111016833Y-102593580D01*
X111032873Y-102579682D01*
X111067510Y-102554517D01*
X111234517Y-102387510D01*
X111373343Y-102196433D01*
X111480568Y-101985992D01*
X111553553Y-101761368D01*
X111562928Y-101702179D01*
X111590500Y-101528097D01*
X111590500Y-101291902D01*
X111553553Y-101058631D01*
X111480566Y-100834003D01*
X111397971Y-100671902D01*
X111373343Y-100623567D01*
X111234517Y-100432490D01*
X111067510Y-100265483D01*
X111008282Y-100222451D01*
X110965617Y-100167122D01*
X110957550Y-100112404D01*
X110959104Y-100092657D01*
X110219408Y-99352962D01*
X110282993Y-99335925D01*
X110397007Y-99270099D01*
X110490099Y-99177007D01*
X110555925Y-99062993D01*
X110572962Y-98999408D01*
X111312658Y-99739105D01*
X111312659Y-99739104D01*
X111351245Y-99685996D01*
X111351245Y-99685995D01*
X111372909Y-99656178D01*
X111372918Y-99656163D01*
X111480102Y-99445802D01*
X111553065Y-99221247D01*
X111590000Y-98988052D01*
X111590000Y-98751947D01*
X111553065Y-98518752D01*
X111480102Y-98294197D01*
X111372914Y-98083828D01*
X111312658Y-98000894D01*
X111312658Y-98000893D01*
X110572962Y-98740590D01*
X110555925Y-98677007D01*
X110490099Y-98562993D01*
X110397007Y-98469901D01*
X110282993Y-98404075D01*
X110219409Y-98387037D01*
X110959105Y-97647340D01*
X110957551Y-97627594D01*
X110971915Y-97559216D01*
X111008284Y-97517547D01*
X111067510Y-97474517D01*
X111234517Y-97307510D01*
X111373343Y-97116433D01*
X111480568Y-96905992D01*
X111553553Y-96681368D01*
X111570216Y-96576163D01*
X111590500Y-96448097D01*
X111590500Y-96432135D01*
X116704500Y-96432135D01*
X116704500Y-98227870D01*
X116704501Y-98227876D01*
X116710908Y-98287483D01*
X116761202Y-98422328D01*
X116761206Y-98422335D01*
X116847452Y-98537544D01*
X116847455Y-98537547D01*
X116962664Y-98623793D01*
X116962671Y-98623797D01*
X117007618Y-98640561D01*
X117097517Y-98674091D01*
X117157127Y-98680500D01*
X117167685Y-98680499D01*
X117234723Y-98700179D01*
X117255372Y-98716818D01*
X117925591Y-99387037D01*
X117862007Y-99404075D01*
X117747993Y-99469901D01*
X117654901Y-99562993D01*
X117589075Y-99677007D01*
X117572037Y-99740591D01*
X116939728Y-99108282D01*
X116939727Y-99108282D01*
X116900380Y-99162439D01*
X116803904Y-99351782D01*
X116738242Y-99553869D01*
X116738242Y-99553872D01*
X116705000Y-99763753D01*
X116705000Y-99976246D01*
X116738242Y-100186127D01*
X116738242Y-100186130D01*
X116803904Y-100388217D01*
X116900375Y-100577550D01*
X116939728Y-100631716D01*
X117572037Y-99999408D01*
X117589075Y-100062993D01*
X117654901Y-100177007D01*
X117747993Y-100270099D01*
X117862007Y-100335925D01*
X117925590Y-100352962D01*
X117293282Y-100985269D01*
X117293282Y-100985270D01*
X117347452Y-101024626D01*
X117347451Y-101024626D01*
X117356495Y-101029234D01*
X117407292Y-101077208D01*
X117424087Y-101145029D01*
X117401550Y-101211164D01*
X117356499Y-101250202D01*
X117347182Y-101254949D01*
X117175213Y-101379890D01*
X117024890Y-101530213D01*
X116899951Y-101702179D01*
X116803444Y-101891585D01*
X116737753Y-102093760D01*
X116704500Y-102303713D01*
X116704500Y-102516286D01*
X116726529Y-102655375D01*
X116737754Y-102726243D01*
X116793505Y-102897827D01*
X116803444Y-102928414D01*
X116899951Y-103117820D01*
X117024890Y-103289786D01*
X117175213Y-103440109D01*
X117347182Y-103565050D01*
X117355946Y-103569516D01*
X117406742Y-103617491D01*
X117423536Y-103685312D01*
X117400998Y-103751447D01*
X117355946Y-103790484D01*
X117347182Y-103794949D01*
X117175213Y-103919890D01*
X117024890Y-104070213D01*
X116899951Y-104242179D01*
X116803444Y-104431585D01*
X116737753Y-104633760D01*
X116704500Y-104843713D01*
X116704500Y-105056286D01*
X116726529Y-105195375D01*
X116737754Y-105266243D01*
X116800547Y-105459500D01*
X116803444Y-105468414D01*
X116899951Y-105657820D01*
X117024890Y-105829786D01*
X117175213Y-105980109D01*
X117347179Y-106105048D01*
X117347181Y-106105049D01*
X117347184Y-106105051D01*
X117536588Y-106201557D01*
X117738757Y-106267246D01*
X117948713Y-106300500D01*
X117948714Y-106300500D01*
X118161286Y-106300500D01*
X118161287Y-106300500D01*
X118371243Y-106267246D01*
X118573412Y-106201557D01*
X118762816Y-106105051D01*
X118796275Y-106080742D01*
X118934786Y-105980109D01*
X118934788Y-105980106D01*
X118934792Y-105980104D01*
X119085104Y-105829792D01*
X119085106Y-105829788D01*
X119085109Y-105829786D01*
X119210048Y-105657820D01*
X119210047Y-105657820D01*
X119210051Y-105657816D01*
X119306557Y-105468412D01*
X119372246Y-105266243D01*
X119405500Y-105056287D01*
X119405500Y-104843713D01*
X119372246Y-104633757D01*
X119306557Y-104431588D01*
X119210051Y-104242184D01*
X119210049Y-104242181D01*
X119210048Y-104242179D01*
X119085109Y-104070213D01*
X118934786Y-103919890D01*
X118762820Y-103794951D01*
X118762115Y-103794591D01*
X118754054Y-103790485D01*
X118703259Y-103742512D01*
X118686463Y-103674692D01*
X118708999Y-103608556D01*
X118754054Y-103569515D01*
X118762816Y-103565051D01*
X118873050Y-103484962D01*
X118934786Y-103440109D01*
X118934788Y-103440106D01*
X118934792Y-103440104D01*
X119085104Y-103289792D01*
X119085106Y-103289788D01*
X119085109Y-103289786D01*
X119210048Y-103117820D01*
X119210047Y-103117820D01*
X119210051Y-103117816D01*
X119306557Y-102928412D01*
X119372246Y-102726243D01*
X119405500Y-102516287D01*
X119405500Y-102303713D01*
X119372246Y-102093757D01*
X119306557Y-101891588D01*
X119210051Y-101702184D01*
X119210049Y-101702181D01*
X119210048Y-101702179D01*
X119085109Y-101530213D01*
X118934786Y-101379890D01*
X118762817Y-101254949D01*
X118753504Y-101250204D01*
X118702707Y-101202230D01*
X118685912Y-101134409D01*
X118708449Y-101068274D01*
X118753507Y-101029232D01*
X118762555Y-101024622D01*
X118816716Y-100985270D01*
X118816717Y-100985270D01*
X118184408Y-100352962D01*
X118247993Y-100335925D01*
X118362007Y-100270099D01*
X118455099Y-100177007D01*
X118520925Y-100062993D01*
X118537962Y-99999408D01*
X119170270Y-100631717D01*
X119170270Y-100631716D01*
X119209622Y-100577554D01*
X119306095Y-100388217D01*
X119371757Y-100186130D01*
X119371757Y-100186127D01*
X119405000Y-99976246D01*
X119405000Y-99763753D01*
X119371757Y-99553872D01*
X119371757Y-99553869D01*
X119306095Y-99351782D01*
X119209624Y-99162449D01*
X119170270Y-99108282D01*
X119170269Y-99108282D01*
X118537962Y-99740590D01*
X118520925Y-99677007D01*
X118455099Y-99562993D01*
X118362007Y-99469901D01*
X118247993Y-99404075D01*
X118184409Y-99387037D01*
X118854627Y-98716818D01*
X118915950Y-98683333D01*
X118942307Y-98680499D01*
X118952872Y-98680499D01*
X119012483Y-98674091D01*
X119083289Y-98647682D01*
X135432651Y-98647682D01*
X135432651Y-98852317D01*
X135464660Y-99054417D01*
X135527895Y-99249031D01*
X135620792Y-99431350D01*
X135620798Y-99431359D01*
X135653174Y-99475921D01*
X135653175Y-99475922D01*
X136332651Y-98796446D01*
X136332651Y-98802661D01*
X136359910Y-98904394D01*
X136412571Y-98995606D01*
X136487045Y-99070080D01*
X136578257Y-99122741D01*
X136679990Y-99150000D01*
X136686204Y-99150000D01*
X136006727Y-99829474D01*
X136051301Y-99861859D01*
X136233619Y-99954755D01*
X136428233Y-100017990D01*
X136630334Y-100050000D01*
X136834968Y-100050000D01*
X137037068Y-100017990D01*
X137231682Y-99954755D01*
X137414000Y-99861859D01*
X137458572Y-99829474D01*
X136779098Y-99150000D01*
X136785312Y-99150000D01*
X136887045Y-99122741D01*
X136978257Y-99070080D01*
X137052731Y-98995606D01*
X137105392Y-98904394D01*
X137132651Y-98802661D01*
X137132651Y-98796448D01*
X137812125Y-99475922D01*
X137812125Y-99475921D01*
X137844510Y-99431349D01*
X137937406Y-99249031D01*
X138000641Y-99054417D01*
X138032651Y-98852317D01*
X138032651Y-98647682D01*
X138000641Y-98445582D01*
X137937405Y-98250965D01*
X137913032Y-98203130D01*
X137913031Y-98203129D01*
X137885952Y-98149983D01*
X140432151Y-98149983D01*
X140432151Y-99350001D01*
X140432152Y-99350018D01*
X140442651Y-99452796D01*
X140442652Y-99452799D01*
X140460499Y-99506657D01*
X140497837Y-99619334D01*
X140589939Y-99768656D01*
X140713995Y-99892712D01*
X140863317Y-99984814D01*
X141029854Y-100039999D01*
X141132642Y-100050500D01*
X142332659Y-100050499D01*
X142435448Y-100039999D01*
X142601985Y-99984814D01*
X142751307Y-99892712D01*
X142875363Y-99768656D01*
X142967465Y-99619334D01*
X143022650Y-99452797D01*
X143033151Y-99350009D01*
X143033150Y-98149992D01*
X143026391Y-98083830D01*
X143022650Y-98047203D01*
X143022649Y-98047200D01*
X143014986Y-98024076D01*
X142967465Y-97880666D01*
X142875363Y-97731344D01*
X142751307Y-97607288D01*
X142605813Y-97517547D01*
X142601987Y-97515187D01*
X142601982Y-97515185D01*
X142555197Y-97499682D01*
X142435448Y-97460001D01*
X142435446Y-97460000D01*
X142332661Y-97449500D01*
X141132649Y-97449500D01*
X141132632Y-97449501D01*
X141029854Y-97460000D01*
X141029851Y-97460001D01*
X140863319Y-97515185D01*
X140863314Y-97515187D01*
X140713993Y-97607289D01*
X140589940Y-97731342D01*
X140497838Y-97880663D01*
X140497836Y-97880668D01*
X140470000Y-97964670D01*
X140442652Y-98047203D01*
X140442652Y-98047204D01*
X140442651Y-98047204D01*
X140432151Y-98149983D01*
X137885952Y-98149983D01*
X137844510Y-98068650D01*
X137812125Y-98024077D01*
X137812125Y-98024076D01*
X137132651Y-98703551D01*
X137132651Y-98697339D01*
X137105392Y-98595606D01*
X137052731Y-98504394D01*
X136978257Y-98429920D01*
X136887045Y-98377259D01*
X136785312Y-98350000D01*
X136779097Y-98350000D01*
X137458573Y-97670524D01*
X137458572Y-97670523D01*
X137414010Y-97638147D01*
X137414001Y-97638141D01*
X137231682Y-97545244D01*
X137037068Y-97482009D01*
X136834968Y-97450000D01*
X136630334Y-97450000D01*
X136428233Y-97482009D01*
X136233619Y-97545244D01*
X136051295Y-97638143D01*
X136006728Y-97670523D01*
X136006728Y-97670524D01*
X136686205Y-98350000D01*
X136679990Y-98350000D01*
X136578257Y-98377259D01*
X136487045Y-98429920D01*
X136412571Y-98504394D01*
X136359910Y-98595606D01*
X136332651Y-98697339D01*
X136332651Y-98703553D01*
X135653175Y-98024077D01*
X135653174Y-98024077D01*
X135620794Y-98068644D01*
X135527895Y-98250968D01*
X135464660Y-98445582D01*
X135432651Y-98647682D01*
X119083289Y-98647682D01*
X119147331Y-98623796D01*
X119262546Y-98537546D01*
X119348796Y-98422331D01*
X119399091Y-98287483D01*
X119405500Y-98227873D01*
X119405499Y-97307512D01*
X119405499Y-96432129D01*
X119405498Y-96432123D01*
X119405497Y-96432116D01*
X119399091Y-96372517D01*
X119396586Y-96365802D01*
X119348797Y-96237671D01*
X119348793Y-96237664D01*
X119262547Y-96122455D01*
X119262544Y-96122452D01*
X119147335Y-96036206D01*
X119147328Y-96036202D01*
X119012482Y-95985908D01*
X119012483Y-95985908D01*
X118952883Y-95979501D01*
X118952881Y-95979500D01*
X118952873Y-95979500D01*
X118952864Y-95979500D01*
X117157129Y-95979500D01*
X117157123Y-95979501D01*
X117097516Y-95985908D01*
X116962671Y-96036202D01*
X116962664Y-96036206D01*
X116847455Y-96122452D01*
X116847452Y-96122455D01*
X116761206Y-96237664D01*
X116761202Y-96237671D01*
X116710908Y-96372517D01*
X116704501Y-96432116D01*
X116704501Y-96432123D01*
X116704500Y-96432135D01*
X111590500Y-96432135D01*
X111590500Y-96211902D01*
X111553553Y-95978631D01*
X111492263Y-95790001D01*
X111480568Y-95754008D01*
X111480566Y-95754005D01*
X111480566Y-95754003D01*
X111373342Y-95543566D01*
X111329333Y-95482993D01*
X111234517Y-95352490D01*
X111067510Y-95185483D01*
X110876433Y-95046657D01*
X110665996Y-94939433D01*
X110441368Y-94866446D01*
X110208097Y-94829500D01*
X110208092Y-94829500D01*
X109971908Y-94829500D01*
X109971903Y-94829500D01*
X109738631Y-94866446D01*
X109514003Y-94939433D01*
X109303566Y-95046657D01*
X109194550Y-95125862D01*
X109112490Y-95185483D01*
X109112488Y-95185485D01*
X109112487Y-95185485D01*
X108945485Y-95352487D01*
X108945485Y-95352488D01*
X108945483Y-95352490D01*
X108885862Y-95434550D01*
X108806657Y-95543566D01*
X108699433Y-95754003D01*
X108626446Y-95978631D01*
X108589500Y-96211902D01*
X96590500Y-96211902D01*
X96553553Y-95978631D01*
X96492263Y-95790001D01*
X96480568Y-95754008D01*
X96480566Y-95754005D01*
X96480566Y-95754003D01*
X96373342Y-95543566D01*
X96329333Y-95482993D01*
X96234517Y-95352490D01*
X96067510Y-95185483D01*
X95876433Y-95046657D01*
X95665996Y-94939433D01*
X95441368Y-94866446D01*
X95208097Y-94829500D01*
X95208092Y-94829500D01*
X94971908Y-94829500D01*
X94971903Y-94829500D01*
X94738631Y-94866446D01*
X94514003Y-94939433D01*
X94303566Y-95046657D01*
X94194550Y-95125862D01*
X94112490Y-95185483D01*
X94112488Y-95185485D01*
X94112487Y-95185485D01*
X93945485Y-95352487D01*
X93945485Y-95352488D01*
X93945483Y-95352490D01*
X93885862Y-95434550D01*
X93806657Y-95543566D01*
X93699433Y-95754003D01*
X93626446Y-95978631D01*
X93589500Y-96211902D01*
X85310108Y-96211902D01*
X85324140Y-96168718D01*
X85333065Y-96141247D01*
X85370000Y-95908052D01*
X85370000Y-95671947D01*
X85333065Y-95438752D01*
X85260102Y-95214197D01*
X85152914Y-95003828D01*
X85092658Y-94920894D01*
X85092658Y-94920893D01*
X84352962Y-95660590D01*
X84335925Y-95597007D01*
X84270099Y-95482993D01*
X84177007Y-95389901D01*
X84062993Y-95324075D01*
X83999409Y-95307037D01*
X84739105Y-94567340D01*
X84739104Y-94567338D01*
X84656174Y-94507087D01*
X84445802Y-94399897D01*
X84221247Y-94326934D01*
X84221248Y-94326934D01*
X83988052Y-94290000D01*
X83751948Y-94290000D01*
X83518752Y-94326934D01*
X83294197Y-94399897D01*
X83083830Y-94507084D01*
X83000894Y-94567340D01*
X83740591Y-95307037D01*
X83677007Y-95324075D01*
X83562993Y-95389901D01*
X83469901Y-95482993D01*
X83404075Y-95597007D01*
X83387037Y-95660590D01*
X82647340Y-94920894D01*
X82587084Y-95003830D01*
X82479897Y-95214197D01*
X82406934Y-95438752D01*
X82370000Y-95671947D01*
X75290000Y-95671947D01*
X75290000Y-93425149D01*
X75309685Y-93358110D01*
X75362489Y-93312355D01*
X75413083Y-93301152D01*
X148825089Y-92761359D01*
X148892271Y-92780550D01*
G37*
G04 #@! TD.AperFunction*
G04 #@! TD*
M02*
